<svg width="25" height="25" viewBox="0 0 25 25" fill="none" xmlns="http://www.w3.org/2000/svg">
<path d="M11.1111 1.5625C10.3429 1.5625 9.72222 2.26074 9.72222 3.125V8.10058C9.72222 8.37402 9.52691 8.59375 9.28385 8.59375C9.1276 8.59375 8.98003 8.50098 8.90191 8.34473L6.81858 4.24805C3.60243 6.03027 1.38889 9.75586 1.38889 14.0625V17.1875H23.6111V13.9453C23.572 9.6875 21.3672 6.01562 18.1814 4.24805L16.0981 8.34473C16.02 8.50098 15.8724 8.59375 15.7161 8.59375C15.4731 8.59375 15.2778 8.37402 15.2778 8.10058V3.125C15.2778 2.26074 14.6571 1.5625 13.8889 1.5625H11.1111ZM0.720486 18.75C0.321181 18.75 0 19.1113 0 19.5605C0 19.79 0.0868056 20.0098 0.251736 20.1416C1.19358 20.918 4.85243 23.4375 12.5 23.4375C20.1476 23.4375 23.8064 20.918 24.7483 20.1416C24.9132 20.0049 25 19.79 25 19.5605C25 19.1113 24.6788 18.75 24.2795 18.75H0.720486Z" fill="#1E1E1E"/>
</svg>
