<svg width="21" height="23" viewBox="0 0 21 23" fill="none" xmlns="http://www.w3.org/2000/svg">
<path d="M10.7319 1.08594H10.2735C9.72099 1.08594 9.19108 1.30543 8.80038 1.69613C8.40968 2.08683 8.19019 2.61674 8.19019 3.16927V3.35677C8.18981 3.72211 8.09337 4.08093 7.91054 4.39723C7.72771 4.71353 7.46491 4.97618 7.14852 5.15885L6.7006 5.41927C6.3839 5.60212 6.02464 5.69839 5.65894 5.69839C5.29324 5.69839 4.93398 5.60212 4.61727 5.41927L4.46102 5.33594C3.98296 5.06017 3.41502 4.98536 2.88186 5.12793C2.34869 5.27049 1.89389 5.61879 1.61727 6.09635L1.3881 6.49219C1.11234 6.97025 1.03752 7.53819 1.18009 8.07135C1.32266 8.60451 1.67095 9.05932 2.14852 9.33594L2.30477 9.44011C2.61964 9.62189 2.88146 9.88291 3.0642 10.1972C3.24694 10.5115 3.34424 10.8682 3.34644 11.2318V11.763C3.34789 12.1301 3.25232 12.4911 3.0694 12.8094C2.88648 13.1277 2.6227 13.392 2.30477 13.5755L2.14852 13.6693C1.67095 13.9459 1.32266 14.4007 1.18009 14.9339C1.03752 15.467 1.11234 16.035 1.3881 16.513L1.61727 16.9089C1.89389 17.3864 2.34869 17.7347 2.88186 17.8773C3.41502 18.0199 3.98296 17.945 4.46102 17.6693L4.61727 17.5859C4.93398 17.4031 5.29324 17.3068 5.65894 17.3068C6.02464 17.3068 6.3839 17.4031 6.7006 17.5859L7.14852 17.8464C7.46491 18.029 7.72771 18.2917 7.91054 18.608C8.09337 18.9243 8.18981 19.2831 8.19019 19.6484V19.8359C8.19019 20.3885 8.40968 20.9184 8.80038 21.3091C9.19108 21.6998 9.72099 21.9193 10.2735 21.9193H10.7319C11.2844 21.9193 11.8143 21.6998 12.205 21.3091C12.5957 20.9184 12.8152 20.3885 12.8152 19.8359V19.6484C12.8156 19.2831 12.912 18.9243 13.0948 18.608C13.2777 18.2917 13.5405 18.029 13.8569 17.8464L14.3048 17.5859C14.6215 17.4031 14.9807 17.3068 15.3464 17.3068C15.7121 17.3068 16.0714 17.4031 16.3881 17.5859L16.5444 17.6693C17.0224 17.945 17.5904 18.0199 18.1235 17.8773C18.6567 17.7347 19.1115 17.3864 19.3881 16.9089L19.6173 16.5026C19.893 16.0245 19.9678 15.4566 19.8253 14.9234C19.6827 14.3903 19.3344 13.9355 18.8569 13.6589L18.7006 13.5755C18.3827 13.392 18.1189 13.1277 17.936 12.8094C17.7531 12.4911 17.6575 12.1301 17.6589 11.763V11.2422C17.6575 10.8751 17.7531 10.5141 17.936 10.1958C18.1189 9.87754 18.3827 9.61324 18.7006 9.42969L18.8569 9.33594C19.3344 9.05932 19.6827 8.60451 19.8253 8.07135C19.9678 7.53819 19.893 6.97025 19.6173 6.49219L19.3881 6.09635C19.1115 5.61879 18.6567 5.27049 18.1235 5.12793C17.5904 4.98536 17.0224 5.06017 16.5444 5.33594L16.3881 5.41927C16.0714 5.60212 15.7121 5.69839 15.3464 5.69839C14.9807 5.69839 14.6215 5.60212 14.3048 5.41927L13.8569 5.15885C13.5405 4.97618 13.2777 4.71353 13.0948 4.39723C12.912 4.08093 12.8156 3.72211 12.8152 3.35677V3.16927C12.8152 2.61674 12.5957 2.08683 12.205 1.69613C11.8143 1.30543 11.2844 1.08594 10.7319 1.08594Z" stroke="#1E1E1E" strokeWidth="2" strokeLinecap="round" strokeLinejoin="round"/>
<path d="M10.5 14.625C12.2259 14.625 13.625 13.2259 13.625 11.5C13.625 9.77411 12.2259 8.375 10.5 8.375C8.77411 8.375 7.375 9.77411 7.375 11.5C7.375 13.2259 8.77411 14.625 10.5 14.625Z" stroke="#1E1E1E" strokeWidth="2" strokeLinecap="round" strokeLinejoin="round"/>
</svg>
