<svg width="25" height="25" viewBox="0 0 25 25" fill="none" xmlns="http://www.w3.org/2000/svg">
<path fillRule="evenodd" clipRule="evenodd" d="M12.5 3.75C12.8315 3.75 13.1495 3.8817 13.3839 4.11612C13.6183 4.35054 13.75 4.66848 13.75 5V11.25H20C20.3315 11.25 20.6495 11.3817 20.8839 11.6161C21.1183 11.8505 21.25 12.1685 21.25 12.5C21.25 12.8315 21.1183 13.1495 20.8839 13.3839C20.6495 13.6183 20.3315 13.75 20 13.75H13.75V20C13.75 20.3315 13.6183 20.6495 13.3839 20.8839C13.1495 21.1183 12.8315 21.25 12.5 21.25C12.1685 21.25 11.8505 21.1183 11.6161 20.8839C11.3817 20.6495 11.25 20.3315 11.25 20V13.75H5C4.66848 13.75 4.35054 13.6183 4.11612 13.3839C3.8817 13.1495 3.75 12.8315 3.75 12.5C3.75 12.1685 3.8817 11.8505 4.11612 11.6161C4.35054 11.3817 4.66848 11.25 5 11.25H11.25V5C11.25 4.66848 11.3817 4.35054 11.6161 4.11612C11.8505 3.8817 12.1685 3.75 12.5 3.75Z" fill="#1E1E1E"/>
</svg>
