<svg width="25" height="25" viewBox="0 0 25 25" fill="none" xmlns="http://www.w3.org/2000/svg">
<path d="M3.75 5C3.75 4.66848 3.8817 4.35054 4.11612 4.11612C4.35054 3.8817 4.66848 3.75 5 3.75H20C20.3315 3.75 20.6495 3.8817 20.8839 4.11612C21.1183 4.35054 21.25 4.66848 21.25 5V7.5C21.25 7.83152 21.1183 8.14946 20.8839 8.38388C20.6495 8.6183 20.3315 8.75 20 8.75H5C4.66848 8.75 4.35054 8.6183 4.11612 8.38388C3.8817 8.14946 3.75 7.83152 3.75 7.5V5ZM3.75 12.5C3.75 12.1685 3.8817 11.8505 4.11612 11.6161C4.35054 11.3817 4.66848 11.25 5 11.25H12.5C12.8315 11.25 13.1495 11.3817 13.3839 11.6161C13.6183 11.8505 13.75 12.1685 13.75 12.5V20C13.75 20.3315 13.6183 20.6495 13.3839 20.8839C13.1495 21.1183 12.8315 21.25 12.5 21.25H5C4.66848 21.25 4.35054 21.1183 4.11612 20.8839C3.8817 20.6495 3.75 20.3315 3.75 20V12.5ZM17.5 11.25C17.1685 11.25 16.8505 11.3817 16.6161 11.6161C16.3817 11.8505 16.25 12.1685 16.25 12.5V20C16.25 20.3315 16.3817 20.6495 16.6161 20.8839C16.8505 21.1183 17.1685 21.25 17.5 21.25H20C20.3315 21.25 20.6495 21.1183 20.8839 20.8839C21.1183 20.6495 21.25 20.3315 21.25 20V12.5C21.25 12.1685 21.1183 11.8505 20.8839 11.6161C20.6495 11.3817 20.3315 11.25 20 11.25H17.5Z" fill="#1E1E1E"/>
</svg>
