<svg width="25" height="25" viewBox="0 0 25 25" fill="none" xmlns="http://www.w3.org/2000/svg">
<path d="M9.375 4.16406V5.60156C8.51042 5.25781 7.58333 5.08073 6.65625 5.08073C4.79167 5.08073 2.92708 5.78906 1.5 7.21615L4.96875 10.6849H6.125V11.8411C7.02083 12.737 8.1875 13.2057 9.36458 13.2578V15.6224H6.25V18.7474C6.25 19.8932 7.1875 20.8307 8.33333 20.8307H18.75C20.4792 20.8307 21.875 19.4349 21.875 17.7057V4.16406H9.375ZM8.21875 10.8411V8.60156H5.84375L4.76042 7.51823C5.36527 7.28481 6.00792 7.16475 6.65625 7.16406C8.05208 7.16406 9.35417 7.70573 10.3438 8.6849L11.8125 10.1536L11.6042 10.362C11.3425 10.6262 11.0309 10.8359 10.6876 10.979C10.3443 11.122 9.97608 11.1955 9.60417 11.1953C9.11458 11.1953 8.63542 11.0703 8.21875 10.8411ZM19.7917 17.7057C19.7917 18.2786 19.3229 18.7474 18.75 18.7474C18.1771 18.7474 17.7083 18.2786 17.7083 17.7057V15.6224H11.4583V12.9245C12.0521 12.6849 12.6042 12.3307 13.0833 11.8516L13.2917 11.6432L16.2396 14.5807H17.7083V13.112L11.4583 6.89323V6.2474H19.7917V17.7057Z" fill="#1E1E1E"/>
</svg>
