<svg width="50" height="50" viewBox="0 0 50 50" fill="none" xmlns="http://www.w3.org/2000/svg">
<circle cx="25" cy="25" r="25" fill="#E2F3FF"/>
<path d="M23.3333 11.875C22.4115 11.875 21.6667 12.7129 21.6667 13.75V19.7207C21.6667 20.0488 21.4323 20.3125 21.1406 20.3125C20.9531 20.3125 20.776 20.2012 20.6823 20.0137L18.1823 15.0977C14.3229 17.2363 11.6667 21.707 11.6667 26.875V30.625H38.3333V26.7344C38.2865 21.625 35.6406 17.2187 31.8177 15.0977L29.3177 20.0137C29.224 20.2012 29.0469 20.3125 28.8594 20.3125C28.5677 20.3125 28.3333 20.0488 28.3333 19.7207V13.75C28.3333 12.7129 27.5885 11.875 26.6667 11.875H23.3333ZM10.8646 32.5C10.3854 32.5 10 32.9336 10 33.4727C10 33.748 10.1042 34.0117 10.3021 34.1699C11.4323 35.1016 15.8229 38.125 25 38.125C34.1771 38.125 38.5677 35.1016 39.6979 34.1699C39.8958 34.0059 40 33.748 40 33.4727C40 32.9336 39.6146 32.5 39.1354 32.5H10.8646Z" fill="#0063F7"/>
</svg>
