<svg width="24" height="22" viewBox="0 0 24 22" fill="none" xmlns="http://www.w3.org/2000/svg">
<path d="M12.4514 0.695358C10.9631 0.687204 9.56952 1.77544 8.56796 3.73032C8.56429 3.73745 8.55936 3.74301 8.55575 3.75014L2.10433 14.9548L2.09359 14.9715C0.904967 16.841 0.65482 18.6038 1.39178 19.8985C2.12811 21.1923 3.76615 21.8578 5.95721 21.7495H18.9012C21.093 21.8582 22.7315 21.1926 23.4681 19.8985C24.2049 18.6041 23.9542 16.8421 22.7662 14.973L22.7555 14.9547L16.3727 3.78686C16.3698 3.781 16.3667 3.77588 16.3637 3.77007C15.3408 1.8041 13.9405 0.703512 12.4513 0.695358H12.4514ZM12.4543 1.61548C13.1172 1.62182 13.7459 1.95385 14.3159 2.51113C14.8826 3.06518 15.4172 3.85161 15.9471 4.87168C15.9501 4.87763 15.9532 4.88261 15.9562 4.88852L21.5822 14.7305C21.5838 14.7331 21.585 14.7354 21.5867 14.7381L21.5928 14.7488C22.2237 15.7388 22.6375 16.6072 22.8273 17.3839C23.0182 18.1657 22.9768 18.8804 22.6395 19.4546C22.3022 20.0289 21.701 20.4084 20.9413 20.6219C20.1872 20.8338 19.2563 20.8981 18.1382 20.8416H6.72162C5.50848 20.9031 4.53753 20.826 3.77215 20.5914C3.00165 20.3551 2.42059 19.9347 2.12567 19.337C1.83075 18.7395 1.83944 18.0286 2.05243 17.2649C2.264 16.5064 2.67816 15.6728 3.26703 14.7488L3.27777 14.7304L8.96463 4.85796C8.96854 4.85029 8.97294 4.84428 8.97684 4.83657C9.4992 3.81518 10.027 3.03178 10.5912 2.48374C11.1597 1.93164 11.7914 1.60908 12.4543 1.61557L12.4543 1.61548ZM14.7813 4.64736L13.3882 15.5864H11.3451L9.98397 4.88237C9.91329 5.01102 9.8446 5.14076 9.77792 5.27153L9.77338 5.28217L9.76727 5.29282L4.05741 15.2035L4.05287 15.2126L4.04671 15.2217C3.48212 16.1053 3.10702 16.8807 2.93133 17.5105C2.75565 18.1404 2.77958 18.6005 2.94354 18.9327C3.10751 19.2648 3.42816 19.5323 4.04071 19.72C4.65311 19.9078 5.53827 19.9909 6.6972 19.9306L6.70941 19.9291H18.1505L18.1627 19.9305C19.2296 19.9861 20.082 19.9168 20.6956 19.7445C21.3092 19.572 21.6635 19.3135 21.8522 18.9922C22.041 18.6709 22.0953 18.2332 21.9408 17.6006C21.7862 16.9679 21.4167 16.1663 20.8131 15.2217L20.807 15.2125L20.8009 15.2019L15.1535 5.3249L15.149 5.31718L15.1458 5.30805C15.0238 5.07231 14.9022 4.85268 14.7811 4.64731L14.7813 4.64736ZM11.2946 16.6683H13.4385V18.8121H11.2946V16.6683Z" fill="#1E1E1E"/>
</svg>
