<svg width="18" height="16" viewBox="0 0 18 16" fill="none" xmlns="http://www.w3.org/2000/svg">
<path d="M9.15522 15.5792C8.93549 15.7986 8.63764 15.9219 8.32709 15.9219C8.01655 15.9219 7.7187 15.7986 7.49897 15.5792L0.858344 8.93853C0.63889 8.7188 0.515625 8.42095 0.515625 8.11041C0.515625 7.79986 0.63889 7.50201 0.858344 7.28228L7.49897 0.641657C7.72107 0.434402 8.01498 0.321496 8.31871 0.326743C8.62245 0.33199 8.91228 0.45498 9.12709 0.669781C9.34189 0.884593 9.46489 1.17442 9.47013 1.47816C9.47538 1.7819 9.36247 2.0758 9.15522 2.29791L4.51459 6.93853L16.1396 6.93853C16.4504 6.93853 16.7485 7.062 16.9682 7.28177C17.188 7.50154 17.3115 7.79961 17.3115 8.11041C17.3115 8.42121 17.188 8.71928 16.9682 8.93905C16.7485 9.15882 16.4504 9.28228 16.1396 9.28228H4.51459L9.15522 13.9229C9.37467 14.1426 9.49794 14.4405 9.49794 14.751C9.49794 15.0616 9.37467 15.3594 9.15522 15.5792Z" fill="#1E1E1E"/>
</svg>
