<svg width="50" height="50" viewBox="0 0 50 50" fill="none" xmlns="http://www.w3.org/2000/svg">
<circle cx="25" cy="25" r="25" fill="#E2F3FF"/>
<path d="M28.4425 22.5C29.65 22.5 30.63 23.48 30.63 24.6875V30.6238C30.63 32.1159 30.0372 33.547 28.9821 34.6021C27.927 35.6572 26.4959 36.25 25.0037 36.25C23.5116 36.25 22.0805 35.6572 21.0254 34.6021C19.9703 33.547 19.3775 32.1159 19.3775 30.6238V24.6875C19.3775 23.48 20.3562 22.5 21.565 22.5H28.4425ZM18.9138 22.5C18.4621 23.041 18.1911 23.7097 18.1388 24.4125L18.1262 24.6875V30.6238C18.1262 31.6825 18.3663 32.685 18.7937 33.58C18.3804 33.6925 17.9492 33.7492 17.5 33.75C16.8433 33.75 16.193 33.6206 15.5863 33.3693C14.9796 33.1179 14.4283 32.7495 13.964 32.2851C13.4997 31.8207 13.1314 31.2693 12.8802 30.6626C12.629 30.0558 12.4998 29.4055 12.5 28.7487V24.6875C12.5 24.1385 12.7065 23.6096 13.0783 23.2058C13.4502 22.8019 13.9604 22.5527 14.5075 22.5075L14.6875 22.5H18.9138ZM31.0938 22.5H35.3125C36.52 22.5 37.5 23.48 37.5 24.6875V28.75C37.5002 29.5165 37.3241 30.2727 36.9855 30.9603C36.6468 31.6479 36.1547 32.2484 35.547 32.7155C34.9393 33.1825 34.2323 33.5036 33.4807 33.654C32.7292 33.8043 31.9531 33.7799 31.2125 33.5825C31.5875 32.7975 31.8175 31.9325 31.8688 31.0175L31.88 30.6238V24.6875C31.88 23.8562 31.5863 23.0938 31.0938 22.5ZM25 13.75C25.9946 13.75 26.9484 14.1451 27.6517 14.8483C28.3549 15.5516 28.75 16.5054 28.75 17.5C28.75 18.4946 28.3549 19.4484 27.6517 20.1517C26.9484 20.8549 25.9946 21.25 25 21.25C24.0054 21.25 23.0516 20.8549 22.3483 20.1517C21.6451 19.4484 21.25 18.4946 21.25 17.5C21.25 16.5054 21.6451 15.5516 22.3483 14.8483C23.0516 14.1451 24.0054 13.75 25 13.75ZM33.125 15C33.9538 15 34.7487 15.3292 35.3347 15.9153C35.9208 16.5013 36.25 17.2962 36.25 18.125C36.25 18.9538 35.9208 19.7487 35.3347 20.3347C34.7487 20.9208 33.9538 21.25 33.125 21.25C32.2962 21.25 31.5013 20.9208 30.9153 20.3347C30.3292 19.7487 30 18.9538 30 18.125C30 17.2962 30.3292 16.5013 30.9153 15.9153C31.5013 15.3292 32.2962 15 33.125 15ZM16.875 15C17.7038 15 18.4987 15.3292 19.0847 15.9153C19.6708 16.5013 20 17.2962 20 18.125C20 18.9538 19.6708 19.7487 19.0847 20.3347C18.4987 20.9208 17.7038 21.25 16.875 21.25C16.0462 21.25 15.2513 20.9208 14.6653 20.3347C14.0792 19.7487 13.75 18.9538 13.75 18.125C13.75 17.2962 14.0792 16.5013 14.6653 15.9153C15.2513 15.3292 16.0462 15 16.875 15Z" fill="#0063F7"/>
</svg>
