<svg width="50" height="50" viewBox="0 0 50 50" fill="none" xmlns="http://www.w3.org/2000/svg">
<circle cx="25" cy="25" r="25" fill="#E2F3FF"/>
<path d="M35.3125 20.3125H28.75V13.75C28.75 13.0041 28.4537 12.2887 27.9262 11.7613C27.3988 11.2338 26.6834 10.9375 25.9375 10.9375H14.6875C13.9416 10.9375 13.2262 11.2338 12.6988 11.7613C12.1713 12.2887 11.875 13.0041 11.875 13.75V38.125C11.875 38.3736 11.9738 38.6121 12.1496 38.7879C12.3254 38.9637 12.5639 39.0625 12.8125 39.0625H18.9062C19.0306 39.0625 19.1498 39.0131 19.2377 38.9252C19.3256 38.8373 19.375 38.7181 19.375 38.5938V34.4014C19.375 33.8969 19.7629 33.4639 20.2674 33.4387C20.3941 33.4326 20.5208 33.4523 20.6397 33.4966C20.7587 33.5409 20.8674 33.6088 20.9592 33.6964C21.0511 33.7839 21.1243 33.8892 21.1742 34.0059C21.2242 34.1225 21.25 34.2481 21.25 34.375V38.5938C21.25 38.7181 21.2994 38.8373 21.3873 38.9252C21.4752 39.0131 21.5944 39.0625 21.7188 39.0625H37.1875C37.4361 39.0625 37.6746 38.9637 37.8504 38.7879C38.0262 38.6121 38.125 38.3736 38.125 38.125V23.125C38.125 22.3791 37.8287 21.6637 37.3012 21.1363C36.7738 20.6088 36.0584 20.3125 35.3125 20.3125ZM15.7469 35.3049C15.5527 35.3303 15.3555 35.2942 15.1828 35.2018C15.0102 35.1094 14.8708 34.9652 14.7843 34.7896C14.6978 34.6139 14.6684 34.4156 14.7004 34.2224C14.7323 34.0292 14.8239 33.8508 14.9624 33.7124C15.1008 33.5739 15.2792 33.4823 15.4724 33.4504C15.6656 33.4184 15.8639 33.4478 16.0396 33.5343C16.2152 33.6208 16.3594 33.7602 16.4518 33.9328C16.5442 34.1055 16.5803 34.3027 16.5549 34.4969C16.5281 34.7018 16.4343 34.8921 16.2882 35.0382C16.1421 35.1843 15.9518 35.2781 15.7469 35.3049ZM15.7469 30.6174C15.5527 30.6428 15.3555 30.6067 15.1828 30.5143C15.0102 30.4219 14.8708 30.2777 14.7843 30.1021C14.6978 29.9264 14.6684 29.7281 14.7004 29.5349C14.7323 29.3417 14.8239 29.1633 14.9624 29.0249C15.1008 28.8864 15.2792 28.7948 15.4724 28.7629C15.6656 28.7309 15.8639 28.7603 16.0396 28.8468C16.2152 28.9333 16.3594 29.0727 16.4518 29.2453C16.5442 29.418 16.5803 29.6152 16.5549 29.8094C16.5281 30.0143 16.4343 30.2046 16.2882 30.3507C16.1421 30.4968 15.9518 30.5906 15.7469 30.6174ZM15.7469 25.9299C15.5527 25.9553 15.3555 25.9192 15.1828 25.8268C15.0102 25.7344 14.8708 25.5902 14.7843 25.4146C14.6978 25.2389 14.6684 25.0406 14.7004 24.8474C14.7323 24.6542 14.8239 24.4759 14.9624 24.3374C15.1008 24.1989 15.2792 24.1073 15.4724 24.0754C15.6656 24.0434 15.8639 24.0728 16.0396 24.1593C16.2152 24.2458 16.3594 24.3852 16.4518 24.5578C16.5442 24.7305 16.5803 24.9277 16.5549 25.1219C16.5281 25.3268 16.4343 25.5171 16.2882 25.6632C16.1421 25.8093 15.9518 25.9031 15.7469 25.9299ZM15.7469 21.2424C15.5527 21.2678 15.3555 21.2317 15.1828 21.1393C15.0102 21.0469 14.8708 20.9027 14.7843 20.7271C14.6978 20.5514 14.6684 20.3531 14.7004 20.1599C14.7323 19.9667 14.8239 19.7884 14.9624 19.6499C15.1008 19.5114 15.2792 19.4198 15.4724 19.3879C15.6656 19.3559 15.8639 19.3853 16.0396 19.4718C16.2152 19.5583 16.3594 19.6977 16.4518 19.8703C16.5442 20.043 16.5803 20.2402 16.5549 20.4344C16.5281 20.6393 16.4343 20.8296 16.2882 20.9757C16.1421 21.1218 15.9518 21.2156 15.7469 21.2424ZM15.7469 16.5549C15.5527 16.5803 15.3555 16.5442 15.1828 16.4518C15.0102 16.3594 14.8708 16.2152 14.7843 16.0396C14.6978 15.8639 14.6684 15.6656 14.7004 15.4724C14.7323 15.2792 14.8239 15.1008 14.9624 14.9624C15.1008 14.8239 15.2792 14.7323 15.4724 14.7004C15.6656 14.6684 15.8639 14.6978 16.0396 14.7843C16.2152 14.8708 16.3594 15.0102 16.4518 15.1828C16.5442 15.3555 16.5803 15.5527 16.5549 15.7469C16.5281 15.9518 16.4343 16.1421 16.2882 16.2882C16.1421 16.4343 15.9518 16.5281 15.7469 16.5549ZM20.4344 30.6174C20.2402 30.6428 20.043 30.6067 19.8703 30.5143C19.6977 30.4219 19.5583 30.2777 19.4718 30.1021C19.3853 29.9264 19.3559 29.7281 19.3879 29.5349C19.4198 29.3417 19.5114 29.1633 19.6499 29.0249C19.7884 28.8864 19.9667 28.7948 20.1599 28.7629C20.3531 28.7309 20.5514 28.7603 20.7271 28.8468C20.9027 28.9333 21.0469 29.0727 21.1393 29.2453C21.2317 29.418 21.2678 29.6152 21.2424 29.8094C21.2156 30.0143 21.1218 30.2046 20.9757 30.3507C20.8296 30.4968 20.6393 30.5906 20.4344 30.6174ZM20.4344 25.9299C20.2402 25.9553 20.043 25.9192 19.8703 25.8268C19.6977 25.7344 19.5583 25.5902 19.4718 25.4146C19.3853 25.2389 19.3559 25.0406 19.3879 24.8474C19.4198 24.6542 19.5114 24.4759 19.6499 24.3374C19.7884 24.1989 19.9667 24.1073 20.1599 24.0754C20.3531 24.0434 20.5514 24.0728 20.7271 24.1593C20.9027 24.2458 21.0469 24.3852 21.1393 24.5578C21.2317 24.7305 21.2678 24.9277 21.2424 25.1219C21.2156 25.3268 21.1218 25.5171 20.9757 25.6632C20.8296 25.8093 20.6393 25.9031 20.4344 25.9299ZM20.4344 21.2424C20.2402 21.2678 20.043 21.2317 19.8703 21.1393C19.6977 21.0469 19.5583 20.9027 19.4718 20.7271C19.3853 20.5514 19.3559 20.3531 19.3879 20.1599C19.4198 19.9667 19.5114 19.7884 19.6499 19.6499C19.7884 19.5114 19.9667 19.4198 20.1599 19.3879C20.3531 19.3559 20.5514 19.3853 20.7271 19.4718C20.9027 19.5583 21.0469 19.6977 21.1393 19.8703C21.2317 20.043 21.2678 20.2402 21.2424 20.4344C21.2156 20.6393 21.1218 20.8296 20.9757 20.9757C20.8296 21.1218 20.6393 21.2156 20.4344 21.2424ZM20.4344 16.5549C20.2402 16.5803 20.043 16.5442 19.8703 16.4518C19.6977 16.3594 19.5583 16.2152 19.4718 16.0396C19.3853 15.8639 19.3559 15.6656 19.3879 15.4724C19.4198 15.2792 19.5114 15.1008 19.6499 14.9624C19.7884 14.8239 19.9667 14.7323 20.1599 14.7004C20.3531 14.6684 20.5514 14.6978 20.7271 14.7843C20.9027 14.8708 21.0469 15.0102 21.1393 15.1828C21.2317 15.3555 21.2678 15.5527 21.2424 15.7469C21.2156 15.9518 21.1218 16.1421 20.9757 16.2882C20.8296 16.4343 20.6393 16.5281 20.4344 16.5549ZM25.1219 35.3049C24.9277 35.3303 24.7305 35.2942 24.5578 35.2018C24.3852 35.1094 24.2458 34.9652 24.1593 34.7896C24.0728 34.6139 24.0434 34.4156 24.0754 34.2224C24.1073 34.0292 24.1989 33.8508 24.3374 33.7124C24.4759 33.5739 24.6542 33.4823 24.8474 33.4504C25.0406 33.4184 25.2389 33.4478 25.4146 33.5343C25.5902 33.6208 25.7344 33.7602 25.8268 33.9328C25.9192 34.1055 25.9553 34.3027 25.9299 34.4969C25.9031 34.7018 25.8093 34.8921 25.6632 35.0382C25.5171 35.1843 25.3268 35.2781 25.1219 35.3049ZM25.1219 30.6174C24.9277 30.6428 24.7305 30.6067 24.5578 30.5143C24.3852 30.4219 24.2458 30.2777 24.1593 30.1021C24.0728 29.9264 24.0434 29.7281 24.0754 29.5349C24.1073 29.3417 24.1989 29.1633 24.3374 29.0249C24.4759 28.8864 24.6542 28.7948 24.8474 28.7629C25.0406 28.7309 25.2389 28.7603 25.4146 28.8468C25.5902 28.9333 25.7344 29.0727 25.8268 29.2453C25.9192 29.418 25.9553 29.6152 25.9299 29.8094C25.9031 30.0143 25.8093 30.2046 25.6632 30.3507C25.5171 30.4968 25.3268 30.5906 25.1219 30.6174ZM25.1219 25.9299C24.9277 25.9553 24.7305 25.9192 24.5578 25.8268C24.3852 25.7344 24.2458 25.5902 24.1593 25.4146C24.0728 25.2389 24.0434 25.0406 24.0754 24.8474C24.1073 24.6542 24.1989 24.4759 24.3374 24.3374C24.4759 24.1989 24.6542 24.1073 24.8474 24.0754C25.0406 24.0434 25.2389 24.0728 25.4146 24.1593C25.5902 24.2458 25.7344 24.3852 25.8268 24.5578C25.9192 24.7305 25.9553 24.9277 25.9299 25.1219C25.9031 25.3268 25.8093 25.5171 25.6632 25.6632C25.5171 25.8093 25.3268 25.9031 25.1219 25.9299ZM25.1219 21.2424C24.9277 21.2678 24.7305 21.2317 24.5578 21.1393C24.3852 21.0469 24.2458 20.9027 24.1593 20.7271C24.0728 20.5514 24.0434 20.3531 24.0754 20.1599C24.1073 19.9667 24.1989 19.7884 24.3374 19.6499C24.4759 19.5114 24.6542 19.4198 24.8474 19.3879C25.0406 19.3559 25.2389 19.3853 25.4146 19.4718C25.5902 19.5583 25.7344 19.6977 25.8268 19.8703C25.9192 20.043 25.9553 20.2402 25.9299 20.4344C25.9031 20.6393 25.8093 20.8296 25.6632 20.9757C25.5171 21.1218 25.3268 21.2156 25.1219 21.2424ZM25.1219 16.5549C24.9277 16.5803 24.7305 16.5442 24.5578 16.4518C24.3852 16.3594 24.2458 16.2152 24.1593 16.0396C24.0728 15.8639 24.0434 15.6656 24.0754 15.4724C24.1073 15.2792 24.1989 15.1008 24.3374 14.9624C24.4759 14.8239 24.6542 14.7323 24.8474 14.7004C25.0406 14.6684 25.2389 14.6978 25.4146 14.7843C25.5902 14.8708 25.7344 15.0102 25.8268 15.1828C25.9192 15.3555 25.9553 15.5527 25.9299 15.7469C25.9031 15.9518 25.8093 16.1421 25.6632 16.2882C25.5171 16.4343 25.3268 16.5281 25.1219 16.5549ZM36.0156 37.1875H28.75V22.1875H35.3125C35.5611 22.1875 35.7996 22.2863 35.9754 22.4621C36.1512 22.6379 36.25 22.8764 36.25 23.125V36.9531C36.25 37.0153 36.2253 37.0749 36.1814 37.1189C36.1374 37.1628 36.0778 37.1875 36.0156 37.1875Z" fill="#0063F7"/>
<path d="M33.4375 33.4375C33.2521 33.4375 33.0708 33.4925 32.9167 33.5955C32.7625 33.6985 32.6423 33.8449 32.5714 34.0162C32.5004 34.1875 32.4818 34.376 32.518 34.5579C32.5542 34.7398 32.6435 34.9068 32.7746 35.0379C32.9057 35.169 33.0727 35.2583 33.2546 35.2945C33.4365 35.3307 33.625 35.3121 33.7963 35.2411C33.9676 35.1702 34.114 35.05 34.217 34.8958C34.32 34.7417 34.375 34.5604 34.375 34.375C34.375 34.1264 34.2762 33.8879 34.1004 33.7121C33.9246 33.5363 33.6861 33.4375 33.4375 33.4375ZM33.4375 28.75C33.2521 28.75 33.0708 28.805 32.9167 28.908C32.7625 29.011 32.6423 29.1574 32.5714 29.3287C32.5004 29.5 32.4818 29.6885 32.518 29.8704C32.5542 30.0523 32.6435 30.2193 32.7746 30.3504C32.9057 30.4815 33.0727 30.5708 33.2546 30.607C33.4365 30.6432 33.625 30.6246 33.7963 30.5536C33.9676 30.4827 34.114 30.3625 34.217 30.2083C34.32 30.0542 34.375 29.8729 34.375 29.6875C34.375 29.4389 34.2762 29.2004 34.1004 29.0246C33.9246 28.8488 33.6861 28.75 33.4375 28.75ZM33.4375 24.0625C33.2521 24.0625 33.0708 24.1175 32.9167 24.2205C32.7625 24.3235 32.6423 24.4699 32.5714 24.6412C32.5004 24.8125 32.4818 25.001 32.518 25.1829C32.5542 25.3648 32.6435 25.5318 32.7746 25.6629C32.9057 25.794 33.0727 25.8833 33.2546 25.9195C33.4365 25.9557 33.625 25.9371 33.7963 25.8661C33.9676 25.7952 34.114 25.675 34.217 25.5208C34.32 25.3667 34.375 25.1854 34.375 25C34.375 24.7514 34.2762 24.5129 34.1004 24.3371C33.9246 24.1613 33.6861 24.0625 33.4375 24.0625ZM29.6875 33.4375C29.5021 33.4375 29.3208 33.4925 29.1667 33.5955C29.0125 33.6985 28.8923 33.8449 28.8214 34.0162C28.7504 34.1875 28.7318 34.376 28.768 34.5579C28.8042 34.7398 28.8935 34.9068 29.0246 35.0379C29.1557 35.169 29.3227 35.2583 29.5046 35.2945C29.6865 35.3307 29.875 35.3121 30.0463 35.2411C30.2176 35.1702 30.364 35.05 30.467 34.8958C30.57 34.7417 30.625 34.5604 30.625 34.375C30.625 34.1264 30.5262 33.8879 30.3504 33.7121C30.1746 33.5363 29.9361 33.4375 29.6875 33.4375ZM29.6875 28.75C29.5021 28.75 29.3208 28.805 29.1667 28.908C29.0125 29.011 28.8923 29.1574 28.8214 29.3287C28.7504 29.5 28.7318 29.6885 28.768 29.8704C28.8042 30.0523 28.8935 30.2193 29.0246 30.3504C29.1557 30.4815 29.3227 30.5708 29.5046 30.607C29.6865 30.6432 29.875 30.6246 30.0463 30.5536C30.2176 30.4827 30.364 30.3625 30.467 30.2083C30.57 30.0542 30.625 29.8729 30.625 29.6875C30.625 29.4389 30.5262 29.2004 30.3504 29.0246C30.1746 28.8488 29.9361 28.75 29.6875 28.75ZM29.6875 24.0625C29.5021 24.0625 29.3208 24.1175 29.1667 24.2205C29.0125 24.3235 28.8923 24.4699 28.8214 24.6412C28.7504 24.8125 28.7318 25.001 28.768 25.1829C28.8042 25.3648 28.8935 25.5318 29.0246 25.6629C29.1557 25.794 29.3227 25.8833 29.5046 25.9195C29.6865 25.9557 29.875 25.9371 30.0463 25.8661C30.2176 25.7952 30.364 25.675 30.467 25.5208C30.57 25.3667 30.625 25.1854 30.625 25C30.625 24.7514 30.5262 24.5129 30.3504 24.3371C30.1746 24.1613 29.9361 24.0625 29.6875 24.0625Z" fill="#0063F7"/>
</svg>
