<svg width="50" height="50" viewBox="0 0 50 50" fill="none" xmlns="http://www.w3.org/2000/svg">
<circle cx="25" cy="25" r="25" fill="#E2F3FF"/>
<g clipPath="url(#clip0_444_20017)">
<path d="M24.9995 7.19335C15.1645 7.19335 7.19286 15.165 7.19286 25C7.19286 34.835 15.1645 42.8067 24.9995 42.8067C34.8345 42.8067 42.8062 34.835 42.8062 25C42.7862 15.1734 34.8262 7.21335 25.0012 7.19335H24.9995ZM24.9995 44.355C14.3095 44.355 5.64453 35.69 5.64453 25C5.64453 14.31 14.3095 5.64502 24.9995 5.64502C35.6895 5.64502 44.3545 14.31 44.3545 25V25.025C44.3545 35.7 35.7012 44.3534 25.0262 44.3534L24.9995 44.355Z" fill="#0063F7"/>
<path d="M25 45C13.9767 44.9433 5.05667 36.0233 5 25.005V25C5 13.955 13.955 5 25 5C36.045 5 45 13.955 45 25C44.9433 36.0233 36.0233 44.9433 25.005 45H25ZM25 6.29C14.6667 6.29 6.29 14.6667 6.29 25C6.29 35.3333 14.6667 43.71 25 43.71C35.3333 43.71 43.71 35.3333 43.71 25C43.7033 14.67 35.33 6.29833 25.0017 6.29H25ZM25 43.4517C14.81 43.4517 6.54833 35.19 6.54833 25C6.54833 14.81 14.81 6.54833 25 6.54833C35.19 6.54833 43.4517 14.81 43.4517 25C43.4517 35.19 35.19 43.4517 25 43.4517ZM25 7.83833C15.5217 7.83833 7.83833 15.5217 7.83833 25C7.83833 34.4783 15.5217 42.1617 25 42.1617C34.4783 42.1617 42.1617 34.4783 42.1617 25V24.9917C42.1617 15.5183 34.4817 7.83833 25.0083 7.83833H25Z" fill="#0063F7"/>
<path d="M21.1285 21.5168V21.5318C21.1285 23.4485 19.5752 25.0018 17.6585 25.0018H17.6435C16.9546 25.0018 16.2811 24.7975 15.7083 24.4148C15.1354 24.032 14.689 23.488 14.4253 22.8515C14.1617 22.215 14.0927 21.5146 14.2271 20.8389C14.3615 20.1632 14.6932 19.5426 15.1804 19.0554C15.6676 18.5682 16.2882 18.2365 16.9639 18.1021C17.6396 17.9677 18.34 18.0367 18.9765 18.3003C19.613 18.564 20.157 19.0104 20.5398 19.5833C20.9225 20.1561 21.1268 20.8296 21.1268 21.5185L21.1285 21.5168ZM25.0002 37.7752C24.7946 37.7752 24.5975 37.6935 24.4522 37.5482C24.3068 37.4028 24.2252 37.2057 24.2252 37.0002C24.2252 36.7946 24.3068 36.5975 24.4522 36.4522C24.5975 36.3068 24.7946 36.2252 25.0002 36.2252H25.0185C27.4238 36.2253 29.7691 35.4748 31.7275 34.0784C33.686 32.6819 35.1598 30.7092 35.9435 28.4352L35.9685 28.3535C35.9939 28.2598 36.0377 28.1721 36.0972 28.0955C36.1568 28.0189 36.2309 27.9548 36.3154 27.9071C36.3999 27.8593 36.4931 27.8288 36.5894 27.8173C36.6858 27.8059 36.7835 27.8136 36.8768 27.8402L36.8718 27.8385C36.9656 27.8637 37.0535 27.9073 37.1303 27.9668C37.2071 28.0263 37.2714 28.1005 37.3193 28.185C37.3672 28.2695 37.3978 28.3627 37.4094 28.4591C37.421 28.5556 37.4133 28.6534 37.3868 28.7468L37.3885 28.7418C35.6535 34.0252 30.7652 37.7735 25.0018 37.7735L25.0002 37.7752Z" fill="#0063F7"/>
<path d="M24.9981 38.4197C24.6229 38.4162 24.264 38.2657 23.9985 38.0005C23.733 37.7354 23.582 37.3766 23.5781 37.0014C23.6033 36.6341 23.7604 36.2883 24.0204 36.0276C24.2804 35.767 24.6259 35.6091 24.9931 35.583H25.1248C27.3863 35.583 29.5896 34.8659 31.4179 33.5347C33.2462 32.2036 34.6053 30.327 35.2998 28.1747L35.3215 28.0997C35.4255 27.7695 35.6546 27.4931 35.9598 27.3297L35.9665 27.3264C36.2856 27.1532 36.6585 27.108 37.0098 27.1997L36.9998 27.198C37.1811 27.2539 37.3492 27.3461 37.4938 27.4689C37.6383 27.5918 37.7564 27.7428 37.8407 27.9128C37.9251 28.0827 37.974 28.268 37.9844 28.4575C37.9949 28.6469 37.9666 28.8365 37.9015 29.0147L37.9048 29.0047C36.1415 34.5097 31.0698 38.4247 25.0848 38.4247H24.9981H25.0031L24.9981 38.4197ZM24.9981 36.9997C24.9648 37.033 24.9431 37.078 24.9431 37.128C24.9431 37.178 24.9648 37.2247 24.9981 37.2564H25.0265C27.6133 37.2562 30.1344 36.4418 32.2325 34.9288C34.3307 33.4158 35.8994 31.2808 36.7165 28.8264L36.7415 28.7397V28.6114H36.6131C34.9598 33.523 30.3981 36.998 25.0231 36.998L24.9981 36.9997ZM34.9331 21.903H32.0948L33.2565 20.9997C33.3673 20.918 33.4603 20.8144 33.5297 20.6954C33.599 20.5764 33.6433 20.4445 33.6598 20.3078C33.6763 20.171 33.6647 20.0324 33.6256 19.9003C33.5866 19.7682 33.5209 19.6455 33.4327 19.5398C33.3444 19.434 33.2355 19.3474 33.1126 19.2853C32.9896 19.2232 32.8553 19.1869 32.7178 19.1786C32.5803 19.1703 32.4426 19.1902 32.3131 19.2371C32.1836 19.2841 32.0651 19.357 31.9648 19.4514L31.9665 19.4497L28.6115 22.0297C28.4615 22.2164 28.3315 22.428 28.2315 22.6564L28.2248 22.6747V22.933C28.2748 23.443 28.6998 23.8364 29.2181 23.8364H29.2598H29.2581H34.9498C35.0836 23.8366 35.2161 23.8104 35.3398 23.7593C35.4634 23.7082 35.5757 23.6332 35.6704 23.5386C35.765 23.444 35.84 23.3316 35.8911 23.208C35.9422 23.0844 35.9683 22.9518 35.9681 22.818V22.803C35.9445 22.5559 35.8297 22.3265 35.646 22.1594C35.4623 21.9924 35.223 21.8998 34.9748 21.8997H34.9331V21.903Z" fill="#0063F7"/>
</g>
<defs>
<clipPath id="clip0_444_20017">
<rect width="40" height="40" fill="white" transform="translate(5 5)"/>
</clipPath>
</defs>
</svg>
