<svg width="50" height="50" viewBox="0 0 50 50" fill="none" xmlns="http://www.w3.org/2000/svg">
<circle cx="25" cy="25" r="25" fill="#E2F3FF"/>
<path fill-rule="evenodd" clip-rule="evenodd" d="M18.333 11.6669C16.5649 11.6669 14.8692 12.3692 13.619 13.6195C12.3687 14.8697 11.6663 16.5654 11.6663 18.3335C11.6663 20.1016 12.3687 21.7973 13.619 23.0476C14.8692 24.2978 16.5649 25.0002 18.333 25.0002C20.1011 25.0002 21.7968 24.2978 23.0471 23.0476C24.2973 21.7973 24.9997 20.1016 24.9997 18.3335C24.9997 16.5654 24.2973 14.8697 23.0471 13.6195C21.7968 12.3692 20.1011 11.6669 18.333 11.6669ZM14.9997 26.6669C13.2316 26.6669 11.5359 27.3692 10.2856 28.6195C9.03539 29.8697 8.33301 31.5654 8.33301 33.3335V35.0002C8.33301 35.8842 8.6842 36.7321 9.30932 37.3572C9.93444 37.9823 10.7823 38.3335 11.6663 38.3335H24.9997C25.8837 38.3335 26.7316 37.9823 27.3567 37.3572C27.9818 36.7321 28.333 35.8842 28.333 35.0002V33.3335C28.333 31.5654 27.6306 29.8697 26.3804 28.6195C25.1301 27.3692 23.4345 26.6669 21.6663 26.6669H14.9997ZM27.083 23.1752C27.8797 21.7419 28.333 20.0919 28.333 18.3335C28.3334 16.6393 27.9032 14.9727 27.083 13.4902C28.0294 12.5947 29.2174 11.9962 30.5002 11.7686C31.783 11.5409 33.1044 11.6942 34.3011 12.2093C35.4978 12.7245 36.5173 13.579 37.2336 14.6673C37.9499 15.7555 38.3317 17.0298 38.3317 18.3327C38.3317 19.6355 37.9499 20.9098 37.2336 21.9981C36.5173 23.0864 35.4978 23.9409 34.3011 24.456C33.1044 24.9712 31.783 25.1244 30.5002 24.8968C29.2174 24.6692 28.0294 24.0706 27.083 23.1752ZM30.7763 38.3335C31.343 37.3535 31.668 36.2152 31.668 35.0002V33.3335C31.6711 30.8731 30.764 28.4986 29.1213 26.6669H34.9997C36.7678 26.6669 38.4635 27.3692 39.7137 28.6195C40.964 29.8697 41.6663 31.5654 41.6663 33.3335V35.0002C41.6663 35.8842 41.3152 36.7321 40.69 37.3572C40.0649 37.9823 39.2171 38.3335 38.333 38.3335H30.7763Z" fill="#0063F7"/>
</svg>
