<svg width="50" height="50" viewBox="0 0 50 50" fill="none" xmlns="http://www.w3.org/2000/svg">
<circle cx="25" cy="25" r="25" fill="#E2F3FF"/>
<path d="M16.25 20H33.75V17.5H16.25V20ZM16.25 37.5C15.5625 37.5 14.9742 37.2554 14.485 36.7663C13.9958 36.2771 13.7508 35.6883 13.75 35V17.5C13.75 16.8125 13.995 16.2242 14.485 15.735C14.975 15.2458 15.5633 15.0008 16.25 15H17.5V12.5H20V15H30V12.5H32.5V15H33.75C34.4375 15 35.0263 15.245 35.5163 15.735C36.0063 16.225 36.2508 16.8133 36.25 17.5V24.5938C35.8542 24.4063 35.4479 24.25 35.0312 24.125C34.6146 24 34.1875 23.9063 33.75 23.8438V22.5H16.25V35H24.125C24.2708 35.4583 24.4429 35.8958 24.6413 36.3125C24.8396 36.7292 25.0737 37.125 25.3438 37.5H16.25ZM32.5 38.75C30.7708 38.75 29.2971 38.1404 28.0788 36.9213C26.8604 35.7021 26.2508 34.2283 26.25 32.5C26.2492 30.7717 26.8588 29.2979 28.0788 28.0788C29.2987 26.8596 30.7725 26.25 32.5 26.25C34.2275 26.25 35.7017 26.8596 36.9225 28.0788C38.1433 29.2979 38.7525 30.7717 38.75 32.5C38.7475 34.2283 38.1379 35.7025 36.9213 36.9225C35.7046 38.1425 34.2308 38.7517 32.5 38.75ZM34.5938 35.4688L35.4688 34.5938L33.125 32.25V28.75H31.875V32.75L34.5938 35.4688Z" fill="#0063F7"/>
</svg>
