<svg width="230" height="22" viewBox="0 0 230 22" fill="none" xmlns="http://www.w3.org/2000/svg">
<path d="M5.46094 17H3.57812V7.17188H0.234375V5.57812H8.79688V7.17188H5.46094V17ZM12.1953 8.35156V17H10.3594V8.35156H12.1953ZM11.2891 5.03906C11.5703 5.03906 11.8125 5.11458 12.0156 5.26562C12.224 5.41667 12.3281 5.67708 12.3281 6.04688C12.3281 6.41146 12.224 6.67188 12.0156 6.82812C11.8125 6.97917 11.5703 7.05469 11.2891 7.05469C10.9974 7.05469 10.75 6.97917 10.5469 6.82812C10.349 6.67188 10.25 6.41146 10.25 6.04688C10.25 5.67708 10.349 5.41667 10.5469 5.26562C10.75 5.11458 10.9974 5.03906 11.2891 5.03906ZM16.6641 4.84375V10.7188C16.6641 10.9844 16.6536 11.276 16.6328 11.5938C16.612 11.9062 16.5911 12.2005 16.5703 12.4766H16.6094C16.7448 12.2943 16.9062 12.0807 17.0938 11.8359C17.2865 11.5911 17.4688 11.3776 17.6406 11.1953L20.2812 8.35156H22.3906L18.9297 12.0703L22.6172 17H20.4609L17.6953 13.2031L16.6641 14.0859V17H14.8281V4.84375H16.6641ZM25.8359 8.35156V17H24V8.35156H25.8359ZM24.9297 5.03906C25.2109 5.03906 25.4531 5.11458 25.6562 5.26562C25.8646 5.41667 25.9688 5.67708 25.9688 6.04688C25.9688 6.41146 25.8646 6.67188 25.6562 6.82812C25.4531 6.97917 25.2109 7.05469 24.9297 7.05469C24.638 7.05469 24.3906 6.97917 24.1875 6.82812C23.9896 6.67188 23.8906 6.41146 23.8906 6.04688C23.8906 5.67708 23.9896 5.41667 24.1875 5.26562C24.3906 5.11458 24.638 5.03906 24.9297 5.03906ZM39.8906 17L38.7734 13.8281H34.4062L33.2891 17H31.3125L35.5625 5.53125H37.6406L41.8828 17H39.8906ZM38.2891 12.2188L37.2031 9.09375C37.1615 8.95833 37.1016 8.76823 37.0234 8.52344C36.9453 8.27344 36.8672 8.02083 36.7891 7.76562C36.7109 7.50521 36.6458 7.28646 36.5938 7.10938C36.5417 7.32292 36.4766 7.5625 36.3984 7.82812C36.3255 8.08854 36.2526 8.33333 36.1797 8.5625C36.112 8.79167 36.0599 8.96875 36.0234 9.09375L34.9297 12.2188H38.2891ZM47.6406 8.1875C48.6667 8.1875 49.4896 8.5625 50.1094 9.3125C50.7344 10.0625 51.0469 11.1771 51.0469 12.6562C51.0469 13.6354 50.901 14.4609 50.6094 15.1328C50.3229 15.7995 49.9193 16.3047 49.3984 16.6484C48.8828 16.987 48.2812 17.1562 47.5938 17.1562C47.1562 17.1562 46.776 17.099 46.4531 16.9844C46.1302 16.8698 45.8542 16.7214 45.625 16.5391C45.3958 16.3516 45.2031 16.1484 45.0469 15.9297H44.9375C44.9635 16.138 44.987 16.3698 45.0078 16.625C45.0339 16.875 45.0469 17.1042 45.0469 17.3125V20.8359H43.2031V8.35156H44.7031L44.9609 9.54688H45.0469C45.2083 9.30208 45.4036 9.07552 45.6328 8.86719C45.8672 8.65885 46.1484 8.49479 46.4766 8.375C46.8099 8.25 47.1979 8.1875 47.6406 8.1875ZM47.1484 9.6875C46.6432 9.6875 46.237 9.78906 45.9297 9.99219C45.6276 10.1901 45.4062 10.4896 45.2656 10.8906C45.1302 11.2917 45.0573 11.7943 45.0469 12.3984V12.6562C45.0469 13.2969 45.112 13.8411 45.2422 14.2891C45.3776 14.7318 45.599 15.0703 45.9062 15.3047C46.2188 15.5339 46.6406 15.6484 47.1719 15.6484C47.6198 15.6484 47.9896 15.526 48.2812 15.2812C48.5781 15.0365 48.7995 14.6875 48.9453 14.2344C49.0911 13.7812 49.1641 13.2474 49.1641 12.6328C49.1641 11.7005 48.9974 10.9766 48.6641 10.4609C48.3359 9.94531 47.8307 9.6875 47.1484 9.6875ZM57.6094 8.1875C58.6354 8.1875 59.4583 8.5625 60.0781 9.3125C60.7031 10.0625 61.0156 11.1771 61.0156 12.6562C61.0156 13.6354 60.8698 14.4609 60.5781 15.1328C60.2917 15.7995 59.888 16.3047 59.3672 16.6484C58.8516 16.987 58.25 17.1562 57.5625 17.1562C57.125 17.1562 56.7448 17.099 56.4219 16.9844C56.099 16.8698 55.8229 16.7214 55.5938 16.5391C55.3646 16.3516 55.1719 16.1484 55.0156 15.9297H54.9062C54.9323 16.138 54.9557 16.3698 54.9766 16.625C55.0026 16.875 55.0156 17.1042 55.0156 17.3125V20.8359H53.1719V8.35156H54.6719L54.9297 9.54688H55.0156C55.1771 9.30208 55.3724 9.07552 55.6016 8.86719C55.8359 8.65885 56.1172 8.49479 56.4453 8.375C56.7786 8.25 57.1667 8.1875 57.6094 8.1875ZM57.1172 9.6875C56.612 9.6875 56.2057 9.78906 55.8984 9.99219C55.5964 10.1901 55.375 10.4896 55.2344 10.8906C55.099 11.2917 55.026 11.7943 55.0156 12.3984V12.6562C55.0156 13.2969 55.0807 13.8411 55.2109 14.2891C55.3464 14.7318 55.5677 15.0703 55.875 15.3047C56.1875 15.5339 56.6094 15.6484 57.1406 15.6484C57.5885 15.6484 57.9583 15.526 58.25 15.2812C58.5469 15.0365 58.7682 14.6875 58.9141 14.2344C59.0599 13.7812 59.1328 13.2474 59.1328 12.6328C59.1328 11.7005 58.9661 10.9766 58.6328 10.4609C58.3047 9.94531 57.7995 9.6875 57.1172 9.6875ZM68.9531 14.5312C68.9531 15.099 68.8151 15.5781 68.5391 15.9688C68.263 16.3594 67.8594 16.6562 67.3281 16.8594C66.8021 17.0573 66.1562 17.1562 65.3906 17.1562C64.7865 17.1562 64.2656 17.112 63.8281 17.0234C63.3958 16.9401 62.987 16.8099 62.6016 16.6328V15.0469C63.013 15.2396 63.474 15.4062 63.9844 15.5469C64.5 15.6875 64.987 15.7578 65.4453 15.7578C66.0495 15.7578 66.4844 15.6641 66.75 15.4766C67.0156 15.2839 67.1484 15.0286 67.1484 14.7109C67.1484 14.5234 67.0938 14.3568 66.9844 14.2109C66.8802 14.0599 66.6823 13.9062 66.3906 13.75C66.1042 13.5885 65.6823 13.3958 65.125 13.1719C64.5781 12.9531 64.1172 12.7344 63.7422 12.5156C63.3672 12.2969 63.0833 12.0339 62.8906 11.7266C62.6979 11.4141 62.6016 11.0156 62.6016 10.5312C62.6016 9.76562 62.9036 9.1849 63.5078 8.78906C64.1172 8.38802 64.9219 8.1875 65.9219 8.1875C66.4531 8.1875 66.9531 8.24219 67.4219 8.35156C67.8958 8.45573 68.3594 8.60938 68.8125 8.8125L68.2344 10.1953C67.8438 10.0234 67.4505 9.88281 67.0547 9.77344C66.6641 9.65885 66.2656 9.60156 65.8594 9.60156C65.3854 9.60156 65.0234 9.67448 64.7734 9.82031C64.5286 9.96615 64.4062 10.1745 64.4062 10.4453C64.4062 10.6484 64.4661 10.8203 64.5859 10.9609C64.7057 11.1016 64.9115 11.2422 65.2031 11.3828C65.5 11.5234 65.9115 11.6979 66.4375 11.9062C66.9531 12.1042 67.3984 12.3125 67.7734 12.5312C68.1536 12.7448 68.4453 13.0078 68.6484 13.3203C68.8516 13.6328 68.9531 14.0365 68.9531 14.5312Z" fill="#757575"/>
<path d="M120.094 13.8906C120.094 14.5677 119.927 15.151 119.594 15.6406C119.266 16.1302 118.792 16.5052 118.172 16.7656C117.557 17.026 116.823 17.1562 115.969 17.1562C115.552 17.1562 115.154 17.1328 114.773 17.0859C114.393 17.0391 114.034 16.9714 113.695 16.8828C113.362 16.7891 113.057 16.6771 112.781 16.5469V14.7812C113.245 14.9844 113.763 15.1693 114.336 15.3359C114.909 15.4974 115.492 15.5781 116.086 15.5781C116.57 15.5781 116.971 15.5156 117.289 15.3906C117.612 15.2604 117.852 15.0781 118.008 14.8438C118.164 14.6042 118.242 14.3255 118.242 14.0078C118.242 13.6693 118.151 13.3828 117.969 13.1484C117.786 12.9141 117.51 12.7005 117.141 12.5078C116.776 12.3099 116.318 12.099 115.766 11.875C115.391 11.724 115.031 11.5521 114.688 11.3594C114.349 11.1667 114.047 10.9401 113.781 10.6797C113.516 10.4193 113.305 10.112 113.148 9.75781C112.997 9.39844 112.922 8.97656 112.922 8.49219C112.922 7.84635 113.076 7.29427 113.383 6.83594C113.695 6.3776 114.133 6.02604 114.695 5.78125C115.263 5.53646 115.924 5.41406 116.68 5.41406C117.279 5.41406 117.841 5.47656 118.367 5.60156C118.898 5.72656 119.419 5.90365 119.93 6.13281L119.336 7.64062C118.867 7.44792 118.411 7.29427 117.969 7.17969C117.531 7.0651 117.083 7.00781 116.625 7.00781C116.229 7.00781 115.893 7.06771 115.617 7.1875C115.341 7.30729 115.13 7.47656 114.984 7.69531C114.844 7.90885 114.773 8.16406 114.773 8.46094C114.773 8.79427 114.854 9.07552 115.016 9.30469C115.182 9.52865 115.438 9.73438 115.781 9.92188C116.13 10.1094 116.578 10.3177 117.125 10.5469C117.755 10.8073 118.289 11.0807 118.727 11.3672C119.169 11.6536 119.508 11.9974 119.742 12.3984C119.977 12.7943 120.094 13.2917 120.094 13.8906ZM123.945 8.35156V17H122.109V8.35156H123.945ZM123.039 5.03906C123.32 5.03906 123.562 5.11458 123.766 5.26562C123.974 5.41667 124.078 5.67708 124.078 6.04688C124.078 6.41146 123.974 6.67188 123.766 6.82812C123.562 6.97917 123.32 7.05469 123.039 7.05469C122.747 7.05469 122.5 6.97917 122.297 6.82812C122.099 6.67188 122 6.41146 122 6.04688C122 5.67708 122.099 5.41667 122.297 5.26562C122.5 5.11458 122.747 5.03906 123.039 5.03906ZM129.047 20.8438C127.875 20.8438 126.977 20.6328 126.352 20.2109C125.727 19.7891 125.414 19.1979 125.414 18.4375C125.414 17.9062 125.581 17.4557 125.914 17.0859C126.247 16.7214 126.724 16.4688 127.344 16.3281C127.109 16.224 126.906 16.0625 126.734 15.8438C126.568 15.6198 126.484 15.3724 126.484 15.1016C126.484 14.7786 126.576 14.5026 126.758 14.2734C126.94 14.0443 127.214 13.8229 127.578 13.6094C127.125 13.4167 126.76 13.1042 126.484 12.6719C126.214 12.2344 126.078 11.7214 126.078 11.1328C126.078 10.5078 126.211 9.97656 126.477 9.53906C126.742 9.09635 127.13 8.76042 127.641 8.53125C128.151 8.29688 128.768 8.17969 129.492 8.17969C129.648 8.17969 129.818 8.1901 130 8.21094C130.188 8.22656 130.359 8.2474 130.516 8.27344C130.677 8.29427 130.799 8.31771 130.883 8.34375H133.875V9.36719L132.406 9.64062C132.547 9.83854 132.659 10.0651 132.742 10.3203C132.826 10.5703 132.867 10.8438 132.867 11.1406C132.867 12.0365 132.557 12.7422 131.938 13.2578C131.323 13.7682 130.474 14.0234 129.391 14.0234C129.13 14.013 128.878 13.9922 128.633 13.9609C128.445 14.0755 128.302 14.2031 128.203 14.3438C128.104 14.4792 128.055 14.6328 128.055 14.8047C128.055 14.9453 128.104 15.0599 128.203 15.1484C128.302 15.2318 128.448 15.2943 128.641 15.3359C128.839 15.3776 129.078 15.3984 129.359 15.3984H130.852C131.799 15.3984 132.523 15.599 133.023 16C133.523 16.401 133.773 16.9896 133.773 17.7656C133.773 18.75 133.367 19.5078 132.555 20.0391C131.742 20.5755 130.573 20.8438 129.047 20.8438ZM129.117 19.5547C129.758 19.5547 130.297 19.4922 130.734 19.3672C131.172 19.2422 131.503 19.0625 131.727 18.8281C131.951 18.599 132.062 18.3255 132.062 18.0078C132.062 17.7266 131.992 17.5104 131.852 17.3594C131.711 17.2083 131.5 17.1042 131.219 17.0469C130.938 16.9896 130.589 16.9609 130.172 16.9609H128.812C128.474 16.9609 128.174 17.013 127.914 17.1172C127.654 17.2266 127.451 17.3828 127.305 17.5859C127.164 17.7891 127.094 18.0339 127.094 18.3203C127.094 18.7161 127.268 19.0208 127.617 19.2344C127.971 19.4479 128.471 19.5547 129.117 19.5547ZM129.477 12.8203C130.013 12.8203 130.411 12.6745 130.672 12.3828C130.932 12.0859 131.062 11.6693 131.062 11.1328C131.062 10.5495 130.927 10.112 130.656 9.82031C130.391 9.52865 129.995 9.38281 129.469 9.38281C128.953 9.38281 128.56 9.53125 128.289 9.82812C128.023 10.125 127.891 10.5651 127.891 11.1484C127.891 11.6745 128.023 12.0859 128.289 12.3828C128.56 12.6745 128.956 12.8203 129.477 12.8203ZM139.961 8.1875C140.935 8.1875 141.693 8.4401 142.234 8.94531C142.781 9.44531 143.055 10.25 143.055 11.3594V17H141.219V11.7031C141.219 11.0312 141.081 10.5286 140.805 10.1953C140.529 9.85677 140.102 9.6875 139.523 9.6875C138.685 9.6875 138.102 9.94531 137.773 10.4609C137.451 10.9766 137.289 11.724 137.289 12.7031V17H135.453V8.35156H136.883L137.141 9.52344H137.242C137.43 9.22135 137.661 8.97396 137.938 8.78125C138.219 8.58333 138.531 8.4349 138.875 8.33594C139.224 8.23698 139.586 8.1875 139.961 8.1875ZM151.617 8.35156V17H149.781V8.35156H151.617ZM150.711 5.03906C150.992 5.03906 151.234 5.11458 151.438 5.26562C151.646 5.41667 151.75 5.67708 151.75 6.04688C151.75 6.41146 151.646 6.67188 151.438 6.82812C151.234 6.97917 150.992 7.05469 150.711 7.05469C150.419 7.05469 150.172 6.97917 149.969 6.82812C149.771 6.67188 149.672 6.41146 149.672 6.04688C149.672 5.67708 149.771 5.41667 149.969 5.26562C150.172 5.11458 150.419 5.03906 150.711 5.03906ZM158.758 8.1875C159.732 8.1875 160.49 8.4401 161.031 8.94531C161.578 9.44531 161.852 10.25 161.852 11.3594V17H160.016V11.7031C160.016 11.0312 159.878 10.5286 159.602 10.1953C159.326 9.85677 158.898 9.6875 158.32 9.6875C157.482 9.6875 156.898 9.94531 156.57 10.4609C156.247 10.9766 156.086 11.724 156.086 12.7031V17H154.25V8.35156H155.68L155.938 9.52344H156.039C156.227 9.22135 156.458 8.97396 156.734 8.78125C157.016 8.58333 157.328 8.4349 157.672 8.33594C158.021 8.23698 158.383 8.1875 158.758 8.1875ZM171.977 5.57812C172.961 5.57812 173.773 5.69792 174.414 5.9375C175.06 6.17708 175.539 6.54167 175.852 7.03125C176.169 7.52083 176.328 8.14323 176.328 8.89844C176.328 9.46094 176.224 9.9401 176.016 10.3359C175.807 10.7318 175.534 11.0599 175.195 11.3203C174.857 11.5807 174.495 11.7891 174.109 11.9453L177.352 17H175.234L172.477 12.4219H170.641V17H168.766V5.57812H171.977ZM171.852 7.14062H170.641V10.875H171.938C172.807 10.875 173.438 10.7135 173.828 10.3906C174.224 10.0677 174.422 9.59115 174.422 8.96094C174.422 8.29948 174.211 7.83073 173.789 7.55469C173.372 7.27865 172.727 7.14062 171.852 7.14062ZM182.242 8.1875C183.013 8.1875 183.674 8.34635 184.227 8.66406C184.779 8.98177 185.203 9.43229 185.5 10.0156C185.797 10.599 185.945 11.2969 185.945 12.1094V13.0938H180.172C180.193 13.9323 180.417 14.5781 180.844 15.0312C181.276 15.4844 181.88 15.7109 182.656 15.7109C183.208 15.7109 183.703 15.6589 184.141 15.5547C184.583 15.4453 185.039 15.2865 185.508 15.0781V16.5703C185.076 16.7734 184.635 16.9219 184.188 17.0156C183.74 17.1094 183.203 17.1562 182.578 17.1562C181.729 17.1562 180.982 16.9922 180.336 16.6641C179.695 16.3307 179.193 15.8359 178.828 15.1797C178.469 14.5234 178.289 13.7083 178.289 12.7344C178.289 11.7656 178.453 10.9427 178.781 10.2656C179.109 9.58854 179.57 9.07292 180.164 8.71875C180.758 8.36458 181.451 8.1875 182.242 8.1875ZM182.242 9.57031C181.664 9.57031 181.195 9.75781 180.836 10.1328C180.482 10.5078 180.273 11.0573 180.211 11.7812H184.148C184.143 11.349 184.07 10.9661 183.93 10.6328C183.794 10.2995 183.586 10.0391 183.305 9.85156C183.029 9.66406 182.674 9.57031 182.242 9.57031ZM190.484 20.8438C189.312 20.8438 188.414 20.6328 187.789 20.2109C187.164 19.7891 186.852 19.1979 186.852 18.4375C186.852 17.9062 187.018 17.4557 187.352 17.0859C187.685 16.7214 188.161 16.4688 188.781 16.3281C188.547 16.224 188.344 16.0625 188.172 15.8438C188.005 15.6198 187.922 15.3724 187.922 15.1016C187.922 14.7786 188.013 14.5026 188.195 14.2734C188.378 14.0443 188.651 13.8229 189.016 13.6094C188.562 13.4167 188.198 13.1042 187.922 12.6719C187.651 12.2344 187.516 11.7214 187.516 11.1328C187.516 10.5078 187.648 9.97656 187.914 9.53906C188.18 9.09635 188.568 8.76042 189.078 8.53125C189.589 8.29688 190.206 8.17969 190.93 8.17969C191.086 8.17969 191.255 8.1901 191.438 8.21094C191.625 8.22656 191.797 8.2474 191.953 8.27344C192.115 8.29427 192.237 8.31771 192.32 8.34375H195.312V9.36719L193.844 9.64062C193.984 9.83854 194.096 10.0651 194.18 10.3203C194.263 10.5703 194.305 10.8438 194.305 11.1406C194.305 12.0365 193.995 12.7422 193.375 13.2578C192.76 13.7682 191.911 14.0234 190.828 14.0234C190.568 14.013 190.315 13.9922 190.07 13.9609C189.883 14.0755 189.74 14.2031 189.641 14.3438C189.542 14.4792 189.492 14.6328 189.492 14.8047C189.492 14.9453 189.542 15.0599 189.641 15.1484C189.74 15.2318 189.885 15.2943 190.078 15.3359C190.276 15.3776 190.516 15.3984 190.797 15.3984H192.289C193.237 15.3984 193.961 15.599 194.461 16C194.961 16.401 195.211 16.9896 195.211 17.7656C195.211 18.75 194.805 19.5078 193.992 20.0391C193.18 20.5755 192.01 20.8438 190.484 20.8438ZM190.555 19.5547C191.195 19.5547 191.734 19.4922 192.172 19.3672C192.609 19.2422 192.94 19.0625 193.164 18.8281C193.388 18.599 193.5 18.3255 193.5 18.0078C193.5 17.7266 193.43 17.5104 193.289 17.3594C193.148 17.2083 192.938 17.1042 192.656 17.0469C192.375 16.9896 192.026 16.9609 191.609 16.9609H190.25C189.911 16.9609 189.612 17.013 189.352 17.1172C189.091 17.2266 188.888 17.3828 188.742 17.5859C188.602 17.7891 188.531 18.0339 188.531 18.3203C188.531 18.7161 188.706 19.0208 189.055 19.2344C189.409 19.4479 189.909 19.5547 190.555 19.5547ZM190.914 12.8203C191.451 12.8203 191.849 12.6745 192.109 12.3828C192.37 12.0859 192.5 11.6693 192.5 11.1328C192.5 10.5495 192.365 10.112 192.094 9.82031C191.828 9.52865 191.432 9.38281 190.906 9.38281C190.391 9.38281 189.997 9.53125 189.727 9.82812C189.461 10.125 189.328 10.5651 189.328 11.1484C189.328 11.6745 189.461 12.0859 189.727 12.3828C189.997 12.6745 190.393 12.8203 190.914 12.8203ZM198.727 8.35156V17H196.891V8.35156H198.727ZM197.82 5.03906C198.102 5.03906 198.344 5.11458 198.547 5.26562C198.755 5.41667 198.859 5.67708 198.859 6.04688C198.859 6.41146 198.755 6.67188 198.547 6.82812C198.344 6.97917 198.102 7.05469 197.82 7.05469C197.529 7.05469 197.281 6.97917 197.078 6.82812C196.88 6.67188 196.781 6.41146 196.781 6.04688C196.781 5.67708 196.88 5.41667 197.078 5.26562C197.281 5.11458 197.529 5.03906 197.82 5.03906ZM207.172 14.5312C207.172 15.099 207.034 15.5781 206.758 15.9688C206.482 16.3594 206.078 16.6562 205.547 16.8594C205.021 17.0573 204.375 17.1562 203.609 17.1562C203.005 17.1562 202.484 17.112 202.047 17.0234C201.615 16.9401 201.206 16.8099 200.82 16.6328V15.0469C201.232 15.2396 201.693 15.4062 202.203 15.5469C202.719 15.6875 203.206 15.7578 203.664 15.7578C204.268 15.7578 204.703 15.6641 204.969 15.4766C205.234 15.2839 205.367 15.0286 205.367 14.7109C205.367 14.5234 205.312 14.3568 205.203 14.2109C205.099 14.0599 204.901 13.9062 204.609 13.75C204.323 13.5885 203.901 13.3958 203.344 13.1719C202.797 12.9531 202.336 12.7344 201.961 12.5156C201.586 12.2969 201.302 12.0339 201.109 11.7266C200.917 11.4141 200.82 11.0156 200.82 10.5312C200.82 9.76562 201.122 9.1849 201.727 8.78906C202.336 8.38802 203.141 8.1875 204.141 8.1875C204.672 8.1875 205.172 8.24219 205.641 8.35156C206.115 8.45573 206.578 8.60938 207.031 8.8125L206.453 10.1953C206.062 10.0234 205.669 9.88281 205.273 9.77344C204.883 9.65885 204.484 9.60156 204.078 9.60156C203.604 9.60156 203.242 9.67448 202.992 9.82031C202.747 9.96615 202.625 10.1745 202.625 10.4453C202.625 10.6484 202.685 10.8203 202.805 10.9609C202.924 11.1016 203.13 11.2422 203.422 11.3828C203.719 11.5234 204.13 11.6979 204.656 11.9062C205.172 12.1042 205.617 12.3125 205.992 12.5312C206.372 12.7448 206.664 13.0078 206.867 13.3203C207.07 13.6328 207.172 14.0365 207.172 14.5312ZM212.375 15.6719C212.615 15.6719 212.852 15.651 213.086 15.6094C213.32 15.5625 213.534 15.5078 213.727 15.4453V16.8359C213.523 16.9245 213.26 17 212.938 17.0625C212.615 17.125 212.279 17.1562 211.93 17.1562C211.44 17.1562 211 17.0755 210.609 16.9141C210.219 16.7474 209.909 16.4635 209.68 16.0625C209.451 15.6615 209.336 15.1068 209.336 14.3984V9.75H208.156V8.92969L209.422 8.28125L210.023 6.42969H211.18V8.35156H213.656V9.75H211.18V14.375C211.18 14.8125 211.289 15.138 211.508 15.3516C211.727 15.5651 212.016 15.6719 212.375 15.6719ZM218.93 8.1875C219.701 8.1875 220.362 8.34635 220.914 8.66406C221.466 8.98177 221.891 9.43229 222.188 10.0156C222.484 10.599 222.633 11.2969 222.633 12.1094V13.0938H216.859C216.88 13.9323 217.104 14.5781 217.531 15.0312C217.964 15.4844 218.568 15.7109 219.344 15.7109C219.896 15.7109 220.391 15.6589 220.828 15.5547C221.271 15.4453 221.727 15.2865 222.195 15.0781V16.5703C221.763 16.7734 221.323 16.9219 220.875 17.0156C220.427 17.1094 219.891 17.1562 219.266 17.1562C218.417 17.1562 217.669 16.9922 217.023 16.6641C216.383 16.3307 215.88 15.8359 215.516 15.1797C215.156 14.5234 214.977 13.7083 214.977 12.7344C214.977 11.7656 215.141 10.9427 215.469 10.2656C215.797 9.58854 216.258 9.07292 216.852 8.71875C217.445 8.36458 218.138 8.1875 218.93 8.1875ZM218.93 9.57031C218.352 9.57031 217.883 9.75781 217.523 10.1328C217.169 10.5078 216.961 11.0573 216.898 11.7812H220.836C220.831 11.349 220.758 10.9661 220.617 10.6328C220.482 10.2995 220.273 10.0391 219.992 9.85156C219.716 9.66406 219.362 9.57031 218.93 9.57031ZM229.086 8.1875C229.232 8.1875 229.391 8.19531 229.562 8.21094C229.734 8.22656 229.883 8.2474 230.008 8.27344L229.836 9.99219C229.727 9.96094 229.591 9.9375 229.43 9.92188C229.273 9.90625 229.133 9.89844 229.008 9.89844C228.68 9.89844 228.367 9.95312 228.07 10.0625C227.773 10.1667 227.51 10.3281 227.281 10.5469C227.052 10.7604 226.872 11.0286 226.742 11.3516C226.612 11.6745 226.547 12.0495 226.547 12.4766V17H224.703V8.35156H226.141L226.391 9.875H226.477C226.648 9.56771 226.862 9.28646 227.117 9.03125C227.372 8.77604 227.664 8.57292 227.992 8.42188C228.326 8.26562 228.69 8.1875 229.086 8.1875Z" fill="#757575"/>
<path d="M88.25 5.5L93.75 11L88.25 16.5" stroke="#757575" strokeWidth="2" strokeLinecap="round" strokeLinejoin="round"/>
</svg>
