<svg width="22" height="25" viewBox="0 0 22 25" fill="none" xmlns="http://www.w3.org/2000/svg">
<path d="M8.66667 22.5026H13.3333C13.3333 23.7859 12.2833 24.8359 11 24.8359C9.71667 24.8359 8.66667 23.7859 8.66667 22.5026ZM21.5 20.1693V21.3359H0.5V20.1693L2.83333 17.8359V10.8359C2.83333 7.21927 5.16667 4.06927 8.66667 3.01927V2.66927C8.66667 1.38594 9.71667 0.335938 11 0.335938C12.2833 0.335938 13.3333 1.38594 13.3333 2.66927V3.01927C16.8333 4.06927 19.1667 7.21927 19.1667 10.8359V17.8359L21.5 20.1693ZM16.8333 10.8359C16.8333 7.56927 14.2667 5.0026 11 5.0026C7.73333 5.0026 5.16667 7.56927 5.16667 10.8359V19.0026H16.8333V10.8359Z" fill="#0099FF"/>
</svg>
