 <svg
                    width="27"
                    height="28"
                    viewBox="0 0 27 28"
                    fill="none"
                    xmlns="http://www.w3.org/2000/svg"
                  >
                    <path
                      d="M25.1751 8.91409C24.5177 7.34533 23.5615 5.91943 22.3596 4.71585C21.1613 3.51019 19.7379 2.55162 18.1702 1.89456C16.5642 1.21818 14.8386 0.87147 13.096 0.875027H13.0374C11.2649 0.883816 9.55104 1.23538 7.93678 1.92678C6.3825 2.59059 4.97245 3.55086 3.78542 4.75393C2.59517 5.95479 1.64988 7.37571 1.00221 8.93753C0.329901 10.5616 -0.0107658 12.3038 0.000259297 14.0615C0.00904836 16.0948 0.495377 18.1133 1.40358 19.918V24.3711C1.40358 25.1153 2.0071 25.7188 2.74831 25.7188H7.19557C9.00867 26.6337 11.0095 27.1151 13.0403 27.125H13.1018C14.8538 27.125 16.5501 26.7852 18.1497 26.1201C19.7095 25.4709 21.1276 24.5235 22.3245 23.3311C23.5315 22.1328 24.4807 20.7324 25.1458 19.1709C25.8342 17.5537 26.1858 15.834 26.1946 14.0586C26.2005 12.2744 25.8548 10.543 25.1751 8.91409ZM7.24831 15.4063C6.47487 15.4063 5.84499 14.7764 5.84499 14C5.84499 13.2237 6.47487 12.5938 7.24831 12.5938C8.02174 12.5938 8.65163 13.2237 8.65163 14C8.65163 14.7764 8.02467 15.4063 7.24831 15.4063ZM13.096 15.4063C12.3225 15.4063 11.6926 14.7764 11.6926 14C11.6926 13.2237 12.3225 12.5938 13.096 12.5938C13.8694 12.5938 14.4993 13.2237 14.4993 14C14.4993 14.7764 13.8694 15.4063 13.096 15.4063ZM18.9436 15.4063C18.1702 15.4063 17.5403 14.7764 17.5403 14C17.5403 13.2237 18.1702 12.5938 18.9436 12.5938C19.7171 12.5938 20.3469 13.2237 20.3469 14C20.3469 14.7764 19.7171 15.4063 18.9436 15.4063Z"
                      fill="white"
                    />
                  </svg>