<svg width="24" height="21" viewBox="0 0 24 21" fill="none" xmlns="http://www.w3.org/2000/svg">
<path d="M11.6667 0C5.25 0 0 4.17667 0 9.33333C0.0292932 10.5731 0.332064 11.7912 0.886679 12.9004C1.44129 14.0096 2.23406 14.9827 3.20833 15.75C3.20833 16.45 2.71833 18.2817 0 21C2.765 20.8717 5.41333 19.8333 7.54833 18.0833C8.87833 18.4683 10.2783 18.6667 11.6667 18.6667C18.0833 18.6667 23.3333 14.49 23.3333 9.33333C23.3333 4.17667 18.0833 0 11.6667 0ZM11.6667 16.3333C6.51 16.3333 2.33333 13.195 2.33333 9.33333C2.33333 5.47167 6.51 2.33333 11.6667 2.33333C16.8233 2.33333 21 5.47167 21 9.33333C21 13.195 16.8233 16.3333 11.6667 16.3333Z" fill="#0099FF"/>
</svg>
