<svg width="50" height="50" viewBox="0 0 50 50" fill="none" xmlns="http://www.w3.org/2000/svg">
<circle cx="25" cy="25" r="24" fill="#E2F3FF" stroke="white" strokeWidth="2"/>
<path d="M16.8333 36.5C16.1917 36.5 15.6422 36.2713 15.1848 35.814C14.7275 35.3567 14.4992 34.8076 14.5 34.1667V26.875H22.6667V36.5H16.8333ZM25 36.5V26.875H35.5V34.1667C35.5 34.8083 35.2713 35.3578 34.814 35.8152C34.3567 36.2725 33.8076 36.5008 33.1667 36.5H25ZM14.5 24.5417V17.8333C14.5 17.1917 14.7287 16.6422 15.186 16.1848C15.6433 15.7275 16.1924 15.4992 16.8333 15.5H33.1667C33.8083 15.5 34.3578 15.7287 34.8152 16.186C35.2725 16.6433 35.5008 17.1924 35.5 17.8333V24.5417H14.5Z" fill="#0099FF"/>
</svg>
