<svg width="16" height="12" viewBox="0 0 16 12" fill="none" xmlns="http://www.w3.org/2000/svg">
<path d="M11.9373 0L11.8623 0.00524998C11.7274 0.0234038 11.6036 0.0898844 11.5139 0.192359C11.4243 0.294834 11.3749 0.426346 11.3748 0.5625V10.0815L8.9598 7.668L8.8968 7.614C8.78265 7.52915 8.64059 7.49069 8.49922 7.50638C8.35786 7.52206 8.22768 7.59071 8.1349 7.69851C8.04212 7.80631 7.99362 7.94526 7.99917 8.08739C8.00471 8.22951 8.0639 8.36426 8.1648 8.4645L11.5428 11.8395L11.6058 11.8935C11.7142 11.9735 11.8476 12.012 11.982 12.002C12.1163 11.9919 12.2426 11.934 12.3378 11.8387L15.7106 8.46375L15.7646 8.40075C15.8448 8.29234 15.8834 8.1587 15.8734 8.0242C15.8633 7.8897 15.8053 7.76328 15.7098 7.668L15.6468 7.614C15.5384 7.53376 15.4048 7.49515 15.2703 7.5052C15.1357 7.51525 15.0093 7.57329 14.9141 7.66875L12.4998 10.0845V0.5625L12.4953 0.486C12.4768 0.351335 12.4102 0.227919 12.3077 0.138575C12.2053 0.0492322 12.0732 5.73217e-06 11.9373 0ZM3.66105 0.165L0.289799 3.53625L0.235049 3.59925C0.155014 3.7076 0.11652 3.84108 0.126568 3.97541C0.136615 4.10974 0.194536 4.23601 0.289799 4.33125L0.352799 4.386C0.461152 4.46603 0.594629 4.50453 0.728961 4.49448C0.863293 4.48443 0.989558 4.42651 1.0848 4.33125L3.49755 1.91775V11.4412L3.50355 11.5177C3.52204 11.6524 3.58866 11.7758 3.6911 11.8652C3.79354 11.9545 3.92487 12.0037 4.0608 12.0037L4.13655 11.9985C4.27135 11.9802 4.39495 11.9136 4.48444 11.8112C4.57394 11.7087 4.62327 11.5773 4.6233 11.4412L4.62255 1.91925L7.0398 4.332L7.1028 4.386C7.21703 4.46979 7.35867 4.50739 7.49942 4.49128C7.64016 4.47518 7.76965 4.40657 7.86201 4.29915C7.95437 4.19173 8.00279 4.05342 7.99761 3.91185C7.99243 3.77028 7.93402 3.63588 7.83405 3.5355L4.45605 0.165L4.3923 0.111C4.28395 0.0309644 4.15047 -0.00752894 4.01614 0.00251842C3.88181 0.0125658 3.75554 0.0704869 3.6603 0.16575" fill="#0063F7"/>
</svg>
