<svg width="58" height="58" viewBox="0 0 58 58" fill="none" xmlns="http://www.w3.org/2000/svg">
<g filter="url(#filter0_d_3463_90293)">
<rect x="4" y="4" width="50" height="50" rx="8" fill="#E2F3FF"/>
<path d="M17.3333 45.6693C16.4167 45.6693 15.6322 45.3432 14.98 44.6909C14.3278 44.0387 14.0011 43.2537 14 42.3359V19.0026C14 18.0859 14.3267 17.3015 14.98 16.6493C15.6333 15.997 16.4178 15.6704 17.3333 15.6693H19V12.3359H22.3333V15.6693H35.6667V12.3359H39V15.6693H40.6667C41.5833 15.6693 42.3683 15.9959 43.0217 16.6493C43.675 17.3026 44.0011 18.087 44 19.0026V26.7943C44 27.2665 43.84 27.6626 43.52 27.9826C43.2 28.3026 42.8044 28.462 42.3333 28.4609C41.8622 28.4598 41.4667 28.2998 41.1467 27.9809C40.8267 27.662 40.6667 27.2665 40.6667 26.7943V25.6693H17.3333V42.3359H27C27.4722 42.3359 27.8683 42.4959 28.1883 42.8159C28.5083 43.1359 28.6678 43.5315 28.6667 44.0026C28.6656 44.4737 28.5056 44.8698 28.1867 45.1909C27.8678 45.5121 27.4722 45.6715 27 45.6693H17.3333ZM39 47.3359C36.6944 47.3359 34.7294 46.5232 33.105 44.8976C31.4806 43.2721 30.6678 41.3071 30.6667 39.0026C30.6656 36.6982 31.4783 34.7332 33.105 33.1076C34.7317 31.482 36.6967 30.6693 39 30.6693C41.3033 30.6693 43.2689 31.482 44.8967 33.1076C46.5244 34.7332 47.3367 36.6982 47.3333 39.0026C47.33 41.3071 46.5172 43.2726 44.895 44.8993C43.2728 46.5259 41.3078 47.3382 39 47.3359ZM41.7917 42.9609L42.9583 41.7943L39.8333 38.6693V34.0026H38.1667V39.3359L41.7917 42.9609Z" fill="#0063F7"/>
</g>
<defs>
<filter id="filter0_d_3463_90293" x="0" y="0" width="58" height="58" filterUnits="userSpaceOnUse" color-interpolation-filters="sRGB">
<feFlood flood-opacity="0" result="BackgroundImageFix"/>
<feColorMatrix in="SourceAlpha" type="matrix" values="0 0 0 0 0 0 0 0 0 0 0 0 0 0 0 0 0 0 127 0" result="hardAlpha"/>
<feOffset/>
<feGaussianBlur stdDeviation="2"/>
<feComposite in2="hardAlpha" operator="out"/>
<feColorMatrix type="matrix" values="0 0 0 0 0 0 0 0 0 0 0 0 0 0 0 0 0 0 0.25 0"/>
<feBlend mode="normal" in2="BackgroundImageFix" result="effect1_dropShadow_3463_90293"/>
<feBlend mode="normal" in="SourceGraphic" in2="effect1_dropShadow_3463_90293" result="shape"/>
</filter>
</defs>
</svg>
