<svg width="64" height="64" viewBox="0 0 64 64" fill="none" xmlns="http://www.w3.org/2000/svg">
<g filter="url(#filter0_d_2786_16762)">
<circle cx="32" cy="32" r="25" fill="#E2F3FF"/>
</g>
<path d="M32 22.5034C31.5408 22.5034 31.0862 22.5939 30.6619 22.7696C30.2377 22.9453 29.8523 23.2028 29.5276 23.5275C29.2029 23.8522 28.9454 24.2377 28.7697 24.6619C28.5939 25.0861 28.5035 25.5408 28.5035 25.9999C28.5035 26.4591 28.5939 26.9138 28.7697 27.338C28.9454 27.7622 29.2029 28.1476 29.5276 28.4723C29.8523 28.797 30.2377 29.0545 30.6619 29.2303C31.0862 29.406 31.5408 29.4964 32 29.4964C32.9273 29.4964 33.8167 29.128 34.4724 28.4723C35.1281 27.8166 35.4965 26.9272 35.4965 25.9999C35.4965 25.0726 35.1281 24.1832 34.4724 23.5275C33.8167 22.8718 32.9273 22.5034 32 22.5034ZM39.875 24.2499C39.1788 24.2499 38.5111 24.5265 38.0188 25.0188C37.5266 25.511 37.25 26.1787 37.25 26.8749C37.25 27.5711 37.5266 28.2388 38.0188 28.7311C38.5111 29.2234 39.1788 29.4999 39.875 29.4999C40.5712 29.4999 41.2389 29.2234 41.7312 28.7311C42.2234 28.2388 42.5 27.5711 42.5 26.8749C42.5 26.1787 42.2234 25.511 41.7312 25.0188C41.2389 24.5265 40.5712 24.2499 39.875 24.2499ZM24.125 24.2499C23.4288 24.2499 22.7611 24.5265 22.2688 25.0188C21.7766 25.511 21.5 26.1787 21.5 26.8749C21.5 27.5711 21.7766 28.2388 22.2688 28.7311C22.7611 29.2234 23.4288 29.4999 24.125 29.4999C24.8212 29.4999 25.4889 29.2234 25.9812 28.7311C26.4734 28.2388 26.75 27.5711 26.75 26.8749C26.75 26.1787 26.4734 25.511 25.9812 25.0188C25.4889 24.5265 24.8212 24.2499 24.125 24.2499ZM26.75 32.9877C26.7532 32.5257 26.939 32.0837 27.2669 31.7581C27.5947 31.4326 28.038 31.2499 28.5 31.2499H35.5C35.9641 31.2499 36.4092 31.4343 36.7374 31.7625C37.0656 32.0907 37.25 32.5358 37.25 32.9999V38.2499C37.2499 38.8007 37.1637 39.348 36.9945 39.8722C36.607 41.0599 35.8088 42.0706 34.7432 42.7227C33.6775 43.3749 32.4143 43.6258 31.1803 43.4304C29.9464 43.235 28.8225 42.6061 28.0105 41.6566C27.1985 40.7071 26.7516 39.4993 26.75 38.2499V32.9877ZM25 32.9999C25 32.3612 25.1698 31.7644 25.469 31.2499H21.5C21.0359 31.2499 20.5908 31.4343 20.2626 31.7625C19.9344 32.0907 19.75 32.5358 19.75 32.9999V37.3749C19.7498 38.0912 19.9254 38.7966 20.2615 39.4291C20.5976 40.0617 21.0838 40.602 21.6775 41.0027C22.2712 41.4034 22.9543 41.6522 23.6666 41.7273C24.3789 41.8023 25.0988 41.7013 25.763 41.4332C25.2593 40.4472 24.9978 39.3554 25 38.2482V32.9999ZM39 32.9999V38.2499C39 39.3962 38.7253 40.4777 38.237 41.4332C38.9012 41.7013 39.6211 41.8023 40.3334 41.7273C41.0457 41.6522 41.7288 41.4034 42.3225 41.0027C42.9162 40.602 43.4024 40.0617 43.7385 39.4291C44.0746 38.7966 44.2502 38.0912 44.25 37.3749V32.9999C44.25 32.5358 44.0656 32.0907 43.7374 31.7625C43.4092 31.4343 42.9641 31.2499 42.5 31.2499H38.531C38.8285 31.7644 39 32.3612 39 32.9999Z" fill="#0099FF"/>
<defs>
<filter id="filter0_d_2786_16762" x="0" y="0" width="64" height="64" filterUnits="userSpaceOnUse" color-interpolation-filters="sRGB">
<feFlood flood-opacity="0" result="BackgroundImageFix"/>
<feColorMatrix in="SourceAlpha" type="matrix" values="0 0 0 0 0 0 0 0 0 0 0 0 0 0 0 0 0 0 127 0" result="hardAlpha"/>
<feMorphology radius="2" operator="dilate" in="SourceAlpha" result="effect1_dropShadow_2786_16762"/>
<feOffset/>
<feGaussianBlur stdDeviation="2.5"/>
<feComposite in2="hardAlpha" operator="out"/>
<feColorMatrix type="matrix" values="0 0 0 0 0.425 0 0 0 0 0.5515 0 0 0 0 1 0 0 0 0.42 0"/>
<feBlend mode="normal" in2="BackgroundImageFix" result="effect1_dropShadow_2786_16762"/>
<feBlend mode="normal" in="SourceGraphic" in2="effect1_dropShadow_2786_16762" result="shape"/>
</filter>
</defs>
</svg>
