   <svg
            width="64"
            height="64"
            viewBox="0 0 64 64"
            fill="none"
            xmlns="http://www.w3.org/2000/svg"
          >
            <g filter="url(#filter0_d_2786_16762)">
              <circle cx="32" cy="32" r="25" fill="#E2F3FF" />
            </g>
            <path
              d="M31.8175 46.2542C31.3021 46.2542 30.7642 46.2152 30.2037 46.1372C29.6422 46.0583 28.9656 45.9338 28.1738 45.7639C26.3954 47.1839 24.3603 47.755 22.0685 47.4773C19.7776 47.1987 18.0894 46.1562 17.0039 44.3499C16.072 42.8278 15.7889 41.2007 16.1546 39.4686C16.5193 37.7357 17.4334 36.2855 18.897 35.1181C18.8778 34.9166 18.8682 34.6844 18.8682 34.4216V33.7278C17.492 32.6543 16.6148 31.2417 16.2366 29.4902C15.8585 27.7386 16.0931 26.138 16.9406 24.6883C17.7909 23.2794 19.0002 22.3048 20.5684 21.7643C22.1376 21.2238 23.7307 21.1857 25.3479 21.65C25.7836 20.2737 26.5931 19.1546 27.7765 18.2928C28.9598 17.4309 30.3068 17 31.8175 17C33.3281 17 34.6751 17.4309 35.8584 18.2928C37.0418 19.1546 37.8513 20.2737 38.287 21.65C39.9042 21.1857 41.5017 21.2238 43.0795 21.7643C44.6573 22.3048 45.8627 23.2799 46.6958 24.6897C47.5423 26.1217 47.7764 27.7131 47.3983 29.4637C47.0202 31.2143 46.1425 32.6352 44.7653 33.7264V34.423C44.7653 34.6849 44.7561 34.9166 44.7379 35.1181C46.2015 36.2864 47.1161 37.732 47.4818 39.4547C47.8475 41.1775 47.5643 42.8092 46.6324 44.3499C45.546 46.1572 43.8574 47.1996 41.5665 47.4773C39.2756 47.755 37.2405 47.1839 35.4611 45.7639C34.6693 45.9338 33.9927 46.0583 33.4313 46.1372C32.8698 46.2152 32.3319 46.2542 31.8175 46.2542ZM31.8175 44.8612C35.0326 44.8612 37.7558 43.7815 39.9872 41.6223C42.2186 39.4631 43.3343 36.8279 43.3343 33.7167C43.3343 32.9366 43.2575 32.1806 43.104 31.4488C42.9494 30.717 42.7181 30.0163 42.4101 29.3467C41.769 29.7934 41.0612 30.1403 40.2867 30.3873C39.5112 30.6334 38.6676 30.7564 37.7558 30.7564C35.511 30.7564 33.6002 29.9935 32.0233 28.4677C30.4465 26.9418 29.6581 25.0927 29.6581 22.9205V22.7603C26.9785 23.2562 24.749 24.5248 22.9697 26.5661C21.1903 28.6074 20.3006 30.9909 20.3006 33.7167C20.3006 36.8279 21.4163 39.4631 23.6477 41.6223C25.8791 43.7815 28.6023 44.8612 31.8175 44.8612ZM27.4986 36.8511C26.9948 36.8511 26.5687 36.6825 26.2203 36.3454C25.8719 36.0083 25.6982 35.5964 25.6991 35.1098C25.7001 34.6231 25.8743 34.2108 26.2217 33.8727C26.5691 33.5347 26.9948 33.3666 27.4986 33.3684C28.0025 33.3703 28.4286 33.5388 28.777 33.8741C29.1254 34.2094 29.2991 34.6213 29.2982 35.1098C29.2972 35.5983 29.123 36.0106 28.7756 36.3468C28.4282 36.683 28.0025 36.8511 27.4986 36.8511ZM36.1363 36.8511C35.6324 36.8511 35.2063 36.6825 34.8579 36.3454C34.5095 36.0083 34.3358 35.5964 34.3368 35.1098C34.3377 34.6231 34.5119 34.2108 34.8593 33.8727C35.2068 33.5347 35.6324 33.3666 36.1363 33.3684C36.6401 33.3703 37.0663 33.5388 37.4146 33.8741C37.763 34.2094 37.9367 34.6213 37.9358 35.1098C37.9348 35.5983 37.7606 36.0106 37.4132 36.3468C37.0658 36.683 36.6401 36.8511 36.1363 36.8511Z"
              fill="#0063F7"
            />
            <defs>
              <filter
                id="filter0_d_2786_16762"
                x="0"
                y="0"
                width="64"
                height="64"
                filterUnits="userSpaceOnUse"
                color-interpolation-filters="sRGB"
              >
                <feFlood flood-opacity="0" result="BackgroundImageFix" />
                <feColorMatrix
                  in="SourceAlpha"
                  type="matrix"
                  values="0 0 0 0 0 0 0 0 0 0 0 0 0 0 0 0 0 0 127 0"
                  result="hardAlpha"
                />
                <feMorphology
                  radius="2"
                  operator="dilate"
                  in="SourceAlpha"
                  result="effect1_dropShadow_2786_16762"
                />
                <feOffset />
                <feGaussianBlur stdDeviation="2.5" />
                <feComposite in2="hardAlpha" operator="out" />
                <feColorMatrix
                  type="matrix"
                  values="0 0 0 0 0.425 0 0 0 0 0.5515 0 0 0 0 1 0 0 0 0.42 0"
                />
                <feBlend
                  mode="normal"
                  in2="BackgroundImageFix"
                  result="effect1_dropShadow_2786_16762"
                />
                <feBlend
                  mode="normal"
                  in="SourceGraphic"
                  in2="effect1_dropShadow_2786_16762"
                  result="shape"
                />
              </filter>
            </defs>
          </svg>