<svg width="18" height="18" viewBox="0 0 18 18" fill="none" xmlns="http://www.w3.org/2000/svg">
<path d="M12.9375 3L12.8625 3.00525C12.7276 3.0234 12.6038 3.08988 12.5142 3.19236C12.4245 3.29483 12.3751 3.42635 12.375 3.5625V13.0815L9.96004 10.668L9.89704 10.614C9.78289 10.5292 9.64083 10.4907 9.49947 10.5064C9.3581 10.5221 9.22793 10.5907 9.13514 10.6985C9.04236 10.8063 8.99386 10.9453 8.99941 11.0874C9.00496 11.2295 9.06414 11.3643 9.16504 11.4645L12.543 14.8395L12.606 14.8935C12.7144 14.9735 12.8479 15.012 12.9822 15.002C13.1165 14.9919 13.2428 14.934 13.338 14.8387L16.7108 11.4637L16.7648 11.4008C16.845 11.2923 16.8836 11.1587 16.8736 11.0242C16.8635 10.8897 16.8055 10.7633 16.71 10.668L16.647 10.614C16.5386 10.5338 16.405 10.4951 16.2705 10.5052C16.136 10.5152 16.0096 10.5733 15.9143 10.6688L13.5 13.0845V3.5625L13.4955 3.486C13.4771 3.35133 13.4104 3.22792 13.308 3.13858C13.2056 3.04923 13.0735 3.00001 12.9375 3ZM4.66129 3.165L1.29004 6.53625L1.23529 6.59925C1.15526 6.7076 1.11676 6.84108 1.12681 6.97541C1.13686 7.10974 1.19478 7.23601 1.29004 7.33125L1.35304 7.386C1.4614 7.46603 1.59487 7.50453 1.72921 7.49448C1.86354 7.48443 1.9898 7.42651 2.08504 7.33125L4.49779 4.91775V14.4412L4.50379 14.5177C4.52228 14.6524 4.5889 14.7758 4.69135 14.8652C4.79379 14.9545 4.92512 15.0037 5.06104 15.0037L5.13679 14.9985C5.2716 14.9802 5.39519 14.9136 5.48469 14.8112C5.57418 14.7087 5.62351 14.5773 5.62354 14.4412L5.62279 4.91925L8.04004 7.332L8.10304 7.386C8.21727 7.46979 8.35891 7.50739 8.49966 7.49128C8.64041 7.47518 8.7699 7.40657 8.86225 7.29915C8.95461 7.19173 9.00304 7.05342 8.99785 6.91185C8.99267 6.77028 8.93426 6.63588 8.83429 6.5355L5.45629 3.165L5.39254 3.111C5.28419 3.03096 5.15071 2.99247 5.01638 3.00252C4.88205 3.01257 4.75579 3.07049 4.66054 3.16575" fill="#0063F7"/>
</svg>
