<svg width="50" height="50" viewBox="0 0 50 50" fill="none" xmlns="http://www.w3.org/2000/svg">
<rect width="50" height="50" rx="8" fill="#EEEEEE"/>
<rect width="50" height="50" rx="8" stroke="#E0E0E0"/>
<path d="M27.5004 25V34.85C27.5504 35.225 27.4254 35.625 27.1379 35.8875C27.0223 36.0034 26.8849 36.0953 26.7337 36.158C26.5825 36.2208 26.4204 36.2531 26.2567 36.2531C26.0929 36.2531 25.9308 36.2208 25.7796 36.158C25.6284 36.0953 25.491 36.0034 25.3754 35.8875L22.8629 33.375C22.7267 33.2417 22.623 33.0787 22.5602 32.8987C22.4973 32.7187 22.4768 32.5267 22.5004 32.3375V25H22.4629L15.2629 15.775C15.0599 15.5144 14.9683 15.1841 15.0081 14.8562C15.048 14.5283 15.216 14.2294 15.4754 14.025C15.7129 13.85 15.9754 13.75 16.2504 13.75H33.7504C34.0254 13.75 34.2879 13.85 34.5254 14.025C34.7849 14.2294 34.9529 14.5283 34.9927 14.8562C35.0325 15.1841 34.9409 15.5144 34.7379 15.775L27.5379 25H27.5004Z" fill="#616161"/>
</svg>
