<svg width="30" height="30" viewBox="0 0 30 30" fill="none" xmlns="http://www.w3.org/2000/svg">
<path d="M25.3125 10.3125H18.75V3.75C18.75 3.00408 18.4537 2.28871 17.9262 1.76126C17.3988 1.23382 16.6834 0.9375 15.9375 0.9375H4.6875C3.94158 0.9375 3.22621 1.23382 2.69876 1.76126C2.17132 2.28871 1.875 3.00408 1.875 3.75V28.125C1.875 28.3736 1.97377 28.6121 2.14959 28.7879C2.3254 28.9637 2.56386 29.0625 2.8125 29.0625H8.90625C9.03057 29.0625 9.1498 29.0131 9.23771 28.9252C9.32561 28.8373 9.375 28.7181 9.375 28.5938V24.4014C9.375 23.8969 9.76289 23.4639 10.2674 23.4387C10.3941 23.4326 10.5208 23.4523 10.6397 23.4966C10.7587 23.5409 10.8674 23.6088 10.9592 23.6964C11.0511 23.7839 11.1243 23.8892 11.1742 24.0059C11.2242 24.1225 11.25 24.2481 11.25 24.375V28.5938C11.25 28.7181 11.2994 28.8373 11.3873 28.9252C11.4752 29.0131 11.5944 29.0625 11.7188 29.0625H27.1875C27.4361 29.0625 27.6746 28.9637 27.8504 28.7879C28.0262 28.6121 28.125 28.3736 28.125 28.125V13.125C28.125 12.3791 27.8287 11.6637 27.3012 11.1363C26.7738 10.6088 26.0584 10.3125 25.3125 10.3125ZM5.74688 25.3049C5.55271 25.3303 5.35547 25.2942 5.18284 25.2018C5.0102 25.1094 4.87084 24.9652 4.7843 24.7896C4.69777 24.6139 4.66841 24.4156 4.70035 24.2224C4.73229 24.0292 4.82392 23.8508 4.96239 23.7124C5.10085 23.5739 5.27919 23.4823 5.47239 23.4504C5.66558 23.4184 5.86393 23.4478 6.03959 23.5343C6.21525 23.6208 6.3594 23.7602 6.45182 23.9328C6.54424 24.1055 6.58028 24.3027 6.55488 24.4969C6.52808 24.7018 6.43434 24.8921 6.28821 25.0382C6.14209 25.1843 5.95178 25.2781 5.74688 25.3049ZM5.74688 20.6174C5.55271 20.6428 5.35547 20.6067 5.18284 20.5143C5.0102 20.4219 4.87084 20.2777 4.7843 20.1021C4.69777 19.9264 4.66841 19.7281 4.70035 19.5349C4.73229 19.3417 4.82392 19.1633 4.96239 19.0249C5.10085 18.8864 5.27919 18.7948 5.47239 18.7629C5.66558 18.7309 5.86393 18.7603 6.03959 18.8468C6.21525 18.9333 6.3594 19.0727 6.45182 19.2453C6.54424 19.418 6.58028 19.6152 6.55488 19.8094C6.52808 20.0143 6.43434 20.2046 6.28821 20.3507C6.14209 20.4968 5.95178 20.5906 5.74688 20.6174ZM5.74688 15.9299C5.55271 15.9553 5.35547 15.9192 5.18284 15.8268C5.0102 15.7344 4.87084 15.5902 4.7843 15.4146C4.69777 15.2389 4.66841 15.0406 4.70035 14.8474C4.73229 14.6542 4.82392 14.4759 4.96239 14.3374C5.10085 14.1989 5.27919 14.1073 5.47239 14.0754C5.66558 14.0434 5.86393 14.0728 6.03959 14.1593C6.21525 14.2458 6.3594 14.3852 6.45182 14.5578C6.54424 14.7305 6.58028 14.9277 6.55488 15.1219C6.52808 15.3268 6.43434 15.5171 6.28821 15.6632C6.14209 15.8093 5.95178 15.9031 5.74688 15.9299ZM5.74688 11.2424C5.55271 11.2678 5.35547 11.2317 5.18284 11.1393C5.0102 11.0469 4.87084 10.9027 4.7843 10.7271C4.69777 10.5514 4.66841 10.3531 4.70035 10.1599C4.73229 9.96669 4.82392 9.78835 4.96239 9.64989C5.10085 9.51142 5.27919 9.41979 5.47239 9.38785C5.66558 9.35592 5.86393 9.38527 6.03959 9.4718C6.21525 9.55834 6.3594 9.6977 6.45182 9.87034C6.54424 10.043 6.58028 10.2402 6.55488 10.4344C6.52808 10.6393 6.43434 10.8296 6.28821 10.9757C6.14209 11.1218 5.95178 11.2156 5.74688 11.2424ZM5.74688 6.55488C5.55271 6.58028 5.35547 6.54424 5.18284 6.45182C5.0102 6.3594 4.87084 6.21525 4.7843 6.03959C4.69777 5.86393 4.66841 5.66558 4.70035 5.47239C4.73229 5.27919 4.82392 5.10085 4.96239 4.96239C5.10085 4.82392 5.27919 4.73229 5.47239 4.70035C5.66558 4.66841 5.86393 4.69777 6.03959 4.7843C6.21525 4.87084 6.3594 5.0102 6.45182 5.18284C6.54424 5.35547 6.58028 5.55271 6.55488 5.74688C6.52808 5.95178 6.43434 6.14209 6.28821 6.28821C6.14209 6.43434 5.95178 6.52808 5.74688 6.55488ZM10.4344 20.6174C10.2402 20.6428 10.043 20.6067 9.87034 20.5143C9.6977 20.4219 9.55834 20.2777 9.4718 20.1021C9.38527 19.9264 9.35592 19.7281 9.38785 19.5349C9.41979 19.3417 9.51142 19.1633 9.64989 19.0249C9.78835 18.8864 9.96669 18.7948 10.1599 18.7629C10.3531 18.7309 10.5514 18.7603 10.7271 18.8468C10.9027 18.9333 11.0469 19.0727 11.1393 19.2453C11.2317 19.418 11.2678 19.6152 11.2424 19.8094C11.2156 20.0143 11.1218 20.2046 10.9757 20.3507C10.8296 20.4968 10.6393 20.5906 10.4344 20.6174ZM10.4344 15.9299C10.2402 15.9553 10.043 15.9192 9.87034 15.8268C9.6977 15.7344 9.55834 15.5902 9.4718 15.4146C9.38527 15.2389 9.35592 15.0406 9.38785 14.8474C9.41979 14.6542 9.51142 14.4759 9.64989 14.3374C9.78835 14.1989 9.96669 14.1073 10.1599 14.0754C10.3531 14.0434 10.5514 14.0728 10.7271 14.1593C10.9027 14.2458 11.0469 14.3852 11.1393 14.5578C11.2317 14.7305 11.2678 14.9277 11.2424 15.1219C11.2156 15.3268 11.1218 15.5171 10.9757 15.6632C10.8296 15.8093 10.6393 15.9031 10.4344 15.9299ZM10.4344 11.2424C10.2402 11.2678 10.043 11.2317 9.87034 11.1393C9.6977 11.0469 9.55834 10.9027 9.4718 10.7271C9.38527 10.5514 9.35592 10.3531 9.38785 10.1599C9.41979 9.96669 9.51142 9.78835 9.64989 9.64989C9.78835 9.51142 9.96669 9.41979 10.1599 9.38785C10.3531 9.35592 10.5514 9.38527 10.7271 9.4718C10.9027 9.55834 11.0469 9.6977 11.1393 9.87034C11.2317 10.043 11.2678 10.2402 11.2424 10.4344C11.2156 10.6393 11.1218 10.8296 10.9757 10.9757C10.8296 11.1218 10.6393 11.2156 10.4344 11.2424ZM10.4344 6.55488C10.2402 6.58028 10.043 6.54424 9.87034 6.45182C9.6977 6.3594 9.55834 6.21525 9.4718 6.03959C9.38527 5.86393 9.35592 5.66558 9.38785 5.47239C9.41979 5.27919 9.51142 5.10085 9.64989 4.96239C9.78835 4.82392 9.96669 4.73229 10.1599 4.70035C10.3531 4.66841 10.5514 4.69777 10.7271 4.7843C10.9027 4.87084 11.0469 5.0102 11.1393 5.18284C11.2317 5.35547 11.2678 5.55271 11.2424 5.74688C11.2156 5.95178 11.1218 6.14209 10.9757 6.28821C10.8296 6.43434 10.6393 6.52808 10.4344 6.55488ZM15.1219 25.3049C14.9277 25.3303 14.7305 25.2942 14.5578 25.2018C14.3852 25.1094 14.2458 24.9652 14.1593 24.7896C14.0728 24.6139 14.0434 24.4156 14.0754 24.2224C14.1073 24.0292 14.1989 23.8508 14.3374 23.7124C14.4759 23.5739 14.6542 23.4823 14.8474 23.4504C15.0406 23.4184 15.2389 23.4478 15.4146 23.5343C15.5902 23.6208 15.7344 23.7602 15.8268 23.9328C15.9192 24.1055 15.9553 24.3027 15.9299 24.4969C15.9031 24.7018 15.8093 24.8921 15.6632 25.0382C15.5171 25.1843 15.3268 25.2781 15.1219 25.3049ZM15.1219 20.6174C14.9277 20.6428 14.7305 20.6067 14.5578 20.5143C14.3852 20.4219 14.2458 20.2777 14.1593 20.1021C14.0728 19.9264 14.0434 19.7281 14.0754 19.5349C14.1073 19.3417 14.1989 19.1633 14.3374 19.0249C14.4759 18.8864 14.6542 18.7948 14.8474 18.7629C15.0406 18.7309 15.2389 18.7603 15.4146 18.8468C15.5902 18.9333 15.7344 19.0727 15.8268 19.2453C15.9192 19.418 15.9553 19.6152 15.9299 19.8094C15.9031 20.0143 15.8093 20.2046 15.6632 20.3507C15.5171 20.4968 15.3268 20.5906 15.1219 20.6174ZM15.1219 15.9299C14.9277 15.9553 14.7305 15.9192 14.5578 15.8268C14.3852 15.7344 14.2458 15.5902 14.1593 15.4146C14.0728 15.2389 14.0434 15.0406 14.0754 14.8474C14.1073 14.6542 14.1989 14.4759 14.3374 14.3374C14.4759 14.1989 14.6542 14.1073 14.8474 14.0754C15.0406 14.0434 15.2389 14.0728 15.4146 14.1593C15.5902 14.2458 15.7344 14.3852 15.8268 14.5578C15.9192 14.7305 15.9553 14.9277 15.9299 15.1219C15.9031 15.3268 15.8093 15.5171 15.6632 15.6632C15.5171 15.8093 15.3268 15.9031 15.1219 15.9299ZM15.1219 11.2424C14.9277 11.2678 14.7305 11.2317 14.5578 11.1393C14.3852 11.0469 14.2458 10.9027 14.1593 10.7271C14.0728 10.5514 14.0434 10.3531 14.0754 10.1599C14.1073 9.96669 14.1989 9.78835 14.3374 9.64989C14.4759 9.51142 14.6542 9.41979 14.8474 9.38785C15.0406 9.35592 15.2389 9.38527 15.4146 9.4718C15.5902 9.55834 15.7344 9.6977 15.8268 9.87034C15.9192 10.043 15.9553 10.2402 15.9299 10.4344C15.9031 10.6393 15.8093 10.8296 15.6632 10.9757C15.5171 11.1218 15.3268 11.2156 15.1219 11.2424ZM15.1219 6.55488C14.9277 6.58028 14.7305 6.54424 14.5578 6.45182C14.3852 6.3594 14.2458 6.21525 14.1593 6.03959C14.0728 5.86393 14.0434 5.66558 14.0754 5.47239C14.1073 5.27919 14.1989 5.10085 14.3374 4.96239C14.4759 4.82392 14.6542 4.73229 14.8474 4.70035C15.0406 4.66841 15.2389 4.69777 15.4146 4.7843C15.5902 4.87084 15.7344 5.0102 15.8268 5.18284C15.9192 5.35547 15.9553 5.55271 15.9299 5.74688C15.9031 5.95178 15.8093 6.14209 15.6632 6.28821C15.5171 6.43434 15.3268 6.52808 15.1219 6.55488ZM26.0156 27.1875H18.75V12.1875H25.3125C25.5611 12.1875 25.7996 12.2863 25.9754 12.4621C26.1512 12.6379 26.25 12.8764 26.25 13.125V26.9531C26.25 27.0153 26.2253 27.0749 26.1814 27.1189C26.1374 27.1628 26.0778 27.1875 26.0156 27.1875Z" fill="#0063F7"/>
<path d="M23.4375 23.4375C23.2521 23.4375 23.0708 23.4925 22.9167 23.5955C22.7625 23.6985 22.6423 23.8449 22.5714 24.0162C22.5004 24.1875 22.4818 24.376 22.518 24.5579C22.5542 24.7398 22.6435 24.9068 22.7746 25.0379C22.9057 25.169 23.0727 25.2583 23.2546 25.2945C23.4365 25.3307 23.625 25.3121 23.7963 25.2411C23.9676 25.1702 24.114 25.05 24.217 24.8958C24.32 24.7417 24.375 24.5604 24.375 24.375C24.375 24.1264 24.2762 23.8879 24.1004 23.7121C23.9246 23.5363 23.6861 23.4375 23.4375 23.4375ZM23.4375 18.75C23.2521 18.75 23.0708 18.805 22.9167 18.908C22.7625 19.011 22.6423 19.1574 22.5714 19.3287C22.5004 19.5 22.4818 19.6885 22.518 19.8704C22.5542 20.0523 22.6435 20.2193 22.7746 20.3504C22.9057 20.4815 23.0727 20.5708 23.2546 20.607C23.4365 20.6432 23.625 20.6246 23.7963 20.5536C23.9676 20.4827 24.114 20.3625 24.217 20.2083C24.32 20.0542 24.375 19.8729 24.375 19.6875C24.375 19.4389 24.2762 19.2004 24.1004 19.0246C23.9246 18.8488 23.6861 18.75 23.4375 18.75ZM23.4375 14.0625C23.2521 14.0625 23.0708 14.1175 22.9167 14.2205C22.7625 14.3235 22.6423 14.4699 22.5714 14.6412C22.5004 14.8125 22.4818 15.001 22.518 15.1829C22.5542 15.3648 22.6435 15.5318 22.7746 15.6629C22.9057 15.794 23.0727 15.8833 23.2546 15.9195C23.4365 15.9557 23.625 15.9371 23.7963 15.8661C23.9676 15.7952 24.114 15.675 24.217 15.5208C24.32 15.3667 24.375 15.1854 24.375 15C24.375 14.7514 24.2762 14.5129 24.1004 14.3371C23.9246 14.1613 23.6861 14.0625 23.4375 14.0625ZM19.6875 23.4375C19.5021 23.4375 19.3208 23.4925 19.1667 23.5955C19.0125 23.6985 18.8923 23.8449 18.8214 24.0162C18.7504 24.1875 18.7318 24.376 18.768 24.5579C18.8042 24.7398 18.8935 24.9068 19.0246 25.0379C19.1557 25.169 19.3227 25.2583 19.5046 25.2945C19.6865 25.3307 19.875 25.3121 20.0463 25.2411C20.2176 25.1702 20.364 25.05 20.467 24.8958C20.57 24.7417 20.625 24.5604 20.625 24.375C20.625 24.1264 20.5262 23.8879 20.3504 23.7121C20.1746 23.5363 19.9361 23.4375 19.6875 23.4375ZM19.6875 18.75C19.5021 18.75 19.3208 18.805 19.1667 18.908C19.0125 19.011 18.8923 19.1574 18.8214 19.3287C18.7504 19.5 18.7318 19.6885 18.768 19.8704C18.8042 20.0523 18.8935 20.2193 19.0246 20.3504C19.1557 20.4815 19.3227 20.5708 19.5046 20.607C19.6865 20.6432 19.875 20.6246 20.0463 20.5536C20.2176 20.4827 20.364 20.3625 20.467 20.2083C20.57 20.0542 20.625 19.8729 20.625 19.6875C20.625 19.4389 20.5262 19.2004 20.3504 19.0246C20.1746 18.8488 19.9361 18.75 19.6875 18.75ZM19.6875 14.0625C19.5021 14.0625 19.3208 14.1175 19.1667 14.2205C19.0125 14.3235 18.8923 14.4699 18.8214 14.6412C18.7504 14.8125 18.7318 15.001 18.768 15.1829C18.8042 15.3648 18.8935 15.5318 19.0246 15.6629C19.1557 15.794 19.3227 15.8833 19.5046 15.9195C19.6865 15.9557 19.875 15.9371 20.0463 15.8661C20.2176 15.7952 20.364 15.675 20.467 15.5208C20.57 15.3667 20.625 15.1854 20.625 15C20.625 14.7514 20.5262 14.5129 20.3504 14.3371C20.1746 14.1613 19.9361 14.0625 19.6875 14.0625Z" fill="#0063F7"/>
</svg>
