<svg width="50" height="50" viewBox="0 0 50 50" fill="none" xmlns="http://www.w3.org/2000/svg">
<circle cx="25" cy="25" r="25" fill="#E2F3FF"/>
<path d="M24.9875 12.5C18.0875 12.5 12.5 18.1 12.5 25C12.5 31.9 18.0875 37.5 24.9875 37.5C31.9 37.5 37.5 31.9 37.5 25C37.5 18.1 31.9 12.5 24.9875 12.5ZM33.65 20H29.9625C29.5707 18.452 28.9914 16.9576 28.2375 15.55C30.5176 16.335 32.439 17.9147 33.65 20ZM25 15.05C26.0375 16.55 26.85 18.2125 27.3875 20H22.6125C23.15 18.2125 23.9625 16.55 25 15.05ZM15.325 27.5C15.125 26.7 15 25.8625 15 25C15 24.1375 15.125 23.3 15.325 22.5H19.55C19.45 23.325 19.375 24.15 19.375 25C19.375 25.85 19.45 26.675 19.55 27.5H15.325ZM16.35 30H20.0375C20.4375 31.5625 21.0125 33.0625 21.7625 34.45C19.4807 33.668 17.5584 32.0876 16.35 30ZM20.0375 20H16.35C17.5584 17.9124 19.4807 16.332 21.7625 15.55C21.0086 16.9576 20.4293 18.452 20.0375 20ZM25 34.95C23.9625 33.45 23.15 31.7875 22.6125 30H27.3875C26.85 31.7875 26.0375 33.45 25 34.95ZM27.925 27.5H22.075C21.9625 26.675 21.875 25.85 21.875 25C21.875 24.15 21.9625 23.3125 22.075 22.5H27.925C28.0375 23.3125 28.125 24.15 28.125 25C28.125 25.85 28.0375 26.675 27.925 27.5ZM28.2375 34.45C28.9875 33.0625 29.5625 31.5625 29.9625 30H33.65C32.439 32.0853 30.5176 33.665 28.2375 34.45ZM30.45 27.5C30.55 26.675 30.625 25.85 30.625 25C30.625 24.15 30.55 23.325 30.45 22.5H34.675C34.875 23.3 35 24.1375 35 25C35 25.8625 34.875 26.7 34.675 27.5H30.45Z" fill="#0063F7"/>
</svg>
