<svg width="250" height="176" viewBox="0 0 250 176" fill="none" xmlns="http://www.w3.org/2000/svg">
<g clip-path="url(#clip0_9020_6405)">
<rect width="250" height="176" fill="white"/>
<path d="M0 8C0 3.58172 3.58172 0 8 0H242C246.418 0 250 3.58172 250 8V178H0V8Z" fill="#E2F3FF"/>
<path d="M99.0391 94H96.7344L91.1406 84.8828H91.0703C91.0911 85.1901 91.1094 85.5156 91.125 85.8594C91.1458 86.2031 91.1615 86.5573 91.1719 86.9219C91.1875 87.2865 91.2005 87.6562 91.2109 88.0312V94H89.5078V82.5781H91.7969L97.3828 91.6328H97.4375C97.4271 91.3672 97.4141 91.0625 97.3984 90.7188C97.3828 90.375 97.3672 90.0208 97.3516 89.6562C97.3411 89.2865 97.3333 88.9297 97.3281 88.5859V82.5781H99.0391V94ZM109.508 89.6562C109.508 90.375 109.414 91.013 109.227 91.5703C109.039 92.1276 108.766 92.599 108.406 92.9844C108.047 93.3646 107.615 93.6562 107.109 93.8594C106.604 94.0573 106.034 94.1562 105.398 94.1562C104.805 94.1562 104.26 94.0573 103.766 93.8594C103.271 93.6562 102.841 93.3646 102.477 92.9844C102.117 92.599 101.839 92.1276 101.641 91.5703C101.443 91.013 101.344 90.375 101.344 89.6562C101.344 88.7031 101.508 87.8958 101.836 87.2344C102.169 86.5677 102.643 86.0599 103.258 85.7109C103.872 85.362 104.604 85.1875 105.453 85.1875C106.25 85.1875 106.953 85.362 107.562 85.7109C108.172 86.0599 108.648 86.5677 108.992 87.2344C109.336 87.901 109.508 88.7083 109.508 89.6562ZM103.234 89.6562C103.234 90.2865 103.31 90.8255 103.461 91.2734C103.617 91.7214 103.857 92.0651 104.18 92.3047C104.503 92.5391 104.919 92.6562 105.43 92.6562C105.94 92.6562 106.357 92.5391 106.68 92.3047C107.003 92.0651 107.24 91.7214 107.391 91.2734C107.542 90.8255 107.617 90.2865 107.617 89.6562C107.617 89.026 107.542 88.4922 107.391 88.0547C107.24 87.612 107.003 87.276 106.68 87.0469C106.357 86.8125 105.938 86.6953 105.422 86.6953C104.661 86.6953 104.107 86.9505 103.758 87.4609C103.409 87.9714 103.234 88.7031 103.234 89.6562ZM115.961 94V82.5781H117.836V94H115.961ZM130.438 85.1875C131.406 85.1875 132.135 85.4375 132.625 85.9375C133.12 86.4375 133.367 87.2396 133.367 88.3438V94H131.531V88.6719C131.531 88.0156 131.404 87.5208 131.148 87.1875C130.893 86.8542 130.505 86.6875 129.984 86.6875C129.255 86.6875 128.729 86.9219 128.406 87.3906C128.089 87.8542 127.93 88.5286 127.93 89.4141V94H126.094V88.6719C126.094 88.2344 126.036 87.8698 125.922 87.5781C125.812 87.2812 125.643 87.0599 125.414 86.9141C125.185 86.763 124.896 86.6875 124.547 86.6875C124.042 86.6875 123.638 86.8021 123.336 87.0312C123.039 87.2604 122.826 87.599 122.695 88.0469C122.565 88.4896 122.5 89.0339 122.5 89.6797V94H120.664V85.3516H122.094L122.352 86.5156H122.453C122.63 86.2135 122.849 85.9661 123.109 85.7734C123.375 85.5755 123.669 85.4297 123.992 85.3359C124.315 85.237 124.651 85.1875 125 85.1875C125.646 85.1875 126.19 85.3021 126.633 85.5312C127.076 85.7552 127.406 86.099 127.625 86.5625H127.766C128.036 86.0938 128.414 85.7474 128.898 85.5234C129.383 85.2995 129.896 85.1875 130.438 85.1875ZM139.32 85.1875C140.414 85.1875 141.24 85.4297 141.797 85.9141C142.359 86.3984 142.641 87.1536 142.641 88.1797V94H141.336L140.984 92.7734H140.922C140.677 93.0859 140.424 93.3438 140.164 93.5469C139.904 93.75 139.602 93.901 139.258 94C138.919 94.1042 138.505 94.1562 138.016 94.1562C137.5 94.1562 137.039 94.0625 136.633 93.875C136.227 93.6823 135.906 93.3906 135.672 93C135.438 92.6094 135.32 92.1146 135.32 91.5156C135.32 90.625 135.651 89.9557 136.312 89.5078C136.979 89.0599 137.984 88.8125 139.328 88.7656L140.828 88.7109V88.2578C140.828 87.6589 140.688 87.2318 140.406 86.9766C140.13 86.7214 139.74 86.5938 139.234 86.5938C138.802 86.5938 138.383 86.6562 137.977 86.7812C137.57 86.9062 137.174 87.0599 136.789 87.2422L136.195 85.9453C136.617 85.7214 137.096 85.5391 137.633 85.3984C138.174 85.2578 138.737 85.1875 139.32 85.1875ZM140.82 89.8672L139.703 89.9062C138.786 89.9375 138.143 90.0938 137.773 90.375C137.404 90.6562 137.219 91.0417 137.219 91.5312C137.219 91.9583 137.346 92.2708 137.602 92.4688C137.857 92.6615 138.193 92.7578 138.609 92.7578C139.245 92.7578 139.771 92.5781 140.188 92.2188C140.609 91.8542 140.82 91.3203 140.82 90.6172V89.8672ZM147.68 97.8438C146.508 97.8438 145.609 97.6328 144.984 97.2109C144.359 96.7891 144.047 96.1979 144.047 95.4375C144.047 94.9062 144.214 94.4557 144.547 94.0859C144.88 93.7214 145.357 93.4688 145.977 93.3281C145.742 93.224 145.539 93.0625 145.367 92.8438C145.201 92.6198 145.117 92.3724 145.117 92.1016C145.117 91.7786 145.208 91.5026 145.391 91.2734C145.573 91.0443 145.846 90.8229 146.211 90.6094C145.758 90.4167 145.393 90.1042 145.117 89.6719C144.846 89.2344 144.711 88.7214 144.711 88.1328C144.711 87.5078 144.844 86.9766 145.109 86.5391C145.375 86.0964 145.763 85.7604 146.273 85.5312C146.784 85.2969 147.401 85.1797 148.125 85.1797C148.281 85.1797 148.451 85.1901 148.633 85.2109C148.82 85.2266 148.992 85.2474 149.148 85.2734C149.31 85.2943 149.432 85.3177 149.516 85.3438H152.508V86.3672L151.039 86.6406C151.18 86.8385 151.292 87.0651 151.375 87.3203C151.458 87.5703 151.5 87.8438 151.5 88.1406C151.5 89.0365 151.19 89.7422 150.57 90.2578C149.956 90.7682 149.107 91.0234 148.023 91.0234C147.763 91.013 147.51 90.9922 147.266 90.9609C147.078 91.0755 146.935 91.2031 146.836 91.3438C146.737 91.4792 146.688 91.6328 146.688 91.8047C146.688 91.9453 146.737 92.0599 146.836 92.1484C146.935 92.2318 147.081 92.2943 147.273 92.3359C147.471 92.3776 147.711 92.3984 147.992 92.3984H149.484C150.432 92.3984 151.156 92.599 151.656 93C152.156 93.401 152.406 93.9896 152.406 94.7656C152.406 95.75 152 96.5078 151.188 97.0391C150.375 97.5755 149.206 97.8438 147.68 97.8438ZM147.75 96.5547C148.391 96.5547 148.93 96.4922 149.367 96.3672C149.805 96.2422 150.135 96.0625 150.359 95.8281C150.583 95.599 150.695 95.3255 150.695 95.0078C150.695 94.7266 150.625 94.5104 150.484 94.3594C150.344 94.2083 150.133 94.1042 149.852 94.0469C149.57 93.9896 149.221 93.9609 148.805 93.9609H147.445C147.107 93.9609 146.807 94.013 146.547 94.1172C146.286 94.2266 146.083 94.3828 145.938 94.5859C145.797 94.7891 145.727 95.0339 145.727 95.3203C145.727 95.7161 145.901 96.0208 146.25 96.2344C146.604 96.4479 147.104 96.5547 147.75 96.5547ZM148.109 89.8203C148.646 89.8203 149.044 89.6745 149.305 89.3828C149.565 89.0859 149.695 88.6693 149.695 88.1328C149.695 87.5495 149.56 87.112 149.289 86.8203C149.023 86.5286 148.628 86.3828 148.102 86.3828C147.586 86.3828 147.193 86.5312 146.922 86.8281C146.656 87.125 146.523 87.5651 146.523 88.1484C146.523 88.6745 146.656 89.0859 146.922 89.3828C147.193 89.6745 147.589 89.8203 148.109 89.8203ZM157.531 85.1875C158.302 85.1875 158.964 85.3464 159.516 85.6641C160.068 85.9818 160.492 86.4323 160.789 87.0156C161.086 87.599 161.234 88.2969 161.234 89.1094V90.0938H155.461C155.482 90.9323 155.706 91.5781 156.133 92.0312C156.565 92.4844 157.169 92.7109 157.945 92.7109C158.497 92.7109 158.992 92.6589 159.43 92.5547C159.872 92.4453 160.328 92.2865 160.797 92.0781V93.5703C160.365 93.7734 159.924 93.9219 159.477 94.0156C159.029 94.1094 158.492 94.1562 157.867 94.1562C157.018 94.1562 156.271 93.9922 155.625 93.6641C154.984 93.3307 154.482 92.8359 154.117 92.1797C153.758 91.5234 153.578 90.7083 153.578 89.7344C153.578 88.7656 153.742 87.9427 154.07 87.2656C154.398 86.5885 154.859 86.0729 155.453 85.7188C156.047 85.3646 156.74 85.1875 157.531 85.1875ZM157.531 86.5703C156.953 86.5703 156.484 86.7578 156.125 87.1328C155.771 87.5078 155.562 88.0573 155.5 88.7812H159.438C159.432 88.349 159.359 87.9661 159.219 87.6328C159.083 87.2995 158.875 87.0391 158.594 86.8516C158.318 86.6641 157.964 86.5703 157.531 86.5703Z" fill="#616161"/>
</g>
<defs>
<clipPath id="clip0_9020_6405">
<rect width="250" height="176" fill="white"/>
</clipPath>
</defs>
</svg>
