<svg width="50" height="50" viewBox="0 0 50 50" fill="none" xmlns="http://www.w3.org/2000/svg">
<circle cx="25" cy="25" r="25" fill="#E2F3FF"/>
<path d="M36.25 33.75V16.25C36.25 14.875 35.125 13.75 33.75 13.75H16.25C14.875 13.75 13.75 14.875 13.75 16.25V33.75C13.75 35.125 14.875 36.25 16.25 36.25H33.75C35.125 36.25 36.25 35.125 36.25 33.75ZM21.125 27.475L23.75 30.6375L27.625 25.65C27.875 25.325 28.375 25.325 28.625 25.6625L33.0125 31.5125C33.0821 31.6054 33.1246 31.7158 33.135 31.8314C33.1454 31.947 33.1234 32.0632 33.0715 32.167C33.0196 32.2708 32.9398 32.3581 32.8411 32.4192C32.7423 32.4802 32.6286 32.5125 32.5125 32.5125H17.525C17 32.5125 16.7125 31.9125 17.0375 31.5L20.15 27.5C20.3875 27.175 20.8625 27.1625 21.125 27.475Z" fill="#0063F7"/>
</svg>
