<svg width="110" height="31" viewBox="0 0 110 31" fill="none" xmlns="http://www.w3.org/2000/svg">
<rect x="1" y="1" width="108" height="29" rx="7" stroke="#28A745" strokeWidth="2"/>
<path d="M29.5059 21L28.5283 18.2246H24.707L23.7295 21H22L25.7188 10.9648H27.5371L31.249 21H29.5059ZM28.1045 16.8164L27.1543 14.082C27.1178 13.9635 27.0654 13.7972 26.9971 13.583C26.9287 13.3643 26.8604 13.1432 26.792 12.9199C26.7236 12.6921 26.6667 12.5007 26.6211 12.3457C26.5755 12.5326 26.5186 12.7422 26.4502 12.9746C26.3864 13.2025 26.3226 13.4167 26.2588 13.6172C26.1995 13.8177 26.154 13.9727 26.1221 14.082L25.165 16.8164H28.1045ZM36.2871 13.2891C37.1849 13.2891 37.9049 13.6172 38.4473 14.2734C38.9941 14.9297 39.2676 15.9049 39.2676 17.1992C39.2676 18.056 39.14 18.7783 38.8848 19.3662C38.6341 19.9495 38.2809 20.3916 37.8252 20.6924C37.374 20.9886 36.8477 21.1367 36.2461 21.1367C35.8633 21.1367 35.5306 21.0866 35.248 20.9863C34.9655 20.8861 34.724 20.7562 34.5234 20.5967C34.3229 20.4326 34.1543 20.2549 34.0176 20.0635H33.9219C33.9447 20.2458 33.9652 20.4486 33.9834 20.6719C34.0062 20.8906 34.0176 21.0911 34.0176 21.2734V24.3564H32.4043V13.4326H33.7168L33.9424 14.4785H34.0176C34.1589 14.2643 34.3298 14.0661 34.5303 13.8838C34.7354 13.7015 34.9814 13.5579 35.2686 13.4531C35.5602 13.3438 35.8997 13.2891 36.2871 13.2891ZM35.8564 14.6016C35.4144 14.6016 35.0589 14.6904 34.79 14.8682C34.5257 15.0413 34.332 15.3034 34.209 15.6543C34.0905 16.0052 34.0267 16.445 34.0176 16.9736V17.1992C34.0176 17.7598 34.0745 18.236 34.1885 18.6279C34.307 19.0153 34.5007 19.3115 34.7695 19.5166C35.043 19.7171 35.4121 19.8174 35.877 19.8174C36.2689 19.8174 36.5924 19.7103 36.8477 19.4961C37.1074 19.2819 37.3011 18.9766 37.4287 18.5801C37.5563 18.1836 37.6201 17.7165 37.6201 17.1787C37.6201 16.363 37.4743 15.7295 37.1826 15.2783C36.8955 14.8271 36.4535 14.6016 35.8564 14.6016ZM45.0098 13.2891C45.9076 13.2891 46.6276 13.6172 47.1699 14.2734C47.7168 14.9297 47.9902 15.9049 47.9902 17.1992C47.9902 18.056 47.8626 18.7783 47.6074 19.3662C47.3568 19.9495 47.0036 20.3916 46.5479 20.6924C46.0967 20.9886 45.5703 21.1367 44.9688 21.1367C44.5859 21.1367 44.2533 21.0866 43.9707 20.9863C43.6882 20.8861 43.4466 20.7562 43.2461 20.5967C43.0456 20.4326 42.877 20.2549 42.7402 20.0635H42.6445C42.6673 20.2458 42.6878 20.4486 42.7061 20.6719C42.7288 20.8906 42.7402 21.0911 42.7402 21.2734V24.3564H41.127V13.4326H42.4395L42.665 14.4785H42.7402C42.8815 14.2643 43.0524 14.0661 43.2529 13.8838C43.458 13.7015 43.7041 13.5579 43.9912 13.4531C44.2829 13.3438 44.6224 13.2891 45.0098 13.2891ZM44.5791 14.6016C44.137 14.6016 43.7816 14.6904 43.5127 14.8682C43.2484 15.0413 43.0547 15.3034 42.9316 15.6543C42.8132 16.0052 42.7493 16.445 42.7402 16.9736V17.1992C42.7402 17.7598 42.7972 18.236 42.9111 18.6279C43.0296 19.0153 43.2233 19.3115 43.4922 19.5166C43.7656 19.7171 44.1348 19.8174 44.5996 19.8174C44.9915 19.8174 45.3151 19.7103 45.5703 19.4961C45.8301 19.2819 46.0238 18.9766 46.1514 18.5801C46.279 18.1836 46.3428 17.7165 46.3428 17.1787C46.3428 16.363 46.1969 15.7295 45.9053 15.2783C45.6182 14.8271 45.1761 14.6016 44.5791 14.6016ZM53.6846 13.2891C53.8122 13.2891 53.9512 13.2959 54.1016 13.3096C54.252 13.3232 54.3818 13.3415 54.4912 13.3643L54.3408 14.8682C54.2451 14.8408 54.1266 14.8203 53.9854 14.8066C53.8486 14.793 53.7256 14.7861 53.6162 14.7861C53.3291 14.7861 53.0557 14.834 52.7959 14.9297C52.5361 15.0208 52.306 15.1621 52.1055 15.3535C51.9049 15.5404 51.7477 15.7751 51.6338 16.0576C51.5199 16.3402 51.4629 16.6683 51.4629 17.042V21H49.8496V13.4326H51.1074L51.3262 14.7656H51.4014C51.5518 14.4967 51.7386 14.2507 51.9619 14.0273C52.1852 13.804 52.4404 13.6263 52.7275 13.4941C53.0192 13.3574 53.3382 13.2891 53.6846 13.2891ZM62.5918 17.1992C62.5918 17.8281 62.5098 18.3864 62.3457 18.874C62.1816 19.3617 61.9424 19.7741 61.6279 20.1113C61.3135 20.444 60.9352 20.6992 60.4932 20.877C60.0511 21.0501 59.5521 21.1367 58.9961 21.1367C58.4766 21.1367 58.0003 21.0501 57.5674 20.877C57.1344 20.6992 56.7585 20.444 56.4395 20.1113C56.125 19.7741 55.8812 19.3617 55.708 18.874C55.5348 18.3864 55.4482 17.8281 55.4482 17.1992C55.4482 16.3652 55.5918 15.6589 55.8789 15.0801C56.1706 14.4967 56.5853 14.0524 57.123 13.7471C57.6608 13.4417 58.3011 13.2891 59.0439 13.2891C59.7412 13.2891 60.3564 13.4417 60.8896 13.7471C61.4229 14.0524 61.8398 14.4967 62.1406 15.0801C62.4414 15.6634 62.5918 16.3698 62.5918 17.1992ZM57.1025 17.1992C57.1025 17.7507 57.1686 18.2223 57.3008 18.6143C57.4375 19.0062 57.6471 19.307 57.9297 19.5166C58.2122 19.7217 58.5768 19.8242 59.0234 19.8242C59.4701 19.8242 59.8346 19.7217 60.1172 19.5166C60.3997 19.307 60.6071 19.0062 60.7393 18.6143C60.8714 18.2223 60.9375 17.7507 60.9375 17.1992C60.9375 16.6478 60.8714 16.1807 60.7393 15.7979C60.6071 15.4105 60.3997 15.1165 60.1172 14.916C59.8346 14.7109 59.4678 14.6084 59.0166 14.6084C58.3512 14.6084 57.8659 14.8317 57.5605 15.2783C57.2552 15.7249 57.1025 16.3652 57.1025 17.1992ZM66.167 21L63.2891 13.4326H64.9912L66.5498 17.876C66.6501 18.1585 66.7412 18.4639 66.8232 18.792C66.9053 19.1201 66.9622 19.3958 66.9941 19.6191H67.0488C67.0807 19.3867 67.1423 19.1087 67.2334 18.7852C67.3245 18.457 67.418 18.154 67.5137 17.876L69.0723 13.4326H70.7676L67.8896 21H66.167ZM74.9307 13.2891C75.6051 13.2891 76.1839 13.4281 76.667 13.7061C77.1501 13.984 77.5215 14.3783 77.7812 14.8887C78.041 15.3991 78.1709 16.0098 78.1709 16.7207V17.582H73.1191C73.1374 18.3158 73.3333 18.8809 73.707 19.2773C74.0853 19.6738 74.6139 19.8721 75.293 19.8721C75.776 19.8721 76.209 19.8265 76.5918 19.7354C76.9792 19.6396 77.3779 19.5007 77.7881 19.3184V20.624C77.4098 20.8018 77.0247 20.9316 76.6328 21.0137C76.2409 21.0957 75.7715 21.1367 75.2246 21.1367C74.4818 21.1367 73.8278 20.9932 73.2627 20.7061C72.7021 20.4144 72.2624 19.9814 71.9434 19.4072C71.6289 18.833 71.4717 18.1198 71.4717 17.2676C71.4717 16.4199 71.6152 15.6999 71.9023 15.1074C72.1895 14.515 72.5928 14.0638 73.1123 13.7539C73.6318 13.444 74.238 13.2891 74.9307 13.2891ZM74.9307 14.499C74.4248 14.499 74.0146 14.6631 73.7002 14.9912C73.3903 15.3193 73.208 15.8001 73.1533 16.4336H76.5986C76.5941 16.0553 76.5303 15.7204 76.4072 15.4287C76.2887 15.137 76.1064 14.9092 75.8604 14.7451C75.6188 14.5811 75.3089 14.499 74.9307 14.499ZM82.5254 21.1367C81.623 21.1367 80.8984 20.8086 80.3516 20.1523C79.8092 19.4915 79.5381 18.5186 79.5381 17.2334C79.5381 15.9346 79.8138 14.9525 80.3652 14.2871C80.9212 13.6217 81.6527 13.2891 82.5596 13.2891C82.9424 13.2891 83.2773 13.3415 83.5645 13.4463C83.8516 13.5465 84.0977 13.6833 84.3027 13.8564C84.5124 14.0296 84.6901 14.2233 84.8359 14.4375H84.9111C84.8883 14.2962 84.861 14.0934 84.8291 13.8291C84.8018 13.5602 84.7881 13.3118 84.7881 13.084V10.3633H86.4014V21H85.1436L84.8564 19.9678H84.7881C84.6514 20.1865 84.4782 20.3848 84.2686 20.5625C84.0635 20.7357 83.8174 20.8747 83.5303 20.9795C83.2477 21.0843 82.9128 21.1367 82.5254 21.1367ZM82.9766 19.8311C83.6647 19.8311 84.1501 19.6328 84.4326 19.2363C84.7152 18.8398 84.861 18.2451 84.8701 17.4521V17.2402C84.8701 16.3926 84.7334 15.7432 84.46 15.292C84.1865 14.8363 83.6875 14.6084 82.9629 14.6084C82.3841 14.6084 81.9421 14.8431 81.6367 15.3125C81.3359 15.7773 81.1855 16.4268 81.1855 17.2607C81.1855 18.0947 81.3359 18.7327 81.6367 19.1748C81.9421 19.6123 82.3887 19.8311 82.9766 19.8311Z" fill="#28A745"/>
</svg>
