<svg width="67" height="25" viewBox="0 0 67 25" fill="none" xmlns="http://www.w3.org/2000/svg">
<path d="M31.5 5.57812H34.8984C36.3724 5.57812 37.4844 5.79167 38.2344 6.21875C38.9844 6.64583 39.3594 7.38281 39.3594 8.42969C39.3594 8.86719 39.2812 9.26302 39.125 9.61719C38.974 9.96615 38.7526 10.2552 38.4609 10.4844C38.1693 10.7083 37.8099 10.8594 37.3828 10.9375V11.0156C37.8255 11.0938 38.2188 11.2318 38.5625 11.4297C38.9115 11.6276 39.1849 11.9115 39.3828 12.2812C39.5859 12.651 39.6875 13.1302 39.6875 13.7188C39.6875 14.4167 39.5208 15.0104 39.1875 15.5C38.8594 15.9896 38.388 16.362 37.7734 16.6172C37.1641 16.8724 36.4401 17 35.6016 17H31.5V5.57812ZM33.375 10.2891H35.1719C36.0208 10.2891 36.6094 10.151 36.9375 9.875C37.2656 9.59896 37.4297 9.19531 37.4297 8.66406C37.4297 8.1224 37.2344 7.73177 36.8438 7.49219C36.4583 7.2526 35.8438 7.13281 35 7.13281H33.375V10.2891ZM33.375 11.8047V15.4297H35.3516C36.2266 15.4297 36.8411 15.2604 37.1953 14.9219C37.5495 14.5833 37.7266 14.125 37.7266 13.5469C37.7266 13.1927 37.6458 12.8854 37.4844 12.625C37.3281 12.3646 37.0703 12.1641 36.7109 12.0234C36.3516 11.8776 35.8672 11.8047 35.2578 11.8047H33.375ZM45.25 8.1875C46.3438 8.1875 47.1693 8.42969 47.7266 8.91406C48.2891 9.39844 48.5703 10.1536 48.5703 11.1797V17H47.2656L46.9141 15.7734H46.8516C46.6068 16.0859 46.3542 16.3438 46.0938 16.5469C45.8333 16.75 45.5312 16.901 45.1875 17C44.849 17.1042 44.4349 17.1562 43.9453 17.1562C43.4297 17.1562 42.9688 17.0625 42.5625 16.875C42.1562 16.6823 41.8359 16.3906 41.6016 16C41.3672 15.6094 41.25 15.1146 41.25 14.5156C41.25 13.625 41.5807 12.9557 42.2422 12.5078C42.9089 12.0599 43.9141 11.8125 45.2578 11.7656L46.7578 11.7109V11.2578C46.7578 10.6589 46.6172 10.2318 46.3359 9.97656C46.0599 9.72135 45.6693 9.59375 45.1641 9.59375C44.7318 9.59375 44.3125 9.65625 43.9062 9.78125C43.5 9.90625 43.1042 10.0599 42.7188 10.2422L42.125 8.94531C42.5469 8.72135 43.026 8.53906 43.5625 8.39844C44.1042 8.25781 44.6667 8.1875 45.25 8.1875ZM46.75 12.8672L45.6328 12.9062C44.7161 12.9375 44.0729 13.0938 43.7031 13.375C43.3333 13.6562 43.1484 14.0417 43.1484 14.5312C43.1484 14.9583 43.276 15.2708 43.5312 15.4688C43.7865 15.6615 44.1224 15.7578 44.5391 15.7578C45.1745 15.7578 45.7005 15.5781 46.1172 15.2188C46.5391 14.8542 46.75 14.3203 46.75 13.6172V12.8672ZM54.625 17.1562C53.8073 17.1562 53.099 16.9974 52.5 16.6797C51.901 16.362 51.4401 15.875 51.1172 15.2188C50.7943 14.5625 50.6328 13.7292 50.6328 12.7188C50.6328 11.6667 50.8099 10.8073 51.1641 10.1406C51.5182 9.47396 52.0078 8.98177 52.6328 8.66406C53.263 8.34635 53.9844 8.1875 54.7969 8.1875C55.3125 8.1875 55.7786 8.23958 56.1953 8.34375C56.6172 8.44271 56.974 8.5651 57.2656 8.71094L56.7188 10.1797C56.401 10.0495 56.0755 9.9401 55.7422 9.85156C55.4089 9.76302 55.0885 9.71875 54.7812 9.71875C54.276 9.71875 53.8542 9.83073 53.5156 10.0547C53.1823 10.2786 52.9323 10.612 52.7656 11.0547C52.6042 11.4974 52.5234 12.0469 52.5234 12.7031C52.5234 13.3385 52.6068 13.875 52.7734 14.3125C52.9401 14.7448 53.1875 15.0729 53.5156 15.2969C53.8438 15.5156 54.2474 15.625 54.7266 15.625C55.2005 15.625 55.625 15.5677 56 15.4531C56.375 15.3385 56.7292 15.1901 57.0625 15.0078V16.6016C56.7344 16.7891 56.3828 16.9271 56.0078 17.0156C55.6328 17.1094 55.1719 17.1562 54.625 17.1562ZM60.9297 4.84375V10.7188C60.9297 10.9844 60.9193 11.276 60.8984 11.5938C60.8776 11.9062 60.8568 12.2005 60.8359 12.4766H60.875C61.0104 12.2943 61.1719 12.0807 61.3594 11.8359C61.5521 11.5911 61.7344 11.3776 61.9062 11.1953L64.5469 8.35156H66.6562L63.1953 12.0703L66.8828 17H64.7266L61.9609 13.2031L60.9297 14.0859V17H59.0938V4.84375H60.9297Z" fill="#1E1E1E"/>
<path d="M12.1552 19.5792C11.9355 19.7986 11.6376 19.9219 11.3271 19.9219C11.0165 19.9219 10.7187 19.7986 10.499 19.5792L3.85834 12.9385C3.63889 12.7188 3.51563 12.421 3.51563 12.1104C3.51563 11.7999 3.63889 11.502 3.85834 11.2823L10.499 4.64166C10.7211 4.4344 11.015 4.3215 11.3187 4.32674C11.6225 4.33199 11.9123 4.45498 12.1271 4.66978C12.3419 4.88459 12.4649 5.17442 12.4701 5.47816C12.4754 5.7819 12.3625 6.0758 12.1552 6.29791L7.51459 10.9385L19.1396 10.9385C19.4504 10.9385 19.7485 11.062 19.9682 11.2818C20.188 11.5015 20.3115 11.7996 20.3115 12.1104C20.3115 12.4212 20.188 12.7193 19.9682 12.939C19.7485 13.1588 19.4504 13.2823 19.1396 13.2823H7.51459L12.1552 17.9229C12.3747 18.1426 12.4979 18.4405 12.4979 18.751C12.4979 19.0616 12.3747 19.3594 12.1552 19.5792Z" fill="#1E1E1E"/>
</svg>
