  <svg width="141" height="25" viewBox="0 0 141 25" fill="none" xmlns="http://www.w3.org/2000/svg">
                        <path d="M31.5 5.57812H34.8984C36.3724 5.57812 37.4844 5.79167 38.2344 6.21875C38.9844 6.64583 39.3594 7.38281 39.3594 8.42969C39.3594 8.86719 39.2812 9.26302 39.125 9.61719C38.974 9.96615 38.7526 10.2552 38.4609 10.4844C38.1693 10.7083 37.8099 10.8594 37.3828 10.9375V11.0156C37.8255 11.0938 38.2188 11.2318 38.5625 11.4297C38.9115 11.6276 39.1849 11.9115 39.3828 12.2812C39.5859 12.651 39.6875 13.1302 39.6875 13.7188C39.6875 14.4167 39.5208 15.0104 39.1875 15.5C38.8594 15.9896 38.388 16.362 37.7734 16.6172C37.1641 16.8724 36.4401 17 35.6016 17H31.5V5.57812ZM33.375 10.2891H35.1719C36.0208 10.2891 36.6094 10.151 36.9375 9.875C37.2656 9.59896 37.4297 9.19531 37.4297 8.66406C37.4297 8.1224 37.2344 7.73177 36.8438 7.49219C36.4583 7.2526 35.8438 7.13281 35 7.13281H33.375V10.2891ZM33.375 11.8047V15.4297H35.3516C36.2266 15.4297 36.8411 15.2604 37.1953 14.9219C37.5495 14.5833 37.7266 14.125 37.7266 13.5469C37.7266 13.1927 37.6458 12.8854 37.4844 12.625C37.3281 12.3646 37.0703 12.1641 36.7109 12.0234C36.3516 11.8776 35.8672 11.8047 35.2578 11.8047H33.375ZM45.25 8.1875C46.3438 8.1875 47.1693 8.42969 47.7266 8.91406C48.2891 9.39844 48.5703 10.1536 48.5703 11.1797V17H47.2656L46.9141 15.7734H46.8516C46.6068 16.0859 46.3542 16.3438 46.0938 16.5469C45.8333 16.75 45.5312 16.901 45.1875 17C44.849 17.1042 44.4349 17.1562 43.9453 17.1562C43.4297 17.1562 42.9688 17.0625 42.5625 16.875C42.1562 16.6823 41.8359 16.3906 41.6016 16C41.3672 15.6094 41.25 15.1146 41.25 14.5156C41.25 13.625 41.5807 12.9557 42.2422 12.5078C42.9089 12.0599 43.9141 11.8125 45.2578 11.7656L46.7578 11.7109V11.2578C46.7578 10.6589 46.6172 10.2318 46.3359 9.97656C46.0599 9.72135 45.6693 9.59375 45.1641 9.59375C44.7318 9.59375 44.3125 9.65625 43.9062 9.78125C43.5 9.90625 43.1042 10.0599 42.7188 10.2422L42.125 8.94531C42.5469 8.72135 43.026 8.53906 43.5625 8.39844C44.1042 8.25781 44.6667 8.1875 45.25 8.1875ZM46.75 12.8672L45.6328 12.9062C44.7161 12.9375 44.0729 13.0938 43.7031 13.375C43.3333 13.6562 43.1484 14.0417 43.1484 14.5312C43.1484 14.9583 43.276 15.2708 43.5312 15.4688C43.7865 15.6615 44.1224 15.7578 44.5391 15.7578C45.1745 15.7578 45.7005 15.5781 46.1172 15.2188C46.5391 14.8542 46.75 14.3203 46.75 13.6172V12.8672ZM54.625 17.1562C53.8073 17.1562 53.099 16.9974 52.5 16.6797C51.901 16.362 51.4401 15.875 51.1172 15.2188C50.7943 14.5625 50.6328 13.7292 50.6328 12.7188C50.6328 11.6667 50.8099 10.8073 51.1641 10.1406C51.5182 9.47396 52.0078 8.98177 52.6328 8.66406C53.263 8.34635 53.9844 8.1875 54.7969 8.1875C55.3125 8.1875 55.7786 8.23958 56.1953 8.34375C56.6172 8.44271 56.974 8.5651 57.2656 8.71094L56.7188 10.1797C56.401 10.0495 56.0755 9.9401 55.7422 9.85156C55.4089 9.76302 55.0885 9.71875 54.7812 9.71875C54.276 9.71875 53.8542 9.83073 53.5156 10.0547C53.1823 10.2786 52.9323 10.612 52.7656 11.0547C52.6042 11.4974 52.5234 12.0469 52.5234 12.7031C52.5234 13.3385 52.6068 13.875 52.7734 14.3125C52.9401 14.7448 53.1875 15.0729 53.5156 15.2969C53.8438 15.5156 54.2474 15.625 54.7266 15.625C55.2005 15.625 55.625 15.5677 56 15.4531C56.375 15.3385 56.7292 15.1901 57.0625 15.0078V16.6016C56.7344 16.7891 56.3828 16.9271 56.0078 17.0156C55.6328 17.1094 55.1719 17.1562 54.625 17.1562ZM60.9297 4.84375V10.7188C60.9297 10.9844 60.9193 11.276 60.8984 11.5938C60.8776 11.9062 60.8568 12.2005 60.8359 12.4766H60.875C61.0104 12.2943 61.1719 12.0807 61.3594 11.8359C61.5521 11.5911 61.7344 11.3776 61.9062 11.1953L64.5469 8.35156H66.6562L63.1953 12.0703L66.8828 17H64.7266L61.9609 13.2031L60.9297 14.0859V17H59.0938V4.84375H60.9297ZM75.6406 15.6719C75.8802 15.6719 76.1172 15.651 76.3516 15.6094C76.5859 15.5625 76.7995 15.5078 76.9922 15.4453V16.8359C76.7891 16.9245 76.526 17 76.2031 17.0625C75.8802 17.125 75.5443 17.1562 75.1953 17.1562C74.7057 17.1562 74.2656 17.0755 73.875 16.9141C73.4844 16.7474 73.1745 16.4635 72.9453 16.0625C72.7161 15.6615 72.6016 15.1068 72.6016 14.3984V9.75H71.4219V8.92969L72.6875 8.28125L73.2891 6.42969H74.4453V8.35156H76.9219V9.75H74.4453V14.375C74.4453 14.8125 74.5547 15.138 74.7734 15.3516C74.9922 15.5651 75.2812 15.6719 75.6406 15.6719ZM86.4062 12.6562C86.4062 13.375 86.3125 14.013 86.125 14.5703C85.9375 15.1276 85.6641 15.599 85.3047 15.9844C84.9453 16.3646 84.513 16.6562 84.0078 16.8594C83.5026 17.0573 82.9323 17.1562 82.2969 17.1562C81.7031 17.1562 81.1589 17.0573 80.6641 16.8594C80.1693 16.6562 79.7396 16.3646 79.375 15.9844C79.0156 15.599 78.737 15.1276 78.5391 14.5703C78.3411 14.013 78.2422 13.375 78.2422 12.6562C78.2422 11.7031 78.4062 10.8958 78.7344 10.2344C79.0677 9.56771 79.5417 9.0599 80.1562 8.71094C80.7708 8.36198 81.5026 8.1875 82.3516 8.1875C83.1484 8.1875 83.8516 8.36198 84.4609 8.71094C85.0703 9.0599 85.5469 9.56771 85.8906 10.2344C86.2344 10.901 86.4062 11.7083 86.4062 12.6562ZM80.1328 12.6562C80.1328 13.2865 80.2083 13.8255 80.3594 14.2734C80.5156 14.7214 80.7552 15.0651 81.0781 15.3047C81.401 15.5391 81.8177 15.6562 82.3281 15.6562C82.8385 15.6562 83.2552 15.5391 83.5781 15.3047C83.901 15.0651 84.138 14.7214 84.2891 14.2734C84.4401 13.8255 84.5156 13.2865 84.5156 12.6562C84.5156 12.026 84.4401 11.4922 84.2891 11.0547C84.138 10.612 83.901 10.276 83.5781 10.0469C83.2552 9.8125 82.8359 9.69531 82.3203 9.69531C81.5599 9.69531 81.0052 9.95052 80.6562 10.4609C80.3073 10.9714 80.1328 11.7031 80.1328 12.6562ZM96.0625 8.1875C97.1562 8.1875 97.9818 8.42969 98.5391 8.91406C99.1016 9.39844 99.3828 10.1536 99.3828 11.1797V17H98.0781L97.7266 15.7734H97.6641C97.4193 16.0859 97.1667 16.3438 96.9062 16.5469C96.6458 16.75 96.3438 16.901 96 17C95.6615 17.1042 95.2474 17.1562 94.7578 17.1562C94.2422 17.1562 93.7812 17.0625 93.375 16.875C92.9688 16.6823 92.6484 16.3906 92.4141 16C92.1797 15.6094 92.0625 15.1146 92.0625 14.5156C92.0625 13.625 92.3932 12.9557 93.0547 12.5078C93.7214 12.0599 94.7266 11.8125 96.0703 11.7656L97.5703 11.7109V11.2578C97.5703 10.6589 97.4297 10.2318 97.1484 9.97656C96.8724 9.72135 96.4818 9.59375 95.9766 9.59375C95.5443 9.59375 95.125 9.65625 94.7188 9.78125C94.3125 9.90625 93.9167 10.0599 93.5312 10.2422L92.9375 8.94531C93.3594 8.72135 93.8385 8.53906 94.375 8.39844C94.9167 8.25781 95.4792 8.1875 96.0625 8.1875ZM97.5625 12.8672L96.4453 12.9062C95.5286 12.9375 94.8854 13.0938 94.5156 13.375C94.1458 13.6562 93.9609 14.0417 93.9609 14.5312C93.9609 14.9583 94.0885 15.2708 94.3438 15.4688C94.599 15.6615 94.9349 15.7578 95.3516 15.7578C95.987 15.7578 96.513 15.5781 96.9297 15.2188C97.3516 14.8542 97.5625 14.3203 97.5625 13.6172V12.8672ZM106.391 8.1875C107.417 8.1875 108.24 8.5625 108.859 9.3125C109.484 10.0625 109.797 11.1771 109.797 12.6562C109.797 13.6354 109.651 14.4609 109.359 15.1328C109.073 15.7995 108.669 16.3047 108.148 16.6484C107.633 16.987 107.031 17.1562 106.344 17.1562C105.906 17.1562 105.526 17.099 105.203 16.9844C104.88 16.8698 104.604 16.7214 104.375 16.5391C104.146 16.3516 103.953 16.1484 103.797 15.9297H103.688C103.714 16.138 103.737 16.3698 103.758 16.625C103.784 16.875 103.797 17.1042 103.797 17.3125V20.8359H101.953V8.35156H103.453L103.711 9.54688H103.797C103.958 9.30208 104.154 9.07552 104.383 8.86719C104.617 8.65885 104.898 8.49479 105.227 8.375C105.56 8.25 105.948 8.1875 106.391 8.1875ZM105.898 9.6875C105.393 9.6875 104.987 9.78906 104.68 9.99219C104.378 10.1901 104.156 10.4896 104.016 10.8906C103.88 11.2917 103.807 11.7943 103.797 12.3984V12.6562C103.797 13.2969 103.862 13.8411 103.992 14.2891C104.128 14.7318 104.349 15.0703 104.656 15.3047C104.969 15.5339 105.391 15.6484 105.922 15.6484C106.37 15.6484 106.74 15.526 107.031 15.2812C107.328 15.0365 107.549 14.6875 107.695 14.2344C107.841 13.7812 107.914 13.2474 107.914 12.6328C107.914 11.7005 107.747 10.9766 107.414 10.4609C107.086 9.94531 106.581 9.6875 105.898 9.6875ZM116.359 8.1875C117.385 8.1875 118.208 8.5625 118.828 9.3125C119.453 10.0625 119.766 11.1771 119.766 12.6562C119.766 13.6354 119.62 14.4609 119.328 15.1328C119.042 15.7995 118.638 16.3047 118.117 16.6484C117.602 16.987 117 17.1562 116.312 17.1562C115.875 17.1562 115.495 17.099 115.172 16.9844C114.849 16.8698 114.573 16.7214 114.344 16.5391C114.115 16.3516 113.922 16.1484 113.766 15.9297H113.656C113.682 16.138 113.706 16.3698 113.727 16.625C113.753 16.875 113.766 17.1042 113.766 17.3125V20.8359H111.922V8.35156H113.422L113.68 9.54688H113.766C113.927 9.30208 114.122 9.07552 114.352 8.86719C114.586 8.65885 114.867 8.49479 115.195 8.375C115.529 8.25 115.917 8.1875 116.359 8.1875ZM115.867 9.6875C115.362 9.6875 114.956 9.78906 114.648 9.99219C114.346 10.1901 114.125 10.4896 113.984 10.8906C113.849 11.2917 113.776 11.7943 113.766 12.3984V12.6562C113.766 13.2969 113.831 13.8411 113.961 14.2891C114.096 14.7318 114.318 15.0703 114.625 15.3047C114.938 15.5339 115.359 15.6484 115.891 15.6484C116.339 15.6484 116.708 15.526 117 15.2812C117.297 15.0365 117.518 14.6875 117.664 14.2344C117.81 13.7812 117.883 13.2474 117.883 12.6328C117.883 11.7005 117.716 10.9766 117.383 10.4609C117.055 9.94531 116.549 9.6875 115.867 9.6875ZM127.703 14.5312C127.703 15.099 127.565 15.5781 127.289 15.9688C127.013 16.3594 126.609 16.6562 126.078 16.8594C125.552 17.0573 124.906 17.1562 124.141 17.1562C123.536 17.1562 123.016 17.112 122.578 17.0234C122.146 16.9401 121.737 16.8099 121.352 16.6328V15.0469C121.763 15.2396 122.224 15.4062 122.734 15.5469C123.25 15.6875 123.737 15.7578 124.195 15.7578C124.799 15.7578 125.234 15.6641 125.5 15.4766C125.766 15.2839 125.898 15.0286 125.898 14.7109C125.898 14.5234 125.844 14.3568 125.734 14.2109C125.63 14.0599 125.432 13.9062 125.141 13.75C124.854 13.5885 124.432 13.3958 123.875 13.1719C123.328 12.9531 122.867 12.7344 122.492 12.5156C122.117 12.2969 121.833 12.0339 121.641 11.7266C121.448 11.4141 121.352 11.0156 121.352 10.5312C121.352 9.76562 121.654 9.1849 122.258 8.78906C122.867 8.38802 123.672 8.1875 124.672 8.1875C125.203 8.1875 125.703 8.24219 126.172 8.35156C126.646 8.45573 127.109 8.60938 127.562 8.8125L126.984 10.1953C126.594 10.0234 126.201 9.88281 125.805 9.77344C125.414 9.65885 125.016 9.60156 124.609 9.60156C124.135 9.60156 123.773 9.67448 123.523 9.82031C123.279 9.96615 123.156 10.1745 123.156 10.4453C123.156 10.6484 123.216 10.8203 123.336 10.9609C123.456 11.1016 123.661 11.2422 123.953 11.3828C124.25 11.5234 124.661 11.6979 125.188 11.9062C125.703 12.1042 126.148 12.3125 126.523 12.5312C126.904 12.7448 127.195 13.0078 127.398 13.3203C127.602 13.6328 127.703 14.0365 127.703 14.5312Z" fill="#1E1E1E" />
                        <path d="M12.1552 19.5792C11.9355 19.7986 11.6376 19.9219 11.3271 19.9219C11.0165 19.9219 10.7187 19.7986 10.499 19.5792L3.85834 12.9385C3.63889 12.7188 3.51563 12.421 3.51563 12.1104C3.51563 11.7999 3.63889 11.502 3.85834 11.2823L10.499 4.64166C10.7211 4.4344 11.015 4.3215 11.3187 4.32674C11.6225 4.33199 11.9123 4.45498 12.1271 4.66978C12.3419 4.88459 12.4649 5.17442 12.4701 5.47816C12.4754 5.7819 12.3625 6.0758 12.1552 6.29791L7.51459 10.9385L19.1396 10.9385C19.4504 10.9385 19.7485 11.062 19.9682 11.2818C20.188 11.5015 20.3115 11.7996 20.3115 12.1104C20.3115 12.4212 20.188 12.7193 19.9682 12.939C19.7485 13.1588 19.4504 13.2823 19.1396 13.2823H7.51459L12.1552 17.9229C12.3747 18.1426 12.4979 18.4405 12.4979 18.751C12.4979 19.0616 12.3747 19.3594 12.1552 19.5792Z" fill="#1E1E1E" />
                    </svg>
