<svg width="292" height="22" viewBox="0 0 292 22" fill="none" xmlns="http://www.w3.org/2000/svg">
<path d="M5.46094 17H3.57812V7.17188H0.234375V5.57812H8.79688V7.17188H5.46094V17ZM12.1953 8.35156V17H10.3594V8.35156H12.1953ZM11.2891 5.03906C11.5703 5.03906 11.8125 5.11458 12.0156 5.26562C12.224 5.41667 12.3281 5.67708 12.3281 6.04688C12.3281 6.41146 12.224 6.67188 12.0156 6.82812C11.8125 6.97917 11.5703 7.05469 11.2891 7.05469C10.9974 7.05469 10.75 6.97917 10.5469 6.82812C10.349 6.67188 10.25 6.41146 10.25 6.04688C10.25 5.67708 10.349 5.41667 10.5469 5.26562C10.75 5.11458 10.9974 5.03906 11.2891 5.03906ZM16.6641 4.84375V10.7188C16.6641 10.9844 16.6536 11.276 16.6328 11.5938C16.612 11.9062 16.5911 12.2005 16.5703 12.4766H16.6094C16.7448 12.2943 16.9062 12.0807 17.0938 11.8359C17.2865 11.5911 17.4688 11.3776 17.6406 11.1953L20.2812 8.35156H22.3906L18.9297 12.0703L22.6172 17H20.4609L17.6953 13.2031L16.6641 14.0859V17H14.8281V4.84375H16.6641ZM25.8359 8.35156V17H24V8.35156H25.8359ZM24.9297 5.03906C25.2109 5.03906 25.4531 5.11458 25.6562 5.26562C25.8646 5.41667 25.9688 5.67708 25.9688 6.04688C25.9688 6.41146 25.8646 6.67188 25.6562 6.82812C25.4531 6.97917 25.2109 7.05469 24.9297 7.05469C24.638 7.05469 24.3906 6.97917 24.1875 6.82812C23.9896 6.67188 23.8906 6.41146 23.8906 6.04688C23.8906 5.67708 23.9896 5.41667 24.1875 5.26562C24.3906 5.11458 24.638 5.03906 24.9297 5.03906ZM39.8906 17L38.7734 13.8281H34.4062L33.2891 17H31.3125L35.5625 5.53125H37.6406L41.8828 17H39.8906ZM38.2891 12.2188L37.2031 9.09375C37.1615 8.95833 37.1016 8.76823 37.0234 8.52344C36.9453 8.27344 36.8672 8.02083 36.7891 7.76562C36.7109 7.50521 36.6458 7.28646 36.5938 7.10938C36.5417 7.32292 36.4766 7.5625 36.3984 7.82812C36.3255 8.08854 36.2526 8.33333 36.1797 8.5625C36.112 8.79167 36.0599 8.96875 36.0234 9.09375L34.9297 12.2188H38.2891ZM47.6406 8.1875C48.6667 8.1875 49.4896 8.5625 50.1094 9.3125C50.7344 10.0625 51.0469 11.1771 51.0469 12.6562C51.0469 13.6354 50.901 14.4609 50.6094 15.1328C50.3229 15.7995 49.9193 16.3047 49.3984 16.6484C48.8828 16.987 48.2812 17.1562 47.5938 17.1562C47.1562 17.1562 46.776 17.099 46.4531 16.9844C46.1302 16.8698 45.8542 16.7214 45.625 16.5391C45.3958 16.3516 45.2031 16.1484 45.0469 15.9297H44.9375C44.9635 16.138 44.987 16.3698 45.0078 16.625C45.0339 16.875 45.0469 17.1042 45.0469 17.3125V20.8359H43.2031V8.35156H44.7031L44.9609 9.54688H45.0469C45.2083 9.30208 45.4036 9.07552 45.6328 8.86719C45.8672 8.65885 46.1484 8.49479 46.4766 8.375C46.8099 8.25 47.1979 8.1875 47.6406 8.1875ZM47.1484 9.6875C46.6432 9.6875 46.237 9.78906 45.9297 9.99219C45.6276 10.1901 45.4062 10.4896 45.2656 10.8906C45.1302 11.2917 45.0573 11.7943 45.0469 12.3984V12.6562C45.0469 13.2969 45.112 13.8411 45.2422 14.2891C45.3776 14.7318 45.599 15.0703 45.9062 15.3047C46.2188 15.5339 46.6406 15.6484 47.1719 15.6484C47.6198 15.6484 47.9896 15.526 48.2812 15.2812C48.5781 15.0365 48.7995 14.6875 48.9453 14.2344C49.0911 13.7812 49.1641 13.2474 49.1641 12.6328C49.1641 11.7005 48.9974 10.9766 48.6641 10.4609C48.3359 9.94531 47.8307 9.6875 47.1484 9.6875ZM57.6094 8.1875C58.6354 8.1875 59.4583 8.5625 60.0781 9.3125C60.7031 10.0625 61.0156 11.1771 61.0156 12.6562C61.0156 13.6354 60.8698 14.4609 60.5781 15.1328C60.2917 15.7995 59.888 16.3047 59.3672 16.6484C58.8516 16.987 58.25 17.1562 57.5625 17.1562C57.125 17.1562 56.7448 17.099 56.4219 16.9844C56.099 16.8698 55.8229 16.7214 55.5938 16.5391C55.3646 16.3516 55.1719 16.1484 55.0156 15.9297H54.9062C54.9323 16.138 54.9557 16.3698 54.9766 16.625C55.0026 16.875 55.0156 17.1042 55.0156 17.3125V20.8359H53.1719V8.35156H54.6719L54.9297 9.54688H55.0156C55.1771 9.30208 55.3724 9.07552 55.6016 8.86719C55.8359 8.65885 56.1172 8.49479 56.4453 8.375C56.7786 8.25 57.1667 8.1875 57.6094 8.1875ZM57.1172 9.6875C56.612 9.6875 56.2057 9.78906 55.8984 9.99219C55.5964 10.1901 55.375 10.4896 55.2344 10.8906C55.099 11.2917 55.026 11.7943 55.0156 12.3984V12.6562C55.0156 13.2969 55.0807 13.8411 55.2109 14.2891C55.3464 14.7318 55.5677 15.0703 55.875 15.3047C56.1875 15.5339 56.6094 15.6484 57.1406 15.6484C57.5885 15.6484 57.9583 15.526 58.25 15.2812C58.5469 15.0365 58.7682 14.6875 58.9141 14.2344C59.0599 13.7812 59.1328 13.2474 59.1328 12.6328C59.1328 11.7005 58.9661 10.9766 58.6328 10.4609C58.3047 9.94531 57.7995 9.6875 57.1172 9.6875ZM68.9531 14.5312C68.9531 15.099 68.8151 15.5781 68.5391 15.9688C68.263 16.3594 67.8594 16.6562 67.3281 16.8594C66.8021 17.0573 66.1562 17.1562 65.3906 17.1562C64.7865 17.1562 64.2656 17.112 63.8281 17.0234C63.3958 16.9401 62.987 16.8099 62.6016 16.6328V15.0469C63.013 15.2396 63.474 15.4062 63.9844 15.5469C64.5 15.6875 64.987 15.7578 65.4453 15.7578C66.0495 15.7578 66.4844 15.6641 66.75 15.4766C67.0156 15.2839 67.1484 15.0286 67.1484 14.7109C67.1484 14.5234 67.0938 14.3568 66.9844 14.2109C66.8802 14.0599 66.6823 13.9062 66.3906 13.75C66.1042 13.5885 65.6823 13.3958 65.125 13.1719C64.5781 12.9531 64.1172 12.7344 63.7422 12.5156C63.3672 12.2969 63.0833 12.0339 62.8906 11.7266C62.6979 11.4141 62.6016 11.0156 62.6016 10.5312C62.6016 9.76562 62.9036 9.1849 63.5078 8.78906C64.1172 8.38802 64.9219 8.1875 65.9219 8.1875C66.4531 8.1875 66.9531 8.24219 67.4219 8.35156C67.8958 8.45573 68.3594 8.60938 68.8125 8.8125L68.2344 10.1953C67.8438 10.0234 67.4505 9.88281 67.0547 9.77344C66.6641 9.65885 66.2656 9.60156 65.8594 9.60156C65.3854 9.60156 65.0234 9.67448 64.7734 9.82031C64.5286 9.96615 64.4062 10.1745 64.4062 10.4453C64.4062 10.6484 64.4661 10.8203 64.5859 10.9609C64.7057 11.1016 64.9115 11.2422 65.2031 11.3828C65.5 11.5234 65.9115 11.6979 66.4375 11.9062C66.9531 12.1042 67.3984 12.3125 67.7734 12.5312C68.1536 12.7448 68.4453 13.0078 68.6484 13.3203C68.8516 13.6328 68.9531 14.0365 68.9531 14.5312Z" fill="#757575"/>
<path d="M117.461 17H115.578V7.17188H112.234V5.57812H120.797V7.17188H117.461V17ZM124.195 8.35156V17H122.359V8.35156H124.195ZM123.289 5.03906C123.57 5.03906 123.812 5.11458 124.016 5.26562C124.224 5.41667 124.328 5.67708 124.328 6.04688C124.328 6.41146 124.224 6.67188 124.016 6.82812C123.812 6.97917 123.57 7.05469 123.289 7.05469C122.997 7.05469 122.75 6.97917 122.547 6.82812C122.349 6.67188 122.25 6.41146 122.25 6.04688C122.25 5.67708 122.349 5.41667 122.547 5.26562C122.75 5.11458 122.997 5.03906 123.289 5.03906ZM136.602 8.1875C137.57 8.1875 138.299 8.4375 138.789 8.9375C139.284 9.4375 139.531 10.2396 139.531 11.3438V17H137.695V11.6719C137.695 11.0156 137.568 10.5208 137.312 10.1875C137.057 9.85417 136.669 9.6875 136.148 9.6875C135.419 9.6875 134.893 9.92188 134.57 10.3906C134.253 10.8542 134.094 11.5286 134.094 12.4141V17H132.258V11.6719C132.258 11.2344 132.201 10.8698 132.086 10.5781C131.977 10.2812 131.807 10.0599 131.578 9.91406C131.349 9.76302 131.06 9.6875 130.711 9.6875C130.206 9.6875 129.802 9.80208 129.5 10.0312C129.203 10.2604 128.99 10.599 128.859 11.0469C128.729 11.4896 128.664 12.0339 128.664 12.6797V17H126.828V8.35156H128.258L128.516 9.51562H128.617C128.794 9.21354 129.013 8.96615 129.273 8.77344C129.539 8.57552 129.833 8.42969 130.156 8.33594C130.479 8.23698 130.815 8.1875 131.164 8.1875C131.81 8.1875 132.354 8.30208 132.797 8.53125C133.24 8.75521 133.57 9.09896 133.789 9.5625H133.93C134.201 9.09375 134.578 8.7474 135.062 8.52344C135.547 8.29948 136.06 8.1875 136.602 8.1875ZM145.539 8.1875C146.31 8.1875 146.971 8.34635 147.523 8.66406C148.076 8.98177 148.5 9.43229 148.797 10.0156C149.094 10.599 149.242 11.2969 149.242 12.1094V13.0938H143.469C143.49 13.9323 143.714 14.5781 144.141 15.0312C144.573 15.4844 145.177 15.7109 145.953 15.7109C146.505 15.7109 147 15.6589 147.438 15.5547C147.88 15.4453 148.336 15.2865 148.805 15.0781V16.5703C148.372 16.7734 147.932 16.9219 147.484 17.0156C147.036 17.1094 146.5 17.1562 145.875 17.1562C145.026 17.1562 144.279 16.9922 143.633 16.6641C142.992 16.3307 142.49 15.8359 142.125 15.1797C141.766 14.5234 141.586 13.7083 141.586 12.7344C141.586 11.7656 141.75 10.9427 142.078 10.2656C142.406 9.58854 142.867 9.07292 143.461 8.71875C144.055 8.36458 144.747 8.1875 145.539 8.1875ZM145.539 9.57031C144.961 9.57031 144.492 9.75781 144.133 10.1328C143.779 10.5078 143.57 11.0573 143.508 11.7812H147.445C147.44 11.349 147.367 10.9661 147.227 10.6328C147.091 10.2995 146.883 10.0391 146.602 9.85156C146.326 9.66406 145.971 9.57031 145.539 9.57031ZM157.125 14.5312C157.125 15.099 156.987 15.5781 156.711 15.9688C156.435 16.3594 156.031 16.6562 155.5 16.8594C154.974 17.0573 154.328 17.1562 153.562 17.1562C152.958 17.1562 152.438 17.112 152 17.0234C151.568 16.9401 151.159 16.8099 150.773 16.6328V15.0469C151.185 15.2396 151.646 15.4062 152.156 15.5469C152.672 15.6875 153.159 15.7578 153.617 15.7578C154.221 15.7578 154.656 15.6641 154.922 15.4766C155.188 15.2839 155.32 15.0286 155.32 14.7109C155.32 14.5234 155.266 14.3568 155.156 14.2109C155.052 14.0599 154.854 13.9062 154.562 13.75C154.276 13.5885 153.854 13.3958 153.297 13.1719C152.75 12.9531 152.289 12.7344 151.914 12.5156C151.539 12.2969 151.255 12.0339 151.062 11.7266C150.87 11.4141 150.773 11.0156 150.773 10.5312C150.773 9.76562 151.076 9.1849 151.68 8.78906C152.289 8.38802 153.094 8.1875 154.094 8.1875C154.625 8.1875 155.125 8.24219 155.594 8.35156C156.068 8.45573 156.531 8.60938 156.984 8.8125L156.406 10.1953C156.016 10.0234 155.622 9.88281 155.227 9.77344C154.836 9.65885 154.438 9.60156 154.031 9.60156C153.557 9.60156 153.195 9.67448 152.945 9.82031C152.701 9.96615 152.578 10.1745 152.578 10.4453C152.578 10.6484 152.638 10.8203 152.758 10.9609C152.878 11.1016 153.083 11.2422 153.375 11.3828C153.672 11.5234 154.083 11.6979 154.609 11.9062C155.125 12.1042 155.57 12.3125 155.945 12.5312C156.326 12.7448 156.617 13.0078 156.82 13.3203C157.023 13.6328 157.125 14.0365 157.125 14.5312ZM160.945 4.84375V7.89844C160.945 8.21615 160.935 8.52604 160.914 8.82812C160.898 9.13021 160.88 9.36458 160.859 9.53125H160.961C161.143 9.22917 161.367 8.98177 161.633 8.78906C161.898 8.59115 162.195 8.44271 162.523 8.34375C162.857 8.24479 163.211 8.19531 163.586 8.19531C164.247 8.19531 164.81 8.30729 165.273 8.53125C165.737 8.75 166.091 9.09115 166.336 9.55469C166.586 10.0182 166.711 10.6198 166.711 11.3594V17H164.875V11.7031C164.875 11.0312 164.737 10.5286 164.461 10.1953C164.185 9.85677 163.758 9.6875 163.18 9.6875C162.622 9.6875 162.18 9.80469 161.852 10.0391C161.529 10.2682 161.297 10.6094 161.156 11.0625C161.016 11.5104 160.945 12.0573 160.945 12.7031V17H159.109V4.84375H160.945ZM172.727 8.1875C173.497 8.1875 174.159 8.34635 174.711 8.66406C175.263 8.98177 175.688 9.43229 175.984 10.0156C176.281 10.599 176.43 11.2969 176.43 12.1094V13.0938H170.656C170.677 13.9323 170.901 14.5781 171.328 15.0312C171.76 15.4844 172.365 15.7109 173.141 15.7109C173.693 15.7109 174.188 15.6589 174.625 15.5547C175.068 15.4453 175.523 15.2865 175.992 15.0781V16.5703C175.56 16.7734 175.12 16.9219 174.672 17.0156C174.224 17.1094 173.688 17.1562 173.062 17.1562C172.214 17.1562 171.466 16.9922 170.82 16.6641C170.18 16.3307 169.677 15.8359 169.312 15.1797C168.953 14.5234 168.773 13.7083 168.773 12.7344C168.773 11.7656 168.938 10.9427 169.266 10.2656C169.594 9.58854 170.055 9.07292 170.648 8.71875C171.242 8.36458 171.935 8.1875 172.727 8.1875ZM172.727 9.57031C172.148 9.57031 171.68 9.75781 171.32 10.1328C170.966 10.5078 170.758 11.0573 170.695 11.7812H174.633C174.628 11.349 174.555 10.9661 174.414 10.6328C174.279 10.2995 174.07 10.0391 173.789 9.85156C173.513 9.66406 173.159 9.57031 172.727 9.57031ZM181.945 8.1875C182.716 8.1875 183.378 8.34635 183.93 8.66406C184.482 8.98177 184.906 9.43229 185.203 10.0156C185.5 10.599 185.648 11.2969 185.648 12.1094V13.0938H179.875C179.896 13.9323 180.12 14.5781 180.547 15.0312C180.979 15.4844 181.583 15.7109 182.359 15.7109C182.911 15.7109 183.406 15.6589 183.844 15.5547C184.286 15.4453 184.742 15.2865 185.211 15.0781V16.5703C184.779 16.7734 184.339 16.9219 183.891 17.0156C183.443 17.1094 182.906 17.1562 182.281 17.1562C181.432 17.1562 180.685 16.9922 180.039 16.6641C179.398 16.3307 178.896 15.8359 178.531 15.1797C178.172 14.5234 177.992 13.7083 177.992 12.7344C177.992 11.7656 178.156 10.9427 178.484 10.2656C178.812 9.58854 179.273 9.07292 179.867 8.71875C180.461 8.36458 181.154 8.1875 181.945 8.1875ZM181.945 9.57031C181.367 9.57031 180.898 9.75781 180.539 10.1328C180.185 10.5078 179.977 11.0573 179.914 11.7812H183.852C183.846 11.349 183.773 10.9661 183.633 10.6328C183.497 10.2995 183.289 10.0391 183.008 9.85156C182.732 9.66406 182.378 9.57031 181.945 9.57031ZM190.938 15.6719C191.177 15.6719 191.414 15.651 191.648 15.6094C191.883 15.5625 192.096 15.5078 192.289 15.4453V16.8359C192.086 16.9245 191.823 17 191.5 17.0625C191.177 17.125 190.841 17.1562 190.492 17.1562C190.003 17.1562 189.562 17.0755 189.172 16.9141C188.781 16.7474 188.471 16.4635 188.242 16.0625C188.013 15.6615 187.898 15.1068 187.898 14.3984V9.75H186.719V8.92969L187.984 8.28125L188.586 6.42969H189.742V8.35156H192.219V9.75H189.742V14.375C189.742 14.8125 189.852 15.138 190.07 15.3516C190.289 15.5651 190.578 15.6719 190.938 15.6719ZM199.859 14.5312C199.859 15.099 199.721 15.5781 199.445 15.9688C199.169 16.3594 198.766 16.6562 198.234 16.8594C197.708 17.0573 197.062 17.1562 196.297 17.1562C195.693 17.1562 195.172 17.112 194.734 17.0234C194.302 16.9401 193.893 16.8099 193.508 16.6328V15.0469C193.919 15.2396 194.38 15.4062 194.891 15.5469C195.406 15.6875 195.893 15.7578 196.352 15.7578C196.956 15.7578 197.391 15.6641 197.656 15.4766C197.922 15.2839 198.055 15.0286 198.055 14.7109C198.055 14.5234 198 14.3568 197.891 14.2109C197.786 14.0599 197.589 13.9062 197.297 13.75C197.01 13.5885 196.589 13.3958 196.031 13.1719C195.484 12.9531 195.023 12.7344 194.648 12.5156C194.273 12.2969 193.99 12.0339 193.797 11.7266C193.604 11.4141 193.508 11.0156 193.508 10.5312C193.508 9.76562 193.81 9.1849 194.414 8.78906C195.023 8.38802 195.828 8.1875 196.828 8.1875C197.359 8.1875 197.859 8.24219 198.328 8.35156C198.802 8.45573 199.266 8.60938 199.719 8.8125L199.141 10.1953C198.75 10.0234 198.357 9.88281 197.961 9.77344C197.57 9.65885 197.172 9.60156 196.766 9.60156C196.292 9.60156 195.93 9.67448 195.68 9.82031C195.435 9.96615 195.312 10.1745 195.312 10.4453C195.312 10.6484 195.372 10.8203 195.492 10.9609C195.612 11.1016 195.818 11.2422 196.109 11.3828C196.406 11.5234 196.818 11.6979 197.344 11.9062C197.859 12.1042 198.305 12.3125 198.68 12.5312C199.06 12.7448 199.352 13.0078 199.555 13.3203C199.758 13.6328 199.859 14.0365 199.859 14.5312ZM209.602 5.40625C210.19 5.40625 210.706 5.5026 211.148 5.69531C211.596 5.88802 211.945 6.16927 212.195 6.53906C212.445 6.90365 212.57 7.34896 212.57 7.875C212.57 8.57812 212.352 9.17188 211.914 9.65625C211.477 10.1406 210.924 10.5729 210.258 10.9531L212.953 13.5781C213.208 13.2292 213.419 12.8464 213.586 12.4297C213.753 12.0078 213.896 11.5651 214.016 11.1016H215.914C215.753 11.7474 215.529 12.3854 215.242 13.0156C214.956 13.6406 214.594 14.2135 214.156 14.7344L216.477 17H214.125L212.969 15.8672C212.646 16.1276 212.299 16.3542 211.93 16.5469C211.565 16.7396 211.167 16.8906 210.734 17C210.302 17.1042 209.826 17.1562 209.305 17.1562C208.508 17.1562 207.82 17.0286 207.242 16.7734C206.664 16.5182 206.219 16.1536 205.906 15.6797C205.599 15.2005 205.445 14.6328 205.445 13.9766C205.445 13.4297 205.536 12.9609 205.719 12.5703C205.906 12.1745 206.172 11.8281 206.516 11.5312C206.859 11.2292 207.271 10.9427 207.75 10.6719C207.49 10.375 207.263 10.0859 207.07 9.80469C206.878 9.52344 206.729 9.23438 206.625 8.9375C206.526 8.63542 206.477 8.3125 206.477 7.96875C206.477 7.4375 206.607 6.98177 206.867 6.60156C207.128 6.21615 207.492 5.92188 207.961 5.71875C208.43 5.51042 208.977 5.40625 209.602 5.40625ZM208.836 11.7891C208.534 11.9818 208.273 12.1771 208.055 12.375C207.836 12.5677 207.667 12.7812 207.547 13.0156C207.432 13.25 207.375 13.5234 207.375 13.8359C207.375 14.3724 207.562 14.7969 207.938 15.1094C208.318 15.4219 208.807 15.5781 209.406 15.5781C209.932 15.5781 210.393 15.5 210.789 15.3438C211.19 15.1823 211.539 14.9818 211.836 14.7422L208.836 11.7891ZM209.57 6.85938C209.201 6.85938 208.88 6.95573 208.609 7.14844C208.344 7.34115 208.211 7.64062 208.211 8.04688C208.211 8.375 208.297 8.6849 208.469 8.97656C208.646 9.26302 208.891 9.57292 209.203 9.90625C209.75 9.60417 210.156 9.30729 210.422 9.01562C210.693 8.72396 210.828 8.38542 210.828 8C210.828 7.63542 210.706 7.35417 210.461 7.15625C210.216 6.95833 209.919 6.85938 209.57 6.85938ZM228.641 17H222.172V5.57812H228.641V7.15625H224.047V10.2578H228.352V11.8281H224.047V15.4141H228.641V17ZM232.836 12.5781L229.945 8.35156H232.039L234.016 11.3906L236 8.35156H238.086L235.18 12.5781L238.234 17H236.133L234.016 13.7578L231.891 17H229.805L232.836 12.5781ZM244.172 8.1875C245.198 8.1875 246.021 8.5625 246.641 9.3125C247.266 10.0625 247.578 11.1771 247.578 12.6562C247.578 13.6354 247.432 14.4609 247.141 15.1328C246.854 15.7995 246.451 16.3047 245.93 16.6484C245.414 16.987 244.812 17.1562 244.125 17.1562C243.688 17.1562 243.307 17.099 242.984 16.9844C242.661 16.8698 242.385 16.7214 242.156 16.5391C241.927 16.3516 241.734 16.1484 241.578 15.9297H241.469C241.495 16.138 241.518 16.3698 241.539 16.625C241.565 16.875 241.578 17.1042 241.578 17.3125V20.8359H239.734V8.35156H241.234L241.492 9.54688H241.578C241.74 9.30208 241.935 9.07552 242.164 8.86719C242.398 8.65885 242.68 8.49479 243.008 8.375C243.341 8.25 243.729 8.1875 244.172 8.1875ZM243.68 9.6875C243.174 9.6875 242.768 9.78906 242.461 9.99219C242.159 10.1901 241.938 10.4896 241.797 10.8906C241.661 11.2917 241.589 11.7943 241.578 12.3984V12.6562C241.578 13.2969 241.643 13.8411 241.773 14.2891C241.909 14.7318 242.13 15.0703 242.438 15.3047C242.75 15.5339 243.172 15.6484 243.703 15.6484C244.151 15.6484 244.521 15.526 244.812 15.2812C245.109 15.0365 245.331 14.6875 245.477 14.2344C245.622 13.7812 245.695 13.2474 245.695 12.6328C245.695 11.7005 245.529 10.9766 245.195 10.4609C244.867 9.94531 244.362 9.6875 243.68 9.6875ZM253.148 8.1875C253.919 8.1875 254.581 8.34635 255.133 8.66406C255.685 8.98177 256.109 9.43229 256.406 10.0156C256.703 10.599 256.852 11.2969 256.852 12.1094V13.0938H251.078C251.099 13.9323 251.323 14.5781 251.75 15.0312C252.182 15.4844 252.786 15.7109 253.562 15.7109C254.115 15.7109 254.609 15.6589 255.047 15.5547C255.49 15.4453 255.945 15.2865 256.414 15.0781V16.5703C255.982 16.7734 255.542 16.9219 255.094 17.0156C254.646 17.1094 254.109 17.1562 253.484 17.1562C252.635 17.1562 251.888 16.9922 251.242 16.6641C250.602 16.3307 250.099 15.8359 249.734 15.1797C249.375 14.5234 249.195 13.7083 249.195 12.7344C249.195 11.7656 249.359 10.9427 249.688 10.2656C250.016 9.58854 250.477 9.07292 251.07 8.71875C251.664 8.36458 252.357 8.1875 253.148 8.1875ZM253.148 9.57031C252.57 9.57031 252.102 9.75781 251.742 10.1328C251.388 10.5078 251.18 11.0573 251.117 11.7812H255.055C255.049 11.349 254.977 10.9661 254.836 10.6328C254.701 10.2995 254.492 10.0391 254.211 9.85156C253.935 9.66406 253.581 9.57031 253.148 9.57031ZM263.43 8.1875C264.404 8.1875 265.161 8.4401 265.703 8.94531C266.25 9.44531 266.523 10.25 266.523 11.3594V17H264.688V11.7031C264.688 11.0312 264.549 10.5286 264.273 10.1953C263.997 9.85677 263.57 9.6875 262.992 9.6875C262.154 9.6875 261.57 9.94531 261.242 10.4609C260.919 10.9766 260.758 11.724 260.758 12.7031V17H258.922V8.35156H260.352L260.609 9.52344H260.711C260.898 9.22135 261.13 8.97396 261.406 8.78125C261.688 8.58333 262 8.4349 262.344 8.33594C262.693 8.23698 263.055 8.1875 263.43 8.1875ZM274.906 14.5312C274.906 15.099 274.768 15.5781 274.492 15.9688C274.216 16.3594 273.812 16.6562 273.281 16.8594C272.755 17.0573 272.109 17.1562 271.344 17.1562C270.74 17.1562 270.219 17.112 269.781 17.0234C269.349 16.9401 268.94 16.8099 268.555 16.6328V15.0469C268.966 15.2396 269.427 15.4062 269.938 15.5469C270.453 15.6875 270.94 15.7578 271.398 15.7578C272.003 15.7578 272.438 15.6641 272.703 15.4766C272.969 15.2839 273.102 15.0286 273.102 14.7109C273.102 14.5234 273.047 14.3568 272.938 14.2109C272.833 14.0599 272.635 13.9062 272.344 13.75C272.057 13.5885 271.635 13.3958 271.078 13.1719C270.531 12.9531 270.07 12.7344 269.695 12.5156C269.32 12.2969 269.036 12.0339 268.844 11.7266C268.651 11.4141 268.555 11.0156 268.555 10.5312C268.555 9.76562 268.857 9.1849 269.461 8.78906C270.07 8.38802 270.875 8.1875 271.875 8.1875C272.406 8.1875 272.906 8.24219 273.375 8.35156C273.849 8.45573 274.312 8.60938 274.766 8.8125L274.188 10.1953C273.797 10.0234 273.404 9.88281 273.008 9.77344C272.617 9.65885 272.219 9.60156 271.812 9.60156C271.339 9.60156 270.977 9.67448 270.727 9.82031C270.482 9.96615 270.359 10.1745 270.359 10.4453C270.359 10.6484 270.419 10.8203 270.539 10.9609C270.659 11.1016 270.865 11.2422 271.156 11.3828C271.453 11.5234 271.865 11.6979 272.391 11.9062C272.906 12.1042 273.352 12.3125 273.727 12.5312C274.107 12.7448 274.398 13.0078 274.602 13.3203C274.805 13.6328 274.906 14.0365 274.906 14.5312ZM280.336 8.1875C281.107 8.1875 281.768 8.34635 282.32 8.66406C282.872 8.98177 283.297 9.43229 283.594 10.0156C283.891 10.599 284.039 11.2969 284.039 12.1094V13.0938H278.266C278.286 13.9323 278.51 14.5781 278.938 15.0312C279.37 15.4844 279.974 15.7109 280.75 15.7109C281.302 15.7109 281.797 15.6589 282.234 15.5547C282.677 15.4453 283.133 15.2865 283.602 15.0781V16.5703C283.169 16.7734 282.729 16.9219 282.281 17.0156C281.833 17.1094 281.297 17.1562 280.672 17.1562C279.823 17.1562 279.076 16.9922 278.43 16.6641C277.789 16.3307 277.286 15.8359 276.922 15.1797C276.562 14.5234 276.383 13.7083 276.383 12.7344C276.383 11.7656 276.547 10.9427 276.875 10.2656C277.203 9.58854 277.664 9.07292 278.258 8.71875C278.852 8.36458 279.544 8.1875 280.336 8.1875ZM280.336 9.57031C279.758 9.57031 279.289 9.75781 278.93 10.1328C278.576 10.5078 278.367 11.0573 278.305 11.7812H282.242C282.237 11.349 282.164 10.9661 282.023 10.6328C281.888 10.2995 281.68 10.0391 281.398 9.85156C281.122 9.66406 280.768 9.57031 280.336 9.57031ZM291.922 14.5312C291.922 15.099 291.784 15.5781 291.508 15.9688C291.232 16.3594 290.828 16.6562 290.297 16.8594C289.771 17.0573 289.125 17.1562 288.359 17.1562C287.755 17.1562 287.234 17.112 286.797 17.0234C286.365 16.9401 285.956 16.8099 285.57 16.6328V15.0469C285.982 15.2396 286.443 15.4062 286.953 15.5469C287.469 15.6875 287.956 15.7578 288.414 15.7578C289.018 15.7578 289.453 15.6641 289.719 15.4766C289.984 15.2839 290.117 15.0286 290.117 14.7109C290.117 14.5234 290.062 14.3568 289.953 14.2109C289.849 14.0599 289.651 13.9062 289.359 13.75C289.073 13.5885 288.651 13.3958 288.094 13.1719C287.547 12.9531 287.086 12.7344 286.711 12.5156C286.336 12.2969 286.052 12.0339 285.859 11.7266C285.667 11.4141 285.57 11.0156 285.57 10.5312C285.57 9.76562 285.872 9.1849 286.477 8.78906C287.086 8.38802 287.891 8.1875 288.891 8.1875C289.422 8.1875 289.922 8.24219 290.391 8.35156C290.865 8.45573 291.328 8.60938 291.781 8.8125L291.203 10.1953C290.812 10.0234 290.419 9.88281 290.023 9.77344C289.633 9.65885 289.234 9.60156 288.828 9.60156C288.354 9.60156 287.992 9.67448 287.742 9.82031C287.497 9.96615 287.375 10.1745 287.375 10.4453C287.375 10.6484 287.435 10.8203 287.555 10.9609C287.674 11.1016 287.88 11.2422 288.172 11.3828C288.469 11.5234 288.88 11.6979 289.406 11.9062C289.922 12.1042 290.367 12.3125 290.742 12.5312C291.122 12.7448 291.414 13.0078 291.617 13.3203C291.82 13.6328 291.922 14.0365 291.922 14.5312Z" fill="#757575"/>
<path d="M88.25 5.5L93.75 11L88.25 16.5" stroke="#757575" strokeWidth="2" strokeLinecap="round" strokeLinejoin="round"/>
</svg>
