<svg width="306" height="166" viewBox="0 0 306 166" fill="none" xmlns="http://www.w3.org/2000/svg">
<g filter="url(#filter0_d_4835_13721)">
<rect x="8" y="8" width="290" height="150" rx="16" fill="white"/>
<rect x="8.5" y="8.5" width="289" height="149" rx="15.5" stroke="#E0E0E0"/>
<path d="M35.0068 90.3408C35.0068 90.9333 34.8587 91.4391 34.5625 91.8584C34.2708 92.2731 33.8607 92.5898 33.332 92.8086C32.8034 93.0273 32.1813 93.1367 31.4658 93.1367C31.0876 93.1367 30.7298 93.1185 30.3926 93.082C30.0553 93.0456 29.7454 92.9932 29.4629 92.9248C29.1803 92.8564 28.932 92.7721 28.7178 92.6719V91.5576C29.0596 91.6989 29.4766 91.8311 29.9688 91.9541C30.4609 92.0726 30.9759 92.1318 31.5137 92.1318C32.015 92.1318 32.4388 92.0658 32.7852 91.9336C33.1315 91.7969 33.3936 91.6032 33.5713 91.3525C33.7536 91.0973 33.8447 90.792 33.8447 90.4365C33.8447 90.0947 33.7695 89.8099 33.6191 89.582C33.4688 89.3496 33.2181 89.14 32.8672 88.9531C32.5208 88.7617 32.0469 88.5589 31.4453 88.3447C31.0215 88.1943 30.6478 88.0303 30.3242 87.8525C30.0007 87.6702 29.7295 87.4652 29.5107 87.2373C29.292 87.0094 29.1257 86.7451 29.0117 86.4443C28.9023 86.1436 28.8477 85.7995 28.8477 85.4121C28.8477 84.8789 28.9821 84.4232 29.251 84.0449C29.5244 83.6621 29.9004 83.3704 30.3789 83.1699C30.862 82.9648 31.4157 82.8623 32.04 82.8623C32.5732 82.8623 33.0654 82.9124 33.5166 83.0127C33.9723 83.113 34.3893 83.2474 34.7676 83.416L34.4053 84.4141C34.0452 84.2637 33.6624 84.1383 33.2568 84.0381C32.8558 83.9378 32.4411 83.8877 32.0127 83.8877C31.5843 83.8877 31.222 83.9515 30.9258 84.0791C30.6341 84.2021 30.4108 84.3776 30.2559 84.6055C30.1009 84.8333 30.0234 85.1045 30.0234 85.4189C30.0234 85.7699 30.0964 86.0615 30.2422 86.2939C30.3926 86.5264 30.6296 86.7337 30.9531 86.916C31.2812 87.0938 31.7142 87.2806 32.252 87.4766C32.8398 87.6908 33.3389 87.9186 33.749 88.1602C34.1592 88.3971 34.4714 88.6888 34.6855 89.0352C34.8997 89.377 35.0068 89.8122 35.0068 90.3408ZM39.7646 85.3711C40.4027 85.3711 40.9495 85.5124 41.4053 85.7949C41.861 86.0775 42.2096 86.474 42.4512 86.9844C42.6927 87.4902 42.8135 88.0827 42.8135 88.7617V89.4658H37.6387C37.6523 90.3454 37.8711 91.0153 38.2949 91.4756C38.7188 91.9359 39.3158 92.166 40.0859 92.166C40.5599 92.166 40.9792 92.1227 41.3438 92.0361C41.7083 91.9495 42.0866 91.8219 42.4785 91.6533V92.6514C42.1003 92.82 41.7243 92.943 41.3506 93.0205C40.9814 93.098 40.5439 93.1367 40.0381 93.1367C39.318 93.1367 38.6891 92.9909 38.1514 92.6992C37.6182 92.403 37.2035 91.9701 36.9072 91.4004C36.611 90.8307 36.4629 90.1335 36.4629 89.3086C36.4629 88.502 36.5973 87.8047 36.8662 87.2168C37.1396 86.6243 37.5225 86.1686 38.0146 85.8496C38.5114 85.5306 39.0947 85.3711 39.7646 85.3711ZM39.751 86.3008C39.1449 86.3008 38.6618 86.499 38.3018 86.8955C37.9417 87.292 37.7275 87.8457 37.6592 88.5566H41.624C41.6195 88.11 41.5488 87.7181 41.4121 87.3809C41.2799 87.0391 41.0771 86.7747 40.8037 86.5879C40.5303 86.3965 40.1794 86.3008 39.751 86.3008ZM47.1611 92.207C47.348 92.207 47.5394 92.1911 47.7354 92.1592C47.9313 92.1273 48.0908 92.0885 48.2139 92.043V92.9248C48.0817 92.984 47.8971 93.0342 47.6602 93.0752C47.4277 93.1162 47.1999 93.1367 46.9766 93.1367C46.5801 93.1367 46.2201 93.0684 45.8965 92.9316C45.5729 92.7904 45.3132 92.5534 45.1172 92.2207C44.9258 91.888 44.8301 91.4277 44.8301 90.8398V86.3965H43.7637V85.8428L44.8369 85.3984L45.2881 83.7715H45.9717V85.5078H48.166V86.3965H45.9717V90.8057C45.9717 91.2751 46.0788 91.626 46.293 91.8584C46.5117 92.0908 46.8011 92.207 47.1611 92.207ZM55.918 85.5078V93H54.9883L54.8242 91.9473H54.7627C54.6077 92.207 54.4072 92.4258 54.1611 92.6035C53.915 92.7812 53.637 92.9134 53.3271 93C53.0218 93.0911 52.696 93.1367 52.3496 93.1367C51.7572 93.1367 51.2604 93.041 50.8594 92.8496C50.4583 92.6582 50.1553 92.362 49.9502 91.9609C49.7497 91.5599 49.6494 91.0449 49.6494 90.416V85.5078H50.7979V90.334C50.7979 90.9583 50.9391 91.4255 51.2217 91.7354C51.5042 92.0407 51.9349 92.1934 52.5137 92.1934C53.0697 92.1934 53.5117 92.0885 53.8398 91.8789C54.1725 91.6693 54.4118 91.3617 54.5576 90.9561C54.7035 90.5459 54.7764 90.0446 54.7764 89.4521V85.5078H55.918ZM61.8379 85.3711C62.7721 85.3711 63.5173 85.6924 64.0732 86.335C64.6292 86.9775 64.9072 87.9437 64.9072 89.2334C64.9072 90.0856 64.7796 90.8011 64.5244 91.3799C64.2692 91.9587 63.9092 92.3962 63.4443 92.6924C62.984 92.9886 62.4395 93.1367 61.8105 93.1367C61.4141 93.1367 61.0654 93.0843 60.7646 92.9795C60.4639 92.8747 60.2064 92.7334 59.9922 92.5557C59.778 92.3779 59.6003 92.1842 59.459 91.9746H59.377C59.3906 92.1523 59.4066 92.3665 59.4248 92.6172C59.4476 92.8678 59.459 93.0866 59.459 93.2734V96.3496H58.3174V85.5078H59.2539L59.4043 86.6152H59.459C59.6048 86.3874 59.7826 86.18 59.9922 85.9932C60.2018 85.8018 60.457 85.6514 60.7578 85.542C61.0632 85.4281 61.4232 85.3711 61.8379 85.3711ZM61.6396 86.3281C61.1201 86.3281 60.7008 86.4284 60.3818 86.6289C60.0674 86.8294 59.8372 87.1302 59.6914 87.5312C59.5456 87.9277 59.4681 88.4268 59.459 89.0283V89.2471C59.459 89.8805 59.5273 90.416 59.6641 90.8535C59.8053 91.291 60.0355 91.6237 60.3545 91.8516C60.6781 92.0794 61.111 92.1934 61.6533 92.1934C62.1182 92.1934 62.5055 92.068 62.8154 91.8174C63.1253 91.5667 63.3555 91.2181 63.5059 90.7715C63.6608 90.3203 63.7383 89.8031 63.7383 89.2197C63.7383 88.3356 63.5651 87.6338 63.2188 87.1143C62.877 86.5902 62.3506 86.3281 61.6396 86.3281ZM72.9463 92.207C73.1331 92.207 73.3245 92.1911 73.5205 92.1592C73.7165 92.1273 73.876 92.0885 73.999 92.043V92.9248C73.8669 92.984 73.6823 93.0342 73.4453 93.0752C73.2129 93.1162 72.985 93.1367 72.7617 93.1367C72.3652 93.1367 72.0052 93.0684 71.6816 92.9316C71.3581 92.7904 71.0983 92.5534 70.9023 92.2207C70.7109 91.888 70.6152 91.4277 70.6152 90.8398V86.3965H69.5488V85.8428L70.6221 85.3984L71.0732 83.7715H71.7568V85.5078H73.9512V86.3965H71.7568V90.8057C71.7568 91.2751 71.8639 91.626 72.0781 91.8584C72.2969 92.0908 72.5863 92.207 72.9463 92.207ZM76.6514 82.3633V85.542C76.6514 85.7243 76.6468 85.9089 76.6377 86.0957C76.6286 86.278 76.6126 86.4466 76.5898 86.6016H76.665C76.82 86.3372 77.016 86.1162 77.2529 85.9385C77.4945 85.7562 77.7679 85.6195 78.0732 85.5283C78.3786 85.4326 78.7021 85.3848 79.0439 85.3848C79.6455 85.3848 80.1468 85.4805 80.5479 85.6719C80.9535 85.8633 81.2565 86.1595 81.457 86.5605C81.6621 86.9616 81.7646 87.4811 81.7646 88.1191V93H80.6436V88.1943C80.6436 87.57 80.5 87.1029 80.2129 86.793C79.9303 86.4831 79.4951 86.3281 78.9072 86.3281C78.3512 86.3281 77.9069 86.4352 77.5742 86.6494C77.2461 86.859 77.0091 87.1689 76.8633 87.5791C76.722 87.9893 76.6514 88.4906 76.6514 89.083V93H75.5166V82.3633H76.6514ZM85.2373 85.5078V93H84.1025V85.5078H85.2373ZM84.6836 82.7051C84.8704 82.7051 85.0299 82.7666 85.1621 82.8896C85.2988 83.0081 85.3672 83.195 85.3672 83.4502C85.3672 83.7008 85.2988 83.8877 85.1621 84.0107C85.0299 84.1338 84.8704 84.1953 84.6836 84.1953C84.4876 84.1953 84.3236 84.1338 84.1914 84.0107C84.0638 83.8877 84 83.7008 84 83.4502C84 83.195 84.0638 83.0081 84.1914 82.8896C84.3236 82.7666 84.4876 82.7051 84.6836 82.7051ZM92.4902 90.9492C92.4902 91.4277 92.3695 91.8311 92.1279 92.1592C91.891 92.4827 91.5492 92.7266 91.1025 92.8906C90.6605 93.0547 90.1318 93.1367 89.5166 93.1367C88.9925 93.1367 88.5391 93.0957 88.1562 93.0137C87.7734 92.9316 87.4385 92.8154 87.1514 92.665V91.6191C87.4567 91.7695 87.8213 91.9062 88.2451 92.0293C88.6689 92.1523 89.1019 92.2139 89.5439 92.2139C90.1911 92.2139 90.6605 92.109 90.9521 91.8994C91.2438 91.6898 91.3896 91.4049 91.3896 91.0449C91.3896 90.8398 91.3304 90.6598 91.2119 90.5049C91.098 90.3454 90.9043 90.1927 90.6309 90.0469C90.3574 89.8965 89.9792 89.7324 89.4961 89.5547C89.0176 89.3724 88.6029 89.1924 88.252 89.0146C87.9056 88.8324 87.6367 88.6113 87.4453 88.3516C87.2585 88.0918 87.165 87.7546 87.165 87.3398C87.165 86.7064 87.4202 86.221 87.9307 85.8838C88.4456 85.542 89.1201 85.3711 89.9541 85.3711C90.4053 85.3711 90.8268 85.4167 91.2188 85.5078C91.6152 85.5944 91.9844 85.7129 92.3262 85.8633L91.9434 86.7725C91.6335 86.6403 91.3031 86.5286 90.9521 86.4375C90.6012 86.3464 90.2435 86.3008 89.8789 86.3008C89.3548 86.3008 88.9515 86.3874 88.6689 86.5605C88.391 86.7337 88.252 86.9707 88.252 87.2715C88.252 87.5039 88.3158 87.6953 88.4434 87.8457C88.5755 87.9961 88.7852 88.1374 89.0723 88.2695C89.3594 88.4017 89.7376 88.5566 90.207 88.7344C90.6764 88.9076 91.082 89.0876 91.4238 89.2744C91.7656 89.4567 92.0277 89.68 92.21 89.9443C92.3968 90.2041 92.4902 90.5391 92.4902 90.9492ZM100.618 93.1367C99.6702 93.1367 98.9183 92.8132 98.3623 92.166C97.8109 91.5189 97.5352 90.5573 97.5352 89.2812C97.5352 87.9915 97.8177 87.0186 98.3828 86.3623C98.9479 85.7015 99.6999 85.3711 100.639 85.3711C101.035 85.3711 101.382 85.4235 101.678 85.5283C101.974 85.6331 102.229 85.7744 102.443 85.9521C102.658 86.1253 102.838 86.3236 102.983 86.5469H103.065C103.047 86.4056 103.029 86.2119 103.011 85.9658C102.993 85.7197 102.983 85.5192 102.983 85.3643V82.3633H104.118V93H103.202L103.031 91.9336H102.983C102.842 92.1569 102.662 92.3597 102.443 92.542C102.229 92.7243 101.972 92.8701 101.671 92.9795C101.375 93.0843 101.024 93.1367 100.618 93.1367ZM100.796 92.1934C101.598 92.1934 102.165 91.9655 102.498 91.5098C102.831 91.054 102.997 90.3773 102.997 89.4795V89.2744C102.997 88.3219 102.838 87.5905 102.519 87.0801C102.204 86.5697 101.63 86.3145 100.796 86.3145C100.099 86.3145 99.5768 86.5833 99.2305 87.1211C98.8841 87.6543 98.7109 88.3835 98.7109 89.3086C98.7109 90.2292 98.8818 90.9401 99.2236 91.4414C99.57 91.9427 100.094 92.1934 100.796 92.1934ZM109.409 85.3711C110.047 85.3711 110.594 85.5124 111.05 85.7949C111.506 86.0775 111.854 86.474 112.096 86.9844C112.337 87.4902 112.458 88.0827 112.458 88.7617V89.4658H107.283C107.297 90.3454 107.516 91.0153 107.939 91.4756C108.363 91.9359 108.96 92.166 109.73 92.166C110.204 92.166 110.624 92.1227 110.988 92.0361C111.353 91.9495 111.731 91.8219 112.123 91.6533V92.6514C111.745 92.82 111.369 92.943 110.995 93.0205C110.626 93.098 110.188 93.1367 109.683 93.1367C108.963 93.1367 108.334 92.9909 107.796 92.6992C107.263 92.403 106.848 91.9701 106.552 91.4004C106.256 90.8307 106.107 90.1335 106.107 89.3086C106.107 88.502 106.242 87.8047 106.511 87.2168C106.784 86.6243 107.167 86.1686 107.659 85.8496C108.156 85.5306 108.739 85.3711 109.409 85.3711ZM109.396 86.3008C108.789 86.3008 108.306 86.499 107.946 86.8955C107.586 87.292 107.372 87.8457 107.304 88.5566H111.269C111.264 88.11 111.193 87.7181 111.057 87.3809C110.924 87.0391 110.722 86.7747 110.448 86.5879C110.175 86.3965 109.824 86.3008 109.396 86.3008ZM116.033 93L113.189 85.5078H114.406L116.054 90.04C116.168 90.3499 116.284 90.6917 116.402 91.0654C116.521 91.4391 116.603 91.7399 116.648 91.9678H116.696C116.751 91.7399 116.842 91.4391 116.97 91.0654C117.097 90.6872 117.214 90.3454 117.318 90.04L118.966 85.5078H120.183L117.332 93H116.033ZM122.521 85.5078V93H121.386V85.5078H122.521ZM121.967 82.7051C122.154 82.7051 122.313 82.7666 122.445 82.8896C122.582 83.0081 122.65 83.195 122.65 83.4502C122.65 83.7008 122.582 83.8877 122.445 84.0107C122.313 84.1338 122.154 84.1953 121.967 84.1953C121.771 84.1953 121.607 84.1338 121.475 84.0107C121.347 83.8877 121.283 83.7008 121.283 83.4502C121.283 83.195 121.347 83.0081 121.475 82.8896C121.607 82.7666 121.771 82.7051 121.967 82.7051ZM127.928 93.1367C127.253 93.1367 126.659 92.9977 126.144 92.7197C125.629 92.4417 125.228 92.0179 124.94 91.4482C124.653 90.8786 124.51 90.1608 124.51 89.2949C124.51 88.388 124.66 87.6475 124.961 87.0732C125.266 86.4945 125.686 86.0661 126.219 85.7881C126.752 85.5101 127.358 85.3711 128.037 85.3711C128.411 85.3711 128.771 85.4098 129.117 85.4873C129.468 85.5602 129.755 85.6536 129.979 85.7676L129.637 86.7178C129.409 86.6266 129.145 86.5446 128.844 86.4717C128.548 86.3988 128.27 86.3623 128.01 86.3623C127.49 86.3623 127.057 86.474 126.711 86.6973C126.369 86.9206 126.112 87.2487 125.938 87.6816C125.77 88.1146 125.686 88.6478 125.686 89.2812C125.686 89.8874 125.768 90.4046 125.932 90.833C126.1 91.2614 126.349 91.5895 126.677 91.8174C127.009 92.0407 127.424 92.1523 127.921 92.1523C128.317 92.1523 128.675 92.1113 128.994 92.0293C129.313 91.9427 129.603 91.8424 129.862 91.7285V92.7402C129.612 92.8678 129.331 92.9658 129.021 93.0342C128.716 93.1025 128.352 93.1367 127.928 93.1367ZM134.524 85.3711C135.162 85.3711 135.709 85.5124 136.165 85.7949C136.621 86.0775 136.969 86.474 137.211 86.9844C137.452 87.4902 137.573 88.0827 137.573 88.7617V89.4658H132.398C132.412 90.3454 132.631 91.0153 133.055 91.4756C133.479 91.9359 134.076 92.166 134.846 92.166C135.32 92.166 135.739 92.1227 136.104 92.0361C136.468 91.9495 136.846 91.8219 137.238 91.6533V92.6514C136.86 92.82 136.484 92.943 136.11 93.0205C135.741 93.098 135.304 93.1367 134.798 93.1367C134.078 93.1367 133.449 92.9909 132.911 92.6992C132.378 92.403 131.963 91.9701 131.667 91.4004C131.371 90.8307 131.223 90.1335 131.223 89.3086C131.223 88.502 131.357 87.8047 131.626 87.2168C131.899 86.6243 132.282 86.1686 132.774 85.8496C133.271 85.5306 133.854 85.3711 134.524 85.3711ZM134.511 86.3008C133.905 86.3008 133.422 86.499 133.062 86.8955C132.701 87.292 132.487 87.8457 132.419 88.5566H136.384C136.379 88.11 136.309 87.7181 136.172 87.3809C136.04 87.0391 135.837 86.7747 135.563 86.5879C135.29 86.3965 134.939 86.3008 134.511 86.3008ZM144.272 85.5078V93H143.138V85.5078H144.272ZM143.719 82.7051C143.906 82.7051 144.065 82.7666 144.197 82.8896C144.334 83.0081 144.402 83.195 144.402 83.4502C144.402 83.7008 144.334 83.8877 144.197 84.0107C144.065 84.1338 143.906 84.1953 143.719 84.1953C143.523 84.1953 143.359 84.1338 143.227 84.0107C143.099 83.8877 143.035 83.7008 143.035 83.4502C143.035 83.195 143.099 83.0081 143.227 82.8896C143.359 82.7666 143.523 82.7051 143.719 82.7051ZM150.227 85.3711C151.115 85.3711 151.787 85.5898 152.243 86.0273C152.699 86.4603 152.927 87.1576 152.927 88.1191V93H151.806V88.1943C151.806 87.57 151.662 87.1029 151.375 86.793C151.092 86.4831 150.657 86.3281 150.069 86.3281C149.24 86.3281 148.657 86.5628 148.319 87.0322C147.982 87.5016 147.813 88.1829 147.813 89.0762V93H146.679V85.5078H147.595L147.766 86.5879H147.827C147.987 86.3236 148.189 86.1025 148.436 85.9248C148.682 85.7425 148.957 85.6058 149.263 85.5146C149.568 85.4189 149.889 85.3711 150.227 85.3711ZM166.277 93H164.903L161.301 88.1396L160.234 89.0967V93H159.072V83.0059H160.234V87.9893C160.494 87.693 160.761 87.3991 161.034 87.1074C161.308 86.8112 161.579 86.5127 161.848 86.2119L164.767 83.0059H166.127L162.148 87.3398L166.277 93ZM168.608 85.5078V93H167.474V85.5078H168.608ZM168.055 82.7051C168.242 82.7051 168.401 82.7666 168.533 82.8896C168.67 83.0081 168.738 83.195 168.738 83.4502C168.738 83.7008 168.67 83.8877 168.533 84.0107C168.401 84.1338 168.242 84.1953 168.055 84.1953C167.859 84.1953 167.695 84.1338 167.562 84.0107C167.435 83.8877 167.371 83.7008 167.371 83.4502C167.371 83.195 167.435 83.0081 167.562 82.8896C167.695 82.7666 167.859 82.7051 168.055 82.7051ZM177.475 89.2402C177.475 89.8555 177.395 90.4046 177.235 90.8877C177.076 91.3708 176.846 91.7786 176.545 92.1113C176.244 92.444 175.88 92.6992 175.451 92.877C175.027 93.0501 174.547 93.1367 174.009 93.1367C173.507 93.1367 173.047 93.0501 172.628 92.877C172.213 92.6992 171.853 92.444 171.548 92.1113C171.247 91.7786 171.012 91.3708 170.844 90.8877C170.68 90.4046 170.598 89.8555 170.598 89.2402C170.598 88.4199 170.737 87.7227 171.015 87.1484C171.293 86.5697 171.689 86.1299 172.204 85.8291C172.724 85.5238 173.341 85.3711 174.057 85.3711C174.74 85.3711 175.337 85.5238 175.848 85.8291C176.363 86.1344 176.761 86.5765 177.044 87.1553C177.331 87.7295 177.475 88.4245 177.475 89.2402ZM171.773 89.2402C171.773 89.8418 171.853 90.3636 172.013 90.8057C172.172 91.2477 172.418 91.5895 172.751 91.8311C173.084 92.0726 173.512 92.1934 174.036 92.1934C174.556 92.1934 174.982 92.0726 175.314 91.8311C175.652 91.5895 175.9 91.2477 176.06 90.8057C176.219 90.3636 176.299 89.8418 176.299 89.2402C176.299 88.6432 176.219 88.1283 176.06 87.6953C175.9 87.2578 175.654 86.9206 175.321 86.6836C174.989 86.4466 174.558 86.3281 174.029 86.3281C173.25 86.3281 172.678 86.5856 172.313 87.1006C171.953 87.6156 171.773 88.3288 171.773 89.2402ZM184.283 90.9492C184.283 91.4277 184.162 91.8311 183.921 92.1592C183.684 92.4827 183.342 92.7266 182.896 92.8906C182.453 93.0547 181.925 93.1367 181.31 93.1367C180.785 93.1367 180.332 93.0957 179.949 93.0137C179.566 92.9316 179.231 92.8154 178.944 92.665V91.6191C179.25 91.7695 179.614 91.9062 180.038 92.0293C180.462 92.1523 180.895 92.2139 181.337 92.2139C181.984 92.2139 182.453 92.109 182.745 91.8994C183.037 91.6898 183.183 91.4049 183.183 91.0449C183.183 90.8398 183.123 90.6598 183.005 90.5049C182.891 90.3454 182.697 90.1927 182.424 90.0469C182.15 89.8965 181.772 89.7324 181.289 89.5547C180.811 89.3724 180.396 89.1924 180.045 89.0146C179.699 88.8324 179.43 88.6113 179.238 88.3516C179.051 88.0918 178.958 87.7546 178.958 87.3398C178.958 86.7064 179.213 86.221 179.724 85.8838C180.239 85.542 180.913 85.3711 181.747 85.3711C182.198 85.3711 182.62 85.4167 183.012 85.5078C183.408 85.5944 183.777 85.7129 184.119 85.8633L183.736 86.7725C183.426 86.6403 183.096 86.5286 182.745 86.4375C182.394 86.3464 182.036 86.3008 181.672 86.3008C181.148 86.3008 180.744 86.3874 180.462 86.5605C180.184 86.7337 180.045 86.9707 180.045 87.2715C180.045 87.5039 180.109 87.6953 180.236 87.8457C180.368 87.9961 180.578 88.1374 180.865 88.2695C181.152 88.4017 181.531 88.5566 182 88.7344C182.469 88.9076 182.875 89.0876 183.217 89.2744C183.559 89.4567 183.821 89.68 184.003 89.9443C184.19 90.2041 184.283 90.5391 184.283 90.9492ZM187.236 82.3633V87.8867C187.236 88.069 187.229 88.2923 187.216 88.5566C187.202 88.8164 187.191 89.0465 187.182 89.2471H187.229C187.325 89.1286 187.464 88.9531 187.646 88.7207C187.833 88.4883 187.991 88.3014 188.118 88.1602L190.606 85.5078H191.939L188.925 88.707L192.158 93H190.791L188.146 89.4521L187.236 90.2861V93H186.108V82.3633H187.236ZM201.667 93L198.311 84.1543H198.256C198.274 84.3411 198.29 84.569 198.304 84.8379C198.317 85.1068 198.329 85.4007 198.338 85.7197C198.347 86.0342 198.352 86.3555 198.352 86.6836V93H197.271V83.0059H198.994L202.159 91.3184H202.207L205.42 83.0059H207.129V93H205.98V86.6016C205.98 86.3053 205.985 86.0091 205.994 85.7129C206.003 85.4121 206.015 85.1296 206.028 84.8652C206.042 84.5964 206.056 84.3639 206.069 84.168H206.015L202.617 93H201.667ZM216.152 89.2402C216.152 89.8555 216.073 90.4046 215.913 90.8877C215.754 91.3708 215.523 91.7786 215.223 92.1113C214.922 92.444 214.557 92.6992 214.129 92.877C213.705 93.0501 213.224 93.1367 212.687 93.1367C212.185 93.1367 211.725 93.0501 211.306 92.877C210.891 92.6992 210.531 92.444 210.226 92.1113C209.925 91.7786 209.69 91.3708 209.521 90.8877C209.357 90.4046 209.275 89.8555 209.275 89.2402C209.275 88.4199 209.414 87.7227 209.692 87.1484C209.97 86.5697 210.367 86.1299 210.882 85.8291C211.401 85.5238 212.019 85.3711 212.734 85.3711C213.418 85.3711 214.015 85.5238 214.525 85.8291C215.04 86.1344 215.439 86.5765 215.722 87.1553C216.009 87.7295 216.152 88.4245 216.152 89.2402ZM210.451 89.2402C210.451 89.8418 210.531 90.3636 210.69 90.8057C210.85 91.2477 211.096 91.5895 211.429 91.8311C211.761 92.0726 212.19 92.1934 212.714 92.1934C213.233 92.1934 213.66 92.0726 213.992 91.8311C214.329 91.5895 214.578 91.2477 214.737 90.8057C214.897 90.3636 214.977 89.8418 214.977 89.2402C214.977 88.6432 214.897 88.1283 214.737 87.6953C214.578 87.2578 214.332 86.9206 213.999 86.6836C213.666 86.4466 213.236 86.3281 212.707 86.3281C211.928 86.3281 211.356 86.5856 210.991 87.1006C210.631 87.6156 210.451 88.3288 210.451 89.2402ZM220.78 93.1367C219.832 93.1367 219.08 92.8132 218.524 92.166C217.973 91.5189 217.697 90.5573 217.697 89.2812C217.697 87.9915 217.98 87.0186 218.545 86.3623C219.11 85.7015 219.862 85.3711 220.801 85.3711C221.197 85.3711 221.544 85.4235 221.84 85.5283C222.136 85.6331 222.391 85.7744 222.605 85.9521C222.82 86.1253 223 86.3236 223.146 86.5469H223.228C223.209 86.4056 223.191 86.2119 223.173 85.9658C223.155 85.7197 223.146 85.5192 223.146 85.3643V82.3633H224.28V93H223.364L223.193 91.9336H223.146C223.004 92.1569 222.824 92.3597 222.605 92.542C222.391 92.7243 222.134 92.8701 221.833 92.9795C221.537 93.0843 221.186 93.1367 220.78 93.1367ZM220.958 92.1934C221.76 92.1934 222.327 91.9655 222.66 91.5098C222.993 91.054 223.159 90.3773 223.159 89.4795V89.2744C223.159 88.3219 223 87.5905 222.681 87.0801C222.366 86.5697 221.792 86.3145 220.958 86.3145C220.261 86.3145 219.739 86.5833 219.393 87.1211C219.046 87.6543 218.873 88.3835 218.873 89.3086C218.873 90.2292 219.044 90.9401 219.386 91.4414C219.732 91.9427 220.256 92.1934 220.958 92.1934ZM229.571 85.3711C230.209 85.3711 230.756 85.5124 231.212 85.7949C231.668 86.0775 232.016 86.474 232.258 86.9844C232.499 87.4902 232.62 88.0827 232.62 88.7617V89.4658H227.445C227.459 90.3454 227.678 91.0153 228.102 91.4756C228.525 91.9359 229.122 92.166 229.893 92.166C230.367 92.166 230.786 92.1227 231.15 92.0361C231.515 91.9495 231.893 91.8219 232.285 91.6533V92.6514C231.907 92.82 231.531 92.943 231.157 93.0205C230.788 93.098 230.351 93.1367 229.845 93.1367C229.125 93.1367 228.496 92.9909 227.958 92.6992C227.425 92.403 227.01 91.9701 226.714 91.4004C226.418 90.8307 226.27 90.1335 226.27 89.3086C226.27 88.502 226.404 87.8047 226.673 87.2168C226.946 86.6243 227.329 86.1686 227.821 85.8496C228.318 85.5306 228.901 85.3711 229.571 85.3711ZM229.558 86.3008C228.951 86.3008 228.468 86.499 228.108 86.8955C227.748 87.292 227.534 87.8457 227.466 88.5566H231.431C231.426 88.11 231.355 87.7181 231.219 87.3809C231.087 87.0391 230.884 86.7747 230.61 86.5879C230.337 86.3965 229.986 86.3008 229.558 86.3008ZM32.5322 105.396H30.666V112H29.5312V105.396H28.2051V104.85L29.5312 104.474V103.975C29.5312 103.346 29.6247 102.835 29.8115 102.443C29.9984 102.047 30.2695 101.755 30.625 101.568C30.9805 101.382 31.4134 101.288 31.9238 101.288C32.2109 101.288 32.473 101.313 32.71 101.363C32.9515 101.413 33.1634 101.47 33.3457 101.534L33.0518 102.43C32.8968 102.38 32.7214 102.334 32.5254 102.293C32.334 102.247 32.138 102.225 31.9375 102.225C31.5046 102.225 31.1833 102.366 30.9736 102.648C30.7686 102.926 30.666 103.364 30.666 103.961V104.508H32.5322V105.396ZM40.373 108.24C40.373 108.855 40.2933 109.405 40.1338 109.888C39.9743 110.371 39.7441 110.779 39.4434 111.111C39.1426 111.444 38.778 111.699 38.3496 111.877C37.9258 112.05 37.445 112.137 36.9072 112.137C36.4059 112.137 35.9456 112.05 35.5264 111.877C35.1117 111.699 34.7516 111.444 34.4463 111.111C34.1455 110.779 33.9108 110.371 33.7422 109.888C33.5781 109.405 33.4961 108.855 33.4961 108.24C33.4961 107.42 33.6351 106.723 33.9131 106.148C34.1911 105.57 34.5876 105.13 35.1025 104.829C35.6221 104.524 36.2396 104.371 36.9551 104.371C37.6387 104.371 38.2357 104.524 38.7461 104.829C39.2611 105.134 39.6598 105.576 39.9424 106.155C40.2295 106.729 40.373 107.424 40.373 108.24ZM34.6719 108.24C34.6719 108.842 34.7516 109.364 34.9111 109.806C35.0706 110.248 35.3167 110.59 35.6494 110.831C35.9821 111.073 36.4105 111.193 36.9346 111.193C37.4541 111.193 37.8802 111.073 38.2129 110.831C38.5501 110.59 38.7985 110.248 38.958 109.806C39.1175 109.364 39.1973 108.842 39.1973 108.24C39.1973 107.643 39.1175 107.128 38.958 106.695C38.7985 106.258 38.5524 105.921 38.2197 105.684C37.887 105.447 37.4564 105.328 36.9277 105.328C36.1484 105.328 35.5765 105.586 35.2119 106.101C34.8519 106.616 34.6719 107.329 34.6719 108.24ZM45.7393 104.371C45.8896 104.371 46.0469 104.38 46.2109 104.398C46.375 104.412 46.5208 104.433 46.6484 104.46L46.5049 105.513C46.3818 105.481 46.2451 105.456 46.0947 105.438C45.9443 105.419 45.8031 105.41 45.6709 105.41C45.3701 105.41 45.0853 105.472 44.8164 105.595C44.5521 105.713 44.3197 105.886 44.1191 106.114C43.9186 106.338 43.7614 106.609 43.6475 106.928C43.5335 107.242 43.4766 107.593 43.4766 107.98V112H42.335V104.508H43.2783L43.4014 105.889H43.4492C43.6042 105.611 43.791 105.358 44.0098 105.13C44.2285 104.897 44.4814 104.713 44.7686 104.576C45.0602 104.439 45.3838 104.371 45.7393 104.371ZM53.792 115.363C52.8076 115.363 52.0488 115.179 51.5156 114.81C50.9824 114.445 50.7158 113.932 50.7158 113.271C50.7158 112.802 50.8639 112.401 51.1602 112.068C51.4609 111.736 51.8757 111.515 52.4043 111.405C52.2083 111.314 52.0397 111.177 51.8984 110.995C51.7617 110.813 51.6934 110.603 51.6934 110.366C51.6934 110.093 51.7686 109.854 51.9189 109.648C52.0739 109.439 52.3086 109.238 52.623 109.047C52.2311 108.887 51.9121 108.618 51.666 108.24C51.4245 107.857 51.3037 107.413 51.3037 106.907C51.3037 106.369 51.4154 105.911 51.6387 105.533C51.862 105.15 52.1855 104.859 52.6094 104.658C53.0332 104.458 53.5459 104.357 54.1475 104.357C54.2796 104.357 54.4118 104.364 54.5439 104.378C54.6807 104.387 54.8105 104.403 54.9336 104.426C55.0566 104.444 55.1637 104.467 55.2549 104.494H57.8252V105.226L56.4443 105.396C56.5811 105.574 56.695 105.788 56.7861 106.039C56.8773 106.29 56.9229 106.568 56.9229 106.873C56.9229 107.62 56.6699 108.215 56.1641 108.657C55.6582 109.095 54.9632 109.313 54.0791 109.313C53.8695 109.313 53.6553 109.295 53.4365 109.259C53.2132 109.382 53.0423 109.519 52.9238 109.669C52.8099 109.819 52.7529 109.993 52.7529 110.188C52.7529 110.334 52.7962 110.451 52.8828 110.537C52.974 110.624 53.1038 110.688 53.2725 110.729C53.4411 110.765 53.6439 110.783 53.8809 110.783H55.2002C56.016 110.783 56.6403 110.954 57.0732 111.296C57.5107 111.638 57.7295 112.137 57.7295 112.793C57.7295 113.622 57.3923 114.258 56.7178 114.7C56.0433 115.142 55.068 115.363 53.792 115.363ZM53.8262 114.475C54.446 114.475 54.9587 114.411 55.3643 114.283C55.7744 114.16 56.0798 113.98 56.2803 113.743C56.4854 113.511 56.5879 113.233 56.5879 112.909C56.5879 112.608 56.5195 112.381 56.3828 112.226C56.2461 112.075 56.0456 111.975 55.7812 111.925C55.5169 111.87 55.1934 111.843 54.8105 111.843H53.5117C53.1745 111.843 52.8805 111.895 52.6299 112C52.3792 112.105 52.1855 112.26 52.0488 112.465C51.9167 112.67 51.8506 112.925 51.8506 113.23C51.8506 113.636 52.0215 113.944 52.3633 114.153C52.7051 114.368 53.1927 114.475 53.8262 114.475ZM54.1201 108.486C54.6624 108.486 55.0703 108.35 55.3438 108.076C55.6172 107.803 55.7539 107.404 55.7539 106.88C55.7539 106.319 55.6149 105.9 55.3369 105.622C55.0589 105.34 54.6488 105.198 54.1064 105.198C53.5869 105.198 53.1859 105.344 52.9033 105.636C52.6253 105.923 52.4863 106.344 52.4863 106.9C52.4863 107.411 52.6276 107.803 52.9102 108.076C53.1927 108.35 53.596 108.486 54.1201 108.486ZM65.4883 104.508V112H64.5586L64.3945 110.947H64.333C64.1781 111.207 63.9775 111.426 63.7314 111.604C63.4854 111.781 63.2074 111.913 62.8975 112C62.5921 112.091 62.2663 112.137 61.9199 112.137C61.3275 112.137 60.8307 112.041 60.4297 111.85C60.0286 111.658 59.7256 111.362 59.5205 110.961C59.32 110.56 59.2197 110.045 59.2197 109.416V104.508H60.3682V109.334C60.3682 109.958 60.5094 110.425 60.792 110.735C61.0745 111.041 61.5052 111.193 62.084 111.193C62.64 111.193 63.082 111.089 63.4102 110.879C63.7428 110.669 63.9821 110.362 64.1279 109.956C64.2738 109.546 64.3467 109.045 64.3467 108.452V104.508H65.4883ZM70.7725 104.371C71.4105 104.371 71.9574 104.512 72.4131 104.795C72.8688 105.077 73.2174 105.474 73.459 105.984C73.7005 106.49 73.8213 107.083 73.8213 107.762V108.466H68.6465C68.6602 109.345 68.8789 110.015 69.3027 110.476C69.7266 110.936 70.3236 111.166 71.0938 111.166C71.5677 111.166 71.987 111.123 72.3516 111.036C72.7161 110.95 73.0944 110.822 73.4863 110.653V111.651C73.1081 111.82 72.7321 111.943 72.3584 112.021C71.9893 112.098 71.5518 112.137 71.0459 112.137C70.3258 112.137 69.6969 111.991 69.1592 111.699C68.626 111.403 68.2113 110.97 67.915 110.4C67.6188 109.831 67.4707 109.133 67.4707 108.309C67.4707 107.502 67.6051 106.805 67.874 106.217C68.1475 105.624 68.5303 105.169 69.0225 104.85C69.5192 104.531 70.1025 104.371 70.7725 104.371ZM70.7588 105.301C70.1527 105.301 69.6696 105.499 69.3096 105.896C68.9495 106.292 68.7354 106.846 68.667 107.557H72.6318C72.6273 107.11 72.5566 106.718 72.4199 106.381C72.2878 106.039 72.085 105.775 71.8115 105.588C71.5381 105.396 71.1872 105.301 70.7588 105.301ZM80.5957 109.949C80.5957 110.428 80.4749 110.831 80.2334 111.159C79.9964 111.483 79.6546 111.727 79.208 111.891C78.766 112.055 78.2373 112.137 77.6221 112.137C77.098 112.137 76.6445 112.096 76.2617 112.014C75.8789 111.932 75.5439 111.815 75.2568 111.665V110.619C75.5622 110.77 75.9268 110.906 76.3506 111.029C76.7744 111.152 77.2074 111.214 77.6494 111.214C78.2965 111.214 78.766 111.109 79.0576 110.899C79.3493 110.69 79.4951 110.405 79.4951 110.045C79.4951 109.84 79.4359 109.66 79.3174 109.505C79.2035 109.345 79.0098 109.193 78.7363 109.047C78.4629 108.896 78.0846 108.732 77.6016 108.555C77.123 108.372 76.7083 108.192 76.3574 108.015C76.0111 107.832 75.7422 107.611 75.5508 107.352C75.3639 107.092 75.2705 106.755 75.2705 106.34C75.2705 105.706 75.5257 105.221 76.0361 104.884C76.5511 104.542 77.2256 104.371 78.0596 104.371C78.5107 104.371 78.9323 104.417 79.3242 104.508C79.7207 104.594 80.0898 104.713 80.4316 104.863L80.0488 105.772C79.7389 105.64 79.4085 105.529 79.0576 105.438C78.7067 105.346 78.349 105.301 77.9844 105.301C77.4603 105.301 77.057 105.387 76.7744 105.561C76.4964 105.734 76.3574 105.971 76.3574 106.271C76.3574 106.504 76.4212 106.695 76.5488 106.846C76.681 106.996 76.8906 107.137 77.1777 107.27C77.4648 107.402 77.8431 107.557 78.3125 107.734C78.7819 107.908 79.1875 108.088 79.5293 108.274C79.8711 108.457 80.1331 108.68 80.3154 108.944C80.5023 109.204 80.5957 109.539 80.5957 109.949ZM84.8408 111.207C85.0277 111.207 85.2191 111.191 85.415 111.159C85.611 111.127 85.7705 111.089 85.8936 111.043V111.925C85.7614 111.984 85.5768 112.034 85.3398 112.075C85.1074 112.116 84.8796 112.137 84.6562 112.137C84.2598 112.137 83.8997 112.068 83.5762 111.932C83.2526 111.79 82.9928 111.553 82.7969 111.221C82.6055 110.888 82.5098 110.428 82.5098 109.84V105.396H81.4434V104.843L82.5166 104.398L82.9678 102.771H83.6514V104.508H85.8457V105.396H83.6514V109.806C83.6514 110.275 83.7585 110.626 83.9727 110.858C84.1914 111.091 84.4808 111.207 84.8408 111.207ZM93.8506 104.385C94.7438 104.385 95.4069 104.585 95.8398 104.986C96.2728 105.387 96.4893 106.028 96.4893 106.907V112H95.6621L95.4434 110.893H95.3887C95.179 111.166 94.9603 111.396 94.7324 111.583C94.5046 111.765 94.2402 111.904 93.9395 112C93.6432 112.091 93.2786 112.137 92.8457 112.137C92.39 112.137 91.9844 112.057 91.6289 111.897C91.278 111.738 91 111.496 90.7949 111.173C90.5944 110.849 90.4941 110.439 90.4941 109.942C90.4941 109.195 90.7904 108.621 91.3828 108.22C91.9753 107.819 92.8776 107.6 94.0898 107.563L95.3818 107.509V107.051C95.3818 106.404 95.2428 105.95 94.9648 105.69C94.6868 105.431 94.2949 105.301 93.7891 105.301C93.3971 105.301 93.0234 105.358 92.668 105.472C92.3125 105.586 91.9753 105.72 91.6562 105.875L91.3076 105.014C91.6449 104.84 92.0322 104.692 92.4697 104.569C92.9072 104.446 93.3675 104.385 93.8506 104.385ZM95.3682 108.309L94.2266 108.356C93.2923 108.393 92.6338 108.546 92.251 108.814C91.8682 109.083 91.6768 109.464 91.6768 109.956C91.6768 110.384 91.8066 110.701 92.0664 110.906C92.3262 111.111 92.6702 111.214 93.0986 111.214C93.764 111.214 94.3086 111.029 94.7324 110.66C95.1562 110.291 95.3682 109.737 95.3682 108.999V108.309ZM101.828 112.137C101.154 112.137 100.559 111.998 100.044 111.72C99.529 111.442 99.1279 111.018 98.8408 110.448C98.5537 109.879 98.4102 109.161 98.4102 108.295C98.4102 107.388 98.5605 106.647 98.8613 106.073C99.1667 105.494 99.5859 105.066 100.119 104.788C100.652 104.51 101.258 104.371 101.938 104.371C102.311 104.371 102.671 104.41 103.018 104.487C103.368 104.56 103.656 104.654 103.879 104.768L103.537 105.718C103.309 105.627 103.045 105.545 102.744 105.472C102.448 105.399 102.17 105.362 101.91 105.362C101.391 105.362 100.958 105.474 100.611 105.697C100.27 105.921 100.012 106.249 99.8389 106.682C99.6702 107.115 99.5859 107.648 99.5859 108.281C99.5859 108.887 99.668 109.405 99.832 109.833C100.001 110.261 100.249 110.59 100.577 110.817C100.91 111.041 101.325 111.152 101.821 111.152C102.218 111.152 102.576 111.111 102.895 111.029C103.214 110.943 103.503 110.842 103.763 110.729V111.74C103.512 111.868 103.232 111.966 102.922 112.034C102.617 112.103 102.252 112.137 101.828 112.137ZM108.541 112.137C107.867 112.137 107.272 111.998 106.757 111.72C106.242 111.442 105.841 111.018 105.554 110.448C105.267 109.879 105.123 109.161 105.123 108.295C105.123 107.388 105.273 106.647 105.574 106.073C105.88 105.494 106.299 105.066 106.832 104.788C107.365 104.51 107.971 104.371 108.65 104.371C109.024 104.371 109.384 104.41 109.73 104.487C110.081 104.56 110.368 104.654 110.592 104.768L110.25 105.718C110.022 105.627 109.758 105.545 109.457 105.472C109.161 105.399 108.883 105.362 108.623 105.362C108.104 105.362 107.671 105.474 107.324 105.697C106.982 105.921 106.725 106.249 106.552 106.682C106.383 107.115 106.299 107.648 106.299 108.281C106.299 108.887 106.381 109.405 106.545 109.833C106.714 110.261 106.962 110.59 107.29 110.817C107.623 111.041 108.037 111.152 108.534 111.152C108.931 111.152 109.288 111.111 109.607 111.029C109.926 110.943 110.216 110.842 110.476 110.729V111.74C110.225 111.868 109.945 111.966 109.635 112.034C109.329 112.103 108.965 112.137 108.541 112.137ZM115.138 104.371C115.776 104.371 116.323 104.512 116.778 104.795C117.234 105.077 117.583 105.474 117.824 105.984C118.066 106.49 118.187 107.083 118.187 107.762V108.466H113.012C113.025 109.345 113.244 110.015 113.668 110.476C114.092 110.936 114.689 111.166 115.459 111.166C115.933 111.166 116.352 111.123 116.717 111.036C117.081 110.95 117.46 110.822 117.852 110.653V111.651C117.473 111.82 117.097 111.943 116.724 112.021C116.354 112.098 115.917 112.137 115.411 112.137C114.691 112.137 114.062 111.991 113.524 111.699C112.991 111.403 112.576 110.97 112.28 110.4C111.984 109.831 111.836 109.133 111.836 108.309C111.836 107.502 111.97 106.805 112.239 106.217C112.513 105.624 112.896 105.169 113.388 104.85C113.884 104.531 114.468 104.371 115.138 104.371ZM115.124 105.301C114.518 105.301 114.035 105.499 113.675 105.896C113.315 106.292 113.101 106.846 113.032 107.557H116.997C116.993 107.11 116.922 106.718 116.785 106.381C116.653 106.039 116.45 105.775 116.177 105.588C115.903 105.396 115.552 105.301 115.124 105.301ZM124.961 109.949C124.961 110.428 124.84 110.831 124.599 111.159C124.362 111.483 124.02 111.727 123.573 111.891C123.131 112.055 122.603 112.137 121.987 112.137C121.463 112.137 121.01 112.096 120.627 112.014C120.244 111.932 119.909 111.815 119.622 111.665V110.619C119.927 110.77 120.292 110.906 120.716 111.029C121.14 111.152 121.573 111.214 122.015 111.214C122.662 111.214 123.131 111.109 123.423 110.899C123.715 110.69 123.86 110.405 123.86 110.045C123.86 109.84 123.801 109.66 123.683 109.505C123.569 109.345 123.375 109.193 123.102 109.047C122.828 108.896 122.45 108.732 121.967 108.555C121.488 108.372 121.074 108.192 120.723 108.015C120.376 107.832 120.107 107.611 119.916 107.352C119.729 107.092 119.636 106.755 119.636 106.34C119.636 105.706 119.891 105.221 120.401 104.884C120.916 104.542 121.591 104.371 122.425 104.371C122.876 104.371 123.298 104.417 123.689 104.508C124.086 104.594 124.455 104.713 124.797 104.863L124.414 105.772C124.104 105.64 123.774 105.529 123.423 105.438C123.072 105.346 122.714 105.301 122.35 105.301C121.826 105.301 121.422 105.387 121.14 105.561C120.862 105.734 120.723 105.971 120.723 106.271C120.723 106.504 120.786 106.695 120.914 106.846C121.046 106.996 121.256 107.137 121.543 107.27C121.83 107.402 122.208 107.557 122.678 107.734C123.147 107.908 123.553 108.088 123.895 108.274C124.236 108.457 124.498 108.68 124.681 108.944C124.868 109.204 124.961 109.539 124.961 109.949ZM131.633 109.949C131.633 110.428 131.512 110.831 131.271 111.159C131.034 111.483 130.692 111.727 130.245 111.891C129.803 112.055 129.274 112.137 128.659 112.137C128.135 112.137 127.682 112.096 127.299 112.014C126.916 111.932 126.581 111.815 126.294 111.665V110.619C126.599 110.77 126.964 110.906 127.388 111.029C127.812 111.152 128.244 111.214 128.687 111.214C129.334 111.214 129.803 111.109 130.095 110.899C130.386 110.69 130.532 110.405 130.532 110.045C130.532 109.84 130.473 109.66 130.354 109.505C130.241 109.345 130.047 109.193 129.773 109.047C129.5 108.896 129.122 108.732 128.639 108.555C128.16 108.372 127.745 108.192 127.395 108.015C127.048 107.832 126.779 107.611 126.588 107.352C126.401 107.092 126.308 106.755 126.308 106.34C126.308 105.706 126.563 105.221 127.073 104.884C127.588 104.542 128.263 104.371 129.097 104.371C129.548 104.371 129.969 104.417 130.361 104.508C130.758 104.594 131.127 104.713 131.469 104.863L131.086 105.772C130.776 105.64 130.446 105.529 130.095 105.438C129.744 105.346 129.386 105.301 129.021 105.301C128.497 105.301 128.094 105.387 127.812 105.561C127.534 105.734 127.395 105.971 127.395 106.271C127.395 106.504 127.458 106.695 127.586 106.846C127.718 106.996 127.928 107.137 128.215 107.27C128.502 107.402 128.88 107.557 129.35 107.734C129.819 107.908 130.225 108.088 130.566 108.274C130.908 108.457 131.17 108.68 131.353 108.944C131.539 109.204 131.633 109.539 131.633 109.949ZM133.287 111.289C133.287 110.97 133.365 110.744 133.52 110.612C133.674 110.476 133.864 110.407 134.087 110.407C134.319 110.407 134.515 110.476 134.675 110.612C134.834 110.744 134.914 110.97 134.914 111.289C134.914 111.604 134.834 111.834 134.675 111.979C134.515 112.121 134.319 112.191 134.087 112.191C133.864 112.191 133.674 112.121 133.52 111.979C133.365 111.834 133.287 111.604 133.287 111.289Z" fill="#616161"/>
<path d="M37.9609 61H29.875V46.7227H37.9609V48.6953H32.2188V52.5723H37.5996V54.5352H32.2188V59.0176H37.9609V61ZM43.2051 55.4727L39.5918 50.1895H42.209L44.6797 53.9883L47.1602 50.1895H49.7676L46.1348 55.4727L49.9531 61H47.3262L44.6797 56.9473L42.0234 61H39.416L43.2051 55.4727ZM57.375 49.9844C58.6576 49.9844 59.6862 50.4531 60.4609 51.3906C61.2422 52.3281 61.6328 53.7214 61.6328 55.5703C61.6328 56.7943 61.4505 57.8262 61.0859 58.666C60.7279 59.4993 60.2233 60.1309 59.5723 60.5605C58.9277 60.9837 58.1758 61.1953 57.3164 61.1953C56.7695 61.1953 56.2943 61.1237 55.8906 60.9805C55.487 60.8372 55.1419 60.6517 54.8555 60.4238C54.569 60.1895 54.3281 59.9355 54.1328 59.6621H53.9961C54.0286 59.9225 54.0579 60.2122 54.084 60.5312C54.1165 60.8438 54.1328 61.1302 54.1328 61.3906V65.7949H51.8281V50.1895H53.7031L54.0254 51.6836H54.1328C54.3346 51.3776 54.5788 51.0944 54.8652 50.834C55.1582 50.5736 55.5098 50.3685 55.9199 50.2188C56.3366 50.0625 56.8216 49.9844 57.375 49.9844ZM56.7598 51.8594C56.1283 51.8594 55.6204 51.9863 55.2363 52.2402C54.8587 52.4876 54.582 52.862 54.4062 53.3633C54.237 53.8646 54.1458 54.4928 54.1328 55.248V55.5703C54.1328 56.3711 54.2142 57.0514 54.377 57.6113C54.5462 58.1647 54.8229 58.5879 55.207 58.8809C55.5977 59.1673 56.125 59.3105 56.7891 59.3105C57.349 59.3105 57.8112 59.1576 58.1758 58.8516C58.5469 58.5456 58.8236 58.1094 59.0059 57.543C59.1882 56.9766 59.2793 56.3092 59.2793 55.541C59.2793 54.3757 59.071 53.4707 58.6543 52.8262C58.2441 52.1816 57.6126 51.8594 56.7598 51.8594ZM68.5957 49.9844C69.5592 49.9844 70.3861 50.1829 71.0762 50.5801C71.7663 50.9772 72.2969 51.5404 72.668 52.2695C73.0391 52.9987 73.2246 53.8711 73.2246 54.8867V56.1172H66.0078C66.0339 57.1654 66.3138 57.9727 66.8477 58.5391C67.388 59.1055 68.1432 59.3887 69.1133 59.3887C69.8034 59.3887 70.4219 59.3236 70.9688 59.1934C71.5221 59.0566 72.0918 58.8581 72.6777 58.5977V60.4629C72.1374 60.7168 71.5872 60.9023 71.0273 61.0195C70.4674 61.1367 69.7969 61.1953 69.0156 61.1953C67.9544 61.1953 67.0202 60.9902 66.2129 60.5801C65.4121 60.1634 64.7839 59.5449 64.3281 58.7246C63.8789 57.9043 63.6543 56.8854 63.6543 55.668C63.6543 54.457 63.8594 53.4284 64.2695 52.582C64.6797 51.7357 65.2559 51.0911 65.998 50.6484C66.7402 50.2057 67.6061 49.9844 68.5957 49.9844ZM68.5957 51.7129C67.873 51.7129 67.2871 51.9473 66.8379 52.416C66.3952 52.8848 66.1348 53.5716 66.0566 54.4766H70.9785C70.972 53.9362 70.8809 53.4577 70.7051 53.041C70.5358 52.6243 70.2754 52.2988 69.9238 52.0645C69.5788 51.8301 69.1361 51.7129 68.5957 51.7129ZM81.4473 49.9844C82.6647 49.9844 83.612 50.3001 84.2891 50.9316C84.9727 51.5566 85.3145 52.5625 85.3145 53.9492V61H83.0195V54.3789C83.0195 53.5391 82.847 52.9108 82.502 52.4941C82.1569 52.071 81.623 51.8594 80.9004 51.8594C79.8522 51.8594 79.123 52.1816 78.7129 52.8262C78.3092 53.4707 78.1074 54.4049 78.1074 55.6289V61H75.8125V50.1895H77.5996L77.9219 51.6543H78.0488C78.2832 51.2767 78.5729 50.9674 78.918 50.7266C79.2695 50.4792 79.6602 50.2936 80.0898 50.1699C80.526 50.0462 80.9785 49.9844 81.4473 49.9844ZM95.793 57.9141C95.793 58.6237 95.6204 59.2227 95.2754 59.7109C94.9303 60.1992 94.4258 60.5703 93.7617 60.8242C93.1042 61.0716 92.2969 61.1953 91.3398 61.1953C90.5846 61.1953 89.9336 61.14 89.3867 61.0293C88.8464 60.9251 88.3353 60.7624 87.8535 60.541V58.5586C88.3678 58.7995 88.944 59.0078 89.582 59.1836C90.2266 59.3594 90.8353 59.4473 91.4082 59.4473C92.1634 59.4473 92.707 59.3301 93.0391 59.0957C93.3711 58.8548 93.5371 58.5358 93.5371 58.1387C93.5371 57.9043 93.4688 57.696 93.332 57.5137C93.2018 57.3249 92.9544 57.1328 92.5898 56.9375C92.2318 56.7357 91.7044 56.4948 91.0078 56.2148C90.3242 55.9414 89.748 55.668 89.2793 55.3945C88.8105 55.1211 88.4557 54.7923 88.2148 54.4082C87.974 54.0176 87.8535 53.5195 87.8535 52.9141C87.8535 51.957 88.2311 51.2311 88.9863 50.7363C89.748 50.235 90.7539 49.9844 92.0039 49.9844C92.668 49.9844 93.293 50.0527 93.8789 50.1895C94.4714 50.3197 95.0508 50.5117 95.6172 50.7656L94.8945 52.4941C94.4062 52.2793 93.9147 52.1035 93.4199 51.9668C92.9316 51.8236 92.4336 51.752 91.9258 51.752C91.3333 51.752 90.8809 51.8431 90.5684 52.0254C90.2624 52.2077 90.1094 52.4681 90.1094 52.8066C90.1094 53.0605 90.1842 53.2754 90.334 53.4512C90.4837 53.627 90.7409 53.8027 91.1055 53.9785C91.4766 54.1543 91.9909 54.3724 92.6484 54.6328C93.293 54.8802 93.8496 55.1406 94.3184 55.4141C94.7936 55.681 95.1582 56.0098 95.4121 56.4004C95.666 56.791 95.793 57.2956 95.793 57.9141ZM102.58 49.9844C103.544 49.9844 104.37 50.1829 105.061 50.5801C105.751 50.9772 106.281 51.5404 106.652 52.2695C107.023 52.9987 107.209 53.8711 107.209 54.8867V56.1172H99.9922C100.018 57.1654 100.298 57.9727 100.832 58.5391C101.372 59.1055 102.128 59.3887 103.098 59.3887C103.788 59.3887 104.406 59.3236 104.953 59.1934C105.507 59.0566 106.076 58.8581 106.662 58.5977V60.4629C106.122 60.7168 105.572 60.9023 105.012 61.0195C104.452 61.1367 103.781 61.1953 103 61.1953C101.939 61.1953 101.005 60.9902 100.197 60.5801C99.3965 60.1634 98.7682 59.5449 98.3125 58.7246C97.8633 57.9043 97.6387 56.8854 97.6387 55.668C97.6387 54.457 97.8438 53.4284 98.2539 52.582C98.6641 51.7357 99.2402 51.0911 99.9824 50.6484C100.725 50.2057 101.59 49.9844 102.58 49.9844ZM102.58 51.7129C101.857 51.7129 101.271 51.9473 100.822 52.416C100.38 52.8848 100.119 53.5716 100.041 54.4766H104.963C104.956 53.9362 104.865 53.4577 104.689 53.041C104.52 52.6243 104.26 52.2988 103.908 52.0645C103.563 51.8301 103.12 51.7129 102.58 51.7129ZM117.062 57.9141C117.062 58.6237 116.89 59.2227 116.545 59.7109C116.2 60.1992 115.695 60.5703 115.031 60.8242C114.374 61.0716 113.566 61.1953 112.609 61.1953C111.854 61.1953 111.203 61.14 110.656 61.0293C110.116 60.9251 109.605 60.7624 109.123 60.541V58.5586C109.637 58.7995 110.214 59.0078 110.852 59.1836C111.496 59.3594 112.105 59.4473 112.678 59.4473C113.433 59.4473 113.977 59.3301 114.309 59.0957C114.641 58.8548 114.807 58.5358 114.807 58.1387C114.807 57.9043 114.738 57.696 114.602 57.5137C114.471 57.3249 114.224 57.1328 113.859 56.9375C113.501 56.7357 112.974 56.4948 112.277 56.2148C111.594 55.9414 111.018 55.668 110.549 55.3945C110.08 55.1211 109.725 54.7923 109.484 54.4082C109.243 54.0176 109.123 53.5195 109.123 52.9141C109.123 51.957 109.501 51.2311 110.256 50.7363C111.018 50.235 112.023 49.9844 113.273 49.9844C113.938 49.9844 114.562 50.0527 115.148 50.1895C115.741 50.3197 116.32 50.5117 116.887 50.7656L116.164 52.4941C115.676 52.2793 115.184 52.1035 114.689 51.9668C114.201 51.8236 113.703 51.752 113.195 51.752C112.603 51.752 112.15 51.8431 111.838 52.0254C111.532 52.2077 111.379 52.4681 111.379 52.8066C111.379 53.0605 111.454 53.2754 111.604 53.4512C111.753 53.627 112.01 53.8027 112.375 53.9785C112.746 54.1543 113.26 54.3724 113.918 54.6328C114.562 54.8802 115.119 55.1406 115.588 55.4141C116.063 55.681 116.428 56.0098 116.682 56.4004C116.936 56.791 117.062 57.2956 117.062 57.9141Z" fill="black"/>
<path d="M265.451 39.6954C263.963 39.6872 262.57 40.7754 261.568 42.7303C261.564 42.7374 261.559 42.743 261.556 42.7501L255.104 53.9548L255.094 53.9715C253.905 55.841 253.655 57.6038 254.392 58.8985C255.128 60.1923 256.766 60.8578 258.957 60.7495H271.901C274.093 60.8582 275.732 60.1926 276.468 58.8985C277.205 57.6041 276.954 55.8421 275.766 53.973L275.755 53.9547L269.373 42.7869C269.37 42.781 269.367 42.7759 269.364 42.7701C268.341 40.8041 266.941 39.7035 265.451 39.6954H265.451ZM265.454 40.6155C266.117 40.6218 266.746 40.9539 267.316 41.5111C267.883 42.0652 268.417 42.8516 268.947 43.8717C268.95 43.8776 268.953 43.8826 268.956 43.8885L274.582 53.7305C274.584 53.7331 274.585 53.7354 274.587 53.7381L274.593 53.7488C275.224 54.7388 275.637 55.6072 275.827 56.3839C276.018 57.1657 275.977 57.8804 275.64 58.4546C275.302 59.0289 274.701 59.4084 273.941 59.6219C273.187 59.8338 272.256 59.8981 271.138 59.8416H259.722C258.508 59.9031 257.538 59.826 256.772 59.5914C256.002 59.3551 255.421 58.9347 255.126 58.337C254.831 57.7395 254.839 57.0286 255.052 56.2649C255.264 55.5064 255.678 54.6728 256.267 53.7488L256.278 53.7304L261.965 43.858C261.969 43.8503 261.973 43.8443 261.977 43.8366C262.499 42.8152 263.027 42.0318 263.591 41.4837C264.16 40.9316 264.791 40.6091 265.454 40.6156L265.454 40.6155ZM267.781 43.6474L266.388 54.5864H264.345L262.984 43.8824C262.913 44.011 262.845 44.1408 262.778 44.2715L262.773 44.2822L262.767 44.2928L257.057 54.2035L257.053 54.2126L257.047 54.2217C256.482 55.1053 256.107 55.8807 255.931 56.5105C255.756 57.1404 255.78 57.6005 255.944 57.9327C256.108 58.2648 256.428 58.5323 257.041 58.72C257.653 58.9078 258.538 58.9909 259.697 58.9306L259.709 58.9291H271.15L271.163 58.9305C272.23 58.9861 273.082 58.9168 273.696 58.7445C274.309 58.572 274.664 58.3135 274.852 57.9922C275.041 57.6709 275.095 57.2332 274.941 56.6006C274.786 55.9679 274.417 55.1663 273.813 54.2217L273.807 54.2125L273.801 54.2019L268.154 44.3249L268.149 44.3172L268.146 44.3081C268.024 44.0723 267.902 43.8527 267.781 43.6473L267.781 43.6474ZM264.295 55.6683H266.439V57.8121H264.295V55.6683Z" fill="#1E1E1E"/>
</g>
<defs>
<filter id="filter0_d_4835_13721" x="0" y="0" width="306" height="166" filterUnits="userSpaceOnUse" color-interpolation-filters="sRGB">
<feFlood flood-opacity="0" result="BackgroundImageFix"/>
<feColorMatrix in="SourceAlpha" type="matrix" values="0 0 0 0 0 0 0 0 0 0 0 0 0 0 0 0 0 0 127 0" result="hardAlpha"/>
<feOffset/>
<feGaussianBlur stdDeviation="4"/>
<feComposite in2="hardAlpha" operator="out"/>
<feColorMatrix type="matrix" values="0 0 0 0 0 0 0 0 0 0 0 0 0 0 0 0 0 0 0.2 0"/>
<feBlend mode="normal" in2="BackgroundImageFix" result="effect1_dropShadow_4835_13721"/>
<feBlend mode="normal" in="SourceGraphic" in2="effect1_dropShadow_4835_13721" result="shape"/>
</filter>
</defs>
</svg>
