<svg width="306" height="91" viewBox="0 0 306 91" fill="none" xmlns="http://www.w3.org/2000/svg">
<g filter="url(#filter0_d_4835_13802)">
<rect x="8.5" y="8.5" width="289" height="74" rx="15.5" stroke="#E0E0E0" shape-rendering="crispEdges"/>
<path d="M35.9688 52H29.5V40.5781H35.9688V42.1562H31.375V45.2578H35.6797V46.8281H31.375V50.4141H35.9688V52ZM40.1641 47.5781L37.2734 43.3516H39.3672L41.3438 46.3906L43.3281 43.3516H45.4141L42.5078 47.5781L45.5625 52H43.4609L41.3438 48.7578L39.2188 52H37.1328L40.1641 47.5781ZM51.5 43.1875C52.526 43.1875 53.349 43.5625 53.9688 44.3125C54.5938 45.0625 54.9062 46.1771 54.9062 47.6562C54.9062 48.6354 54.7604 49.4609 54.4688 50.1328C54.1823 50.7995 53.7786 51.3047 53.2578 51.6484C52.7422 51.987 52.1406 52.1562 51.4531 52.1562C51.0156 52.1562 50.6354 52.099 50.3125 51.9844C49.9896 51.8698 49.7135 51.7214 49.4844 51.5391C49.2552 51.3516 49.0625 51.1484 48.9062 50.9297H48.7969C48.8229 51.138 48.8464 51.3698 48.8672 51.625C48.8932 51.875 48.9062 52.1042 48.9062 52.3125V55.8359H47.0625V43.3516H48.5625L48.8203 44.5469H48.9062C49.0677 44.3021 49.263 44.0755 49.4922 43.8672C49.7266 43.6589 50.0078 43.4948 50.3359 43.375C50.6693 43.25 51.0573 43.1875 51.5 43.1875ZM51.0078 44.6875C50.5026 44.6875 50.0964 44.7891 49.7891 44.9922C49.487 45.1901 49.2656 45.4896 49.125 45.8906C48.9896 46.2917 48.9167 46.7943 48.9062 47.3984V47.6562C48.9062 48.2969 48.9714 48.8411 49.1016 49.2891C49.237 49.7318 49.4583 50.0703 49.7656 50.3047C50.0781 50.5339 50.5 50.6484 51.0312 50.6484C51.4792 50.6484 51.849 50.526 52.1406 50.2812C52.4375 50.0365 52.6589 49.6875 52.8047 49.2344C52.9505 48.7812 53.0234 48.2474 53.0234 47.6328C53.0234 46.7005 52.8568 45.9766 52.5234 45.4609C52.1953 44.9453 51.6901 44.6875 51.0078 44.6875ZM60.4766 43.1875C61.2474 43.1875 61.9089 43.3464 62.4609 43.6641C63.013 43.9818 63.4375 44.4323 63.7344 45.0156C64.0312 45.599 64.1797 46.2969 64.1797 47.1094V48.0938H58.4062C58.4271 48.9323 58.651 49.5781 59.0781 50.0312C59.5104 50.4844 60.1146 50.7109 60.8906 50.7109C61.4427 50.7109 61.9375 50.6589 62.375 50.5547C62.8177 50.4453 63.2734 50.2865 63.7422 50.0781V51.5703C63.3099 51.7734 62.8698 51.9219 62.4219 52.0156C61.974 52.1094 61.4375 52.1562 60.8125 52.1562C59.9635 52.1562 59.2161 51.9922 58.5703 51.6641C57.9297 51.3307 57.4271 50.8359 57.0625 50.1797C56.7031 49.5234 56.5234 48.7083 56.5234 47.7344C56.5234 46.7656 56.6875 45.9427 57.0156 45.2656C57.3438 44.5885 57.8047 44.0729 58.3984 43.7188C58.9922 43.3646 59.6849 43.1875 60.4766 43.1875ZM60.4766 44.5703C59.8984 44.5703 59.4297 44.7578 59.0703 45.1328C58.7161 45.5078 58.5078 46.0573 58.4453 46.7812H62.3828C62.3776 46.349 62.3047 45.9661 62.1641 45.6328C62.0286 45.2995 61.8203 45.0391 61.5391 44.8516C61.263 44.6641 60.9089 44.5703 60.4766 44.5703ZM70.7578 43.1875C71.7318 43.1875 72.4896 43.4401 73.0312 43.9453C73.5781 44.4453 73.8516 45.25 73.8516 46.3594V52H72.0156V46.7031C72.0156 46.0312 71.8776 45.5286 71.6016 45.1953C71.3255 44.8568 70.8984 44.6875 70.3203 44.6875C69.4818 44.6875 68.8984 44.9453 68.5703 45.4609C68.2474 45.9766 68.0859 46.724 68.0859 47.7031V52H66.25V43.3516H67.6797L67.9375 44.5234H68.0391C68.2266 44.2214 68.4583 43.974 68.7344 43.7812C69.0156 43.5833 69.3281 43.4349 69.6719 43.3359C70.0208 43.237 70.3828 43.1875 70.7578 43.1875ZM82.2344 49.5312C82.2344 50.099 82.0964 50.5781 81.8203 50.9688C81.5443 51.3594 81.1406 51.6562 80.6094 51.8594C80.0833 52.0573 79.4375 52.1562 78.6719 52.1562C78.0677 52.1562 77.5469 52.112 77.1094 52.0234C76.6771 51.9401 76.2682 51.8099 75.8828 51.6328V50.0469C76.2943 50.2396 76.7552 50.4062 77.2656 50.5469C77.7812 50.6875 78.2682 50.7578 78.7266 50.7578C79.3307 50.7578 79.7656 50.6641 80.0312 50.4766C80.2969 50.2839 80.4297 50.0286 80.4297 49.7109C80.4297 49.5234 80.375 49.3568 80.2656 49.2109C80.1615 49.0599 79.9635 48.9062 79.6719 48.75C79.3854 48.5885 78.9635 48.3958 78.4062 48.1719C77.8594 47.9531 77.3984 47.7344 77.0234 47.5156C76.6484 47.2969 76.3646 47.0339 76.1719 46.7266C75.9792 46.4141 75.8828 46.0156 75.8828 45.5312C75.8828 44.7656 76.1849 44.1849 76.7891 43.7891C77.3984 43.388 78.2031 43.1875 79.2031 43.1875C79.7344 43.1875 80.2344 43.2422 80.7031 43.3516C81.1771 43.4557 81.6406 43.6094 82.0938 43.8125L81.5156 45.1953C81.125 45.0234 80.7318 44.8828 80.3359 44.7734C79.9453 44.6589 79.5469 44.6016 79.1406 44.6016C78.6667 44.6016 78.3047 44.6745 78.0547 44.8203C77.8099 44.9661 77.6875 45.1745 77.6875 45.4453C77.6875 45.6484 77.7474 45.8203 77.8672 45.9609C77.987 46.1016 78.1927 46.2422 78.4844 46.3828C78.7812 46.5234 79.1927 46.6979 79.7188 46.9062C80.2344 47.1042 80.6797 47.3125 81.0547 47.5312C81.4349 47.7448 81.7266 48.0078 81.9297 48.3203C82.1328 48.6328 82.2344 49.0365 82.2344 49.5312ZM87.6641 43.1875C88.4349 43.1875 89.0964 43.3464 89.6484 43.6641C90.2005 43.9818 90.625 44.4323 90.9219 45.0156C91.2188 45.599 91.3672 46.2969 91.3672 47.1094V48.0938H85.5938C85.6146 48.9323 85.8385 49.5781 86.2656 50.0312C86.6979 50.4844 87.3021 50.7109 88.0781 50.7109C88.6302 50.7109 89.125 50.6589 89.5625 50.5547C90.0052 50.4453 90.4609 50.2865 90.9297 50.0781V51.5703C90.4974 51.7734 90.0573 51.9219 89.6094 52.0156C89.1615 52.1094 88.625 52.1562 88 52.1562C87.151 52.1562 86.4036 51.9922 85.7578 51.6641C85.1172 51.3307 84.6146 50.8359 84.25 50.1797C83.8906 49.5234 83.7109 48.7083 83.7109 47.7344C83.7109 46.7656 83.875 45.9427 84.2031 45.2656C84.5312 44.5885 84.9922 44.0729 85.5859 43.7188C86.1797 43.3646 86.8724 43.1875 87.6641 43.1875ZM87.6641 44.5703C87.0859 44.5703 86.6172 44.7578 86.2578 45.1328C85.9036 45.5078 85.6953 46.0573 85.6328 46.7812H89.5703C89.5651 46.349 89.4922 45.9661 89.3516 45.6328C89.2161 45.2995 89.0078 45.0391 88.7266 44.8516C88.4505 44.6641 88.0964 44.5703 87.6641 44.5703ZM99.25 49.5312C99.25 50.099 99.112 50.5781 98.8359 50.9688C98.5599 51.3594 98.1562 51.6562 97.625 51.8594C97.099 52.0573 96.4531 52.1562 95.6875 52.1562C95.0833 52.1562 94.5625 52.112 94.125 52.0234C93.6927 51.9401 93.2839 51.8099 92.8984 51.6328V50.0469C93.3099 50.2396 93.7708 50.4062 94.2812 50.5469C94.7969 50.6875 95.2839 50.7578 95.7422 50.7578C96.3464 50.7578 96.7812 50.6641 97.0469 50.4766C97.3125 50.2839 97.4453 50.0286 97.4453 49.7109C97.4453 49.5234 97.3906 49.3568 97.2812 49.2109C97.1771 49.0599 96.9792 48.9062 96.6875 48.75C96.401 48.5885 95.9792 48.3958 95.4219 48.1719C94.875 47.9531 94.4141 47.7344 94.0391 47.5156C93.6641 47.2969 93.3802 47.0339 93.1875 46.7266C92.9948 46.4141 92.8984 46.0156 92.8984 45.5312C92.8984 44.7656 93.2005 44.1849 93.8047 43.7891C94.4141 43.388 95.2188 43.1875 96.2188 43.1875C96.75 43.1875 97.25 43.2422 97.7188 43.3516C98.1927 43.4557 98.6562 43.6094 99.1094 43.8125L98.5312 45.1953C98.1406 45.0234 97.7474 44.8828 97.3516 44.7734C96.9609 44.6589 96.5625 44.6016 96.1562 44.6016C95.6823 44.6016 95.3203 44.6745 95.0703 44.8203C94.8255 44.9661 94.7031 45.1745 94.7031 45.4453C94.7031 45.6484 94.763 45.8203 94.8828 45.9609C95.0026 46.1016 95.2083 46.2422 95.5 46.3828C95.7969 46.5234 96.2083 46.6979 96.7344 46.9062C97.25 47.1042 97.6953 47.3125 98.0703 47.5312C98.4505 47.7448 98.7422 48.0078 98.9453 48.3203C99.1484 48.6328 99.25 49.0365 99.25 49.5312Z" fill="black"/>
<path d="M265.5 36.125V35.3438C265.5 34.7221 265.747 34.126 266.186 33.6865C266.626 33.2469 267.222 33 267.844 33H270.969C271.59 33 272.186 33.2469 272.626 33.6865C273.066 34.126 273.312 34.7221 273.312 35.3438V36.125H274.094C274.715 36.125 275.311 36.3719 275.751 36.8115C276.191 37.251 276.438 37.8471 276.438 38.4688V40.8125H273.312V40.0312C273.312 39.824 273.23 39.6253 273.084 39.4788C272.937 39.3323 272.738 39.25 272.531 39.25C272.324 39.25 272.125 39.3323 271.979 39.4788C271.832 39.6253 271.75 39.824 271.75 40.0312V40.8125H267.062V40.0312C267.062 39.824 266.98 39.6253 266.834 39.4788C266.687 39.3323 266.488 39.25 266.281 39.25C266.074 39.25 265.875 39.3323 265.729 39.4788C265.582 39.6253 265.5 39.824 265.5 40.0312V40.8125H262.375V38.4688C262.375 37.8471 262.622 37.251 263.061 36.8115C263.501 36.3719 264.097 36.125 264.719 36.125H265.5ZM267.062 35.3438V36.125H271.75V35.3438C271.75 35.1365 271.668 34.9378 271.521 34.7913C271.375 34.6448 271.176 34.5625 270.969 34.5625H267.844C267.637 34.5625 267.438 34.6448 267.291 34.7913C267.145 34.9378 267.062 35.1365 267.062 35.3438ZM273.312 42.375H276.438V44.7188C276.438 45.3404 276.191 45.9365 275.751 46.376C275.311 46.8156 274.715 47.0625 274.094 47.0625H264.719C264.097 47.0625 263.501 46.8156 263.061 46.376C262.622 45.9365 262.375 45.3404 262.375 44.7188V42.375H265.5V43.1562C265.5 43.3635 265.582 43.5622 265.729 43.7087C265.875 43.8552 266.074 43.9375 266.281 43.9375C266.488 43.9375 266.687 43.8552 266.834 43.7087C266.98 43.5622 267.062 43.3635 267.062 43.1562V42.375H271.75V43.1562C271.75 43.3635 271.832 43.5622 271.979 43.7087C272.125 43.8552 272.324 43.9375 272.531 43.9375C272.738 43.9375 272.937 43.8552 273.084 43.7087C273.23 43.5622 273.312 43.3635 273.312 43.1562V42.375ZM260.812 38.4688C260.812 37.5568 261.131 36.6736 261.714 35.9721C262.297 35.2707 263.107 34.7952 264.003 34.6281L264.016 34.5625H260.812C259.984 34.5625 259.189 34.8917 258.603 35.4778C258.017 36.0638 257.688 36.8587 257.688 37.6875V53.3125C257.688 54.1413 258.017 54.9362 258.603 55.5222C259.189 56.1083 259.984 56.4375 260.812 56.4375H272.531C272.738 56.4375 272.937 56.3552 273.084 56.2087C273.23 56.0622 273.312 55.8635 273.312 55.6562C273.312 55.449 273.23 55.2503 273.084 55.1038C272.937 54.9573 272.738 54.875 272.531 54.875H260.812C260.398 54.875 260.001 54.7104 259.708 54.4174C259.415 54.1243 259.25 53.7269 259.25 53.3125V53.3078H272.531C272.738 53.3078 272.937 53.2255 273.084 53.079C273.23 52.9325 273.312 52.7338 273.312 52.5266V48.625H264.719C263.683 48.625 262.689 48.2134 261.957 47.4809C261.224 46.7483 260.812 45.7548 260.812 44.7188V38.4688Z" fill="#1E1E1E"/>
</g>
<defs>
<filter id="filter0_d_4835_13802" x="0" y="0" width="306" height="91" filterUnits="userSpaceOnUse" color-interpolation-filters="sRGB">
<feFlood flood-opacity="0" result="BackgroundImageFix"/>
<feColorMatrix in="SourceAlpha" type="matrix" values="0 0 0 0 0 0 0 0 0 0 0 0 0 0 0 0 0 0 127 0" result="hardAlpha"/>
<feOffset/>
<feGaussianBlur stdDeviation="4"/>
<feComposite in2="hardAlpha" operator="out"/>
<feColorMatrix type="matrix" values="0 0 0 0 0 0 0 0 0 0 0 0 0 0 0 0 0 0 0.2 0"/>
<feBlend mode="normal" in2="BackgroundImageFix" result="effect1_dropShadow_4835_13802"/>
<feBlend mode="normal" in="SourceGraphic" in2="effect1_dropShadow_4835_13802" result="shape"/>
</filter>
</defs>
</svg>
