<svg width="31" height="31" viewBox="0 0 31 31" fill="none" xmlns="http://www.w3.org/2000/svg">
<rect width="31" height="31" rx="8" fill="#EA4E4E"/>
<g clipPath="url(#clip0_3335_3559)">
<path d="M23.3538 20.3538L18.4998 15.4998L23.3538 10.6458C23.4468 10.5517 23.499 10.4247 23.499 10.2923C23.499 10.16 23.4468 10.033 23.3538 9.93883L21.0608 7.64583C21.0145 7.5993 20.9594 7.56238 20.8987 7.53718C20.8381 7.51199 20.773 7.49902 20.7073 7.49902C20.6416 7.49902 20.5766 7.51199 20.5159 7.53718C20.4553 7.56238 20.4002 7.5993 20.3538 7.64583L15.4998 12.4998L10.6458 7.64583C10.5521 7.5521 10.4249 7.49944 10.2923 7.49944C10.1597 7.49944 10.0326 7.5521 9.93883 7.64583L7.64583 9.93883C7.5993 9.98519 7.56238 10.0403 7.53718 10.1009C7.51199 10.1616 7.49902 10.2266 7.49902 10.2923C7.49902 10.358 7.51199 10.4231 7.53718 10.4837C7.56238 10.5444 7.5993 10.5995 7.64583 10.6458L12.4998 15.4998L7.64583 20.3538C7.5521 20.4476 7.49944 20.5748 7.49944 20.7073C7.49944 20.8399 7.5521 20.9671 7.64583 21.0608L9.93883 23.3538C9.98519 23.4004 10.0403 23.4373 10.1009 23.4625C10.1616 23.4877 10.2266 23.5006 10.2923 23.5006C10.358 23.5006 10.4231 23.4877 10.4837 23.4625C10.5444 23.4373 10.5995 23.4004 10.6458 23.3538L15.4998 18.4998L20.3538 23.3538C20.4476 23.4476 20.5748 23.5002 20.7073 23.5002C20.8399 23.5002 20.9671 23.4476 21.0608 23.3538L23.3538 21.0608C23.4004 21.0145 23.4373 20.9594 23.4625 20.8987C23.4877 20.8381 23.5006 20.773 23.5006 20.7073C23.5006 20.6416 23.4877 20.5766 23.4625 20.5159C23.4373 20.4553 23.4004 20.4002 23.3538 20.3538Z" fill="white"/>
</g>
<defs>
<clipPath id="clip0_3335_3559">
<rect width="16" height="16" fill="white" transform="translate(7.5 7.5)"/>
</clipPath>
</defs>
</svg>
