<svg width="110" height="31" viewBox="0 0 110 31" fill="none" xmlns="http://www.w3.org/2000/svg">
<rect x="1" y="1" width="108" height="29" rx="7" stroke="#EA4E4E" strokeWidth="2"/>
<path d="M17.1523 21H15.1357L10.2412 13.0225H10.1797C10.1979 13.2913 10.2139 13.5762 10.2275 13.877C10.2458 14.1777 10.2594 14.4876 10.2686 14.8066C10.2822 15.1257 10.2936 15.4492 10.3027 15.7773V21H8.8125V11.0059H10.8154L15.7031 18.9287H15.751C15.7419 18.6963 15.7305 18.4297 15.7168 18.1289C15.7031 17.8281 15.6895 17.5182 15.6758 17.1992C15.6667 16.8757 15.6598 16.5635 15.6553 16.2627V11.0059H17.1523V21ZM26.3125 17.1992C26.3125 17.8281 26.2305 18.3864 26.0664 18.874C25.9023 19.3617 25.6631 19.7741 25.3486 20.1113C25.0342 20.444 24.6559 20.6992 24.2139 20.877C23.7718 21.0501 23.2728 21.1367 22.7168 21.1367C22.1973 21.1367 21.721 21.0501 21.2881 20.877C20.8551 20.6992 20.4792 20.444 20.1602 20.1113C19.8457 19.7741 19.6019 19.3617 19.4287 18.874C19.2555 18.3864 19.1689 17.8281 19.1689 17.1992C19.1689 16.3652 19.3125 15.6589 19.5996 15.0801C19.8913 14.4967 20.306 14.0524 20.8438 13.7471C21.3815 13.4417 22.0218 13.2891 22.7646 13.2891C23.4619 13.2891 24.0771 13.4417 24.6104 13.7471C25.1436 14.0524 25.5605 14.4967 25.8613 15.0801C26.1621 15.6634 26.3125 16.3698 26.3125 17.1992ZM20.8232 17.1992C20.8232 17.7507 20.8893 18.2223 21.0215 18.6143C21.1582 19.0062 21.3678 19.307 21.6504 19.5166C21.9329 19.7217 22.2975 19.8242 22.7441 19.8242C23.1908 19.8242 23.5553 19.7217 23.8379 19.5166C24.1204 19.307 24.3278 19.0062 24.46 18.6143C24.5921 18.2223 24.6582 17.7507 24.6582 17.1992C24.6582 16.6478 24.5921 16.1807 24.46 15.7979C24.3278 15.4105 24.1204 15.1165 23.8379 14.916C23.5553 14.7109 23.1885 14.6084 22.7373 14.6084C22.0719 14.6084 21.5866 14.8317 21.2812 15.2783C20.9759 15.7249 20.8232 16.3652 20.8232 17.1992ZM30.9746 19.8379C31.1842 19.8379 31.3916 19.8197 31.5967 19.7832C31.8018 19.7422 31.9886 19.6943 32.1572 19.6396V20.8564C31.9795 20.9339 31.7493 21 31.4668 21.0547C31.1842 21.1094 30.8903 21.1367 30.585 21.1367C30.1566 21.1367 29.7715 21.0661 29.4297 20.9248C29.0879 20.779 28.8167 20.5306 28.6162 20.1797C28.4157 19.8288 28.3154 19.3434 28.3154 18.7236V14.6562H27.2832V13.9385L28.3906 13.3711L28.917 11.751H29.9287V13.4326H32.0957V14.6562H29.9287V18.7031C29.9287 19.0859 30.0244 19.3708 30.2158 19.5576C30.4072 19.7445 30.6602 19.8379 30.9746 19.8379ZM43.6895 21L42.7119 18.2246H38.8906L37.9131 21H36.1836L39.9023 10.9648H41.7207L45.4326 21H43.6895ZM42.2881 16.8164L41.3379 14.082C41.3014 13.9635 41.249 13.7972 41.1807 13.583C41.1123 13.3643 41.0439 13.1432 40.9756 12.9199C40.9072 12.6921 40.8503 12.5007 40.8047 12.3457C40.7591 12.5326 40.7021 12.7422 40.6338 12.9746C40.57 13.2025 40.5062 13.4167 40.4424 13.6172C40.3831 13.8177 40.3376 13.9727 40.3057 14.082L39.3486 16.8164H42.2881ZM50.4707 13.2891C51.3685 13.2891 52.0885 13.6172 52.6309 14.2734C53.1777 14.9297 53.4512 15.9049 53.4512 17.1992C53.4512 18.056 53.3236 18.7783 53.0684 19.3662C52.8177 19.9495 52.4645 20.3916 52.0088 20.6924C51.5576 20.9886 51.0312 21.1367 50.4297 21.1367C50.0469 21.1367 49.7142 21.0866 49.4316 20.9863C49.1491 20.8861 48.9076 20.7562 48.707 20.5967C48.5065 20.4326 48.3379 20.2549 48.2012 20.0635H48.1055C48.1283 20.2458 48.1488 20.4486 48.167 20.6719C48.1898 20.8906 48.2012 21.0911 48.2012 21.2734V24.3564H46.5879V13.4326H47.9004L48.126 14.4785H48.2012C48.3424 14.2643 48.5133 14.0661 48.7139 13.8838C48.9189 13.7015 49.165 13.5579 49.4521 13.4531C49.7438 13.3438 50.0833 13.2891 50.4707 13.2891ZM50.04 14.6016C49.598 14.6016 49.2425 14.6904 48.9736 14.8682C48.7093 15.0413 48.5156 15.3034 48.3926 15.6543C48.2741 16.0052 48.2103 16.445 48.2012 16.9736V17.1992C48.2012 17.7598 48.2581 18.236 48.3721 18.6279C48.4906 19.0153 48.6842 19.3115 48.9531 19.5166C49.2266 19.7171 49.5957 19.8174 50.0605 19.8174C50.4525 19.8174 50.776 19.7103 51.0312 19.4961C51.291 19.2819 51.4847 18.9766 51.6123 18.5801C51.7399 18.1836 51.8037 17.7165 51.8037 17.1787C51.8037 16.363 51.6579 15.7295 51.3662 15.2783C51.0791 14.8271 50.637 14.6016 50.04 14.6016ZM59.1934 13.2891C60.0911 13.2891 60.8112 13.6172 61.3535 14.2734C61.9004 14.9297 62.1738 15.9049 62.1738 17.1992C62.1738 18.056 62.0462 18.7783 61.791 19.3662C61.5404 19.9495 61.1872 20.3916 60.7314 20.6924C60.2803 20.9886 59.7539 21.1367 59.1523 21.1367C58.7695 21.1367 58.4368 21.0866 58.1543 20.9863C57.8717 20.8861 57.6302 20.7562 57.4297 20.5967C57.2292 20.4326 57.0605 20.2549 56.9238 20.0635H56.8281C56.8509 20.2458 56.8714 20.4486 56.8896 20.6719C56.9124 20.8906 56.9238 21.0911 56.9238 21.2734V24.3564H55.3105V13.4326H56.623L56.8486 14.4785H56.9238C57.0651 14.2643 57.236 14.0661 57.4365 13.8838C57.6416 13.7015 57.8877 13.5579 58.1748 13.4531C58.4665 13.3438 58.806 13.2891 59.1934 13.2891ZM58.7627 14.6016C58.3206 14.6016 57.9652 14.6904 57.6963 14.8682C57.432 15.0413 57.2383 15.3034 57.1152 15.6543C56.9967 16.0052 56.9329 16.445 56.9238 16.9736V17.1992C56.9238 17.7598 56.9808 18.236 57.0947 18.6279C57.2132 19.0153 57.4069 19.3115 57.6758 19.5166C57.9492 19.7171 58.3184 19.8174 58.7832 19.8174C59.1751 19.8174 59.4987 19.7103 59.7539 19.4961C60.0137 19.2819 60.2074 18.9766 60.335 18.5801C60.4626 18.1836 60.5264 17.7165 60.5264 17.1787C60.5264 16.363 60.3805 15.7295 60.0889 15.2783C59.8018 14.8271 59.3597 14.6016 58.7627 14.6016ZM67.8682 13.2891C67.9958 13.2891 68.1348 13.2959 68.2852 13.3096C68.4355 13.3232 68.5654 13.3415 68.6748 13.3643L68.5244 14.8682C68.4287 14.8408 68.3102 14.8203 68.1689 14.8066C68.0322 14.793 67.9092 14.7861 67.7998 14.7861C67.5127 14.7861 67.2393 14.834 66.9795 14.9297C66.7197 15.0208 66.4896 15.1621 66.2891 15.3535C66.0885 15.5404 65.9313 15.7751 65.8174 16.0576C65.7035 16.3402 65.6465 16.6683 65.6465 17.042V21H64.0332V13.4326H65.291L65.5098 14.7656H65.585C65.7354 14.4967 65.9222 14.2507 66.1455 14.0273C66.3688 13.804 66.624 13.6263 66.9111 13.4941C67.2028 13.3574 67.5218 13.2891 67.8682 13.2891ZM76.7754 17.1992C76.7754 17.8281 76.6934 18.3864 76.5293 18.874C76.3652 19.3617 76.126 19.7741 75.8115 20.1113C75.4971 20.444 75.1188 20.6992 74.6768 20.877C74.2347 21.0501 73.7357 21.1367 73.1797 21.1367C72.6602 21.1367 72.1839 21.0501 71.751 20.877C71.318 20.6992 70.9421 20.444 70.623 20.1113C70.3086 19.7741 70.0648 19.3617 69.8916 18.874C69.7184 18.3864 69.6318 17.8281 69.6318 17.1992C69.6318 16.3652 69.7754 15.6589 70.0625 15.0801C70.3542 14.4967 70.7689 14.0524 71.3066 13.7471C71.8444 13.4417 72.4847 13.2891 73.2275 13.2891C73.9248 13.2891 74.54 13.4417 75.0732 13.7471C75.6064 14.0524 76.0234 14.4967 76.3242 15.0801C76.625 15.6634 76.7754 16.3698 76.7754 17.1992ZM71.2861 17.1992C71.2861 17.7507 71.3522 18.2223 71.4844 18.6143C71.6211 19.0062 71.8307 19.307 72.1133 19.5166C72.3958 19.7217 72.7604 19.8242 73.207 19.8242C73.6536 19.8242 74.0182 19.7217 74.3008 19.5166C74.5833 19.307 74.7907 19.0062 74.9229 18.6143C75.055 18.2223 75.1211 17.7507 75.1211 17.1992C75.1211 16.6478 75.055 16.1807 74.9229 15.7979C74.7907 15.4105 74.5833 15.1165 74.3008 14.916C74.0182 14.7109 73.6514 14.6084 73.2002 14.6084C72.5348 14.6084 72.0495 14.8317 71.7441 15.2783C71.4388 15.7249 71.2861 16.3652 71.2861 17.1992ZM80.3506 21L77.4727 13.4326H79.1748L80.7334 17.876C80.8337 18.1585 80.9248 18.4639 81.0068 18.792C81.0889 19.1201 81.1458 19.3958 81.1777 19.6191H81.2324C81.2643 19.3867 81.3258 19.1087 81.417 18.7852C81.5081 18.457 81.6016 18.154 81.6973 17.876L83.2559 13.4326H84.9512L82.0732 21H80.3506ZM89.1143 13.2891C89.7887 13.2891 90.3675 13.4281 90.8506 13.7061C91.3337 13.984 91.7051 14.3783 91.9648 14.8887C92.2246 15.3991 92.3545 16.0098 92.3545 16.7207V17.582H87.3027C87.321 18.3158 87.5169 18.8809 87.8906 19.2773C88.2689 19.6738 88.7975 19.8721 89.4766 19.8721C89.9596 19.8721 90.3926 19.8265 90.7754 19.7354C91.1628 19.6396 91.5615 19.5007 91.9717 19.3184V20.624C91.5934 20.8018 91.2083 20.9316 90.8164 21.0137C90.4245 21.0957 89.9551 21.1367 89.4082 21.1367C88.6654 21.1367 88.0114 20.9932 87.4463 20.7061C86.8857 20.4144 86.446 19.9814 86.127 19.4072C85.8125 18.833 85.6553 18.1198 85.6553 17.2676C85.6553 16.4199 85.7988 15.6999 86.0859 15.1074C86.373 14.515 86.7764 14.0638 87.2959 13.7539C87.8154 13.444 88.4215 13.2891 89.1143 13.2891ZM89.1143 14.499C88.6084 14.499 88.1982 14.6631 87.8838 14.9912C87.5739 15.3193 87.3916 15.8001 87.3369 16.4336H90.7822C90.7777 16.0553 90.7139 15.7204 90.5908 15.4287C90.4723 15.137 90.29 14.9092 90.0439 14.7451C89.8024 14.5811 89.4925 14.499 89.1143 14.499ZM96.709 21.1367C95.8066 21.1367 95.082 20.8086 94.5352 20.1523C93.9928 19.4915 93.7217 18.5186 93.7217 17.2334C93.7217 15.9346 93.9974 14.9525 94.5488 14.2871C95.1048 13.6217 95.8363 13.2891 96.7432 13.2891C97.126 13.2891 97.4609 13.3415 97.748 13.4463C98.0352 13.5465 98.2812 13.6833 98.4863 13.8564C98.696 14.0296 98.8737 14.2233 99.0195 14.4375H99.0947C99.0719 14.2962 99.0446 14.0934 99.0127 13.8291C98.9854 13.5602 98.9717 13.3118 98.9717 13.084V10.3633H100.585V21H99.3271L99.04 19.9678H98.9717C98.835 20.1865 98.6618 20.3848 98.4521 20.5625C98.2471 20.7357 98.001 20.8747 97.7139 20.9795C97.4313 21.0843 97.0964 21.1367 96.709 21.1367ZM97.1602 19.8311C97.8483 19.8311 98.3337 19.6328 98.6162 19.2363C98.8988 18.8398 99.0446 18.2451 99.0537 17.4521V17.2402C99.0537 16.3926 98.917 15.7432 98.6436 15.292C98.3701 14.8363 97.8711 14.6084 97.1465 14.6084C96.5677 14.6084 96.1257 14.8431 95.8203 15.3125C95.5195 15.7773 95.3691 16.4268 95.3691 17.2607C95.3691 18.0947 95.5195 18.7327 95.8203 19.1748C96.1257 19.6123 96.5723 19.8311 97.1602 19.8311Z" fill="#EA4E4E"/>
</svg>
