<svg width="306" height="91" viewBox="0 0 306 91" fill="none" xmlns="http://www.w3.org/2000/svg">
<g filter="url(#filter0_d_4835_13735)">
<rect x="8.5" y="8.5" width="289" height="74" rx="15.5" stroke="#E0E0E0" shape-rendering="crispEdges"/>
<path d="M32.7109 40.5781C33.6953 40.5781 34.5078 40.6979 35.1484 40.9375C35.7943 41.1771 36.2734 41.5417 36.5859 42.0312C36.9036 42.5208 37.0625 43.1432 37.0625 43.8984C37.0625 44.4609 36.9583 44.9401 36.75 45.3359C36.5417 45.7318 36.2682 46.0599 35.9297 46.3203C35.5911 46.5807 35.2292 46.7891 34.8438 46.9453L38.0859 52H35.9688L33.2109 47.4219H31.375V52H29.5V40.5781H32.7109ZM32.5859 42.1406H31.375V45.875H32.6719C33.5417 45.875 34.1719 45.7135 34.5625 45.3906C34.9583 45.0677 35.1562 44.5911 35.1562 43.9609C35.1562 43.2995 34.9453 42.8307 34.5234 42.5547C34.1068 42.2786 33.4609 42.1406 32.5859 42.1406ZM42.9766 43.1875C43.7474 43.1875 44.4089 43.3464 44.9609 43.6641C45.513 43.9818 45.9375 44.4323 46.2344 45.0156C46.5312 45.599 46.6797 46.2969 46.6797 47.1094V48.0938H40.9062C40.9271 48.9323 41.151 49.5781 41.5781 50.0312C42.0104 50.4844 42.6146 50.7109 43.3906 50.7109C43.9427 50.7109 44.4375 50.6589 44.875 50.5547C45.3177 50.4453 45.7734 50.2865 46.2422 50.0781V51.5703C45.8099 51.7734 45.3698 51.9219 44.9219 52.0156C44.474 52.1094 43.9375 52.1562 43.3125 52.1562C42.4635 52.1562 41.7161 51.9922 41.0703 51.6641C40.4297 51.3307 39.9271 50.8359 39.5625 50.1797C39.2031 49.5234 39.0234 48.7083 39.0234 47.7344C39.0234 46.7656 39.1875 45.9427 39.5156 45.2656C39.8438 44.5885 40.3047 44.0729 40.8984 43.7188C41.4922 43.3646 42.1849 43.1875 42.9766 43.1875ZM42.9766 44.5703C42.3984 44.5703 41.9297 44.7578 41.5703 45.1328C41.2161 45.5078 41.0078 46.0573 40.9453 46.7812H44.8828C44.8776 46.349 44.8047 45.9661 44.6641 45.6328C44.5286 45.2995 44.3203 45.0391 44.0391 44.8516C43.763 44.6641 43.4089 44.5703 42.9766 44.5703ZM53.1875 43.1875C54.2135 43.1875 55.0365 43.5625 55.6562 44.3125C56.2812 45.0625 56.5938 46.1771 56.5938 47.6562C56.5938 48.6354 56.4479 49.4609 56.1562 50.1328C55.8698 50.7995 55.4661 51.3047 54.9453 51.6484C54.4297 51.987 53.8281 52.1562 53.1406 52.1562C52.7031 52.1562 52.3229 52.099 52 51.9844C51.6771 51.8698 51.401 51.7214 51.1719 51.5391C50.9427 51.3516 50.75 51.1484 50.5938 50.9297H50.4844C50.5104 51.138 50.5339 51.3698 50.5547 51.625C50.5807 51.875 50.5938 52.1042 50.5938 52.3125V55.8359H48.75V43.3516H50.25L50.5078 44.5469H50.5938C50.7552 44.3021 50.9505 44.0755 51.1797 43.8672C51.4141 43.6589 51.6953 43.4948 52.0234 43.375C52.3568 43.25 52.7448 43.1875 53.1875 43.1875ZM52.6953 44.6875C52.1901 44.6875 51.7839 44.7891 51.4766 44.9922C51.1745 45.1901 50.9531 45.4896 50.8125 45.8906C50.6771 46.2917 50.6042 46.7943 50.5938 47.3984V47.6562C50.5938 48.2969 50.6589 48.8411 50.7891 49.2891C50.9245 49.7318 51.1458 50.0703 51.4531 50.3047C51.7656 50.5339 52.1875 50.6484 52.7188 50.6484C53.1667 50.6484 53.5365 50.526 53.8281 50.2812C54.125 50.0365 54.3464 49.6875 54.4922 49.2344C54.638 48.7812 54.7109 48.2474 54.7109 47.6328C54.7109 46.7005 54.5443 45.9766 54.2109 45.4609C53.8828 44.9453 53.3776 44.6875 52.6953 44.6875ZM66.375 47.6562C66.375 48.375 66.2812 49.013 66.0938 49.5703C65.9062 50.1276 65.6328 50.599 65.2734 50.9844C64.9141 51.3646 64.4818 51.6562 63.9766 51.8594C63.4714 52.0573 62.901 52.1562 62.2656 52.1562C61.6719 52.1562 61.1276 52.0573 60.6328 51.8594C60.138 51.6562 59.7083 51.3646 59.3438 50.9844C58.9844 50.599 58.7057 50.1276 58.5078 49.5703C58.3099 49.013 58.2109 48.375 58.2109 47.6562C58.2109 46.7031 58.375 45.8958 58.7031 45.2344C59.0365 44.5677 59.5104 44.0599 60.125 43.7109C60.7396 43.362 61.4714 43.1875 62.3203 43.1875C63.1172 43.1875 63.8203 43.362 64.4297 43.7109C65.0391 44.0599 65.5156 44.5677 65.8594 45.2344C66.2031 45.901 66.375 46.7083 66.375 47.6562ZM60.1016 47.6562C60.1016 48.2865 60.1771 48.8255 60.3281 49.2734C60.4844 49.7214 60.724 50.0651 61.0469 50.3047C61.3698 50.5391 61.7865 50.6562 62.2969 50.6562C62.8073 50.6562 63.224 50.5391 63.5469 50.3047C63.8698 50.0651 64.1068 49.7214 64.2578 49.2734C64.4089 48.8255 64.4844 48.2865 64.4844 47.6562C64.4844 47.026 64.4089 46.4922 64.2578 46.0547C64.1068 45.612 63.8698 45.276 63.5469 45.0469C63.224 44.8125 62.8047 44.6953 62.2891 44.6953C61.5286 44.6953 60.974 44.9505 60.625 45.4609C60.276 45.9714 60.1016 46.7031 60.1016 47.6562ZM72.8672 43.1875C73.013 43.1875 73.1719 43.1953 73.3438 43.2109C73.5156 43.2266 73.6641 43.2474 73.7891 43.2734L73.6172 44.9922C73.5078 44.9609 73.3724 44.9375 73.2109 44.9219C73.0547 44.9062 72.9141 44.8984 72.7891 44.8984C72.4609 44.8984 72.1484 44.9531 71.8516 45.0625C71.5547 45.1667 71.2917 45.3281 71.0625 45.5469C70.8333 45.7604 70.6536 46.0286 70.5234 46.3516C70.3932 46.6745 70.3281 47.0495 70.3281 47.4766V52H68.4844V43.3516H69.9219L70.1719 44.875H70.2578C70.4297 44.5677 70.6432 44.2865 70.8984 44.0312C71.1536 43.776 71.4453 43.5729 71.7734 43.4219C72.1068 43.2656 72.4714 43.1875 72.8672 43.1875ZM78.6094 50.6719C78.849 50.6719 79.0859 50.651 79.3203 50.6094C79.5547 50.5625 79.7682 50.5078 79.9609 50.4453V51.8359C79.7578 51.9245 79.4948 52 79.1719 52.0625C78.849 52.125 78.513 52.1562 78.1641 52.1562C77.6745 52.1562 77.2344 52.0755 76.8438 51.9141C76.4531 51.7474 76.1432 51.4635 75.9141 51.0625C75.6849 50.6615 75.5703 50.1068 75.5703 49.3984V44.75H74.3906V43.9297L75.6562 43.2812L76.2578 41.4297H77.4141V43.3516H79.8906V44.75H77.4141V49.375C77.4141 49.8125 77.5234 50.138 77.7422 50.3516C77.9609 50.5651 78.25 50.6719 78.6094 50.6719ZM89.4766 40.4062C90.0651 40.4062 90.5807 40.5026 91.0234 40.6953C91.4714 40.888 91.8203 41.1693 92.0703 41.5391C92.3203 41.9036 92.4453 42.349 92.4453 42.875C92.4453 43.5781 92.2266 44.1719 91.7891 44.6562C91.3516 45.1406 90.7995 45.5729 90.1328 45.9531L92.8281 48.5781C93.0833 48.2292 93.2943 47.8464 93.4609 47.4297C93.6276 47.0078 93.7708 46.5651 93.8906 46.1016H95.7891C95.6276 46.7474 95.4036 47.3854 95.1172 48.0156C94.8307 48.6406 94.4688 49.2135 94.0312 49.7344L96.3516 52H94L92.8438 50.8672C92.5208 51.1276 92.1745 51.3542 91.8047 51.5469C91.4401 51.7396 91.0417 51.8906 90.6094 52C90.1771 52.1042 89.7005 52.1562 89.1797 52.1562C88.3828 52.1562 87.6953 52.0286 87.1172 51.7734C86.5391 51.5182 86.0938 51.1536 85.7812 50.6797C85.474 50.2005 85.3203 49.6328 85.3203 48.9766C85.3203 48.4297 85.4115 47.9609 85.5938 47.5703C85.7812 47.1745 86.0469 46.8281 86.3906 46.5312C86.7344 46.2292 87.1458 45.9427 87.625 45.6719C87.3646 45.375 87.138 45.0859 86.9453 44.8047C86.7526 44.5234 86.6042 44.2344 86.5 43.9375C86.401 43.6354 86.3516 43.3125 86.3516 42.9688C86.3516 42.4375 86.4818 41.9818 86.7422 41.6016C87.0026 41.2161 87.3672 40.9219 87.8359 40.7188C88.3047 40.5104 88.8516 40.4062 89.4766 40.4062ZM88.7109 46.7891C88.4089 46.9818 88.1484 47.1771 87.9297 47.375C87.7109 47.5677 87.5417 47.7812 87.4219 48.0156C87.3073 48.25 87.25 48.5234 87.25 48.8359C87.25 49.3724 87.4375 49.7969 87.8125 50.1094C88.1927 50.4219 88.6823 50.5781 89.2812 50.5781C89.8073 50.5781 90.2682 50.5 90.6641 50.3438C91.0651 50.1823 91.4141 49.9818 91.7109 49.7422L88.7109 46.7891ZM89.4453 41.8594C89.0755 41.8594 88.7552 41.9557 88.4844 42.1484C88.2188 42.3411 88.0859 42.6406 88.0859 43.0469C88.0859 43.375 88.1719 43.6849 88.3438 43.9766C88.5208 44.263 88.7656 44.5729 89.0781 44.9062C89.625 44.6042 90.0312 44.3073 90.2969 44.0156C90.5677 43.724 90.7031 43.3854 90.7031 43C90.7031 42.6354 90.5807 42.3542 90.3359 42.1562C90.0911 41.9583 89.7943 41.8594 89.4453 41.8594ZM108.516 52H102.047V40.5781H108.516V42.1562H103.922V45.2578H108.227V46.8281H103.922V50.4141H108.516V52ZM112.711 47.5781L109.82 43.3516H111.914L113.891 46.3906L115.875 43.3516H117.961L115.055 47.5781L118.109 52H116.008L113.891 48.7578L111.766 52H109.68L112.711 47.5781ZM124.047 43.1875C125.073 43.1875 125.896 43.5625 126.516 44.3125C127.141 45.0625 127.453 46.1771 127.453 47.6562C127.453 48.6354 127.307 49.4609 127.016 50.1328C126.729 50.7995 126.326 51.3047 125.805 51.6484C125.289 51.987 124.688 52.1562 124 52.1562C123.562 52.1562 123.182 52.099 122.859 51.9844C122.536 51.8698 122.26 51.7214 122.031 51.5391C121.802 51.3516 121.609 51.1484 121.453 50.9297H121.344C121.37 51.138 121.393 51.3698 121.414 51.625C121.44 51.875 121.453 52.1042 121.453 52.3125V55.8359H119.609V43.3516H121.109L121.367 44.5469H121.453C121.615 44.3021 121.81 44.0755 122.039 43.8672C122.273 43.6589 122.555 43.4948 122.883 43.375C123.216 43.25 123.604 43.1875 124.047 43.1875ZM123.555 44.6875C123.049 44.6875 122.643 44.7891 122.336 44.9922C122.034 45.1901 121.812 45.4896 121.672 45.8906C121.536 46.2917 121.464 46.7943 121.453 47.3984V47.6562C121.453 48.2969 121.518 48.8411 121.648 49.2891C121.784 49.7318 122.005 50.0703 122.312 50.3047C122.625 50.5339 123.047 50.6484 123.578 50.6484C124.026 50.6484 124.396 50.526 124.688 50.2812C124.984 50.0365 125.206 49.6875 125.352 49.2344C125.497 48.7812 125.57 48.2474 125.57 47.6328C125.57 46.7005 125.404 45.9766 125.07 45.4609C124.742 44.9453 124.237 44.6875 123.555 44.6875ZM137.234 47.6562C137.234 48.375 137.141 49.013 136.953 49.5703C136.766 50.1276 136.492 50.599 136.133 50.9844C135.773 51.3646 135.341 51.6562 134.836 51.8594C134.331 52.0573 133.76 52.1562 133.125 52.1562C132.531 52.1562 131.987 52.0573 131.492 51.8594C130.997 51.6562 130.568 51.3646 130.203 50.9844C129.844 50.599 129.565 50.1276 129.367 49.5703C129.169 49.013 129.07 48.375 129.07 47.6562C129.07 46.7031 129.234 45.8958 129.562 45.2344C129.896 44.5677 130.37 44.0599 130.984 43.7109C131.599 43.362 132.331 43.1875 133.18 43.1875C133.977 43.1875 134.68 43.362 135.289 43.7109C135.898 44.0599 136.375 44.5677 136.719 45.2344C137.062 45.901 137.234 46.7083 137.234 47.6562ZM130.961 47.6562C130.961 48.2865 131.036 48.8255 131.188 49.2734C131.344 49.7214 131.583 50.0651 131.906 50.3047C132.229 50.5391 132.646 50.6562 133.156 50.6562C133.667 50.6562 134.083 50.5391 134.406 50.3047C134.729 50.0651 134.966 49.7214 135.117 49.2734C135.268 48.8255 135.344 48.2865 135.344 47.6562C135.344 47.026 135.268 46.4922 135.117 46.0547C134.966 45.612 134.729 45.276 134.406 45.0469C134.083 44.8125 133.664 44.6953 133.148 44.6953C132.388 44.6953 131.833 44.9505 131.484 45.4609C131.135 45.9714 130.961 46.7031 130.961 47.6562ZM143.727 43.1875C143.872 43.1875 144.031 43.1953 144.203 43.2109C144.375 43.2266 144.523 43.2474 144.648 43.2734L144.477 44.9922C144.367 44.9609 144.232 44.9375 144.07 44.9219C143.914 44.9062 143.773 44.8984 143.648 44.8984C143.32 44.8984 143.008 44.9531 142.711 45.0625C142.414 45.1667 142.151 45.3281 141.922 45.5469C141.693 45.7604 141.513 46.0286 141.383 46.3516C141.253 46.6745 141.188 47.0495 141.188 47.4766V52H139.344V43.3516H140.781L141.031 44.875H141.117C141.289 44.5677 141.503 44.2865 141.758 44.0312C142.013 43.776 142.305 43.5729 142.633 43.4219C142.966 43.2656 143.331 43.1875 143.727 43.1875ZM149.469 50.6719C149.708 50.6719 149.945 50.651 150.18 50.6094C150.414 50.5625 150.628 50.5078 150.82 50.4453V51.8359C150.617 51.9245 150.354 52 150.031 52.0625C149.708 52.125 149.372 52.1562 149.023 52.1562C148.534 52.1562 148.094 52.0755 147.703 51.9141C147.312 51.7474 147.003 51.4635 146.773 51.0625C146.544 50.6615 146.43 50.1068 146.43 49.3984V44.75H145.25V43.9297L146.516 43.2812L147.117 41.4297H148.273V43.3516H150.75V44.75H148.273V49.375C148.273 49.8125 148.383 50.138 148.602 50.3516C148.82 50.5651 149.109 50.6719 149.469 50.6719Z" fill="black"/>
<path d="M265.5 36.125V35.3438C265.5 34.7221 265.747 34.126 266.186 33.6865C266.626 33.2469 267.222 33 267.844 33H270.969C271.59 33 272.186 33.2469 272.626 33.6865C273.066 34.126 273.312 34.7221 273.312 35.3438V36.125H274.094C274.715 36.125 275.311 36.3719 275.751 36.8115C276.191 37.251 276.438 37.8471 276.438 38.4688V40.8125H273.312V40.0312C273.312 39.824 273.23 39.6253 273.084 39.4788C272.937 39.3323 272.738 39.25 272.531 39.25C272.324 39.25 272.125 39.3323 271.979 39.4788C271.832 39.6253 271.75 39.824 271.75 40.0312V40.8125H267.062V40.0312C267.062 39.824 266.98 39.6253 266.834 39.4788C266.687 39.3323 266.488 39.25 266.281 39.25C266.074 39.25 265.875 39.3323 265.729 39.4788C265.582 39.6253 265.5 39.824 265.5 40.0312V40.8125H262.375V38.4688C262.375 37.8471 262.622 37.251 263.061 36.8115C263.501 36.3719 264.097 36.125 264.719 36.125H265.5ZM267.062 35.3438V36.125H271.75V35.3438C271.75 35.1365 271.668 34.9378 271.521 34.7913C271.375 34.6448 271.176 34.5625 270.969 34.5625H267.844C267.637 34.5625 267.438 34.6448 267.291 34.7913C267.145 34.9378 267.062 35.1365 267.062 35.3438ZM273.312 42.375H276.438V44.7188C276.438 45.3404 276.191 45.9365 275.751 46.376C275.311 46.8156 274.715 47.0625 274.094 47.0625H264.719C264.097 47.0625 263.501 46.8156 263.061 46.376C262.622 45.9365 262.375 45.3404 262.375 44.7188V42.375H265.5V43.1562C265.5 43.3635 265.582 43.5622 265.729 43.7087C265.875 43.8552 266.074 43.9375 266.281 43.9375C266.488 43.9375 266.687 43.8552 266.834 43.7087C266.98 43.5622 267.062 43.3635 267.062 43.1562V42.375H271.75V43.1562C271.75 43.3635 271.832 43.5622 271.979 43.7087C272.125 43.8552 272.324 43.9375 272.531 43.9375C272.738 43.9375 272.937 43.8552 273.084 43.7087C273.23 43.5622 273.312 43.3635 273.312 43.1562V42.375ZM260.812 38.4688C260.812 37.5568 261.131 36.6736 261.714 35.9721C262.297 35.2707 263.107 34.7952 264.003 34.6281L264.016 34.5625H260.812C259.984 34.5625 259.189 34.8917 258.603 35.4778C258.017 36.0638 257.688 36.8587 257.688 37.6875V53.3125C257.688 54.1413 258.017 54.9362 258.603 55.5222C259.189 56.1083 259.984 56.4375 260.812 56.4375H272.531C272.738 56.4375 272.937 56.3552 273.084 56.2087C273.23 56.0622 273.312 55.8635 273.312 55.6562C273.312 55.449 273.23 55.2503 273.084 55.1038C272.937 54.9573 272.738 54.875 272.531 54.875H260.812C260.398 54.875 260.001 54.7104 259.708 54.4174C259.415 54.1243 259.25 53.7269 259.25 53.3125V53.3078H272.531C272.738 53.3078 272.937 53.2255 273.084 53.079C273.23 52.9325 273.312 52.7338 273.312 52.5266V48.625H264.719C263.683 48.625 262.689 48.2134 261.957 47.4809C261.224 46.7483 260.812 45.7548 260.812 44.7188V38.4688Z" fill="#1E1E1E"/>
</g>
<defs>
<filter id="filter0_d_4835_13735" x="0" y="0" width="306" height="91" filterUnits="userSpaceOnUse" color-interpolation-filters="sRGB">
<feFlood flood-opacity="0" result="BackgroundImageFix"/>
<feColorMatrix in="SourceAlpha" type="matrix" values="0 0 0 0 0 0 0 0 0 0 0 0 0 0 0 0 0 0 127 0" result="hardAlpha"/>
<feOffset/>
<feGaussianBlur stdDeviation="4"/>
<feComposite in2="hardAlpha" operator="out"/>
<feColorMatrix type="matrix" values="0 0 0 0 0 0 0 0 0 0 0 0 0 0 0 0 0 0 0.2 0"/>
<feBlend mode="normal" in2="BackgroundImageFix" result="effect1_dropShadow_4835_13735"/>
<feBlend mode="normal" in="SourceGraphic" in2="effect1_dropShadow_4835_13735" result="shape"/>
</filter>
</defs>
</svg>
