<svg width="306" height="91" viewBox="0 0 306 91" fill="none" xmlns="http://www.w3.org/2000/svg">
<g filter="url(#filter0_d_4835_13728)">
<rect x="8.5" y="8.5" width="289" height="74" rx="15.5" stroke="#E0E0E0" shape-rendering="crispEdges"/>
<path d="M32.7109 40.5781C33.6953 40.5781 34.5078 40.6979 35.1484 40.9375C35.7943 41.1771 36.2734 41.5417 36.5859 42.0312C36.9036 42.5208 37.0625 43.1432 37.0625 43.8984C37.0625 44.4609 36.9583 44.9401 36.75 45.3359C36.5417 45.7318 36.2682 46.0599 35.9297 46.3203C35.5911 46.5807 35.2292 46.7891 34.8438 46.9453L38.0859 52H35.9688L33.2109 47.4219H31.375V52H29.5V40.5781H32.7109ZM32.5859 42.1406H31.375V45.875H32.6719C33.5417 45.875 34.1719 45.7135 34.5625 45.3906C34.9583 45.0677 35.1562 44.5911 35.1562 43.9609C35.1562 43.2995 34.9453 42.8307 34.5234 42.5547C34.1068 42.2786 33.4609 42.1406 32.5859 42.1406ZM42.9766 43.1875C43.7474 43.1875 44.4089 43.3464 44.9609 43.6641C45.513 43.9818 45.9375 44.4323 46.2344 45.0156C46.5312 45.599 46.6797 46.2969 46.6797 47.1094V48.0938H40.9062C40.9271 48.9323 41.151 49.5781 41.5781 50.0312C42.0104 50.4844 42.6146 50.7109 43.3906 50.7109C43.9427 50.7109 44.4375 50.6589 44.875 50.5547C45.3177 50.4453 45.7734 50.2865 46.2422 50.0781V51.5703C45.8099 51.7734 45.3698 51.9219 44.9219 52.0156C44.474 52.1094 43.9375 52.1562 43.3125 52.1562C42.4635 52.1562 41.7161 51.9922 41.0703 51.6641C40.4297 51.3307 39.9271 50.8359 39.5625 50.1797C39.2031 49.5234 39.0234 48.7083 39.0234 47.7344C39.0234 46.7656 39.1875 45.9427 39.5156 45.2656C39.8438 44.5885 40.3047 44.0729 40.8984 43.7188C41.4922 43.3646 42.1849 43.1875 42.9766 43.1875ZM42.9766 44.5703C42.3984 44.5703 41.9297 44.7578 41.5703 45.1328C41.2161 45.5078 41.0078 46.0573 40.9453 46.7812H44.8828C44.8776 46.349 44.8047 45.9661 44.6641 45.6328C44.5286 45.2995 44.3203 45.0391 44.0391 44.8516C43.763 44.6641 43.4089 44.5703 42.9766 44.5703ZM50.7266 52L47.4375 43.3516H49.3828L51.1641 48.4297C51.2786 48.7526 51.3828 49.1016 51.4766 49.4766C51.5703 49.8516 51.6354 50.1667 51.6719 50.4219H51.7344C51.7708 50.1562 51.8411 49.8385 51.9453 49.4688C52.0495 49.0938 52.1562 48.7474 52.2656 48.4297L54.0469 43.3516H55.9844L52.6953 52H50.7266ZM59.1328 43.3516V52H57.2969V43.3516H59.1328ZM58.2266 40.0391C58.5078 40.0391 58.75 40.1146 58.9531 40.2656C59.1615 40.4167 59.2656 40.6771 59.2656 41.0469C59.2656 41.4115 59.1615 41.6719 58.9531 41.8281C58.75 41.9792 58.5078 42.0547 58.2266 42.0547C57.9349 42.0547 57.6875 41.9792 57.4844 41.8281C57.2865 41.6719 57.1875 41.4115 57.1875 41.0469C57.1875 40.6771 57.2865 40.4167 57.4844 40.2656C57.6875 40.1146 57.9349 40.0391 58.2266 40.0391ZM65.2109 43.1875C65.9818 43.1875 66.6432 43.3464 67.1953 43.6641C67.7474 43.9818 68.1719 44.4323 68.4688 45.0156C68.7656 45.599 68.9141 46.2969 68.9141 47.1094V48.0938H63.1406C63.1615 48.9323 63.3854 49.5781 63.8125 50.0312C64.2448 50.4844 64.849 50.7109 65.625 50.7109C66.1771 50.7109 66.6719 50.6589 67.1094 50.5547C67.5521 50.4453 68.0078 50.2865 68.4766 50.0781V51.5703C68.0443 51.7734 67.6042 51.9219 67.1562 52.0156C66.7083 52.1094 66.1719 52.1562 65.5469 52.1562C64.6979 52.1562 63.9505 51.9922 63.3047 51.6641C62.6641 51.3307 62.1615 50.8359 61.7969 50.1797C61.4375 49.5234 61.2578 48.7083 61.2578 47.7344C61.2578 46.7656 61.4219 45.9427 61.75 45.2656C62.0781 44.5885 62.5391 44.0729 63.1328 43.7188C63.7266 43.3646 64.4193 43.1875 65.2109 43.1875ZM65.2109 44.5703C64.6328 44.5703 64.1641 44.7578 63.8047 45.1328C63.4505 45.5078 63.2422 46.0573 63.1797 46.7812H67.1172C67.112 46.349 67.0391 45.9661 66.8984 45.6328C66.763 45.2995 66.5547 45.0391 66.2734 44.8516C65.9974 44.6641 65.6432 44.5703 65.2109 44.5703ZM78.0547 51.9922L76.9609 47.9688C76.9089 47.7708 76.8464 47.5312 76.7734 47.25C76.7005 46.9688 76.6276 46.6797 76.5547 46.3828C76.4818 46.0807 76.4141 45.8021 76.3516 45.5469C76.2943 45.2917 76.25 45.0938 76.2188 44.9531H76.1562C76.1302 45.0938 76.0885 45.2917 76.0312 45.5469C75.974 45.8021 75.9089 46.0807 75.8359 46.3828C75.763 46.6849 75.6901 46.9792 75.6172 47.2656C75.5495 47.5521 75.487 47.7969 75.4297 48L74.2812 51.9922H72.2656L69.8438 43.3438H71.7031L72.8281 47.6406C72.901 47.9323 72.9714 48.2474 73.0391 48.5859C73.112 48.9245 73.1745 49.2474 73.2266 49.5547C73.2786 49.862 73.3177 50.1146 73.3438 50.3125H73.4062C73.4271 50.1719 73.4557 49.9948 73.4922 49.7812C73.5286 49.5625 73.5703 49.3359 73.6172 49.1016C73.6641 48.862 73.7109 48.638 73.7578 48.4297C73.8047 48.2161 73.849 48.0443 73.8906 47.9141L75.2188 43.3438H77.2266L78.5 47.9141C78.5573 48.112 78.6198 48.362 78.6875 48.6641C78.7552 48.9609 78.8151 49.2604 78.8672 49.5625C78.9245 49.8594 78.9609 50.1068 78.9766 50.3047H79.0391C79.0599 50.1276 79.0964 49.888 79.1484 49.5859C79.2057 49.2786 79.2708 48.9531 79.3438 48.6094C79.4167 48.2604 79.4922 47.9375 79.5703 47.6406L80.7188 43.3438H82.5469L80.1094 51.9922H78.0547ZM94.9688 48.8906C94.9688 49.5677 94.8021 50.151 94.4688 50.6406C94.1406 51.1302 93.6667 51.5052 93.0469 51.7656C92.4323 52.026 91.6979 52.1562 90.8438 52.1562C90.4271 52.1562 90.0286 52.1328 89.6484 52.0859C89.2682 52.0391 88.9089 51.9714 88.5703 51.8828C88.237 51.7891 87.9323 51.6771 87.6562 51.5469V49.7812C88.1198 49.9844 88.638 50.1693 89.2109 50.3359C89.7839 50.4974 90.3672 50.5781 90.9609 50.5781C91.4453 50.5781 91.8464 50.5156 92.1641 50.3906C92.487 50.2604 92.7266 50.0781 92.8828 49.8438C93.0391 49.6042 93.1172 49.3255 93.1172 49.0078C93.1172 48.6693 93.026 48.3828 92.8438 48.1484C92.6615 47.9141 92.3854 47.7005 92.0156 47.5078C91.651 47.3099 91.1927 47.099 90.6406 46.875C90.2656 46.724 89.9062 46.5521 89.5625 46.3594C89.224 46.1667 88.9219 45.9401 88.6562 45.6797C88.3906 45.4193 88.1797 45.112 88.0234 44.7578C87.8724 44.3984 87.7969 43.9766 87.7969 43.4922C87.7969 42.8464 87.9505 42.2943 88.2578 41.8359C88.5703 41.3776 89.0078 41.026 89.5703 40.7812C90.138 40.5365 90.7995 40.4141 91.5547 40.4141C92.1536 40.4141 92.7161 40.4766 93.2422 40.6016C93.7734 40.7266 94.2943 40.9036 94.8047 41.1328L94.2109 42.6406C93.7422 42.4479 93.2865 42.2943 92.8438 42.1797C92.4062 42.0651 91.9583 42.0078 91.5 42.0078C91.1042 42.0078 90.7682 42.0677 90.4922 42.1875C90.2161 42.3073 90.0052 42.4766 89.8594 42.6953C89.7188 42.9089 89.6484 43.1641 89.6484 43.4609C89.6484 43.7943 89.7292 44.0755 89.8906 44.3047C90.0573 44.5286 90.3125 44.7344 90.6562 44.9219C91.0052 45.1094 91.4531 45.3177 92 45.5469C92.6302 45.8073 93.1641 46.0807 93.6016 46.3672C94.0443 46.6536 94.3828 46.9974 94.6172 47.3984C94.8516 47.7943 94.9688 48.2917 94.9688 48.8906ZM104.523 43.3516V52H103.078L102.828 50.8359H102.727C102.544 51.1328 102.312 51.3802 102.031 51.5781C101.75 51.7708 101.438 51.9141 101.094 52.0078C100.75 52.1068 100.388 52.1562 100.008 52.1562C99.3568 52.1562 98.7995 52.0469 98.3359 51.8281C97.8776 51.6042 97.526 51.2604 97.2812 50.7969C97.0365 50.3333 96.9141 49.7344 96.9141 49V43.3516H98.7578V48.6562C98.7578 49.3281 98.8932 49.8307 99.1641 50.1641C99.4401 50.4974 99.8672 50.6641 100.445 50.6641C101.003 50.6641 101.445 50.5495 101.773 50.3203C102.102 50.0911 102.333 49.7526 102.469 49.3047C102.609 48.8568 102.68 48.3073 102.68 47.6562V43.3516H104.523ZM108.992 39.8438V42.7734C108.992 43.112 108.982 43.4453 108.961 43.7734C108.945 44.0964 108.93 44.349 108.914 44.5312H108.992C109.227 44.1562 109.552 43.8411 109.969 43.5859C110.391 43.3255 110.93 43.1953 111.586 43.1953C112.612 43.1953 113.438 43.5729 114.062 44.3281C114.688 45.0781 115 46.1901 115 47.6641C115 48.6432 114.857 49.4661 114.57 50.1328C114.284 50.7995 113.88 51.3047 113.359 51.6484C112.844 51.987 112.237 52.1562 111.539 52.1562C110.883 52.1562 110.352 52.0365 109.945 51.7969C109.544 51.5521 109.229 51.2682 109 50.9453H108.867L108.531 52H107.156V39.8438H108.992ZM111.102 44.6875C110.581 44.6875 110.167 44.7917 109.859 45C109.557 45.2083 109.339 45.5208 109.203 45.9375C109.068 46.349 108.997 46.8724 108.992 47.5078V47.6719C108.992 48.6354 109.143 49.3724 109.445 49.8828C109.753 50.3932 110.31 50.6484 111.117 50.6484C111.758 50.6484 112.25 50.3906 112.594 49.875C112.938 49.3542 113.109 48.6094 113.109 47.6406C113.109 46.6615 112.938 45.9245 112.594 45.4297C112.255 44.9349 111.758 44.6875 111.102 44.6875ZM126.898 43.1875C127.867 43.1875 128.596 43.4375 129.086 43.9375C129.581 44.4375 129.828 45.2396 129.828 46.3438V52H127.992V46.6719C127.992 46.0156 127.865 45.5208 127.609 45.1875C127.354 44.8542 126.966 44.6875 126.445 44.6875C125.716 44.6875 125.19 44.9219 124.867 45.3906C124.549 45.8542 124.391 46.5286 124.391 47.4141V52H122.555V46.6719C122.555 46.2344 122.497 45.8698 122.383 45.5781C122.273 45.2812 122.104 45.0599 121.875 44.9141C121.646 44.763 121.357 44.6875 121.008 44.6875C120.503 44.6875 120.099 44.8021 119.797 45.0312C119.5 45.2604 119.286 45.599 119.156 46.0469C119.026 46.4896 118.961 47.0339 118.961 47.6797V52H117.125V43.3516H118.555L118.812 44.5156H118.914C119.091 44.2135 119.31 43.9661 119.57 43.7734C119.836 43.5755 120.13 43.4297 120.453 43.3359C120.776 43.237 121.112 43.1875 121.461 43.1875C122.107 43.1875 122.651 43.3021 123.094 43.5312C123.536 43.7552 123.867 44.099 124.086 44.5625H124.227C124.497 44.0938 124.875 43.7474 125.359 43.5234C125.844 43.2995 126.357 43.1875 126.898 43.1875ZM134.227 43.3516V52H132.391V43.3516H134.227ZM133.32 40.0391C133.602 40.0391 133.844 40.1146 134.047 40.2656C134.255 40.4167 134.359 40.6771 134.359 41.0469C134.359 41.4115 134.255 41.6719 134.047 41.8281C133.844 41.9792 133.602 42.0547 133.32 42.0547C133.029 42.0547 132.781 41.9792 132.578 41.8281C132.38 41.6719 132.281 41.4115 132.281 41.0469C132.281 40.6771 132.38 40.4167 132.578 40.2656C132.781 40.1146 133.029 40.0391 133.32 40.0391ZM142.672 49.5312C142.672 50.099 142.534 50.5781 142.258 50.9688C141.982 51.3594 141.578 51.6562 141.047 51.8594C140.521 52.0573 139.875 52.1562 139.109 52.1562C138.505 52.1562 137.984 52.112 137.547 52.0234C137.115 51.9401 136.706 51.8099 136.32 51.6328V50.0469C136.732 50.2396 137.193 50.4062 137.703 50.5469C138.219 50.6875 138.706 50.7578 139.164 50.7578C139.768 50.7578 140.203 50.6641 140.469 50.4766C140.734 50.2839 140.867 50.0286 140.867 49.7109C140.867 49.5234 140.812 49.3568 140.703 49.2109C140.599 49.0599 140.401 48.9062 140.109 48.75C139.823 48.5885 139.401 48.3958 138.844 48.1719C138.297 47.9531 137.836 47.7344 137.461 47.5156C137.086 47.2969 136.802 47.0339 136.609 46.7266C136.417 46.4141 136.32 46.0156 136.32 45.5312C136.32 44.7656 136.622 44.1849 137.227 43.7891C137.836 43.388 138.641 43.1875 139.641 43.1875C140.172 43.1875 140.672 43.2422 141.141 43.3516C141.615 43.4557 142.078 43.6094 142.531 43.8125L141.953 45.1953C141.562 45.0234 141.169 44.8828 140.773 44.7734C140.383 44.6589 139.984 44.6016 139.578 44.6016C139.104 44.6016 138.742 44.6745 138.492 44.8203C138.247 44.9661 138.125 45.1745 138.125 45.4453C138.125 45.6484 138.185 45.8203 138.305 45.9609C138.424 46.1016 138.63 46.2422 138.922 46.3828C139.219 46.5234 139.63 46.6979 140.156 46.9062C140.672 47.1042 141.117 47.3125 141.492 47.5312C141.872 47.7448 142.164 48.0078 142.367 48.3203C142.57 48.6328 142.672 49.0365 142.672 49.5312ZM150.469 49.5312C150.469 50.099 150.331 50.5781 150.055 50.9688C149.779 51.3594 149.375 51.6562 148.844 51.8594C148.318 52.0573 147.672 52.1562 146.906 52.1562C146.302 52.1562 145.781 52.112 145.344 52.0234C144.911 51.9401 144.503 51.8099 144.117 51.6328V50.0469C144.529 50.2396 144.99 50.4062 145.5 50.5469C146.016 50.6875 146.503 50.7578 146.961 50.7578C147.565 50.7578 148 50.6641 148.266 50.4766C148.531 50.2839 148.664 50.0286 148.664 49.7109C148.664 49.5234 148.609 49.3568 148.5 49.2109C148.396 49.0599 148.198 48.9062 147.906 48.75C147.62 48.5885 147.198 48.3958 146.641 48.1719C146.094 47.9531 145.633 47.7344 145.258 47.5156C144.883 47.2969 144.599 47.0339 144.406 46.7266C144.214 46.4141 144.117 46.0156 144.117 45.5312C144.117 44.7656 144.419 44.1849 145.023 43.7891C145.633 43.388 146.438 43.1875 147.438 43.1875C147.969 43.1875 148.469 43.2422 148.938 43.3516C149.411 43.4557 149.875 43.6094 150.328 43.8125L149.75 45.1953C149.359 45.0234 148.966 44.8828 148.57 44.7734C148.18 44.6589 147.781 44.6016 147.375 44.6016C146.901 44.6016 146.539 44.6745 146.289 44.8203C146.044 44.9661 145.922 45.1745 145.922 45.4453C145.922 45.6484 145.982 45.8203 146.102 45.9609C146.221 46.1016 146.427 46.2422 146.719 46.3828C147.016 46.5234 147.427 46.6979 147.953 46.9062C148.469 47.1042 148.914 47.3125 149.289 47.5312C149.669 47.7448 149.961 48.0078 150.164 48.3203C150.367 48.6328 150.469 49.0365 150.469 49.5312ZM154.289 43.3516V52H152.453V43.3516H154.289ZM153.383 40.0391C153.664 40.0391 153.906 40.1146 154.109 40.2656C154.318 40.4167 154.422 40.6771 154.422 41.0469C154.422 41.4115 154.318 41.6719 154.109 41.8281C153.906 41.9792 153.664 42.0547 153.383 42.0547C153.091 42.0547 152.844 41.9792 152.641 41.8281C152.443 41.6719 152.344 41.4115 152.344 41.0469C152.344 40.6771 152.443 40.4167 152.641 40.2656C152.844 40.1146 153.091 40.0391 153.383 40.0391ZM164.578 47.6562C164.578 48.375 164.484 49.013 164.297 49.5703C164.109 50.1276 163.836 50.599 163.477 50.9844C163.117 51.3646 162.685 51.6562 162.18 51.8594C161.674 52.0573 161.104 52.1562 160.469 52.1562C159.875 52.1562 159.331 52.0573 158.836 51.8594C158.341 51.6562 157.911 51.3646 157.547 50.9844C157.188 50.599 156.909 50.1276 156.711 49.5703C156.513 49.013 156.414 48.375 156.414 47.6562C156.414 46.7031 156.578 45.8958 156.906 45.2344C157.24 44.5677 157.714 44.0599 158.328 43.7109C158.943 43.362 159.674 43.1875 160.523 43.1875C161.32 43.1875 162.023 43.362 162.633 43.7109C163.242 44.0599 163.719 44.5677 164.062 45.2344C164.406 45.901 164.578 46.7083 164.578 47.6562ZM158.305 47.6562C158.305 48.2865 158.38 48.8255 158.531 49.2734C158.688 49.7214 158.927 50.0651 159.25 50.3047C159.573 50.5391 159.99 50.6562 160.5 50.6562C161.01 50.6562 161.427 50.5391 161.75 50.3047C162.073 50.0651 162.31 49.7214 162.461 49.2734C162.612 48.8255 162.688 48.2865 162.688 47.6562C162.688 47.026 162.612 46.4922 162.461 46.0547C162.31 45.612 162.073 45.276 161.75 45.0469C161.427 44.8125 161.008 44.6953 160.492 44.6953C159.732 44.6953 159.177 44.9505 158.828 45.4609C158.479 45.9714 158.305 46.7031 158.305 47.6562ZM171.195 43.1875C172.169 43.1875 172.927 43.4401 173.469 43.9453C174.016 44.4453 174.289 45.25 174.289 46.3594V52H172.453V46.7031C172.453 46.0312 172.315 45.5286 172.039 45.1953C171.763 44.8568 171.336 44.6875 170.758 44.6875C169.919 44.6875 169.336 44.9453 169.008 45.4609C168.685 45.9766 168.523 46.724 168.523 47.7031V52H166.688V43.3516H168.117L168.375 44.5234H168.477C168.664 44.2214 168.896 43.974 169.172 43.7812C169.453 43.5833 169.766 43.4349 170.109 43.3359C170.458 43.237 170.82 43.1875 171.195 43.1875ZM182.672 49.5312C182.672 50.099 182.534 50.5781 182.258 50.9688C181.982 51.3594 181.578 51.6562 181.047 51.8594C180.521 52.0573 179.875 52.1562 179.109 52.1562C178.505 52.1562 177.984 52.112 177.547 52.0234C177.115 51.9401 176.706 51.8099 176.32 51.6328V50.0469C176.732 50.2396 177.193 50.4062 177.703 50.5469C178.219 50.6875 178.706 50.7578 179.164 50.7578C179.768 50.7578 180.203 50.6641 180.469 50.4766C180.734 50.2839 180.867 50.0286 180.867 49.7109C180.867 49.5234 180.812 49.3568 180.703 49.2109C180.599 49.0599 180.401 48.9062 180.109 48.75C179.823 48.5885 179.401 48.3958 178.844 48.1719C178.297 47.9531 177.836 47.7344 177.461 47.5156C177.086 47.2969 176.802 47.0339 176.609 46.7266C176.417 46.4141 176.32 46.0156 176.32 45.5312C176.32 44.7656 176.622 44.1849 177.227 43.7891C177.836 43.388 178.641 43.1875 179.641 43.1875C180.172 43.1875 180.672 43.2422 181.141 43.3516C181.615 43.4557 182.078 43.6094 182.531 43.8125L181.953 45.1953C181.562 45.0234 181.169 44.8828 180.773 44.7734C180.383 44.6589 179.984 44.6016 179.578 44.6016C179.104 44.6016 178.742 44.6745 178.492 44.8203C178.247 44.9661 178.125 45.1745 178.125 45.4453C178.125 45.6484 178.185 45.8203 178.305 45.9609C178.424 46.1016 178.63 46.2422 178.922 46.3828C179.219 46.5234 179.63 46.6979 180.156 46.9062C180.672 47.1042 181.117 47.3125 181.492 47.5312C181.872 47.7448 182.164 48.0078 182.367 48.3203C182.57 48.6328 182.672 49.0365 182.672 49.5312Z" fill="black"/>
<path d="M265.5 36.125V35.3438C265.5 34.7221 265.747 34.126 266.186 33.6865C266.626 33.2469 267.222 33 267.844 33H270.969C271.59 33 272.186 33.2469 272.626 33.6865C273.066 34.126 273.312 34.7221 273.312 35.3438V36.125H274.094C274.715 36.125 275.311 36.3719 275.751 36.8115C276.191 37.251 276.438 37.8471 276.438 38.4688V40.8125H273.312V40.0312C273.312 39.824 273.23 39.6253 273.084 39.4788C272.937 39.3323 272.738 39.25 272.531 39.25C272.324 39.25 272.125 39.3323 271.979 39.4788C271.832 39.6253 271.75 39.824 271.75 40.0312V40.8125H267.062V40.0312C267.062 39.824 266.98 39.6253 266.834 39.4788C266.687 39.3323 266.488 39.25 266.281 39.25C266.074 39.25 265.875 39.3323 265.729 39.4788C265.582 39.6253 265.5 39.824 265.5 40.0312V40.8125H262.375V38.4688C262.375 37.8471 262.622 37.251 263.061 36.8115C263.501 36.3719 264.097 36.125 264.719 36.125H265.5ZM267.062 35.3438V36.125H271.75V35.3438C271.75 35.1365 271.668 34.9378 271.521 34.7913C271.375 34.6448 271.176 34.5625 270.969 34.5625H267.844C267.637 34.5625 267.438 34.6448 267.291 34.7913C267.145 34.9378 267.062 35.1365 267.062 35.3438ZM273.312 42.375H276.438V44.7188C276.438 45.3404 276.191 45.9365 275.751 46.376C275.311 46.8156 274.715 47.0625 274.094 47.0625H264.719C264.097 47.0625 263.501 46.8156 263.061 46.376C262.622 45.9365 262.375 45.3404 262.375 44.7188V42.375H265.5V43.1562C265.5 43.3635 265.582 43.5622 265.729 43.7087C265.875 43.8552 266.074 43.9375 266.281 43.9375C266.488 43.9375 266.687 43.8552 266.834 43.7087C266.98 43.5622 267.062 43.3635 267.062 43.1562V42.375H271.75V43.1562C271.75 43.3635 271.832 43.5622 271.979 43.7087C272.125 43.8552 272.324 43.9375 272.531 43.9375C272.738 43.9375 272.937 43.8552 273.084 43.7087C273.23 43.5622 273.312 43.3635 273.312 43.1562V42.375ZM260.812 38.4688C260.812 37.5568 261.131 36.6736 261.714 35.9721C262.297 35.2707 263.107 34.7952 264.003 34.6281L264.016 34.5625H260.812C259.984 34.5625 259.189 34.8917 258.603 35.4778C258.017 36.0638 257.688 36.8587 257.688 37.6875V53.3125C257.688 54.1413 258.017 54.9362 258.603 55.5222C259.189 56.1083 259.984 56.4375 260.812 56.4375H272.531C272.738 56.4375 272.937 56.3552 273.084 56.2087C273.23 56.0622 273.312 55.8635 273.312 55.6562C273.312 55.449 273.23 55.2503 273.084 55.1038C272.937 54.9573 272.738 54.875 272.531 54.875H260.812C260.398 54.875 260.001 54.7104 259.708 54.4174C259.415 54.1243 259.25 53.7269 259.25 53.3125V53.3078H272.531C272.738 53.3078 272.937 53.2255 273.084 53.079C273.23 52.9325 273.312 52.7338 273.312 52.5266V48.625H264.719C263.683 48.625 262.689 48.2134 261.957 47.4809C261.224 46.7483 260.812 45.7548 260.812 44.7188V38.4688Z" fill="#1E1E1E"/>
</g>
<defs>
<filter id="filter0_d_4835_13728" x="0" y="0" width="306" height="91" filterUnits="userSpaceOnUse" color-interpolation-filters="sRGB">
<feFlood flood-opacity="0" result="BackgroundImageFix"/>
<feColorMatrix in="SourceAlpha" type="matrix" values="0 0 0 0 0 0 0 0 0 0 0 0 0 0 0 0 0 0 127 0" result="hardAlpha"/>
<feOffset/>
<feGaussianBlur stdDeviation="4"/>
<feComposite in2="hardAlpha" operator="out"/>
<feColorMatrix type="matrix" values="0 0 0 0 0 0 0 0 0 0 0 0 0 0 0 0 0 0 0.2 0"/>
<feBlend mode="normal" in2="BackgroundImageFix" result="effect1_dropShadow_4835_13728"/>
<feBlend mode="normal" in="SourceGraphic" in2="effect1_dropShadow_4835_13728" result="shape"/>
</filter>
</defs>
</svg>
