<svg width="306" height="91" viewBox="0 0 306 91" fill="none" xmlns="http://www.w3.org/2000/svg">
<g filter="url(#filter0_d_4835_13742)">
<rect x="8.5" y="8.5" width="289" height="74" rx="15.5" stroke="#E0E0E0" shape-rendering="crispEdges"/>
<path d="M36.0938 48.8906C36.0938 49.5677 35.9271 50.151 35.5938 50.6406C35.2656 51.1302 34.7917 51.5052 34.1719 51.7656C33.5573 52.026 32.8229 52.1562 31.9688 52.1562C31.5521 52.1562 31.1536 52.1328 30.7734 52.0859C30.3932 52.0391 30.0339 51.9714 29.6953 51.8828C29.362 51.7891 29.0573 51.6771 28.7812 51.5469V49.7812C29.2448 49.9844 29.763 50.1693 30.3359 50.3359C30.9089 50.4974 31.4922 50.5781 32.0859 50.5781C32.5703 50.5781 32.9714 50.5156 33.2891 50.3906C33.612 50.2604 33.8516 50.0781 34.0078 49.8438C34.1641 49.6042 34.2422 49.3255 34.2422 49.0078C34.2422 48.6693 34.151 48.3828 33.9688 48.1484C33.7865 47.9141 33.5104 47.7005 33.1406 47.5078C32.776 47.3099 32.3177 47.099 31.7656 46.875C31.3906 46.724 31.0312 46.5521 30.6875 46.3594C30.349 46.1667 30.0469 45.9401 29.7812 45.6797C29.5156 45.4193 29.3047 45.112 29.1484 44.7578C28.9974 44.3984 28.9219 43.9766 28.9219 43.4922C28.9219 42.8464 29.0755 42.2943 29.3828 41.8359C29.6953 41.3776 30.1328 41.026 30.6953 40.7812C31.263 40.5365 31.9245 40.4141 32.6797 40.4141C33.2786 40.4141 33.8411 40.4766 34.3672 40.6016C34.8984 40.7266 35.4193 40.9036 35.9297 41.1328L35.3359 42.6406C34.8672 42.4479 34.4115 42.2943 33.9688 42.1797C33.5312 42.0651 33.0833 42.0078 32.625 42.0078C32.2292 42.0078 31.8932 42.0677 31.6172 42.1875C31.3411 42.3073 31.1302 42.4766 30.9844 42.6953C30.8438 42.9089 30.7734 43.1641 30.7734 43.4609C30.7734 43.7943 30.8542 44.0755 31.0156 44.3047C31.1823 44.5286 31.4375 44.7344 31.7812 44.9219C32.1302 45.1094 32.5781 45.3177 33.125 45.5469C33.7552 45.8073 34.2891 46.0807 34.7266 46.3672C35.1693 46.6536 35.5078 46.9974 35.7422 47.3984C35.9766 47.7943 36.0938 48.2917 36.0938 48.8906ZM41.5547 43.1875C42.3255 43.1875 42.987 43.3464 43.5391 43.6641C44.0911 43.9818 44.5156 44.4323 44.8125 45.0156C45.1094 45.599 45.2578 46.2969 45.2578 47.1094V48.0938H39.4844C39.5052 48.9323 39.7292 49.5781 40.1562 50.0312C40.5885 50.4844 41.1927 50.7109 41.9688 50.7109C42.5208 50.7109 43.0156 50.6589 43.4531 50.5547C43.8958 50.4453 44.3516 50.2865 44.8203 50.0781V51.5703C44.388 51.7734 43.9479 51.9219 43.5 52.0156C43.0521 52.1094 42.5156 52.1562 41.8906 52.1562C41.0417 52.1562 40.2943 51.9922 39.6484 51.6641C39.0078 51.3307 38.5052 50.8359 38.1406 50.1797C37.7812 49.5234 37.6016 48.7083 37.6016 47.7344C37.6016 46.7656 37.7656 45.9427 38.0938 45.2656C38.4219 44.5885 38.8828 44.0729 39.4766 43.7188C40.0703 43.3646 40.763 43.1875 41.5547 43.1875ZM41.5547 44.5703C40.9766 44.5703 40.5078 44.7578 40.1484 45.1328C39.7943 45.5078 39.5859 46.0573 39.5234 46.7812H43.4609C43.4557 46.349 43.3828 45.9661 43.2422 45.6328C43.1068 45.2995 42.8984 45.0391 42.6172 44.8516C42.3411 44.6641 41.987 44.5703 41.5547 44.5703ZM50.5469 50.6719C50.7865 50.6719 51.0234 50.651 51.2578 50.6094C51.4922 50.5625 51.7057 50.5078 51.8984 50.4453V51.8359C51.6953 51.9245 51.4323 52 51.1094 52.0625C50.7865 52.125 50.4505 52.1562 50.1016 52.1562C49.612 52.1562 49.1719 52.0755 48.7812 51.9141C48.3906 51.7474 48.0807 51.4635 47.8516 51.0625C47.6224 50.6615 47.5078 50.1068 47.5078 49.3984V44.75H46.3281V43.9297L47.5938 43.2812L48.1953 41.4297H49.3516V43.3516H51.8281V44.75H49.3516V49.375C49.3516 49.8125 49.4609 50.138 49.6797 50.3516C49.8984 50.5651 50.1875 50.6719 50.5469 50.6719ZM56.875 50.6719C57.1146 50.6719 57.3516 50.651 57.5859 50.6094C57.8203 50.5625 58.0339 50.5078 58.2266 50.4453V51.8359C58.0234 51.9245 57.7604 52 57.4375 52.0625C57.1146 52.125 56.7786 52.1562 56.4297 52.1562C55.9401 52.1562 55.5 52.0755 55.1094 51.9141C54.7188 51.7474 54.4089 51.4635 54.1797 51.0625C53.9505 50.6615 53.8359 50.1068 53.8359 49.3984V44.75H52.6562V43.9297L53.9219 43.2812L54.5234 41.4297H55.6797V43.3516H58.1562V44.75H55.6797V49.375C55.6797 49.8125 55.7891 50.138 56.0078 50.3516C56.2266 50.5651 56.5156 50.6719 56.875 50.6719ZM61.8203 43.3516V52H59.9844V43.3516H61.8203ZM60.9141 40.0391C61.1953 40.0391 61.4375 40.1146 61.6406 40.2656C61.849 40.4167 61.9531 40.6771 61.9531 41.0469C61.9531 41.4115 61.849 41.6719 61.6406 41.8281C61.4375 41.9792 61.1953 42.0547 60.9141 42.0547C60.6224 42.0547 60.375 41.9792 60.1719 41.8281C59.974 41.6719 59.875 41.4115 59.875 41.0469C59.875 40.6771 59.974 40.4167 60.1719 40.2656C60.375 40.1146 60.6224 40.0391 60.9141 40.0391ZM68.9609 43.1875C69.9349 43.1875 70.6927 43.4401 71.2344 43.9453C71.7812 44.4453 72.0547 45.25 72.0547 46.3594V52H70.2188V46.7031C70.2188 46.0312 70.0807 45.5286 69.8047 45.1953C69.5286 44.8568 69.1016 44.6875 68.5234 44.6875C67.6849 44.6875 67.1016 44.9453 66.7734 45.4609C66.4505 45.9766 66.2891 46.724 66.2891 47.7031V52H64.4531V43.3516H65.8828L66.1406 44.5234H66.2422C66.4297 44.2214 66.6615 43.974 66.9375 43.7812C67.2188 43.5833 67.5312 43.4349 67.875 43.3359C68.224 43.237 68.5859 43.1875 68.9609 43.1875ZM77.0938 55.8438C75.9219 55.8438 75.0234 55.6328 74.3984 55.2109C73.7734 54.7891 73.4609 54.1979 73.4609 53.4375C73.4609 52.9062 73.6276 52.4557 73.9609 52.0859C74.2943 51.7214 74.7708 51.4688 75.3906 51.3281C75.1562 51.224 74.9531 51.0625 74.7812 50.8438C74.6146 50.6198 74.5312 50.3724 74.5312 50.1016C74.5312 49.7786 74.6224 49.5026 74.8047 49.2734C74.987 49.0443 75.2604 48.8229 75.625 48.6094C75.1719 48.4167 74.8073 48.1042 74.5312 47.6719C74.2604 47.2344 74.125 46.7214 74.125 46.1328C74.125 45.5078 74.2578 44.9766 74.5234 44.5391C74.7891 44.0964 75.1771 43.7604 75.6875 43.5312C76.1979 43.2969 76.8151 43.1797 77.5391 43.1797C77.6953 43.1797 77.8646 43.1901 78.0469 43.2109C78.2344 43.2266 78.4062 43.2474 78.5625 43.2734C78.724 43.2943 78.8464 43.3177 78.9297 43.3438H81.9219V44.3672L80.4531 44.6406C80.5938 44.8385 80.7057 45.0651 80.7891 45.3203C80.8724 45.5703 80.9141 45.8438 80.9141 46.1406C80.9141 47.0365 80.6042 47.7422 79.9844 48.2578C79.3698 48.7682 78.5208 49.0234 77.4375 49.0234C77.1771 49.013 76.9245 48.9922 76.6797 48.9609C76.4922 49.0755 76.349 49.2031 76.25 49.3438C76.151 49.4792 76.1016 49.6328 76.1016 49.8047C76.1016 49.9453 76.151 50.0599 76.25 50.1484C76.349 50.2318 76.4948 50.2943 76.6875 50.3359C76.8854 50.3776 77.125 50.3984 77.4062 50.3984H78.8984C79.8464 50.3984 80.5703 50.599 81.0703 51C81.5703 51.401 81.8203 51.9896 81.8203 52.7656C81.8203 53.75 81.4141 54.5078 80.6016 55.0391C79.7891 55.5755 78.6198 55.8438 77.0938 55.8438ZM77.1641 54.5547C77.8047 54.5547 78.3438 54.4922 78.7812 54.3672C79.2188 54.2422 79.5495 54.0625 79.7734 53.8281C79.9974 53.599 80.1094 53.3255 80.1094 53.0078C80.1094 52.7266 80.0391 52.5104 79.8984 52.3594C79.7578 52.2083 79.5469 52.1042 79.2656 52.0469C78.9844 51.9896 78.6354 51.9609 78.2188 51.9609H76.8594C76.5208 51.9609 76.2214 52.013 75.9609 52.1172C75.7005 52.2266 75.4974 52.3828 75.3516 52.5859C75.2109 52.7891 75.1406 53.0339 75.1406 53.3203C75.1406 53.7161 75.3151 54.0208 75.6641 54.2344C76.0182 54.4479 76.5182 54.5547 77.1641 54.5547ZM77.5234 47.8203C78.0599 47.8203 78.4583 47.6745 78.7188 47.3828C78.9792 47.0859 79.1094 46.6693 79.1094 46.1328C79.1094 45.5495 78.974 45.112 78.7031 44.8203C78.4375 44.5286 78.0417 44.3828 77.5156 44.3828C77 44.3828 76.6068 44.5312 76.3359 44.8281C76.0703 45.125 75.9375 45.5651 75.9375 46.1484C75.9375 46.6745 76.0703 47.0859 76.3359 47.3828C76.6068 47.6745 77.0026 47.8203 77.5234 47.8203ZM89.3125 49.5312C89.3125 50.099 89.1745 50.5781 88.8984 50.9688C88.6224 51.3594 88.2188 51.6562 87.6875 51.8594C87.1615 52.0573 86.5156 52.1562 85.75 52.1562C85.1458 52.1562 84.625 52.112 84.1875 52.0234C83.7552 51.9401 83.3464 51.8099 82.9609 51.6328V50.0469C83.3724 50.2396 83.8333 50.4062 84.3438 50.5469C84.8594 50.6875 85.3464 50.7578 85.8047 50.7578C86.4089 50.7578 86.8438 50.6641 87.1094 50.4766C87.375 50.2839 87.5078 50.0286 87.5078 49.7109C87.5078 49.5234 87.4531 49.3568 87.3438 49.2109C87.2396 49.0599 87.0417 48.9062 86.75 48.75C86.4635 48.5885 86.0417 48.3958 85.4844 48.1719C84.9375 47.9531 84.4766 47.7344 84.1016 47.5156C83.7266 47.2969 83.4427 47.0339 83.25 46.7266C83.0573 46.4141 82.9609 46.0156 82.9609 45.5312C82.9609 44.7656 83.263 44.1849 83.8672 43.7891C84.4766 43.388 85.2812 43.1875 86.2812 43.1875C86.8125 43.1875 87.3125 43.2422 87.7812 43.3516C88.2552 43.4557 88.7188 43.6094 89.1719 43.8125L88.5938 45.1953C88.2031 45.0234 87.8099 44.8828 87.4141 44.7734C87.0234 44.6589 86.625 44.6016 86.2188 44.6016C85.7448 44.6016 85.3828 44.6745 85.1328 44.8203C84.888 44.9661 84.7656 45.1745 84.7656 45.4453C84.7656 45.6484 84.8255 45.8203 84.9453 45.9609C85.0651 46.1016 85.2708 46.2422 85.5625 46.3828C85.8594 46.5234 86.2708 46.6979 86.7969 46.9062C87.3125 47.1042 87.7578 47.3125 88.1328 47.5312C88.513 47.7448 88.8047 48.0078 89.0078 48.3203C89.2109 48.6328 89.3125 49.0365 89.3125 49.5312Z" fill="black"/>
<path d="M265.732 35.0859H265.274C264.721 35.0859 264.191 35.3054 263.8 35.6961C263.41 36.0868 263.19 36.6167 263.19 37.1693V37.3568C263.19 37.7221 263.093 38.0809 262.911 38.3972C262.728 38.7135 262.465 38.9762 262.149 39.1589L261.701 39.4193C261.384 39.6021 261.025 39.6984 260.659 39.6984C260.293 39.6984 259.934 39.6021 259.617 39.4193L259.461 39.3359C258.983 39.0602 258.415 38.9854 257.882 39.1279C257.349 39.2705 256.894 39.6188 256.617 40.0964L256.388 40.4922C256.112 40.9702 256.038 41.5382 256.18 42.0714C256.323 42.6045 256.671 43.0593 257.149 43.3359L257.305 43.4401C257.62 43.6219 257.881 43.8829 258.064 44.1972C258.247 44.5115 258.344 44.8682 258.346 45.2318V45.763C258.348 46.1301 258.252 46.4911 258.069 46.8094C257.886 47.1277 257.623 47.392 257.305 47.5755L257.149 47.6693C256.671 47.9459 256.323 48.4007 256.18 48.9339C256.038 49.467 256.112 50.035 256.388 50.513L256.617 50.9089C256.894 51.3864 257.349 51.7347 257.882 51.8773C258.415 52.0199 258.983 51.945 259.461 51.6693L259.617 51.5859C259.934 51.4031 260.293 51.3068 260.659 51.3068C261.025 51.3068 261.384 51.4031 261.701 51.5859L262.149 51.8464C262.465 52.029 262.728 52.2917 262.911 52.608C263.093 52.9243 263.19 53.2831 263.19 53.6484V53.8359C263.19 54.3885 263.41 54.9184 263.8 55.3091C264.191 55.6998 264.721 55.9193 265.274 55.9193H265.732C266.284 55.9193 266.814 55.6998 267.205 55.3091C267.596 54.9184 267.815 54.3885 267.815 53.8359V53.6484C267.816 53.2831 267.912 52.9243 268.095 52.608C268.278 52.2917 268.54 52.029 268.857 51.8464L269.305 51.5859C269.621 51.4031 269.981 51.3068 270.346 51.3068C270.712 51.3068 271.071 51.4031 271.388 51.5859L271.544 51.6693C272.022 51.945 272.59 52.0199 273.124 51.8773C273.657 51.7347 274.111 51.3864 274.388 50.9089L274.617 50.5026C274.893 50.0245 274.968 49.4566 274.825 48.9234C274.683 48.3903 274.334 47.9355 273.857 47.6589L273.701 47.5755C273.383 47.392 273.119 47.1277 272.936 46.8094C272.753 46.4911 272.657 46.1301 272.659 45.763V45.2422C272.657 44.8751 272.753 44.5141 272.936 44.1958C273.119 43.8775 273.383 43.6132 273.701 43.4297L273.857 43.3359C274.334 43.0593 274.683 42.6045 274.825 42.0714C274.968 41.5382 274.893 40.9702 274.617 40.4922L274.388 40.0964C274.111 39.6188 273.657 39.2705 273.124 39.1279C272.59 38.9854 272.022 39.0602 271.544 39.3359L271.388 39.4193C271.071 39.6021 270.712 39.6984 270.346 39.6984C269.981 39.6984 269.621 39.6021 269.305 39.4193L268.857 39.1589C268.54 38.9762 268.278 38.7135 268.095 38.3972C267.912 38.0809 267.816 37.7221 267.815 37.3568V37.1693C267.815 36.6167 267.596 36.0868 267.205 35.6961C266.814 35.3054 266.284 35.0859 265.732 35.0859Z" stroke="#1E1E1E" strokeWidth="2" strokeLinecap="round" strokeLinejoin="round"/>
<path d="M265.5 48.625C267.226 48.625 268.625 47.2259 268.625 45.5C268.625 43.7741 267.226 42.375 265.5 42.375C263.774 42.375 262.375 43.7741 262.375 45.5C262.375 47.2259 263.774 48.625 265.5 48.625Z" stroke="#1E1E1E" strokeWidth="2" strokeLinecap="round" strokeLinejoin="round"/>
</g>
<defs>
<filter id="filter0_d_4835_13742" x="0" y="0" width="306" height="91" filterUnits="userSpaceOnUse" color-interpolation-filters="sRGB">
<feFlood flood-opacity="0" result="BackgroundImageFix"/>
<feColorMatrix in="SourceAlpha" type="matrix" values="0 0 0 0 0 0 0 0 0 0 0 0 0 0 0 0 0 0 127 0" result="hardAlpha"/>
<feOffset/>
<feGaussianBlur stdDeviation="4"/>
<feComposite in2="hardAlpha" operator="out"/>
<feColorMatrix type="matrix" values="0 0 0 0 0 0 0 0 0 0 0 0 0 0 0 0 0 0 0.2 0"/>
<feBlend mode="normal" in2="BackgroundImageFix" result="effect1_dropShadow_4835_13742"/>
<feBlend mode="normal" in="SourceGraphic" in2="effect1_dropShadow_4835_13742" result="shape"/>
</filter>
</defs>
</svg>
