<svg width="306" height="91" viewBox="0 0 306 91" fill="none" xmlns="http://www.w3.org/2000/svg">
<g filter="url(#filter0_d_4835_13795)">
<rect x="8.5" y="8.5" width="289" height="74" rx="15.5" stroke="#E0E0E0" shape-rendering="crispEdges"/>
<path d="M33.4609 52H31.5781V42.1719H28.2344V40.5781H36.7969V42.1719H33.4609V52ZM40.1953 43.3516V52H38.3594V43.3516H40.1953ZM39.2891 40.0391C39.5703 40.0391 39.8125 40.1146 40.0156 40.2656C40.224 40.4167 40.3281 40.6771 40.3281 41.0469C40.3281 41.4115 40.224 41.6719 40.0156 41.8281C39.8125 41.9792 39.5703 42.0547 39.2891 42.0547C38.9974 42.0547 38.75 41.9792 38.5469 41.8281C38.349 41.6719 38.25 41.4115 38.25 41.0469C38.25 40.6771 38.349 40.4167 38.5469 40.2656C38.75 40.1146 38.9974 40.0391 39.2891 40.0391ZM52.6016 43.1875C53.5703 43.1875 54.2995 43.4375 54.7891 43.9375C55.2839 44.4375 55.5312 45.2396 55.5312 46.3438V52H53.6953V46.6719C53.6953 46.0156 53.5677 45.5208 53.3125 45.1875C53.0573 44.8542 52.6693 44.6875 52.1484 44.6875C51.4193 44.6875 50.8932 44.9219 50.5703 45.3906C50.2526 45.8542 50.0938 46.5286 50.0938 47.4141V52H48.2578V46.6719C48.2578 46.2344 48.2005 45.8698 48.0859 45.5781C47.9766 45.2812 47.8073 45.0599 47.5781 44.9141C47.349 44.763 47.0599 44.6875 46.7109 44.6875C46.2057 44.6875 45.8021 44.8021 45.5 45.0312C45.2031 45.2604 44.9896 45.599 44.8594 46.0469C44.7292 46.4896 44.6641 47.0339 44.6641 47.6797V52H42.8281V43.3516H44.2578L44.5156 44.5156H44.6172C44.7943 44.2135 45.013 43.9661 45.2734 43.7734C45.5391 43.5755 45.8333 43.4297 46.1562 43.3359C46.4792 43.237 46.8151 43.1875 47.1641 43.1875C47.8099 43.1875 48.3542 43.3021 48.7969 43.5312C49.2396 43.7552 49.5703 44.099 49.7891 44.5625H49.9297C50.2005 44.0938 50.5781 43.7474 51.0625 43.5234C51.5469 43.2995 52.0599 43.1875 52.6016 43.1875ZM61.5391 43.1875C62.3099 43.1875 62.9714 43.3464 63.5234 43.6641C64.0755 43.9818 64.5 44.4323 64.7969 45.0156C65.0938 45.599 65.2422 46.2969 65.2422 47.1094V48.0938H59.4688C59.4896 48.9323 59.7135 49.5781 60.1406 50.0312C60.5729 50.4844 61.1771 50.7109 61.9531 50.7109C62.5052 50.7109 63 50.6589 63.4375 50.5547C63.8802 50.4453 64.3359 50.2865 64.8047 50.0781V51.5703C64.3724 51.7734 63.9323 51.9219 63.4844 52.0156C63.0365 52.1094 62.5 52.1562 61.875 52.1562C61.026 52.1562 60.2786 51.9922 59.6328 51.6641C58.9922 51.3307 58.4896 50.8359 58.125 50.1797C57.7656 49.5234 57.5859 48.7083 57.5859 47.7344C57.5859 46.7656 57.75 45.9427 58.0781 45.2656C58.4062 44.5885 58.8672 44.0729 59.4609 43.7188C60.0547 43.3646 60.7474 43.1875 61.5391 43.1875ZM61.5391 44.5703C60.9609 44.5703 60.4922 44.7578 60.1328 45.1328C59.7786 45.5078 59.5703 46.0573 59.5078 46.7812H63.4453C63.4401 46.349 63.3672 45.9661 63.2266 45.6328C63.0911 45.2995 62.8828 45.0391 62.6016 44.8516C62.3255 44.6641 61.9714 44.5703 61.5391 44.5703ZM73.125 49.5312C73.125 50.099 72.987 50.5781 72.7109 50.9688C72.4349 51.3594 72.0312 51.6562 71.5 51.8594C70.974 52.0573 70.3281 52.1562 69.5625 52.1562C68.9583 52.1562 68.4375 52.112 68 52.0234C67.5677 51.9401 67.1589 51.8099 66.7734 51.6328V50.0469C67.1849 50.2396 67.6458 50.4062 68.1562 50.5469C68.6719 50.6875 69.1589 50.7578 69.6172 50.7578C70.2214 50.7578 70.6562 50.6641 70.9219 50.4766C71.1875 50.2839 71.3203 50.0286 71.3203 49.7109C71.3203 49.5234 71.2656 49.3568 71.1562 49.2109C71.0521 49.0599 70.8542 48.9062 70.5625 48.75C70.276 48.5885 69.8542 48.3958 69.2969 48.1719C68.75 47.9531 68.2891 47.7344 67.9141 47.5156C67.5391 47.2969 67.2552 47.0339 67.0625 46.7266C66.8698 46.4141 66.7734 46.0156 66.7734 45.5312C66.7734 44.7656 67.0755 44.1849 67.6797 43.7891C68.2891 43.388 69.0938 43.1875 70.0938 43.1875C70.625 43.1875 71.125 43.2422 71.5938 43.3516C72.0677 43.4557 72.5312 43.6094 72.9844 43.8125L72.4062 45.1953C72.0156 45.0234 71.6224 44.8828 71.2266 44.7734C70.8359 44.6589 70.4375 44.6016 70.0312 44.6016C69.5573 44.6016 69.1953 44.6745 68.9453 44.8203C68.7005 44.9661 68.5781 45.1745 68.5781 45.4453C68.5781 45.6484 68.638 45.8203 68.7578 45.9609C68.8776 46.1016 69.0833 46.2422 69.375 46.3828C69.6719 46.5234 70.0833 46.6979 70.6094 46.9062C71.125 47.1042 71.5703 47.3125 71.9453 47.5312C72.3255 47.7448 72.6172 48.0078 72.8203 48.3203C73.0234 48.6328 73.125 49.0365 73.125 49.5312ZM76.9453 39.8438V42.8984C76.9453 43.2161 76.9349 43.526 76.9141 43.8281C76.8984 44.1302 76.8802 44.3646 76.8594 44.5312H76.9609C77.1432 44.2292 77.3672 43.9818 77.6328 43.7891C77.8984 43.5911 78.1953 43.4427 78.5234 43.3438C78.8568 43.2448 79.2109 43.1953 79.5859 43.1953C80.2474 43.1953 80.8099 43.3073 81.2734 43.5312C81.737 43.75 82.0911 44.0911 82.3359 44.5547C82.5859 45.0182 82.7109 45.6198 82.7109 46.3594V52H80.875V46.7031C80.875 46.0312 80.737 45.5286 80.4609 45.1953C80.1849 44.8568 79.7578 44.6875 79.1797 44.6875C78.6224 44.6875 78.1797 44.8047 77.8516 45.0391C77.5286 45.2682 77.2969 45.6094 77.1562 46.0625C77.0156 46.5104 76.9453 47.0573 76.9453 47.7031V52H75.1094V39.8438H76.9453ZM88.7266 43.1875C89.4974 43.1875 90.1589 43.3464 90.7109 43.6641C91.263 43.9818 91.6875 44.4323 91.9844 45.0156C92.2812 45.599 92.4297 46.2969 92.4297 47.1094V48.0938H86.6562C86.6771 48.9323 86.901 49.5781 87.3281 50.0312C87.7604 50.4844 88.3646 50.7109 89.1406 50.7109C89.6927 50.7109 90.1875 50.6589 90.625 50.5547C91.0677 50.4453 91.5234 50.2865 91.9922 50.0781V51.5703C91.5599 51.7734 91.1198 51.9219 90.6719 52.0156C90.224 52.1094 89.6875 52.1562 89.0625 52.1562C88.2135 52.1562 87.4661 51.9922 86.8203 51.6641C86.1797 51.3307 85.6771 50.8359 85.3125 50.1797C84.9531 49.5234 84.7734 48.7083 84.7734 47.7344C84.7734 46.7656 84.9375 45.9427 85.2656 45.2656C85.5938 44.5885 86.0547 44.0729 86.6484 43.7188C87.2422 43.3646 87.9349 43.1875 88.7266 43.1875ZM88.7266 44.5703C88.1484 44.5703 87.6797 44.7578 87.3203 45.1328C86.9661 45.5078 86.7578 46.0573 86.6953 46.7812H90.6328C90.6276 46.349 90.5547 45.9661 90.4141 45.6328C90.2786 45.2995 90.0703 45.0391 89.7891 44.8516C89.513 44.6641 89.1589 44.5703 88.7266 44.5703ZM97.9453 43.1875C98.7161 43.1875 99.3776 43.3464 99.9297 43.6641C100.482 43.9818 100.906 44.4323 101.203 45.0156C101.5 45.599 101.648 46.2969 101.648 47.1094V48.0938H95.875C95.8958 48.9323 96.1198 49.5781 96.5469 50.0312C96.9792 50.4844 97.5833 50.7109 98.3594 50.7109C98.9115 50.7109 99.4062 50.6589 99.8438 50.5547C100.286 50.4453 100.742 50.2865 101.211 50.0781V51.5703C100.779 51.7734 100.339 51.9219 99.8906 52.0156C99.4427 52.1094 98.9062 52.1562 98.2812 52.1562C97.4323 52.1562 96.6849 51.9922 96.0391 51.6641C95.3984 51.3307 94.8958 50.8359 94.5312 50.1797C94.1719 49.5234 93.9922 48.7083 93.9922 47.7344C93.9922 46.7656 94.1562 45.9427 94.4844 45.2656C94.8125 44.5885 95.2734 44.0729 95.8672 43.7188C96.4609 43.3646 97.1536 43.1875 97.9453 43.1875ZM97.9453 44.5703C97.3672 44.5703 96.8984 44.7578 96.5391 45.1328C96.1849 45.5078 95.9766 46.0573 95.9141 46.7812H99.8516C99.8464 46.349 99.7734 45.9661 99.6328 45.6328C99.4974 45.2995 99.2891 45.0391 99.0078 44.8516C98.7318 44.6641 98.3776 44.5703 97.9453 44.5703ZM106.938 50.6719C107.177 50.6719 107.414 50.651 107.648 50.6094C107.883 50.5625 108.096 50.5078 108.289 50.4453V51.8359C108.086 51.9245 107.823 52 107.5 52.0625C107.177 52.125 106.841 52.1562 106.492 52.1562C106.003 52.1562 105.562 52.0755 105.172 51.9141C104.781 51.7474 104.471 51.4635 104.242 51.0625C104.013 50.6615 103.898 50.1068 103.898 49.3984V44.75H102.719V43.9297L103.984 43.2812L104.586 41.4297H105.742V43.3516H108.219V44.75H105.742V49.375C105.742 49.8125 105.852 50.138 106.07 50.3516C106.289 50.5651 106.578 50.6719 106.938 50.6719ZM115.859 49.5312C115.859 50.099 115.721 50.5781 115.445 50.9688C115.169 51.3594 114.766 51.6562 114.234 51.8594C113.708 52.0573 113.062 52.1562 112.297 52.1562C111.693 52.1562 111.172 52.112 110.734 52.0234C110.302 51.9401 109.893 51.8099 109.508 51.6328V50.0469C109.919 50.2396 110.38 50.4062 110.891 50.5469C111.406 50.6875 111.893 50.7578 112.352 50.7578C112.956 50.7578 113.391 50.6641 113.656 50.4766C113.922 50.2839 114.055 50.0286 114.055 49.7109C114.055 49.5234 114 49.3568 113.891 49.2109C113.786 49.0599 113.589 48.9062 113.297 48.75C113.01 48.5885 112.589 48.3958 112.031 48.1719C111.484 47.9531 111.023 47.7344 110.648 47.5156C110.273 47.2969 109.99 47.0339 109.797 46.7266C109.604 46.4141 109.508 46.0156 109.508 45.5312C109.508 44.7656 109.81 44.1849 110.414 43.7891C111.023 43.388 111.828 43.1875 112.828 43.1875C113.359 43.1875 113.859 43.2422 114.328 43.3516C114.802 43.4557 115.266 43.6094 115.719 43.8125L115.141 45.1953C114.75 45.0234 114.357 44.8828 113.961 44.7734C113.57 44.6589 113.172 44.6016 112.766 44.6016C112.292 44.6016 111.93 44.6745 111.68 44.8203C111.435 44.9661 111.312 45.1745 111.312 45.4453C111.312 45.6484 111.372 45.8203 111.492 45.9609C111.612 46.1016 111.818 46.2422 112.109 46.3828C112.406 46.5234 112.818 46.6979 113.344 46.9062C113.859 47.1042 114.305 47.3125 114.68 47.5312C115.06 47.7448 115.352 48.0078 115.555 48.3203C115.758 48.6328 115.859 49.0365 115.859 49.5312Z" fill="black"/>
<path d="M265.5 36.125V35.3438C265.5 34.7221 265.747 34.126 266.186 33.6865C266.626 33.2469 267.222 33 267.844 33H270.969C271.59 33 272.186 33.2469 272.626 33.6865C273.066 34.126 273.312 34.7221 273.312 35.3438V36.125H274.094C274.715 36.125 275.311 36.3719 275.751 36.8115C276.191 37.251 276.438 37.8471 276.438 38.4688V40.8125H273.312V40.0312C273.312 39.824 273.23 39.6253 273.084 39.4788C272.937 39.3323 272.738 39.25 272.531 39.25C272.324 39.25 272.125 39.3323 271.979 39.4788C271.832 39.6253 271.75 39.824 271.75 40.0312V40.8125H267.062V40.0312C267.062 39.824 266.98 39.6253 266.834 39.4788C266.687 39.3323 266.488 39.25 266.281 39.25C266.074 39.25 265.875 39.3323 265.729 39.4788C265.582 39.6253 265.5 39.824 265.5 40.0312V40.8125H262.375V38.4688C262.375 37.8471 262.622 37.251 263.061 36.8115C263.501 36.3719 264.097 36.125 264.719 36.125H265.5ZM267.062 35.3438V36.125H271.75V35.3438C271.75 35.1365 271.668 34.9378 271.521 34.7913C271.375 34.6448 271.176 34.5625 270.969 34.5625H267.844C267.637 34.5625 267.438 34.6448 267.291 34.7913C267.145 34.9378 267.062 35.1365 267.062 35.3438ZM273.312 42.375H276.438V44.7188C276.438 45.3404 276.191 45.9365 275.751 46.376C275.311 46.8156 274.715 47.0625 274.094 47.0625H264.719C264.097 47.0625 263.501 46.8156 263.061 46.376C262.622 45.9365 262.375 45.3404 262.375 44.7188V42.375H265.5V43.1562C265.5 43.3635 265.582 43.5622 265.729 43.7087C265.875 43.8552 266.074 43.9375 266.281 43.9375C266.488 43.9375 266.687 43.8552 266.834 43.7087C266.98 43.5622 267.062 43.3635 267.062 43.1562V42.375H271.75V43.1562C271.75 43.3635 271.832 43.5622 271.979 43.7087C272.125 43.8552 272.324 43.9375 272.531 43.9375C272.738 43.9375 272.937 43.8552 273.084 43.7087C273.23 43.5622 273.312 43.3635 273.312 43.1562V42.375ZM260.812 38.4688C260.812 37.5568 261.131 36.6736 261.714 35.9721C262.297 35.2707 263.107 34.7952 264.003 34.6281L264.016 34.5625H260.812C259.984 34.5625 259.189 34.8917 258.603 35.4778C258.017 36.0638 257.688 36.8587 257.688 37.6875V53.3125C257.688 54.1413 258.017 54.9362 258.603 55.5222C259.189 56.1083 259.984 56.4375 260.812 56.4375H272.531C272.738 56.4375 272.937 56.3552 273.084 56.2087C273.23 56.0622 273.312 55.8635 273.312 55.6562C273.312 55.449 273.23 55.2503 273.084 55.1038C272.937 54.9573 272.738 54.875 272.531 54.875H260.812C260.398 54.875 260.001 54.7104 259.708 54.4174C259.415 54.1243 259.25 53.7269 259.25 53.3125V53.3078H272.531C272.738 53.3078 272.937 53.2255 273.084 53.079C273.23 52.9325 273.312 52.7338 273.312 52.5266V48.625H264.719C263.683 48.625 262.689 48.2134 261.957 47.4809C261.224 46.7483 260.812 45.7548 260.812 44.7188V38.4688Z" fill="#1E1E1E"/>
</g>
<defs>
<filter id="filter0_d_4835_13795" x="0" y="0" width="306" height="91" filterUnits="userSpaceOnUse" color-interpolation-filters="sRGB">
<feFlood flood-opacity="0" result="BackgroundImageFix"/>
<feColorMatrix in="SourceAlpha" type="matrix" values="0 0 0 0 0 0 0 0 0 0 0 0 0 0 0 0 0 0 127 0" result="hardAlpha"/>
<feOffset/>
<feGaussianBlur stdDeviation="4"/>
<feComposite in2="hardAlpha" operator="out"/>
<feColorMatrix type="matrix" values="0 0 0 0 0 0 0 0 0 0 0 0 0 0 0 0 0 0 0.2 0"/>
<feBlend mode="normal" in2="BackgroundImageFix" result="effect1_dropShadow_4835_13795"/>
<feBlend mode="normal" in="SourceGraphic" in2="effect1_dropShadow_4835_13795" result="shape"/>
</filter>
</defs>
</svg>
