<svg width="306" height="166" viewBox="0 0 306 166" fill="none" xmlns="http://www.w3.org/2000/svg">
<g filter="url(#filter0_d_4835_13715)">
<rect x="8" y="8" width="290" height="150" rx="16" fill="white"/>
<rect x="8.5" y="8.5" width="289" height="149" rx="15.5" stroke="#E0E0E0"/>
<path d="M38.0352 87.9893C38.0352 88.8096 37.9235 89.5524 37.7002 90.2178C37.4769 90.8831 37.1442 91.446 36.7021 91.9062C36.2646 92.3665 35.7178 92.7015 35.0615 92.9111L37.4131 95.3789H35.752L33.8174 93.123C33.7581 93.123 33.6966 93.1253 33.6328 93.1299C33.5736 93.1344 33.5143 93.1367 33.4551 93.1367C32.6803 93.1367 32.0036 93.0137 31.4248 92.7676C30.8506 92.5215 30.3721 92.1706 29.9893 91.7148C29.611 91.2591 29.3262 90.7145 29.1348 90.0811C28.9479 89.4476 28.8545 88.7458 28.8545 87.9756C28.8545 86.9548 29.0231 86.0592 29.3604 85.2891C29.6976 84.5189 30.208 83.9196 30.8916 83.4912C31.5798 83.0628 32.4411 82.8486 33.4756 82.8486C34.4645 82.8486 35.2962 83.0605 35.9707 83.4844C36.6497 83.9082 37.1624 84.5052 37.5088 85.2754C37.8597 86.041 38.0352 86.9456 38.0352 87.9893ZM30.0781 87.9893C30.0781 88.8369 30.1989 89.5706 30.4404 90.1904C30.682 90.8102 31.0511 91.2887 31.5479 91.626C32.0492 91.9632 32.6849 92.1318 33.4551 92.1318C34.2298 92.1318 34.8633 91.9632 35.3555 91.626C35.8522 91.2887 36.2191 90.8102 36.4561 90.1904C36.693 89.5706 36.8115 88.8369 36.8115 87.9893C36.8115 86.6995 36.5404 85.6924 35.998 84.9678C35.4603 84.2386 34.6195 83.874 33.4756 83.874C32.7008 83.874 32.0628 84.0404 31.5615 84.373C31.0602 84.7057 30.6865 85.1797 30.4404 85.7949C30.1989 86.4056 30.0781 87.137 30.0781 87.9893ZM46.2793 85.5078V93H45.3496L45.1855 91.9473H45.124C44.9691 92.207 44.7686 92.4258 44.5225 92.6035C44.2764 92.7812 43.9984 92.9134 43.6885 93C43.3831 93.0911 43.0573 93.1367 42.7109 93.1367C42.1185 93.1367 41.6217 93.041 41.2207 92.8496C40.8197 92.6582 40.5166 92.362 40.3115 91.9609C40.111 91.5599 40.0107 91.0449 40.0107 90.416V85.5078H41.1592V90.334C41.1592 90.9583 41.3005 91.4255 41.583 91.7354C41.8656 92.0407 42.2962 92.1934 42.875 92.1934C43.431 92.1934 43.873 92.0885 44.2012 91.8789C44.5339 91.6693 44.7731 91.3617 44.9189 90.9561C45.0648 90.5459 45.1377 90.0446 45.1377 89.4521V85.5078H46.2793ZM49.8135 85.5078V93H48.6787V85.5078H49.8135ZM49.2598 82.7051C49.4466 82.7051 49.6061 82.7666 49.7383 82.8896C49.875 83.0081 49.9434 83.195 49.9434 83.4502C49.9434 83.7008 49.875 83.8877 49.7383 84.0107C49.6061 84.1338 49.4466 84.1953 49.2598 84.1953C49.0638 84.1953 48.8997 84.1338 48.7676 84.0107C48.64 83.8877 48.5762 83.7008 48.5762 83.4502C48.5762 83.195 48.64 83.0081 48.7676 82.8896C48.8997 82.7666 49.0638 82.7051 49.2598 82.7051ZM55.2207 93.1367C54.5462 93.1367 53.9515 92.9977 53.4365 92.7197C52.9215 92.4417 52.5205 92.0179 52.2334 91.4482C51.9463 90.8786 51.8027 90.1608 51.8027 89.2949C51.8027 88.388 51.9531 87.6475 52.2539 87.0732C52.5592 86.4945 52.9785 86.0661 53.5117 85.7881C54.0449 85.5101 54.651 85.3711 55.3301 85.3711C55.7038 85.3711 56.0638 85.4098 56.4102 85.4873C56.7611 85.5602 57.0482 85.6536 57.2715 85.7676L56.9297 86.7178C56.7018 86.6266 56.4375 86.5446 56.1367 86.4717C55.8405 86.3988 55.5625 86.3623 55.3027 86.3623C54.7832 86.3623 54.3503 86.474 54.0039 86.6973C53.6621 86.9206 53.4046 87.2487 53.2314 87.6816C53.0628 88.1146 52.9785 88.6478 52.9785 89.2812C52.9785 89.8874 53.0605 90.4046 53.2246 90.833C53.3932 91.2614 53.6416 91.5895 53.9697 91.8174C54.3024 92.0407 54.7171 92.1523 55.2139 92.1523C55.6104 92.1523 55.9681 92.1113 56.2871 92.0293C56.6061 91.9427 56.8955 91.8424 57.1553 91.7285V92.7402C56.9046 92.8678 56.6243 92.9658 56.3145 93.0342C56.0091 93.1025 55.6445 93.1367 55.2207 93.1367ZM60.0605 82.3633V87.8867C60.0605 88.069 60.0537 88.2923 60.04 88.5566C60.0264 88.8164 60.015 89.0465 60.0059 89.2471H60.0537C60.1494 89.1286 60.2884 88.9531 60.4707 88.7207C60.6576 88.4883 60.8148 88.3014 60.9424 88.1602L63.4307 85.5078H64.7637L61.749 88.707L64.9824 93H63.6152L60.9697 89.4521L60.0605 90.2861V93H58.9326V82.3633H60.0605ZM67.4297 93H66.2881V82.3633H67.4297V93ZM68.6465 85.5078H69.8633L71.5176 89.8555C71.6133 90.1107 71.7021 90.3568 71.7842 90.5938C71.8662 90.8262 71.9391 91.0495 72.0029 91.2637C72.0667 91.4779 72.1169 91.6852 72.1533 91.8857H72.2012C72.265 91.6579 72.3561 91.3594 72.4746 90.9902C72.5931 90.6165 72.7207 90.236 72.8574 89.8486L74.4229 85.5078H75.6465L72.3857 94.1006C72.2126 94.5609 72.0098 94.9619 71.7773 95.3037C71.5495 95.6455 71.2715 95.9076 70.9434 96.0898C70.6152 96.2767 70.2188 96.3701 69.7539 96.3701C69.5397 96.3701 69.3506 96.3564 69.1865 96.3291C69.0225 96.3063 68.8812 96.279 68.7627 96.2471V95.3379C68.863 95.3607 68.9837 95.3812 69.125 95.3994C69.2708 95.4176 69.4212 95.4268 69.5762 95.4268C69.8587 95.4268 70.1025 95.3721 70.3076 95.2627C70.5173 95.1579 70.6973 95.0029 70.8477 94.7979C70.998 94.5928 71.1279 94.349 71.2373 94.0664L71.6475 93.0137L68.6465 85.5078ZM85.3262 90.9492C85.3262 91.4277 85.2054 91.8311 84.9639 92.1592C84.7269 92.4827 84.3851 92.7266 83.9385 92.8906C83.4964 93.0547 82.9678 93.1367 82.3525 93.1367C81.8285 93.1367 81.375 93.0957 80.9922 93.0137C80.6094 92.9316 80.2744 92.8154 79.9873 92.665V91.6191C80.2926 91.7695 80.6572 91.9062 81.0811 92.0293C81.5049 92.1523 81.9378 92.2139 82.3799 92.2139C83.027 92.2139 83.4964 92.109 83.7881 91.8994C84.0798 91.6898 84.2256 91.4049 84.2256 91.0449C84.2256 90.8398 84.1663 90.6598 84.0479 90.5049C83.9339 90.3454 83.7402 90.1927 83.4668 90.0469C83.1934 89.8965 82.8151 89.7324 82.332 89.5547C81.8535 89.3724 81.4388 89.1924 81.0879 89.0146C80.7415 88.8324 80.4727 88.6113 80.2812 88.3516C80.0944 88.0918 80.001 87.7546 80.001 87.3398C80.001 86.7064 80.2562 86.221 80.7666 85.8838C81.2816 85.542 81.9561 85.3711 82.79 85.3711C83.2412 85.3711 83.6628 85.4167 84.0547 85.5078C84.4512 85.5944 84.8203 85.7129 85.1621 85.8633L84.7793 86.7725C84.4694 86.6403 84.139 86.5286 83.7881 86.4375C83.4372 86.3464 83.0794 86.3008 82.7148 86.3008C82.1908 86.3008 81.7874 86.3874 81.5049 86.5605C81.2269 86.7337 81.0879 86.9707 81.0879 87.2715C81.0879 87.5039 81.1517 87.6953 81.2793 87.8457C81.4115 87.9961 81.6211 88.1374 81.9082 88.2695C82.1953 88.4017 82.5736 88.5566 83.043 88.7344C83.5124 88.9076 83.918 89.0876 84.2598 89.2744C84.6016 89.4567 84.8636 89.68 85.0459 89.9443C85.2327 90.2041 85.3262 90.5391 85.3262 90.9492ZM88.2861 85.5078V93H87.1514V85.5078H88.2861ZM87.7324 82.7051C87.9193 82.7051 88.0788 82.7666 88.2109 82.8896C88.3477 83.0081 88.416 83.195 88.416 83.4502C88.416 83.7008 88.3477 83.8877 88.2109 84.0107C88.0788 84.1338 87.9193 84.1953 87.7324 84.1953C87.5365 84.1953 87.3724 84.1338 87.2402 84.0107C87.1126 83.8877 87.0488 83.7008 87.0488 83.4502C87.0488 83.195 87.1126 83.0081 87.2402 82.8896C87.3724 82.7666 87.5365 82.7051 87.7324 82.7051ZM92.7842 96.3633C91.7998 96.3633 91.041 96.1787 90.5078 95.8096C89.9746 95.445 89.708 94.9323 89.708 94.2715C89.708 93.8021 89.8561 93.401 90.1523 93.0684C90.4531 92.7357 90.8678 92.5146 91.3965 92.4053C91.2005 92.3141 91.0319 92.1774 90.8906 91.9951C90.7539 91.8128 90.6855 91.6032 90.6855 91.3662C90.6855 91.0928 90.7607 90.8535 90.9111 90.6484C91.0661 90.4388 91.3008 90.2383 91.6152 90.0469C91.2233 89.8874 90.9043 89.6185 90.6582 89.2402C90.4167 88.8574 90.2959 88.4131 90.2959 87.9072C90.2959 87.3695 90.4076 86.9115 90.6309 86.5332C90.8542 86.1504 91.1777 85.8587 91.6016 85.6582C92.0254 85.4577 92.5381 85.3574 93.1396 85.3574C93.2718 85.3574 93.404 85.3643 93.5361 85.3779C93.6729 85.387 93.8027 85.403 93.9258 85.4258C94.0488 85.444 94.1559 85.4668 94.2471 85.4941H96.8174V86.2256L95.4365 86.3965C95.5732 86.5742 95.6872 86.7884 95.7783 87.0391C95.8695 87.2897 95.915 87.5677 95.915 87.873C95.915 88.6204 95.6621 89.2152 95.1562 89.6572C94.6504 90.0947 93.9554 90.3135 93.0713 90.3135C92.8617 90.3135 92.6475 90.2952 92.4287 90.2588C92.2054 90.3818 92.0345 90.5186 91.916 90.6689C91.8021 90.8193 91.7451 90.9925 91.7451 91.1885C91.7451 91.3343 91.7884 91.4505 91.875 91.5371C91.9661 91.6237 92.096 91.6875 92.2646 91.7285C92.4333 91.765 92.6361 91.7832 92.873 91.7832H94.1924C95.0081 91.7832 95.6325 91.9541 96.0654 92.2959C96.5029 92.6377 96.7217 93.1367 96.7217 93.793C96.7217 94.6224 96.3844 95.2581 95.71 95.7002C95.0355 96.1423 94.0602 96.3633 92.7842 96.3633ZM92.8184 95.4746C93.4382 95.4746 93.9508 95.4108 94.3564 95.2832C94.7666 95.1602 95.0719 94.9801 95.2725 94.7432C95.4775 94.5107 95.5801 94.2327 95.5801 93.9092C95.5801 93.6084 95.5117 93.3805 95.375 93.2256C95.2383 93.0752 95.0378 92.9749 94.7734 92.9248C94.5091 92.8701 94.1855 92.8428 93.8027 92.8428H92.5039C92.1667 92.8428 91.8727 92.8952 91.6221 93C91.3714 93.1048 91.1777 93.2598 91.041 93.4648C90.9089 93.6699 90.8428 93.9251 90.8428 94.2305C90.8428 94.6361 91.0137 94.9437 91.3555 95.1533C91.6973 95.3675 92.1849 95.4746 92.8184 95.4746ZM93.1123 89.4863C93.6546 89.4863 94.0625 89.3496 94.3359 89.0762C94.6094 88.8027 94.7461 88.404 94.7461 87.8799C94.7461 87.3193 94.6071 86.9001 94.3291 86.6221C94.0511 86.3395 93.641 86.1982 93.0986 86.1982C92.5791 86.1982 92.1781 86.3441 91.8955 86.6357C91.6175 86.9229 91.4785 87.3444 91.4785 87.9004C91.4785 88.4108 91.6198 88.8027 91.9023 89.0762C92.1849 89.3496 92.5882 89.4863 93.1123 89.4863ZM101.842 85.3711C102.73 85.3711 103.403 85.5898 103.858 86.0273C104.314 86.4603 104.542 87.1576 104.542 88.1191V93H103.421V88.1943C103.421 87.57 103.277 87.1029 102.99 86.793C102.708 86.4831 102.272 86.3281 101.685 86.3281C100.855 86.3281 100.272 86.5628 99.9346 87.0322C99.5973 87.5016 99.4287 88.1829 99.4287 89.0762V93H98.2939V85.5078H99.21L99.3809 86.5879H99.4424C99.6019 86.3236 99.8047 86.1025 100.051 85.9248C100.297 85.7425 100.573 85.6058 100.878 85.5146C101.183 85.4189 101.505 85.3711 101.842 85.3711ZM111.651 85.5078V93H110.517V85.5078H111.651ZM111.098 82.7051C111.285 82.7051 111.444 82.7666 111.576 82.8896C111.713 83.0081 111.781 83.195 111.781 83.4502C111.781 83.7008 111.713 83.8877 111.576 84.0107C111.444 84.1338 111.285 84.1953 111.098 84.1953C110.902 84.1953 110.738 84.1338 110.605 84.0107C110.478 83.8877 110.414 83.7008 110.414 83.4502C110.414 83.195 110.478 83.0081 110.605 82.8896C110.738 82.7666 110.902 82.7051 111.098 82.7051ZM117.605 85.3711C118.494 85.3711 119.166 85.5898 119.622 86.0273C120.078 86.4603 120.306 87.1576 120.306 88.1191V93H119.185V88.1943C119.185 87.57 119.041 87.1029 118.754 86.793C118.471 86.4831 118.036 86.3281 117.448 86.3281C116.619 86.3281 116.035 86.5628 115.698 87.0322C115.361 87.5016 115.192 88.1829 115.192 89.0762V93H114.058V85.5078H114.974L115.145 86.5879H115.206C115.366 86.3236 115.568 86.1025 115.814 85.9248C116.061 85.7425 116.336 85.6058 116.642 85.5146C116.947 85.4189 117.268 85.3711 117.605 85.3711ZM129.083 85.3848C129.976 85.3848 130.639 85.5853 131.072 85.9863C131.505 86.3874 131.722 87.0277 131.722 87.9072V93H130.895L130.676 91.8926H130.621C130.411 92.166 130.193 92.3962 129.965 92.583C129.737 92.7653 129.473 92.9043 129.172 93C128.876 93.0911 128.511 93.1367 128.078 93.1367C127.622 93.1367 127.217 93.057 126.861 92.8975C126.51 92.738 126.232 92.4964 126.027 92.1729C125.827 91.8493 125.727 91.4391 125.727 90.9424C125.727 90.195 126.023 89.6208 126.615 89.2197C127.208 88.8187 128.11 88.5999 129.322 88.5635L130.614 88.5088V88.0508C130.614 87.4036 130.475 86.9502 130.197 86.6904C129.919 86.4307 129.527 86.3008 129.021 86.3008C128.63 86.3008 128.256 86.3577 127.9 86.4717C127.545 86.5856 127.208 86.7201 126.889 86.875L126.54 86.0137C126.877 85.8405 127.265 85.6924 127.702 85.5693C128.14 85.4463 128.6 85.3848 129.083 85.3848ZM130.601 89.3086L129.459 89.3564C128.525 89.3929 127.866 89.5456 127.483 89.8145C127.101 90.0833 126.909 90.4639 126.909 90.9561C126.909 91.3844 127.039 91.7012 127.299 91.9062C127.559 92.1113 127.903 92.2139 128.331 92.2139C128.996 92.2139 129.541 92.0293 129.965 91.6602C130.389 91.291 130.601 90.7373 130.601 89.999V89.3086ZM137.607 85.3711C138.496 85.3711 139.168 85.5898 139.624 86.0273C140.08 86.4603 140.308 87.1576 140.308 88.1191V93H139.187V88.1943C139.187 87.57 139.043 87.1029 138.756 86.793C138.473 86.4831 138.038 86.3281 137.45 86.3281C136.621 86.3281 136.037 86.5628 135.7 87.0322C135.363 87.5016 135.194 88.1829 135.194 89.0762V93H134.06V85.5078H134.976L135.146 86.5879H135.208C135.368 86.3236 135.57 86.1025 135.816 85.9248C136.062 85.7425 136.338 85.6058 136.644 85.5146C136.949 85.4189 137.27 85.3711 137.607 85.3711ZM145.312 93.1367C144.364 93.1367 143.612 92.8132 143.056 92.166C142.504 91.5189 142.229 90.5573 142.229 89.2812C142.229 87.9915 142.511 87.0186 143.076 86.3623C143.641 85.7015 144.393 85.3711 145.332 85.3711C145.729 85.3711 146.075 85.4235 146.371 85.5283C146.667 85.6331 146.923 85.7744 147.137 85.9521C147.351 86.1253 147.531 86.3236 147.677 86.5469H147.759C147.741 86.4056 147.722 86.2119 147.704 85.9658C147.686 85.7197 147.677 85.5192 147.677 85.3643V82.3633H148.812V93H147.896L147.725 91.9336H147.677C147.535 92.1569 147.355 92.3597 147.137 92.542C146.923 92.7243 146.665 92.8701 146.364 92.9795C146.068 93.0843 145.717 93.1367 145.312 93.1367ZM145.489 92.1934C146.291 92.1934 146.859 91.9655 147.191 91.5098C147.524 91.054 147.69 90.3773 147.69 89.4795V89.2744C147.69 88.3219 147.531 87.5905 147.212 87.0801C146.897 86.5697 146.323 86.3145 145.489 86.3145C144.792 86.3145 144.27 86.5833 143.924 87.1211C143.577 87.6543 143.404 88.3835 143.404 89.3086C143.404 90.2292 143.575 90.9401 143.917 91.4414C144.263 91.9427 144.787 92.1934 145.489 92.1934ZM161.314 89.2402C161.314 89.8555 161.235 90.4046 161.075 90.8877C160.916 91.3708 160.686 91.7786 160.385 92.1113C160.084 92.444 159.719 92.6992 159.291 92.877C158.867 93.0501 158.386 93.1367 157.849 93.1367C157.347 93.1367 156.887 93.0501 156.468 92.877C156.053 92.6992 155.693 92.444 155.388 92.1113C155.087 91.7786 154.852 91.3708 154.684 90.8877C154.52 90.4046 154.438 89.8555 154.438 89.2402C154.438 88.4199 154.576 87.7227 154.854 87.1484C155.132 86.5697 155.529 86.1299 156.044 85.8291C156.563 85.5238 157.181 85.3711 157.896 85.3711C158.58 85.3711 159.177 85.5238 159.688 85.8291C160.202 86.1344 160.601 86.5765 160.884 87.1553C161.171 87.7295 161.314 88.4245 161.314 89.2402ZM155.613 89.2402C155.613 89.8418 155.693 90.3636 155.853 90.8057C156.012 91.2477 156.258 91.5895 156.591 91.8311C156.924 92.0726 157.352 92.1934 157.876 92.1934C158.396 92.1934 158.822 92.0726 159.154 91.8311C159.492 91.5895 159.74 91.2477 159.899 90.8057C160.059 90.3636 160.139 89.8418 160.139 89.2402C160.139 88.6432 160.059 88.1283 159.899 87.6953C159.74 87.2578 159.494 86.9206 159.161 86.6836C158.828 86.4466 158.398 86.3281 157.869 86.3281C157.09 86.3281 156.518 86.5856 156.153 87.1006C155.793 87.6156 155.613 88.3288 155.613 89.2402ZM169.463 85.5078V93H168.533L168.369 91.9473H168.308C168.153 92.207 167.952 92.4258 167.706 92.6035C167.46 92.7812 167.182 92.9134 166.872 93C166.567 93.0911 166.241 93.1367 165.895 93.1367C165.302 93.1367 164.805 93.041 164.404 92.8496C164.003 92.6582 163.7 92.362 163.495 91.9609C163.295 91.5599 163.194 91.0449 163.194 90.416V85.5078H164.343V90.334C164.343 90.9583 164.484 91.4255 164.767 91.7354C165.049 92.0407 165.48 92.1934 166.059 92.1934C166.615 92.1934 167.057 92.0885 167.385 91.8789C167.717 91.6693 167.957 91.3617 168.103 90.9561C168.248 90.5459 168.321 90.0446 168.321 89.4521V85.5078H169.463ZM174.282 92.207C174.469 92.207 174.66 92.1911 174.856 92.1592C175.052 92.1273 175.212 92.0885 175.335 92.043V92.9248C175.203 92.984 175.018 93.0342 174.781 93.0752C174.549 93.1162 174.321 93.1367 174.098 93.1367C173.701 93.1367 173.341 93.0684 173.018 92.9316C172.694 92.7904 172.434 92.5534 172.238 92.2207C172.047 91.888 171.951 91.4277 171.951 90.8398V86.3965H170.885V85.8428L171.958 85.3984L172.409 83.7715H173.093V85.5078H175.287V86.3965H173.093V90.8057C173.093 91.2751 173.2 91.626 173.414 91.8584C173.633 92.0908 173.922 92.207 174.282 92.207ZM186.949 89.2402C186.949 89.8555 186.869 90.4046 186.71 90.8877C186.55 91.3708 186.32 91.7786 186.02 92.1113C185.719 92.444 185.354 92.6992 184.926 92.877C184.502 93.0501 184.021 93.1367 183.483 93.1367C182.982 93.1367 182.522 93.0501 182.103 92.877C181.688 92.6992 181.328 92.444 181.022 92.1113C180.722 91.7786 180.487 91.3708 180.318 90.8877C180.154 90.4046 180.072 89.8555 180.072 89.2402C180.072 88.4199 180.211 87.7227 180.489 87.1484C180.767 86.5697 181.164 86.1299 181.679 85.8291C182.198 85.5238 182.816 85.3711 183.531 85.3711C184.215 85.3711 184.812 85.5238 185.322 85.8291C185.837 86.1344 186.236 86.5765 186.519 87.1553C186.806 87.7295 186.949 88.4245 186.949 89.2402ZM181.248 89.2402C181.248 89.8418 181.328 90.3636 181.487 90.8057C181.647 91.2477 181.893 91.5895 182.226 91.8311C182.558 92.0726 182.987 92.1934 183.511 92.1934C184.03 92.1934 184.456 92.0726 184.789 91.8311C185.126 91.5895 185.375 91.2477 185.534 90.8057C185.694 90.3636 185.773 89.8418 185.773 89.2402C185.773 88.6432 185.694 88.1283 185.534 87.6953C185.375 87.2578 185.129 86.9206 184.796 86.6836C184.463 86.4466 184.033 86.3281 183.504 86.3281C182.725 86.3281 182.153 86.5856 181.788 87.1006C181.428 87.6156 181.248 88.3288 181.248 89.2402ZM192.247 86.3965H190.381V93H189.246V86.3965H187.92V85.8496L189.246 85.4736V84.9746C189.246 84.3457 189.34 83.8353 189.526 83.4434C189.713 83.0469 189.984 82.7552 190.34 82.5684C190.695 82.3815 191.128 82.2881 191.639 82.2881C191.926 82.2881 192.188 82.3132 192.425 82.3633C192.666 82.4134 192.878 82.4704 193.061 82.5342L192.767 83.4297C192.612 83.3796 192.436 83.334 192.24 83.293C192.049 83.2474 191.853 83.2246 191.652 83.2246C191.219 83.2246 190.898 83.3659 190.688 83.6484C190.483 83.9264 190.381 84.3639 190.381 84.9609V85.5078H192.247V86.3965ZM200.785 85.3711C201.719 85.3711 202.465 85.6924 203.021 86.335C203.576 86.9775 203.854 87.9437 203.854 89.2334C203.854 90.0856 203.727 90.8011 203.472 91.3799C203.216 91.9587 202.856 92.3962 202.392 92.6924C201.931 92.9886 201.387 93.1367 200.758 93.1367C200.361 93.1367 200.013 93.0843 199.712 92.9795C199.411 92.8747 199.154 92.7334 198.939 92.5557C198.725 92.3779 198.548 92.1842 198.406 91.9746H198.324C198.338 92.1523 198.354 92.3665 198.372 92.6172C198.395 92.8678 198.406 93.0866 198.406 93.2734V96.3496H197.265V85.5078H198.201L198.352 86.6152H198.406C198.552 86.3874 198.73 86.18 198.939 85.9932C199.149 85.8018 199.404 85.6514 199.705 85.542C200.01 85.4281 200.37 85.3711 200.785 85.3711ZM200.587 86.3281C200.067 86.3281 199.648 86.4284 199.329 86.6289C199.015 86.8294 198.785 87.1302 198.639 87.5312C198.493 87.9277 198.415 88.4268 198.406 89.0283V89.2471C198.406 89.8805 198.475 90.416 198.611 90.8535C198.753 91.291 198.983 91.6237 199.302 91.8516C199.625 92.0794 200.058 92.1934 200.601 92.1934C201.065 92.1934 201.453 92.068 201.763 91.8174C202.073 91.5667 202.303 91.2181 202.453 90.7715C202.608 90.3203 202.686 89.8031 202.686 89.2197C202.686 88.3356 202.512 87.6338 202.166 87.1143C201.824 86.5902 201.298 86.3281 200.587 86.3281ZM209.241 85.3711C209.392 85.3711 209.549 85.3802 209.713 85.3984C209.877 85.4121 210.023 85.4326 210.15 85.46L210.007 86.5127C209.884 86.4808 209.747 86.4557 209.597 86.4375C209.446 86.4193 209.305 86.4102 209.173 86.4102C208.872 86.4102 208.587 86.4717 208.318 86.5947C208.054 86.7132 207.822 86.8864 207.621 87.1143C207.421 87.3376 207.263 87.6087 207.149 87.9277C207.035 88.2422 206.979 88.5931 206.979 88.9805V93H205.837V85.5078H206.78L206.903 86.8887H206.951C207.106 86.6107 207.293 86.3577 207.512 86.1299C207.73 85.8975 207.983 85.7129 208.271 85.5762C208.562 85.4395 208.886 85.3711 209.241 85.3711ZM218.025 89.2402C218.025 89.8555 217.946 90.4046 217.786 90.8877C217.627 91.3708 217.396 91.7786 217.096 92.1113C216.795 92.444 216.43 92.6992 216.002 92.877C215.578 93.0501 215.097 93.1367 214.56 93.1367C214.058 93.1367 213.598 93.0501 213.179 92.877C212.764 92.6992 212.404 92.444 212.099 92.1113C211.798 91.7786 211.563 91.3708 211.395 90.8877C211.23 90.4046 211.148 89.8555 211.148 89.2402C211.148 88.4199 211.287 87.7227 211.565 87.1484C211.843 86.5697 212.24 86.1299 212.755 85.8291C213.274 85.5238 213.892 85.3711 214.607 85.3711C215.291 85.3711 215.888 85.5238 216.398 85.8291C216.913 86.1344 217.312 86.5765 217.595 87.1553C217.882 87.7295 218.025 88.4245 218.025 89.2402ZM212.324 89.2402C212.324 89.8418 212.404 90.3636 212.563 90.8057C212.723 91.2477 212.969 91.5895 213.302 91.8311C213.634 92.0726 214.063 92.1934 214.587 92.1934C215.106 92.1934 215.533 92.0726 215.865 91.8311C216.202 91.5895 216.451 91.2477 216.61 90.8057C216.77 90.3636 216.85 89.8418 216.85 89.2402C216.85 88.6432 216.77 88.1283 216.61 87.6953C216.451 87.2578 216.205 86.9206 215.872 86.6836C215.539 86.4466 215.109 86.3281 214.58 86.3281C213.801 86.3281 213.229 86.5856 212.864 87.1006C212.504 87.6156 212.324 88.3288 212.324 89.2402ZM219.085 96.3633C218.853 96.3633 218.65 96.3451 218.477 96.3086C218.303 96.2767 218.153 96.238 218.025 96.1924V95.2695C218.167 95.3151 218.31 95.3493 218.456 95.3721C218.602 95.3994 218.766 95.4131 218.948 95.4131C219.258 95.4131 219.509 95.3265 219.7 95.1533C219.892 94.9801 219.987 94.6657 219.987 94.21V85.5078H221.122V94.1826C221.122 94.6383 221.049 95.028 220.903 95.3516C220.757 95.6797 220.534 95.9303 220.233 96.1035C219.933 96.2767 219.55 96.3633 219.085 96.3633ZM219.885 83.4502C219.885 83.195 219.949 83.0081 220.076 82.8896C220.208 82.7666 220.372 82.7051 220.568 82.7051C220.755 82.7051 220.915 82.7666 221.047 82.8896C221.184 83.0081 221.252 83.195 221.252 83.4502C221.252 83.7008 221.184 83.8877 221.047 84.0107C220.915 84.1338 220.755 84.1953 220.568 84.1953C220.372 84.1953 220.208 84.1338 220.076 84.0107C219.949 83.8877 219.885 83.7008 219.885 83.4502ZM226.413 85.3711C227.051 85.3711 227.598 85.5124 228.054 85.7949C228.509 86.0775 228.858 86.474 229.1 86.9844C229.341 87.4902 229.462 88.0827 229.462 88.7617V89.4658H224.287C224.301 90.3454 224.52 91.0153 224.943 91.4756C225.367 91.9359 225.964 92.166 226.734 92.166C227.208 92.166 227.628 92.1227 227.992 92.0361C228.357 91.9495 228.735 91.8219 229.127 91.6533V92.6514C228.749 92.82 228.373 92.943 227.999 93.0205C227.63 93.098 227.192 93.1367 226.687 93.1367C225.966 93.1367 225.338 92.9909 224.8 92.6992C224.267 92.403 223.852 91.9701 223.556 91.4004C223.259 90.8307 223.111 90.1335 223.111 89.3086C223.111 88.502 223.246 87.8047 223.515 87.2168C223.788 86.6243 224.171 86.1686 224.663 85.8496C225.16 85.5306 225.743 85.3711 226.413 85.3711ZM226.399 86.3008C225.793 86.3008 225.31 86.499 224.95 86.8955C224.59 87.292 224.376 87.8457 224.308 88.5566H228.272C228.268 88.11 228.197 87.7181 228.061 87.3809C227.928 87.0391 227.726 86.7747 227.452 86.5879C227.179 86.3965 226.828 86.3008 226.399 86.3008ZM234.391 93.1367C233.716 93.1367 233.121 92.9977 232.606 92.7197C232.091 92.4417 231.69 92.0179 231.403 91.4482C231.116 90.8786 230.973 90.1608 230.973 89.2949C230.973 88.388 231.123 87.6475 231.424 87.0732C231.729 86.4945 232.148 86.0661 232.682 85.7881C233.215 85.5101 233.821 85.3711 234.5 85.3711C234.874 85.3711 235.234 85.4098 235.58 85.4873C235.931 85.5602 236.218 85.6536 236.441 85.7676L236.1 86.7178C235.872 86.6266 235.607 86.5446 235.307 86.4717C235.01 86.3988 234.732 86.3623 234.473 86.3623C233.953 86.3623 233.52 86.474 233.174 86.6973C232.832 86.9206 232.575 87.2487 232.401 87.6816C232.233 88.1146 232.148 88.6478 232.148 89.2812C232.148 89.8874 232.23 90.4046 232.395 90.833C232.563 91.2614 232.812 91.5895 233.14 91.8174C233.472 92.0407 233.887 92.1523 234.384 92.1523C234.78 92.1523 235.138 92.1113 235.457 92.0293C235.776 91.9427 236.065 91.8424 236.325 91.7285V92.7402C236.075 92.8678 235.794 92.9658 235.484 93.0342C235.179 93.1025 234.814 93.1367 234.391 93.1367ZM240.522 92.207C240.709 92.207 240.901 92.1911 241.097 92.1592C241.293 92.1273 241.452 92.0885 241.575 92.043V92.9248C241.443 92.984 241.258 93.0342 241.021 93.0752C240.789 93.1162 240.561 93.1367 240.338 93.1367C239.941 93.1367 239.581 93.0684 239.258 92.9316C238.934 92.7904 238.674 92.5534 238.479 92.2207C238.287 91.888 238.191 91.4277 238.191 90.8398V86.3965H237.125V85.8428L238.198 85.3984L238.649 83.7715H239.333V85.5078H241.527V86.3965H239.333V90.8057C239.333 91.2751 239.44 91.626 239.654 91.8584C239.873 92.0908 240.162 92.207 240.522 92.207ZM247.939 90.9492C247.939 91.4277 247.819 91.8311 247.577 92.1592C247.34 92.4827 246.998 92.7266 246.552 92.8906C246.11 93.0547 245.581 93.1367 244.966 93.1367C244.442 93.1367 243.988 93.0957 243.605 93.0137C243.223 92.9316 242.888 92.8154 242.601 92.665V91.6191C242.906 91.7695 243.271 91.9062 243.694 92.0293C244.118 92.1523 244.551 92.2139 244.993 92.2139C245.64 92.2139 246.11 92.109 246.401 91.8994C246.693 91.6898 246.839 91.4049 246.839 91.0449C246.839 90.8398 246.78 90.6598 246.661 90.5049C246.547 90.3454 246.354 90.1927 246.08 90.0469C245.807 89.8965 245.428 89.7324 244.945 89.5547C244.467 89.3724 244.052 89.1924 243.701 89.0146C243.355 88.8324 243.086 88.6113 242.895 88.3516C242.708 88.0918 242.614 87.7546 242.614 87.3398C242.614 86.7064 242.869 86.221 243.38 85.8838C243.895 85.542 244.569 85.3711 245.403 85.3711C245.854 85.3711 246.276 85.4167 246.668 85.5078C247.064 85.5944 247.434 85.7129 247.775 85.8633L247.393 86.7725C247.083 86.6403 246.752 86.5286 246.401 86.4375C246.05 86.3464 245.693 86.3008 245.328 86.3008C244.804 86.3008 244.401 86.3874 244.118 86.5605C243.84 86.7337 243.701 86.9707 243.701 87.2715C243.701 87.5039 243.765 87.6953 243.893 87.8457C244.025 87.9961 244.234 88.1374 244.521 88.2695C244.809 88.4017 245.187 88.5566 245.656 88.7344C246.126 88.9076 246.531 89.0876 246.873 89.2744C247.215 89.4567 247.477 89.68 247.659 89.9443C247.846 90.2041 247.939 90.5391 247.939 90.9492ZM31.999 104.385C32.8923 104.385 33.5553 104.585 33.9883 104.986C34.4212 105.387 34.6377 106.028 34.6377 106.907V112H33.8105L33.5918 110.893H33.5371C33.3275 111.166 33.1087 111.396 32.8809 111.583C32.653 111.765 32.3887 111.904 32.0879 112C31.7917 112.091 31.4271 112.137 30.9941 112.137C30.5384 112.137 30.1328 112.057 29.7773 111.897C29.4264 111.738 29.1484 111.496 28.9434 111.173C28.7428 110.849 28.6426 110.439 28.6426 109.942C28.6426 109.195 28.9388 108.621 29.5312 108.22C30.1237 107.819 31.026 107.6 32.2383 107.563L33.5303 107.509V107.051C33.5303 106.404 33.3913 105.95 33.1133 105.69C32.8353 105.431 32.4434 105.301 31.9375 105.301C31.5456 105.301 31.1719 105.358 30.8164 105.472C30.4609 105.586 30.1237 105.72 29.8047 105.875L29.4561 105.014C29.7933 104.84 30.1807 104.692 30.6182 104.569C31.0557 104.446 31.516 104.385 31.999 104.385ZM33.5166 108.309L32.375 108.356C31.4408 108.393 30.7822 108.546 30.3994 108.814C30.0166 109.083 29.8252 109.464 29.8252 109.956C29.8252 110.384 29.9551 110.701 30.2148 110.906C30.4746 111.111 30.8187 111.214 31.2471 111.214C31.9124 111.214 32.457 111.029 32.8809 110.66C33.3047 110.291 33.5166 109.737 33.5166 108.999V108.309ZM40.5234 104.371C41.4121 104.371 42.0843 104.59 42.54 105.027C42.9958 105.46 43.2236 106.158 43.2236 107.119V112H42.1025V107.194C42.1025 106.57 41.959 106.103 41.6719 105.793C41.3893 105.483 40.9541 105.328 40.3662 105.328C39.5368 105.328 38.9535 105.563 38.6162 106.032C38.279 106.502 38.1104 107.183 38.1104 108.076V112H36.9756V104.508H37.8916L38.0625 105.588H38.124C38.2835 105.324 38.4863 105.103 38.7324 104.925C38.9785 104.743 39.2542 104.606 39.5596 104.515C39.8649 104.419 40.1862 104.371 40.5234 104.371ZM48.2275 112.137C47.2796 112.137 46.5277 111.813 45.9717 111.166C45.4202 110.519 45.1445 109.557 45.1445 108.281C45.1445 106.992 45.4271 106.019 45.9922 105.362C46.5573 104.701 47.3092 104.371 48.248 104.371C48.6445 104.371 48.9909 104.424 49.2871 104.528C49.5833 104.633 49.8385 104.774 50.0527 104.952C50.2669 105.125 50.4469 105.324 50.5928 105.547H50.6748C50.6566 105.406 50.6383 105.212 50.6201 104.966C50.6019 104.72 50.5928 104.519 50.5928 104.364V101.363H51.7275V112H50.8115L50.6406 110.934H50.5928C50.4515 111.157 50.2715 111.36 50.0527 111.542C49.8385 111.724 49.5811 111.87 49.2803 111.979C48.984 112.084 48.6331 112.137 48.2275 112.137ZM48.4053 111.193C49.2074 111.193 49.7747 110.965 50.1074 110.51C50.4401 110.054 50.6064 109.377 50.6064 108.479V108.274C50.6064 107.322 50.4469 106.59 50.1279 106.08C49.8135 105.57 49.2393 105.314 48.4053 105.314C47.708 105.314 47.1862 105.583 46.8398 106.121C46.4935 106.654 46.3203 107.383 46.3203 108.309C46.3203 109.229 46.4912 109.94 46.833 110.441C47.1794 110.943 47.7035 111.193 48.4053 111.193ZM62.6172 109.949C62.6172 110.428 62.4964 110.831 62.2549 111.159C62.0179 111.483 61.6761 111.727 61.2295 111.891C60.7874 112.055 60.2588 112.137 59.6436 112.137C59.1195 112.137 58.666 112.096 58.2832 112.014C57.9004 111.932 57.5654 111.815 57.2783 111.665V110.619C57.5837 110.77 57.9482 110.906 58.3721 111.029C58.7959 111.152 59.2288 111.214 59.6709 111.214C60.318 111.214 60.7874 111.109 61.0791 110.899C61.3708 110.69 61.5166 110.405 61.5166 110.045C61.5166 109.84 61.4574 109.66 61.3389 109.505C61.2249 109.345 61.0312 109.193 60.7578 109.047C60.4844 108.896 60.1061 108.732 59.623 108.555C59.1445 108.372 58.7298 108.192 58.3789 108.015C58.0326 107.832 57.7637 107.611 57.5723 107.352C57.3854 107.092 57.292 106.755 57.292 106.34C57.292 105.706 57.5472 105.221 58.0576 104.884C58.5726 104.542 59.2471 104.371 60.0811 104.371C60.5322 104.371 60.9538 104.417 61.3457 104.508C61.7422 104.594 62.1113 104.713 62.4531 104.863L62.0703 105.772C61.7604 105.64 61.43 105.529 61.0791 105.438C60.7282 105.346 60.3704 105.301 60.0059 105.301C59.4818 105.301 59.0785 105.387 58.7959 105.561C58.5179 105.734 58.3789 105.971 58.3789 106.271C58.3789 106.504 58.4427 106.695 58.5703 106.846C58.7025 106.996 58.9121 107.137 59.1992 107.27C59.4863 107.402 59.8646 107.557 60.334 107.734C60.8034 107.908 61.209 108.088 61.5508 108.274C61.8926 108.457 62.1546 108.68 62.3369 108.944C62.5238 109.204 62.6172 109.539 62.6172 109.949ZM65.5771 104.508V112H64.4424V104.508H65.5771ZM65.0234 101.705C65.2103 101.705 65.3698 101.767 65.502 101.89C65.6387 102.008 65.707 102.195 65.707 102.45C65.707 102.701 65.6387 102.888 65.502 103.011C65.3698 103.134 65.2103 103.195 65.0234 103.195C64.8275 103.195 64.6634 103.134 64.5312 103.011C64.4036 102.888 64.3398 102.701 64.3398 102.45C64.3398 102.195 64.4036 102.008 64.5312 101.89C64.6634 101.767 64.8275 101.705 65.0234 101.705ZM70.4033 111.207C70.5902 111.207 70.7816 111.191 70.9775 111.159C71.1735 111.127 71.333 111.089 71.4561 111.043V111.925C71.3239 111.984 71.1393 112.034 70.9023 112.075C70.6699 112.116 70.4421 112.137 70.2188 112.137C69.8223 112.137 69.4622 112.068 69.1387 111.932C68.8151 111.79 68.5553 111.553 68.3594 111.221C68.168 110.888 68.0723 110.428 68.0723 109.84V105.396H67.0059V104.843L68.0791 104.398L68.5303 102.771H69.2139V104.508H71.4082V105.396H69.2139V109.806C69.2139 110.275 69.321 110.626 69.5352 110.858C69.7539 111.091 70.0433 111.207 70.4033 111.207ZM75.8584 104.371C76.4964 104.371 77.0433 104.512 77.499 104.795C77.9548 105.077 78.3034 105.474 78.5449 105.984C78.7865 106.49 78.9072 107.083 78.9072 107.762V108.466H73.7324C73.7461 109.345 73.9648 110.015 74.3887 110.476C74.8125 110.936 75.4095 111.166 76.1797 111.166C76.6536 111.166 77.0729 111.123 77.4375 111.036C77.8021 110.95 78.1803 110.822 78.5723 110.653V111.651C78.194 111.82 77.818 111.943 77.4443 112.021C77.0752 112.098 76.6377 112.137 76.1318 112.137C75.4118 112.137 74.7829 111.991 74.2451 111.699C73.7119 111.403 73.2972 110.97 73.001 110.4C72.7048 109.831 72.5566 109.133 72.5566 108.309C72.5566 107.502 72.6911 106.805 72.96 106.217C73.2334 105.624 73.6162 105.169 74.1084 104.85C74.6051 104.531 75.1885 104.371 75.8584 104.371ZM75.8447 105.301C75.2386 105.301 74.7555 105.499 74.3955 105.896C74.0355 106.292 73.8213 106.846 73.7529 107.557H77.7178C77.7132 107.11 77.6426 106.718 77.5059 106.381C77.3737 106.039 77.1709 105.775 76.8975 105.588C76.624 105.396 76.2731 105.301 75.8447 105.301ZM85.6816 109.949C85.6816 110.428 85.5609 110.831 85.3193 111.159C85.0824 111.483 84.7406 111.727 84.2939 111.891C83.8519 112.055 83.3232 112.137 82.708 112.137C82.1839 112.137 81.7305 112.096 81.3477 112.014C80.9648 111.932 80.6299 111.815 80.3428 111.665V110.619C80.6481 110.77 81.0127 110.906 81.4365 111.029C81.8604 111.152 82.2933 111.214 82.7354 111.214C83.3825 111.214 83.8519 111.109 84.1436 110.899C84.4352 110.69 84.5811 110.405 84.5811 110.045C84.5811 109.84 84.5218 109.66 84.4033 109.505C84.2894 109.345 84.0957 109.193 83.8223 109.047C83.5488 108.896 83.1706 108.732 82.6875 108.555C82.209 108.372 81.7943 108.192 81.4434 108.015C81.097 107.832 80.8281 107.611 80.6367 107.352C80.4499 107.092 80.3564 106.755 80.3564 106.34C80.3564 105.706 80.6117 105.221 81.1221 104.884C81.637 104.542 82.3115 104.371 83.1455 104.371C83.5967 104.371 84.0182 104.417 84.4102 104.508C84.8066 104.594 85.1758 104.713 85.5176 104.863L85.1348 105.772C84.8249 105.64 84.4945 105.529 84.1436 105.438C83.7926 105.346 83.4349 105.301 83.0703 105.301C82.5462 105.301 82.1429 105.387 81.8604 105.561C81.5824 105.734 81.4434 105.971 81.4434 106.271C81.4434 106.504 81.5072 106.695 81.6348 106.846C81.7669 106.996 81.9766 107.137 82.2637 107.27C82.5508 107.402 82.929 107.557 83.3984 107.734C83.8678 107.908 84.2734 108.088 84.6152 108.274C84.957 108.457 85.2191 108.68 85.4014 108.944C85.5882 109.204 85.6816 109.539 85.6816 109.949ZM87.3359 111.289C87.3359 110.97 87.4134 110.744 87.5684 110.612C87.7233 110.476 87.9124 110.407 88.1357 110.407C88.3682 110.407 88.5641 110.476 88.7236 110.612C88.8831 110.744 88.9629 110.97 88.9629 111.289C88.9629 111.604 88.8831 111.834 88.7236 111.979C88.5641 112.121 88.3682 112.191 88.1357 112.191C87.9124 112.191 87.7233 112.121 87.5684 111.979C87.4134 111.834 87.3359 111.604 87.3359 111.289Z" fill="#616161"/>
<path d="M34.8262 61H32.4727V48.7148H28.293V46.7227H38.9961V48.7148H34.8262V61ZM43.2441 50.1895V61H40.9492V50.1895H43.2441ZM42.1113 46.0488C42.4629 46.0488 42.7656 46.1432 43.0195 46.332C43.2799 46.5208 43.4102 46.8464 43.4102 47.3086C43.4102 47.7643 43.2799 48.0898 43.0195 48.2852C42.7656 48.474 42.4629 48.5684 42.1113 48.5684C41.7467 48.5684 41.4375 48.474 41.1836 48.2852C40.9362 48.0898 40.8125 47.7643 40.8125 47.3086C40.8125 46.8464 40.9362 46.5208 41.1836 46.332C41.4375 46.1432 41.7467 46.0488 42.1113 46.0488ZM58.752 49.9844C59.9629 49.9844 60.8743 50.2969 61.4863 50.9219C62.1048 51.5469 62.4141 52.5495 62.4141 53.9297V61H60.1191V54.3398C60.1191 53.5195 59.9596 52.901 59.6406 52.4844C59.3216 52.0677 58.8366 51.8594 58.1855 51.8594C57.2741 51.8594 56.6165 52.1523 56.2129 52.7383C55.8158 53.3177 55.6172 54.1608 55.6172 55.2676V61H53.3223V54.3398C53.3223 53.793 53.2507 53.3372 53.1074 52.9727C52.9707 52.6016 52.7591 52.3249 52.4727 52.1426C52.1862 51.9538 51.8249 51.8594 51.3887 51.8594C50.7572 51.8594 50.2526 52.0026 49.875 52.2891C49.5039 52.5755 49.237 52.9987 49.0742 53.5586C48.9115 54.112 48.8301 54.7923 48.8301 55.5996V61H46.5352V50.1895H48.3223L48.6445 51.6445H48.7715C48.9928 51.2669 49.2663 50.9577 49.5918 50.7168C49.9238 50.4694 50.2917 50.2871 50.6953 50.1699C51.099 50.0462 51.5189 49.9844 51.9551 49.9844C52.7624 49.9844 53.4427 50.1276 53.9961 50.4141C54.5495 50.694 54.9629 51.1237 55.2363 51.7031H55.4121C55.7507 51.1172 56.2227 50.6842 56.8281 50.4043C57.4336 50.1243 58.0749 49.9844 58.752 49.9844ZM69.9238 49.9844C70.8874 49.9844 71.7142 50.1829 72.4043 50.5801C73.0944 50.9772 73.625 51.5404 73.9961 52.2695C74.3672 52.9987 74.5527 53.8711 74.5527 54.8867V56.1172H67.3359C67.362 57.1654 67.6419 57.9727 68.1758 58.5391C68.7161 59.1055 69.4714 59.3887 70.4414 59.3887C71.1315 59.3887 71.75 59.3236 72.2969 59.1934C72.8503 59.0566 73.4199 58.8581 74.0059 58.5977V60.4629C73.4655 60.7168 72.9154 60.9023 72.3555 61.0195C71.7956 61.1367 71.125 61.1953 70.3438 61.1953C69.2826 61.1953 68.3483 60.9902 67.541 60.5801C66.7402 60.1634 66.112 59.5449 65.6562 58.7246C65.207 57.9043 64.9824 56.8854 64.9824 55.668C64.9824 54.457 65.1875 53.4284 65.5977 52.582C66.0078 51.7357 66.584 51.0911 67.3262 50.6484C68.0684 50.2057 68.9342 49.9844 69.9238 49.9844ZM69.9238 51.7129C69.2012 51.7129 68.6152 51.9473 68.166 52.416C67.7233 52.8848 67.4629 53.5716 67.3848 54.4766H72.3066C72.3001 53.9362 72.209 53.4577 72.0332 53.041C71.8639 52.6243 71.6035 52.2988 71.252 52.0645C70.9069 51.8301 70.4642 51.7129 69.9238 51.7129ZM84.4062 57.9141C84.4062 58.6237 84.2337 59.2227 83.8887 59.7109C83.5436 60.1992 83.0391 60.5703 82.375 60.8242C81.7174 61.0716 80.9102 61.1953 79.9531 61.1953C79.1979 61.1953 78.5469 61.14 78 61.0293C77.4596 60.9251 76.9486 60.7624 76.4668 60.541V58.5586C76.9811 58.7995 77.5573 59.0078 78.1953 59.1836C78.8398 59.3594 79.4486 59.4473 80.0215 59.4473C80.7767 59.4473 81.3203 59.3301 81.6523 59.0957C81.9844 58.8548 82.1504 58.5358 82.1504 58.1387C82.1504 57.9043 82.082 57.696 81.9453 57.5137C81.8151 57.3249 81.5677 57.1328 81.2031 56.9375C80.8451 56.7357 80.3177 56.4948 79.6211 56.2148C78.9375 55.9414 78.3613 55.668 77.8926 55.3945C77.4238 55.1211 77.069 54.7923 76.8281 54.4082C76.5872 54.0176 76.4668 53.5195 76.4668 52.9141C76.4668 51.957 76.8444 51.2311 77.5996 50.7363C78.3613 50.235 79.3672 49.9844 80.6172 49.9844C81.2812 49.9844 81.9062 50.0527 82.4922 50.1895C83.0846 50.3197 83.6641 50.5117 84.2305 50.7656L83.5078 52.4941C83.0195 52.2793 82.528 52.1035 82.0332 51.9668C81.5449 51.8236 81.0469 51.752 80.5391 51.752C79.9466 51.752 79.4941 51.8431 79.1816 52.0254C78.8757 52.2077 78.7227 52.4681 78.7227 52.8066C78.7227 53.0605 78.7975 53.2754 78.9473 53.4512C79.097 53.627 79.3542 53.8027 79.7188 53.9785C80.0898 54.1543 80.6042 54.3724 81.2617 54.6328C81.9062 54.8802 82.4629 55.1406 82.9316 55.4141C83.4069 55.681 83.7715 56.0098 84.0254 56.4004C84.2793 56.791 84.4062 57.2956 84.4062 57.9141ZM89.1816 45.8047V49.623C89.1816 50.0202 89.1686 50.4076 89.1426 50.7852C89.123 51.1628 89.1003 51.4557 89.0742 51.6641H89.2012C89.429 51.2865 89.709 50.9772 90.041 50.7363C90.373 50.4889 90.7441 50.3034 91.1543 50.1797C91.571 50.056 92.0137 49.9941 92.4824 49.9941C93.3092 49.9941 94.0124 50.1341 94.5918 50.4141C95.1712 50.6875 95.6139 51.1139 95.9199 51.6934C96.2324 52.2728 96.3887 53.0247 96.3887 53.9492V61H94.0938V54.3789C94.0938 53.5391 93.9212 52.9108 93.5762 52.4941C93.2311 52.071 92.6973 51.8594 91.9746 51.8594C91.278 51.8594 90.7246 52.0059 90.3145 52.2988C89.9108 52.5853 89.6211 53.0117 89.4453 53.5781C89.2695 54.138 89.1816 54.8216 89.1816 55.6289V61H86.8867V45.8047H89.1816ZM103.908 49.9844C104.872 49.9844 105.699 50.1829 106.389 50.5801C107.079 50.9772 107.609 51.5404 107.98 52.2695C108.352 52.9987 108.537 53.8711 108.537 54.8867V56.1172H101.32C101.346 57.1654 101.626 57.9727 102.16 58.5391C102.701 59.1055 103.456 59.3887 104.426 59.3887C105.116 59.3887 105.734 59.3236 106.281 59.1934C106.835 59.0566 107.404 58.8581 107.99 58.5977V60.4629C107.45 60.7168 106.9 60.9023 106.34 61.0195C105.78 61.1367 105.109 61.1953 104.328 61.1953C103.267 61.1953 102.333 60.9902 101.525 60.5801C100.725 60.1634 100.096 59.5449 99.6406 58.7246C99.1914 57.9043 98.9668 56.8854 98.9668 55.668C98.9668 54.457 99.1719 53.4284 99.582 52.582C99.9922 51.7357 100.568 51.0911 101.311 50.6484C102.053 50.2057 102.919 49.9844 103.908 49.9844ZM103.908 51.7129C103.186 51.7129 102.6 51.9473 102.15 52.416C101.708 52.8848 101.447 53.5716 101.369 54.4766H106.291C106.285 53.9362 106.193 53.4577 106.018 53.041C105.848 52.6243 105.588 52.2988 105.236 52.0645C104.891 51.8301 104.449 51.7129 103.908 51.7129ZM115.432 49.9844C116.395 49.9844 117.222 50.1829 117.912 50.5801C118.602 50.9772 119.133 51.5404 119.504 52.2695C119.875 52.9987 120.061 53.8711 120.061 54.8867V56.1172H112.844C112.87 57.1654 113.15 57.9727 113.684 58.5391C114.224 59.1055 114.979 59.3887 115.949 59.3887C116.639 59.3887 117.258 59.3236 117.805 59.1934C118.358 59.0566 118.928 58.8581 119.514 58.5977V60.4629C118.973 60.7168 118.423 60.9023 117.863 61.0195C117.303 61.1367 116.633 61.1953 115.852 61.1953C114.79 61.1953 113.856 60.9902 113.049 60.5801C112.248 60.1634 111.62 59.5449 111.164 58.7246C110.715 57.9043 110.49 56.8854 110.49 55.668C110.49 54.457 110.695 53.4284 111.105 52.582C111.516 51.7357 112.092 51.0911 112.834 50.6484C113.576 50.2057 114.442 49.9844 115.432 49.9844ZM115.432 51.7129C114.709 51.7129 114.123 51.9473 113.674 52.416C113.231 52.8848 112.971 53.5716 112.893 54.4766H117.814C117.808 53.9362 117.717 53.4577 117.541 53.041C117.372 52.6243 117.111 52.2988 116.76 52.0645C116.415 51.8301 115.972 51.7129 115.432 51.7129ZM126.672 59.3398C126.971 59.3398 127.268 59.3138 127.561 59.2617C127.854 59.2031 128.12 59.1348 128.361 59.0566V60.7949C128.107 60.9056 127.779 61 127.375 61.0781C126.971 61.1562 126.551 61.1953 126.115 61.1953C125.503 61.1953 124.953 61.0944 124.465 60.8926C123.977 60.6842 123.589 60.3294 123.303 59.8281C123.016 59.3268 122.873 58.6335 122.873 57.748V51.9375H121.398V50.9121L122.98 50.1016L123.732 47.7871H125.178V50.1895H128.273V51.9375H125.178V57.7188C125.178 58.2656 125.314 58.6725 125.588 58.9395C125.861 59.2064 126.223 59.3398 126.672 59.3398ZM137.824 57.9141C137.824 58.6237 137.652 59.2227 137.307 59.7109C136.962 60.1992 136.457 60.5703 135.793 60.8242C135.135 61.0716 134.328 61.1953 133.371 61.1953C132.616 61.1953 131.965 61.14 131.418 61.0293C130.878 60.9251 130.367 60.7624 129.885 60.541V58.5586C130.399 58.7995 130.975 59.0078 131.613 59.1836C132.258 59.3594 132.867 59.4473 133.439 59.4473C134.195 59.4473 134.738 59.3301 135.07 59.0957C135.402 58.8548 135.568 58.5358 135.568 58.1387C135.568 57.9043 135.5 57.696 135.363 57.5137C135.233 57.3249 134.986 57.1328 134.621 56.9375C134.263 56.7357 133.736 56.4948 133.039 56.2148C132.355 55.9414 131.779 55.668 131.311 55.3945C130.842 55.1211 130.487 54.7923 130.246 54.4082C130.005 54.0176 129.885 53.5195 129.885 52.9141C129.885 51.957 130.262 51.2311 131.018 50.7363C131.779 50.235 132.785 49.9844 134.035 49.9844C134.699 49.9844 135.324 50.0527 135.91 50.1895C136.503 50.3197 137.082 50.5117 137.648 50.7656L136.926 52.4941C136.438 52.2793 135.946 52.1035 135.451 51.9668C134.963 51.8236 134.465 51.752 133.957 51.752C133.365 51.752 132.912 51.8431 132.6 52.0254C132.294 52.2077 132.141 52.4681 132.141 52.8066C132.141 53.0605 132.215 53.2754 132.365 53.4512C132.515 53.627 132.772 53.8027 133.137 53.9785C133.508 54.1543 134.022 54.3724 134.68 54.6328C135.324 54.8802 135.881 55.1406 136.35 55.4141C136.825 55.681 137.189 56.0098 137.443 56.4004C137.697 56.791 137.824 57.2956 137.824 57.9141Z" fill="black"/>
<path d="M271.322 42.0008C271.6 41.723 271.93 41.5028 272.292 41.3525C272.655 41.2022 273.044 41.1249 273.437 41.125C273.83 41.1251 274.219 41.2025 274.582 41.3529C274.945 41.5033 275.275 41.7237 275.552 42.0015C275.83 42.2794 276.05 42.6092 276.201 42.9721C276.351 43.3351 276.428 43.7241 276.428 44.1169C276.428 44.5098 276.351 44.8988 276.2 45.2617C276.05 45.6246 275.829 45.9543 275.552 46.232L271.427 50.357C270.965 50.8183 270.396 51.1567 269.77 51.3414L267.48 52.0164C267.211 52.0955 266.925 52.1008 266.653 52.0316C266.381 51.9624 266.133 51.8213 265.935 51.6231C265.736 51.425 265.595 51.177 265.525 50.9053C265.456 50.6336 265.46 50.3481 265.539 50.0789L266.211 47.7867C266.396 47.1591 266.735 46.588 267.198 46.1258L271.322 42.0008ZM258.469 42.6883H268.425L266.092 45.0211C265.445 45.6684 264.971 46.4678 264.712 47.3461L264.041 49.6367C263.342 52.0117 265.55 54.2148 267.922 53.5148L270.211 52.8398C271.087 52.5815 271.885 52.1077 272.531 51.4617L276.438 47.5555V54.407C276.438 55.443 276.026 56.4366 275.293 57.1692C274.561 57.9017 273.567 58.3133 272.531 58.3133H258.469C257.433 58.3133 256.439 57.9017 255.707 57.1692C254.974 56.4366 254.562 55.443 254.562 54.407V50.8242L255.116 50.2726C255.983 49.4039 257.256 48.4133 258.428 47.8695C259.016 47.5961 259.511 47.468 259.88 47.4758C260.208 47.482 260.406 47.5883 260.553 47.8086C260.75 48.1039 260.75 48.3398 260.623 48.6476C260.47 49.0226 260.155 49.4242 259.728 49.9445L259.675 50.0117C259.295 50.4726 258.834 51.0351 258.556 51.6414C258.242 52.3226 258.127 53.1258 258.552 53.9758C259.02 54.9148 259.942 55.2648 260.827 55.2945C261.702 55.3242 262.658 55.057 263.502 54.643C263.594 54.5979 263.677 54.5351 263.745 54.458C263.813 54.3809 263.866 54.291 263.899 54.1937C263.932 54.0963 263.946 53.9933 263.94 53.8905C263.933 53.7878 263.906 53.6874 263.861 53.5951C263.815 53.5027 263.752 53.4203 263.674 53.3525C263.597 53.2847 263.507 53.2329 263.409 53.2C263.312 53.1672 263.209 53.1539 263.106 53.161C263.003 53.1681 262.903 53.1954 262.811 53.2414C262.123 53.5789 261.427 53.7523 260.88 53.7336C260.344 53.7148 260.077 53.5305 259.948 53.2758C259.787 52.9539 259.805 52.6633 259.975 52.2945C260.166 51.8789 260.509 51.4586 260.938 50.9351L260.953 50.9164C261.341 50.4445 261.814 49.8648 262.07 49.2398C262.358 48.5367 262.384 47.7398 261.853 46.943C261.375 46.2242 260.659 45.9273 259.909 45.9133C259.202 45.8992 258.456 46.132 257.769 46.4523C256.633 46.9805 255.47 47.8289 254.562 48.6445V46.5945C254.562 45.5585 254.974 44.5649 255.707 43.8324C256.439 43.0998 257.433 42.6883 258.469 42.6883Z" fill="#1E1E1E"/>
</g>
<defs>
<filter id="filter0_d_4835_13715" x="0" y="0" width="306" height="166" filterUnits="userSpaceOnUse" color-interpolation-filters="sRGB">
<feFlood flood-opacity="0" result="BackgroundImageFix"/>
<feColorMatrix in="SourceAlpha" type="matrix" values="0 0 0 0 0 0 0 0 0 0 0 0 0 0 0 0 0 0 127 0" result="hardAlpha"/>
<feOffset/>
<feGaussianBlur stdDeviation="4"/>
<feComposite in2="hardAlpha" operator="out"/>
<feColorMatrix type="matrix" values="0 0 0 0 0 0 0 0 0 0 0 0 0 0 0 0 0 0 0.2 0"/>
<feBlend mode="normal" in2="BackgroundImageFix" result="effect1_dropShadow_4835_13715"/>
<feBlend mode="normal" in="SourceGraphic" in2="effect1_dropShadow_4835_13715" result="shape"/>
</filter>
</defs>
</svg>
