<svg width="110" height="31" viewBox="0 0 110 31" fill="none" xmlns="http://www.w3.org/2000/svg">
<rect x="1" y="1" width="108" height="29" rx="7" stroke="#DF6913" strokeWidth="2"/>
<path d="M17.1602 11.0059V17.4727C17.1602 18.1699 17.012 18.7943 16.7158 19.3457C16.4242 19.8971 15.9821 20.3346 15.3896 20.6582C14.7972 20.9772 14.0521 21.1367 13.1543 21.1367C11.8737 21.1367 10.8984 20.8018 10.2285 20.1318C9.56315 19.4574 9.23047 18.5618 9.23047 17.4453V11.0059H10.8711V17.3018C10.8711 18.1357 11.0671 18.751 11.459 19.1475C11.8509 19.5439 12.4365 19.7422 13.2158 19.7422C13.7536 19.7422 14.1911 19.6488 14.5283 19.4619C14.8701 19.2705 15.1208 18.9925 15.2803 18.6279C15.4443 18.2588 15.5264 17.8145 15.5264 17.2949V11.0059H17.1602ZM23.4971 13.2891C24.3493 13.2891 25.0124 13.5101 25.4863 13.9521C25.9648 14.3896 26.2041 15.0938 26.2041 16.0645V21H24.5977V16.3652C24.5977 15.7773 24.4769 15.3376 24.2354 15.0459C23.9938 14.7497 23.6201 14.6016 23.1143 14.6016C22.3805 14.6016 21.8701 14.8271 21.583 15.2783C21.3005 15.7295 21.1592 16.3835 21.1592 17.2402V21H19.5527V13.4326H20.8037L21.0293 14.458H21.1182C21.2822 14.1937 21.485 13.9772 21.7266 13.8086C21.9727 13.6354 22.2461 13.5055 22.5469 13.4189C22.8522 13.3324 23.1689 13.2891 23.4971 13.2891ZM30.9961 21.1367C30.0938 21.1367 29.3691 20.8086 28.8223 20.1523C28.2799 19.4915 28.0088 18.5186 28.0088 17.2334C28.0088 15.9346 28.2845 14.9525 28.8359 14.2871C29.3919 13.6217 30.1234 13.2891 31.0303 13.2891C31.4131 13.2891 31.748 13.3415 32.0352 13.4463C32.3223 13.5465 32.5684 13.6833 32.7734 13.8564C32.9831 14.0296 33.1608 14.2233 33.3066 14.4375H33.3818C33.359 14.2962 33.3317 14.0934 33.2998 13.8291C33.2725 13.5602 33.2588 13.3118 33.2588 13.084V10.3633H34.8721V21H33.6143L33.3271 19.9678H33.2588C33.1221 20.1865 32.9489 20.3848 32.7393 20.5625C32.5342 20.7357 32.2881 20.8747 32.001 20.9795C31.7184 21.0843 31.3835 21.1367 30.9961 21.1367ZM31.4473 19.8311C32.1354 19.8311 32.6208 19.6328 32.9033 19.2363C33.1859 18.8398 33.3317 18.2451 33.3408 17.4521V17.2402C33.3408 16.3926 33.2041 15.7432 32.9307 15.292C32.6572 14.8363 32.1582 14.6084 31.4336 14.6084C30.8548 14.6084 30.4128 14.8431 30.1074 15.3125C29.8066 15.7773 29.6562 16.4268 29.6562 17.2607C29.6562 18.0947 29.8066 18.7327 30.1074 19.1748C30.4128 19.6123 30.8594 19.8311 31.4473 19.8311ZM40.1904 13.2891C40.8649 13.2891 41.4437 13.4281 41.9268 13.7061C42.4098 13.984 42.7812 14.3783 43.041 14.8887C43.3008 15.3991 43.4307 16.0098 43.4307 16.7207V17.582H38.3789C38.3971 18.3158 38.5931 18.8809 38.9668 19.2773C39.3451 19.6738 39.8737 19.8721 40.5527 19.8721C41.0358 19.8721 41.4688 19.8265 41.8516 19.7354C42.2389 19.6396 42.6377 19.5007 43.0479 19.3184V20.624C42.6696 20.8018 42.2845 20.9316 41.8926 21.0137C41.5007 21.0957 41.0312 21.1367 40.4844 21.1367C39.7415 21.1367 39.0876 20.9932 38.5225 20.7061C37.9619 20.4144 37.5221 19.9814 37.2031 19.4072C36.8887 18.833 36.7314 18.1198 36.7314 17.2676C36.7314 16.4199 36.875 15.6999 37.1621 15.1074C37.4492 14.515 37.8525 14.0638 38.3721 13.7539C38.8916 13.444 39.4977 13.2891 40.1904 13.2891ZM40.1904 14.499C39.6846 14.499 39.2744 14.6631 38.96 14.9912C38.6501 15.3193 38.4678 15.8001 38.4131 16.4336H41.8584C41.8538 16.0553 41.79 15.7204 41.667 15.4287C41.5485 15.137 41.3662 14.9092 41.1201 14.7451C40.8786 14.5811 40.5687 14.499 40.1904 14.499ZM49.0771 13.2891C49.2048 13.2891 49.3438 13.2959 49.4941 13.3096C49.6445 13.3232 49.7744 13.3415 49.8838 13.3643L49.7334 14.8682C49.6377 14.8408 49.5192 14.8203 49.3779 14.8066C49.2412 14.793 49.1182 14.7861 49.0088 14.7861C48.7217 14.7861 48.4482 14.834 48.1885 14.9297C47.9287 15.0208 47.6986 15.1621 47.498 15.3535C47.2975 15.5404 47.1403 15.7751 47.0264 16.0576C46.9124 16.3402 46.8555 16.6683 46.8555 17.042V21H45.2422V13.4326H46.5L46.7188 14.7656H46.7939C46.9443 14.4967 47.1312 14.2507 47.3545 14.0273C47.5778 13.804 47.833 13.6263 48.1201 13.4941C48.4118 13.3574 48.7308 13.2891 49.0771 13.2891ZM57.8955 11.0059C58.7568 11.0059 59.4678 11.1107 60.0283 11.3203C60.5934 11.5299 61.0127 11.849 61.2861 12.2773C61.5641 12.7057 61.7031 13.2503 61.7031 13.9111C61.7031 14.4033 61.612 14.8226 61.4297 15.1689C61.2474 15.5153 61.0081 15.8024 60.7119 16.0303C60.4157 16.2581 60.099 16.4404 59.7617 16.5771L62.5986 21H60.7461L58.333 16.9941H56.7266V21H55.0859V11.0059H57.8955ZM57.7861 12.373H56.7266V15.6406H57.8613C58.6224 15.6406 59.1738 15.4993 59.5156 15.2168C59.862 14.9342 60.0352 14.5173 60.0352 13.9658C60.0352 13.387 59.8506 12.9769 59.4814 12.7354C59.1169 12.4938 58.5518 12.373 57.7861 12.373ZM66.8779 13.2891C67.5524 13.2891 68.1312 13.4281 68.6143 13.7061C69.0973 13.984 69.4688 14.3783 69.7285 14.8887C69.9883 15.3991 70.1182 16.0098 70.1182 16.7207V17.582H65.0664C65.0846 18.3158 65.2806 18.8809 65.6543 19.2773C66.0326 19.6738 66.5612 19.8721 67.2402 19.8721C67.7233 19.8721 68.1562 19.8265 68.5391 19.7354C68.9264 19.6396 69.3252 19.5007 69.7354 19.3184V20.624C69.3571 20.8018 68.972 20.9316 68.5801 21.0137C68.1882 21.0957 67.7188 21.1367 67.1719 21.1367C66.429 21.1367 65.7751 20.9932 65.21 20.7061C64.6494 20.4144 64.2096 19.9814 63.8906 19.4072C63.5762 18.833 63.4189 18.1198 63.4189 17.2676C63.4189 16.4199 63.5625 15.6999 63.8496 15.1074C64.1367 14.515 64.54 14.0638 65.0596 13.7539C65.5791 13.444 66.1852 13.2891 66.8779 13.2891ZM66.8779 14.499C66.3721 14.499 65.9619 14.6631 65.6475 14.9912C65.3376 15.3193 65.1553 15.8001 65.1006 16.4336H68.5459C68.5413 16.0553 68.4775 15.7204 68.3545 15.4287C68.236 15.137 68.0537 14.9092 67.8076 14.7451C67.5661 14.5811 67.2562 14.499 66.8779 14.499ZM73.6592 21L70.7812 13.4326H72.4834L74.042 17.876C74.1423 18.1585 74.2334 18.4639 74.3154 18.792C74.3975 19.1201 74.4544 19.3958 74.4863 19.6191H74.541C74.5729 19.3867 74.6344 19.1087 74.7256 18.7852C74.8167 18.457 74.9102 18.154 75.0059 17.876L76.5645 13.4326H78.2598L75.3818 21H73.6592ZM81.0146 13.4326V21H79.4082V13.4326H81.0146ZM80.2217 10.5342C80.4678 10.5342 80.6797 10.6003 80.8574 10.7324C81.0397 10.8646 81.1309 11.0924 81.1309 11.416C81.1309 11.735 81.0397 11.9629 80.8574 12.0996C80.6797 12.2318 80.4678 12.2979 80.2217 12.2979C79.9665 12.2979 79.75 12.2318 79.5723 12.0996C79.3991 11.9629 79.3125 11.735 79.3125 11.416C79.3125 11.0924 79.3991 10.8646 79.5723 10.7324C79.75 10.6003 79.9665 10.5342 80.2217 10.5342ZM86.333 13.2891C87.0075 13.2891 87.5863 13.4281 88.0693 13.7061C88.5524 13.984 88.9238 14.3783 89.1836 14.8887C89.4434 15.3991 89.5732 16.0098 89.5732 16.7207V17.582H84.5215C84.5397 18.3158 84.7357 18.8809 85.1094 19.2773C85.4876 19.6738 86.0163 19.8721 86.6953 19.8721C87.1784 19.8721 87.6113 19.8265 87.9941 19.7354C88.3815 19.6396 88.7803 19.5007 89.1904 19.3184V20.624C88.8122 20.8018 88.4271 20.9316 88.0352 21.0137C87.6432 21.0957 87.1738 21.1367 86.627 21.1367C85.8841 21.1367 85.2301 20.9932 84.665 20.7061C84.1045 20.4144 83.6647 19.9814 83.3457 19.4072C83.0312 18.833 82.874 18.1198 82.874 17.2676C82.874 16.4199 83.0176 15.6999 83.3047 15.1074C83.5918 14.515 83.9951 14.0638 84.5146 13.7539C85.0342 13.444 85.6403 13.2891 86.333 13.2891ZM86.333 14.499C85.8271 14.499 85.417 14.6631 85.1025 14.9912C84.7926 15.3193 84.6104 15.8001 84.5557 16.4336H88.001C87.9964 16.0553 87.9326 15.7204 87.8096 15.4287C87.6911 15.137 87.5088 14.9092 87.2627 14.7451C87.0212 14.5811 86.7113 14.499 86.333 14.499ZM97.5713 20.9932L96.6143 17.4727C96.5687 17.2995 96.514 17.0898 96.4502 16.8438C96.3864 16.5977 96.3226 16.3447 96.2588 16.085C96.195 15.8206 96.1357 15.5768 96.0811 15.3535C96.0309 15.1302 95.9922 14.957 95.9648 14.834H95.9102C95.8874 14.957 95.8509 15.1302 95.8008 15.3535C95.7507 15.5768 95.6937 15.8206 95.6299 16.085C95.5661 16.3493 95.5023 16.6068 95.4385 16.8574C95.3792 17.1081 95.3245 17.3223 95.2744 17.5L94.2695 20.9932H92.5059L90.3867 13.4258H92.0137L92.998 17.1855C93.0618 17.4408 93.1234 17.7165 93.1826 18.0127C93.2464 18.3089 93.3011 18.5915 93.3467 18.8604C93.3923 19.1292 93.4264 19.3503 93.4492 19.5234H93.5039C93.5221 19.4004 93.5472 19.2454 93.5791 19.0586C93.611 18.8672 93.6475 18.6689 93.6885 18.4639C93.7295 18.2542 93.7705 18.0583 93.8115 17.876C93.8525 17.6891 93.8913 17.5387 93.9277 17.4248L95.0898 13.4258H96.8467L97.9609 17.4248C98.0111 17.598 98.0658 17.8167 98.125 18.0811C98.1842 18.3408 98.2367 18.6029 98.2822 18.8672C98.3324 19.127 98.3643 19.3434 98.3779 19.5166H98.4326C98.4508 19.3617 98.4827 19.152 98.5283 18.8877C98.5785 18.6188 98.6354 18.334 98.6992 18.0332C98.763 17.7279 98.8291 17.4453 98.8975 17.1855L99.9023 13.4258H101.502L99.3691 20.9932H97.5713Z" fill="#DF6913"/>
</svg>
