<svg width="31" height="31" viewBox="0 0 31 31" fill="none" xmlns="http://www.w3.org/2000/svg">
<rect width="31" height="31" rx="8" fill="#DF6913"/>
<path d="M21.125 11.4094V8.625C21.125 8.29348 20.9933 7.97554 20.7589 7.74112C20.5245 7.5067 20.2065 7.375 19.875 7.375H11.125C10.7935 7.375 10.4755 7.5067 10.2411 7.74112C10.0067 7.97554 9.875 8.29348 9.875 8.625V11.4375C9.87557 11.6315 9.92109 11.8228 10.008 11.9963C10.0949 12.1698 10.2208 12.3208 10.3758 12.4375L14.4586 15.5L10.375 18.5625C10.2201 18.6792 10.0943 18.8303 10.0075 19.0038C9.92079 19.1773 9.87542 19.3685 9.875 19.5625V22.375C9.875 22.7065 10.0067 23.0245 10.2411 23.2589C10.4755 23.4933 10.7935 23.625 11.125 23.625H19.875C20.2065 23.625 20.5245 23.4933 20.7589 23.2589C20.9933 23.0245 21.125 22.7065 21.125 22.375V19.5906C21.125 19.3972 21.0801 19.2065 20.9939 19.0334C20.9077 18.8602 20.7825 18.7095 20.6281 18.593L16.5359 15.5L20.6281 12.407C20.7823 12.2903 20.9073 12.1395 20.9935 11.9664C21.0797 11.7934 21.1247 11.6027 21.125 11.4094Z" fill="white"/>
</svg>
