<svg width="50" height="50" viewBox="0 0 50 50" fill="none" xmlns="http://www.w3.org/2000/svg">
<circle cx="25" cy="25" r="25" fill="#E2F3FF"/>
<path d="M16.25 33.75H18.0312L30.25 21.5313L28.4688 19.75L16.25 31.9688V33.75ZM13.75 36.25V30.9375L30.25 14.4688C30.5 14.2396 30.7763 14.0625 31.0788 13.9375C31.3813 13.8125 31.6987 13.75 32.0312 13.75C32.3638 13.75 32.6867 13.8125 33 13.9375C33.3133 14.0625 33.5842 14.25 33.8125 14.5L35.5312 16.25C35.7812 16.4792 35.9638 16.75 36.0788 17.0625C36.1938 17.375 36.2508 17.6875 36.25 18C36.25 18.3333 36.1929 18.6513 36.0788 18.9538C35.9646 19.2562 35.7821 19.5321 35.5312 19.7812L19.0625 36.25H13.75ZM29.3438 20.6562L28.4688 19.75L30.25 21.5313L29.3438 20.6562Z" fill="#0063F7"/>
</svg>
