<svg width="50" height="50" viewBox="0 0 50 50" fill="none" xmlns="http://www.w3.org/2000/svg">
<circle cx="25" cy="25" r="25" fill="#E2F3FF"/>
<g clipPath="url(#clip0_444_104985)">
<path d="M17.5278 25.278H33.4722V28.2724H35.0278V23.7224H26.2778V20.6113H24.7222V23.7224H15.9722V28.2724H17.5278V25.278Z" fill="#0063F7"/>
<path d="M21.6111 29.3613H11.8889C10.815 29.3613 9.94446 30.2319 9.94446 31.3058V37.1391C9.94446 38.213 10.815 39.0835 11.8889 39.0835H21.6111C22.685 39.0835 23.5556 38.213 23.5556 37.1391V31.3058C23.5556 30.2319 22.685 29.3613 21.6111 29.3613Z" fill="#0063F7"/>
<path d="M39.1111 29.3613H29.3889C28.315 29.3613 27.4445 30.2319 27.4445 31.3058V37.1391C27.4445 38.213 28.315 39.0835 29.3889 39.0835H39.1111C40.185 39.0835 41.0556 38.213 41.0556 37.1391V31.3058C41.0556 30.2319 40.185 29.3613 39.1111 29.3613Z" fill="#0063F7"/>
<path d="M30.361 9.91699H20.6388C19.5649 9.91699 18.6943 10.7875 18.6943 11.8614V17.6948C18.6943 18.7687 19.5649 19.6392 20.6388 19.6392H30.361C31.4349 19.6392 32.3054 18.7687 32.3054 17.6948V11.8614C32.3054 10.7875 31.4349 9.91699 30.361 9.91699Z" fill="#0063F7"/>
</g>
<defs>
<clipPath id="clip0_444_104985">
<rect width="35" height="35" fill="white" transform="translate(8 7)"/>
</clipPath>
</defs>
</svg>
