<svg width="50" height="50" viewBox="0 0 50 50" fill="none" xmlns="http://www.w3.org/2000/svg">
<circle cx="25" cy="25" r="25" fill="#E2F3FF"/>
<path d="M33.4999 12.25C35.0028 12.25 36.4442 12.847 37.5069 13.9097C38.5696 14.9724 39.1666 16.4138 39.1666 17.9167V29.25C39.1666 30.7529 38.5696 32.1942 37.5069 33.2569C36.4442 34.3196 35.0028 34.9167 33.4999 34.9167H26.8076L20.0614 38.9641C19.8583 39.086 19.6278 39.155 19.391 39.1648C19.1543 39.1746 18.9189 39.1249 18.7063 39.0202C18.4938 38.9154 18.3109 38.7591 18.1744 38.5654C18.0379 38.3717 17.9522 38.1469 17.9251 37.9115L17.9166 37.75V34.9167H16.4999C15.0461 34.9167 13.6478 34.3579 12.5944 33.3559C11.541 32.3539 10.913 30.9854 10.8403 29.5333L10.8333 29.25V17.9167C10.8333 16.4138 11.4303 14.9724 12.493 13.9097C13.5557 12.847 14.997 12.25 16.4999 12.25H33.4999ZM27.8333 25H19.3333C18.9575 25 18.5972 25.1493 18.3315 25.4149C18.0658 25.6806 17.9166 26.0409 17.9166 26.4167C17.9166 26.7924 18.0658 27.1527 18.3315 27.4184C18.5972 27.6841 18.9575 27.8333 19.3333 27.8333H27.8333C28.209 27.8333 28.5693 27.6841 28.835 27.4184C29.1007 27.1527 29.2499 26.7924 29.2499 26.4167C29.2499 26.0409 29.1007 25.6806 28.835 25.4149C28.5693 25.1493 28.209 25 27.8333 25ZM30.6666 19.3333H19.3333C18.9575 19.3333 18.5972 19.4826 18.3315 19.7483C18.0658 20.0139 17.9166 20.3743 17.9166 20.75C17.9166 21.1257 18.0658 21.4861 18.3315 21.7517C18.5972 22.0174 18.9575 22.1667 19.3333 22.1667H30.6666C31.0423 22.1667 31.4026 22.0174 31.6683 21.7517C31.934 21.4861 32.0833 21.1257 32.0833 20.75C32.0833 20.3743 31.934 20.0139 31.6683 19.7483C31.4026 19.4826 31.0423 19.3333 30.6666 19.3333Z" fill="#0063F7"/>
</svg>
