<svg width="50" height="50" viewBox="0 0 50 50" fill="none" xmlns="http://www.w3.org/2000/svg">
<circle cx="25" cy="25" r="25" fill="#E2F3FF"/>
<g clipPath="url(#clip0_8048_16701)">
<path d="M32.5 22.5H26.25M37.5 24.7475C37.5 21.4575 37.5 19.8112 36.5375 18.7425C36.4492 18.6439 36.3557 18.55 36.2575 18.4613C35.1888 17.5 33.5425 17.5 30.2525 17.5H29.785C28.3438 17.5 27.6225 17.5 26.95 17.3088C26.5809 17.2033 26.2253 17.0556 25.89 16.8687C25.28 16.53 24.77 16.0187 23.75 15L23.0625 14.3125C22.72 13.97 22.55 13.8 22.37 13.65C21.5958 13.0083 20.6462 12.6149 19.645 12.5212C19.4125 12.5 19.17 12.5 18.6875 12.5C17.5837 12.5 17.0325 12.5 16.5725 12.5875C15.5848 12.774 14.6762 13.2539 13.9654 13.9646C13.2545 14.6752 12.7743 15.5836 12.5875 16.5712C12.5 17.0325 12.5 17.585 12.5 18.6875M37.4887 30C37.4437 33.1 37.2137 34.8562 36.035 36.035C34.5712 37.5 32.2137 37.5 27.5 37.5H22.5C17.7863 37.5 15.4287 37.5 13.965 36.035C12.5012 34.57 12.5 32.2137 12.5 27.5V23.75" stroke="#0063F7" strokeWidth="1.5" strokeLinecap="round"/>
</g>
<defs>
<clipPath id="clip0_8048_16701">
<rect width="30" height="30" fill="white" transform="translate(10 9)"/>
</clipPath>
</defs>
</svg>
