<svg width="40" height="40" viewBox="0 0 40 40" fill="none" xmlns="http://www.w3.org/2000/svg">
<circle cx="20" cy="20" r="20" fill="#E2F3FF"/>
<path d="M20 9.5C19.5408 9.5 19.0862 9.59044 18.6619 9.76616C18.2377 9.94187 17.8523 10.1994 17.5276 10.5241C17.2029 10.8488 16.9454 11.2342 16.7697 11.6584C16.5939 12.0827 16.5035 12.5373 16.5035 12.9965C16.5035 13.4557 16.5939 13.9103 16.7697 14.3346C16.9454 14.7588 17.2029 15.1442 17.5276 15.4689C17.8523 15.7936 18.2377 16.0511 18.6619 16.2268C19.0862 16.4026 19.5408 16.493 20 16.493C20.9273 16.493 21.8167 16.1246 22.4724 15.4689C23.1281 14.8132 23.4965 13.9238 23.4965 12.9965C23.4965 12.0692 23.1281 11.1798 22.4724 10.5241C21.8167 9.86838 20.9273 9.5 20 9.5ZM27.875 11.2465C27.1788 11.2465 26.5111 11.5231 26.0188 12.0153C25.5266 12.5076 25.25 13.1753 25.25 13.8715C25.25 14.5677 25.5266 15.2354 26.0188 15.7277C26.5111 16.2199 27.1788 16.4965 27.875 16.4965C28.5712 16.4965 29.2389 16.2199 29.7312 15.7277C30.2234 15.2354 30.5 14.5677 30.5 13.8715C30.5 13.1753 30.2234 12.5076 29.7312 12.0153C29.2389 11.5231 28.5712 11.2465 27.875 11.2465ZM12.125 11.2465C11.4288 11.2465 10.7611 11.5231 10.2688 12.0153C9.77656 12.5076 9.5 13.1753 9.5 13.8715C9.5 14.5677 9.77656 15.2354 10.2688 15.7277C10.7611 16.2199 11.4288 16.4965 12.125 16.4965C12.8212 16.4965 13.4889 16.2199 13.9812 15.7277C14.4734 15.2354 14.75 14.5677 14.75 13.8715C14.75 13.1753 14.4734 12.5076 13.9812 12.0153C13.4889 11.5231 12.8212 11.2465 12.125 11.2465ZM14.75 19.9843C14.7532 19.5222 14.939 19.0803 15.2669 18.7547C15.5947 18.4292 16.038 18.2465 16.5 18.2465H23.5C23.9641 18.2465 24.4092 18.4309 24.7374 18.7591C25.0656 19.0873 25.25 19.5324 25.25 19.9965V25.2465C25.2499 25.7973 25.1637 26.3446 24.9945 26.8687C24.607 28.0565 23.8088 29.0672 22.7432 29.7193C21.6775 30.3715 20.4143 30.6224 19.1803 30.427C17.9464 30.2316 16.8225 29.6027 16.0105 28.6532C15.1985 27.7037 14.7516 26.4958 14.75 25.2465V19.9843ZM13 19.9965C13 19.3577 13.1698 18.761 13.469 18.2465H9.5C9.03587 18.2465 8.59075 18.4309 8.26256 18.7591C7.93437 19.0873 7.75 19.5324 7.75 19.9965V24.3715C7.74976 25.0878 7.9254 25.7932 8.26148 26.4257C8.59756 27.0583 9.08381 27.5986 9.67752 27.9993C10.2712 28.4 10.9543 28.6488 11.6666 28.7239C12.3789 28.7989 13.0988 28.6979 13.763 28.4297C13.2593 27.4438 12.9978 26.3519 13 25.2447V19.9965ZM27 19.9965V25.2465C27 26.3927 26.7253 27.4742 26.237 28.4297C26.9012 28.6979 27.6211 28.7989 28.3334 28.7239C29.0457 28.6488 29.7288 28.4 30.3225 27.9993C30.9162 27.5986 31.4024 27.0583 31.7385 26.4257C32.0746 25.7932 32.2502 25.0878 32.25 24.3715V19.9965C32.25 19.5324 32.0656 19.0873 31.7374 18.7591C31.4092 18.4309 30.9641 18.2465 30.5 18.2465H26.531C26.8285 18.761 27 19.3577 27 19.9965Z" fill="#0099FF"/>
</svg>
